<?xml version="1.0" encoding="UTF-8"?><!DOCTYPE svg PUBLIC "-//W3C//DTD SVG 1.1//EN" "http://www.w3.org/Graphics/SVG/1.1/DTD/svg11.dtd"><svg xmlns="http://www.w3.org/2000/svg"><symbol id="llms-icon-calendar" viewBox="0 0 101.802 100"><path d="M24.876 23.083h1.457c2.214 0 4.008-1.777 4.008-3.968V4.067C30.34 1.875 28.548.1 26.334.1h-1.457c-2.213 0-4.007 1.775-4.007 3.967v15.048c0 2.19 1.793 3.968 4.006 3.968zM76.28 22.985h1.457c2.212 0 4.006-1.777 4.006-3.97V3.97C81.743 1.778 79.95 0 77.737 0H76.28c-2.214 0-4.01 1.777-4.01 3.968V19.017c.002 2.19 1.796 3.968 4.01 3.968z"/><path d="M95.287 7.972H85v12.044c0 4.02-3.26 6.235-7.264 6.235H76.28c-4.006 0-7.267-3.268-7.267-7.286V7.972H33.6v11.09c0 4.02-3.26 7.288-7.267 7.288h-1.456c-4.005 0-7.265-3.27-7.265-7.287V7.973H6.515C2.922 7.972 0 10.902 0 14.505v78.96C0 97.068 2.922 100 6.515 100h88.77c3.593 0 6.517-2.93 6.517-6.535v-78.96c0-3.602-2.924-6.533-6.515-6.533zm0 85.493H6.517V33.837h88.772v59.628h-.003z"/><path d="M54.264 53.84h11.698c.462 0 .84-.38.84-.843v-10.16c0-.465-.378-.842-.84-.842H54.264c-.464 0-.84.376-.84.842v10.16c0 .463.376.843.84.843zM73.355 53.84h11.698c.463 0 .84-.38.84-.843v-10.16c0-.465-.377-.842-.84-.842H73.355c-.464 0-.84.376-.84.842v10.16c0 .463.376.843.84.843zM16.082 70.472H27.78c.463 0 .84-.377.84-.842V59.47c0-.467-.377-.843-.84-.843H16.082c-.463 0-.84.376-.84.843v10.16c0 .465.377.842.84.842zM35.173 70.472H46.87c.464 0 .84-.377.84-.842V59.47c0-.467-.376-.843-.84-.843H35.173c-.464 0-.84.376-.84.843v10.16c0 .465.376.842.84.842z"/><path fill="#777676" d="M54.264 70.472h11.698c.462 0 .84-.377.84-.842V59.47c0-.467-.378-.843-.84-.843H54.264c-.462 0-.84.376-.84.843v10.16c0 .465.378.842.84.842z"/><path d="M73.355 70.472h11.698c.463 0 .84-.377.84-.842V59.47c0-.467-.377-.843-.84-.843H73.355c-.464 0-.84.376-.84.843v10.16c0 .465.376.842.84.842zM27.78 75.26H16.082c-.463 0-.84.376-.84.843v10.16c0 .465.377.84.84.84H27.78c.463 0 .84-.375.84-.84v-10.16c0-.467-.376-.843-.84-.843zM46.87 75.26H35.175c-.465 0-.84.376-.84.843v10.16c0 .465.375.84.84.84H46.87c.464 0 .84-.375.84-.84v-10.16c0-.467-.375-.843-.84-.843zM65.962 75.26H54.264c-.462 0-.84.376-.84.843v10.16c0 .465.378.84.84.84h11.698c.464 0 .84-.375.84-.84v-10.16c0-.467-.376-.843-.84-.843zM85.053 75.26H73.355c-.464 0-.84.376-.84.843v10.16c0 .465.376.84.84.84h11.698c.463 0 .84-.375.84-.84v-10.16c0-.467-.377-.843-.84-.843z"/></symbol><symbol id="llms-icon-checkmark" viewBox="0 0 99.235 79.441"><path d="M23.925 75.434c2.565 2.564 6.01 4.008 9.618 4.008 3.606 0 7.053-1.443 9.618-4.008L95.1 23.496c5.207-5.21 5.608-13.786.56-19.157-5.29-5.69-14.187-5.772-19.557-.322l-36.87 36.87c-3.125 3.126-8.175 3.126-11.3 0l-4.73-4.81c-5.29-5.288-13.947-5.288-19.236 0-5.29 5.292-5.29 13.947 0 19.236l19.958 20.12z"/></symbol><symbol id="llms-icon-circle-empty" viewBox="0 0 100 99.999"><path d="M50 0C22.387 0 0 22.387 0 50c0 27.61 22.387 50 50 50 27.61 0 50-22.39 50-50 0-27.613-22.39-50-50-50zm-.114 89.52c-22.092 0-40-17.91-40-40s17.908-40 40-40c22.09 0 40 17.91 40 40s-17.91 40-40 40z"/></symbol><symbol id="llms-icon-circle" viewBox="0 0 100 100"><path d="M100 50c0 27.61-22.39 50-50 50-27.612 0-50-22.39-50-50C0 22.388 22.388 0 50 0c27.61 0 50 22.388 50 50z"/></symbol><symbol id="llms-icon-close" viewBox="0 0 41.347 41.347"><path d="M39.552 32.456L27.77 20.673 39.55 8.89c2.19-2.19 2.405-5.524.48-7.448l-.128-.13c-1.923-1.923-5.26-1.707-7.448.483L20.673 13.578 8.89 1.794C6.7-.396 3.366-.61 1.442 1.314l-.13.128C-.61 3.365-.394 6.702 1.796 8.89l11.783 11.783L1.795 32.456c-2.19 2.19-2.406 5.526-.482 7.448l.13.13C3.365 41.956 6.7 41.74 8.89 39.55L20.673 27.77 32.456 39.55c2.19 2.19 5.526 2.406 7.448.482l.13-.13c1.923-1.924 1.708-5.258-.482-7.448z"/></symbol><symbol id="llms-icon-course-section" viewBox="14.259 4.771 74.075 59.345"><path d="M85.367 46.827c-1.463-1.462-3.26-2.382-5.146-2.763V30.668c.01-.4-.118-.778-.39-1.052l-.014-.015.01-.01-3.62-2.077-14.956-8.585v-.002l-.045-.045c-.176-.172-.39-.287-.626-.344 1.39-3.62.632-7.878-2.29-10.797-3.955-3.957-10.367-3.957-14.323 0-2.953 2.953-3.7 7.275-2.242 10.924-.112.06-.22.134-.312.227l-.04.043-14.97 8.593-3.61 2.07-.01-.01-.02.02c-.217.217-.34.504-.378.812-.017.14-.017.29 0 .443v13.2c-1.893.382-3.693 1.302-5.16 2.767-3.957 3.955-3.955 10.367 0 14.323 3.956 3.956 10.368 3.956 14.322 0s3.954-10.368 0-14.323c-1.463-1.462-3.26-2.382-5.146-2.763V31.998l17.477-10.032c.03.03.06.064.09.096 1.466 1.466 3.267 2.387 5.162 2.768l-.006 19.23c-1.89.38-3.69 1.3-5.158 2.767-3.954 3.955-3.954 10.367 0 14.323 3.957 3.956 10.368 3.956 14.322 0 3.957-3.956 3.957-10.368 0-14.323-1.46-1.462-3.26-2.382-5.145-2.763v-19.24c1.887-.38 3.686-1.3 5.145-2.762.078-.078.15-.158.227-.235l17.69 10.153v12.08c-1.893.382-3.694 1.302-5.16 2.767-3.954 3.955-3.954 10.367 0 14.323 3.955 3.956 10.368 3.956 14.322 0s3.955-10.37 0-14.323z"/></symbol><symbol id="llms-icon-existing-lesson" viewBox="25.833 5.809 57.167 67.093"><path fill="none" d="M76.76 30.078v29.48h1.49V10.31h-38v2.41h19.148"/><path fill="none" d="M53.61 35.865v-18.52H40.25V59.56h31.88V35.864"/><path fill="none" d="M35.25 17.346h-4.788V68.27H72.13v-4.46H35.25M58.24 18.504v12.73h12.733"/><path d="M35.25 5.81v6.907h-9.417v60.186H76.76V63.81H83v-58H35.25zm36.88 62.46H30.46V17.347H53.61v18.52h18.52v32.403zM58.24 31.236v-12.73l12.732 12.73H58.24zM78.25 59.56h-1.49V30.077l-17.362-17.36H40.25v-2.41h38v49.25z"/></symbol><symbol id="llms-icon-gear" viewBox="0 0 100 100"><path d="M100 56.153v-12.5l-14.94-6.225c-.416-1.172-.854-2.306-1.39-3.42l6.03-15.014-8.84-8.837-14.882 6.128c-1.135-.55-2.294-1.012-3.49-1.44L56.152 0h-12.5l-6.178 14.794c-1.244.44-2.44.903-3.625 1.465l-14.856-5.97-8.837 8.837 6.056 14.722c-.587 1.208-1.062 2.44-1.516 3.71L0 43.848v12.5l14.71 6.128c.452 1.27.94 2.504 1.524 3.713L10.29 81.006l8.837 8.838 14.76-6.078c1.184.562 2.394 1.013 3.637 1.44L43.847 100h12.5l6.188-14.87c1.185-.44 2.356-.9 3.48-1.44l14.99 6.008 8.837-8.838-6.153-14.916c.524-1.12.952-2.26 1.368-3.418L100 56.153zM49.903 68.75c-10.35 0-18.75-8.4-18.75-18.75s8.4-18.75 18.75-18.75 18.75 8.4 18.75 18.75-8.4 18.75-18.75 18.75z"/></symbol><symbol id="llms-icon-lock" viewBox="0 0 76.861 100"><path d="M71.41 40.384h-1.95v-9.12C69.46 14.397 56.074.306 39.345.006c-.457-.008-1.37-.008-1.828 0C20.787.306 7.4 14.396 7.4 31.264v9.12H5.452C2.45 40.384 0 43.484 0 47.31v45.74C0 96.87 2.45 100 5.452 100H71.41c3.003 0 5.45-3.13 5.45-6.95V47.31c0-3.827-2.447-6.926-5.45-6.926zm-26.8 29.75v13.82c0 1.582-1.324 2.922-2.91 2.922h-6.54c-1.584 0-2.908-1.34-2.908-2.922v-13.82c-1.537-1.513-2.43-3.604-2.43-5.917 0-4.382 3.388-8.15 7.694-8.324.458-.018 1.37-.018 1.828 0 4.31.175 7.695 3.942 7.695 8.324 0 2.313-.894 4.404-2.43 5.916zm12.007-29.75H20.244v-9.12c0-10.047 8.166-18.355 18.187-18.355S56.62 21.217 56.62 31.263v9.12z"/></symbol><symbol id="llms-icon-new-lesson" viewBox="25.833 4.352 50.926 60.185"><path d="M25.833 4.352h33.565l17.362 17.36v42.825H25.833V4.352zm4.63 4.63v50.925H72.13V27.5H53.61V8.98H30.464zm27.777 1.157v12.73h12.732L58.24 10.14z"/></symbol><symbol id="llms-icon-paper" viewBox="0 0 100 100.008"><path d="M0 0v100.008h65.267L100 65.268V0H0zm4.65 95.35V4.647h90.7V63.34l-.96.958H64.306v30.09l-.97.964H4.65v-.002z"/><path d="M16.528 15.283h66.945v4.77H16.528zM16.528 30.826h66.945v4.768H16.528zM16.528 46.376h33.375v4.768H16.528zM16.528 61.91h16.685v4.77H16.528z"/></symbol><symbol id="llms-icon-plus" viewBox="0 0 100 100"><path d="M90.897 40.873h-31.8V9.103C59.097 4.08 55.042 0 50.01 0c-5.027 0-9.083 4.078-9.083 9.106v31.788H9.117C4.086 40.894-.004 44.97 0 50c-.002 2.514 1.013 4.817 2.66 6.46 1.646 1.652 3.92 2.695 6.43 2.695h31.837v31.742c0 2.514 1 4.793 2.647 6.437C45.22 98.98 47.49 100 50.004 100c5.028 0 9.093-4.08 9.093-9.103V59.152h31.8c5.028 0 9.108-4.112 9.103-9.14 0-5.027-4.08-9.14-9.103-9.14z"/></symbol><symbol id="llms-icon-question" viewBox="0 0 100 100.001"><path d="M49.333.004C21.72.374-.363 23.06.003 50.674c.37 27.6 23.055 49.69 50.666 49.322 27.604-.372 49.692-23.058 49.325-50.67C99.625 21.725 76.94-.363 49.333.005zm-.15 80.43l-.275-.003c-4.252-.125-7.25-3.258-7.13-7.446.12-4.118 3.19-7.107 7.302-7.107l.247.005c4.37.13 7.335 3.23 7.212 7.54-.123 4.13-3.146 7.013-7.356 7.013zM67.07 44.938c-1 1.42-3.2 3.185-5.97 5.343l-3.05 2.106c-1.676 1.302-2.687 2.527-3.066 3.734-.3.947-.445 1.198-.47 3.13l-.006.49h-11.65l.034-.986c.143-4.053.242-6.437 1.922-8.406 2.634-3.094 8.446-6.836 8.693-6.994.832-.628 1.535-1.342 2.058-2.104 1.223-1.686 1.764-3.014 1.764-4.317 0-1.81-.537-3.483-1.6-4.974-1.02-1.44-2.96-2.167-5.764-2.167-2.782 0-4.687.882-5.826 2.692-1.17 1.862-1.764 3.818-1.764 5.815v.497h-12.01l.02-.52c.31-7.356 2.936-12.654 7.802-15.746 3.058-1.968 6.863-2.965 11.302-2.965 5.81 0 10.717 1.412 14.578 4.196 3.913 2.822 5.898 7.05 5.898 12.563 0 3.084-.974 5.98-2.896 8.614z"/></symbol></svg>