<?xml version="1.0" encoding="UTF-8"?><!DOCTYPE svg PUBLIC "-//W3C//DTD SVG 1.1//EN" "http://www.w3.org/Graphics/SVG/1.1/DTD/svg11.dtd"><svg xmlns="http://www.w3.org/2000/svg"><symbol id="llms-icon-calendar" viewBox="0 0 101.802 100"><path d="M24.876 23.083h1.457c2.214 0 4.008-1.777 4.008-3.968V4.067C30.34 1.875 28.548.1 26.334.1h-1.457c-2.213 0-4.007 1.775-4.007 3.967v15.048c0 2.19 1.793 3.968 4.006 3.968zM76.28 22.985h1.457c2.212 0 4.006-1.777 4.006-3.97V3.97C81.743 1.778 79.95 0 77.737 0H76.28c-2.214 0-4.01 1.777-4.01 3.968V19.017c.002 2.19 1.796 3.968 4.01 3.968z"/><path d="M95.287 7.972H85v12.044c0 4.02-3.26 6.235-7.264 6.235H76.28c-4.006 0-7.267-3.268-7.267-7.286V7.972H33.6v11.09c0 4.02-3.26 7.288-7.267 7.288h-1.456c-4.005 0-7.265-3.27-7.265-7.287V7.973H6.515C2.922 7.972 0 10.902 0 14.505v78.96C0 97.068 2.922 100 6.515 100h88.77c3.593 0 6.517-2.93 6.517-6.535v-78.96c0-3.602-2.924-6.533-6.515-6.533zm0 85.493H6.517V33.837h88.772v59.628h-.003z"/><path d="M54.264 53.84h11.698c.462 0 .84-.38.84-.843v-10.16c0-.465-.378-.842-.84-.842H54.264c-.464 0-.84.376-.84.842v10.16c0 .463.376.843.84.843zM73.355 53.84h11.698c.463 0 .84-.38.84-.843v-10.16c0-.465-.377-.842-.84-.842H73.355c-.464 0-.84.376-.84.842v10.16c0 .463.376.843.84.843zM16.082 70.472H27.78c.463 0 .84-.377.84-.842V59.47c0-.467-.377-.843-.84-.843H16.082c-.463 0-.84.376-.84.843v10.16c0 .465.377.842.84.842zM35.173 70.472H46.87c.464 0 .84-.377.84-.842V59.47c0-.467-.376-.843-.84-.843H35.173c-.464 0-.84.376-.84.843v10.16c0 .465.376.842.84.842z"/><path fill="#777676" d="M54.264 70.472h11.698c.462 0 .84-.377.84-.842V59.47c0-.467-.378-.843-.84-.843H54.264c-.462 0-.84.376-.84.843v10.16c0 .465.378.842.84.842z"/><path d="M73.355 70.472h11.698c.463 0 .84-.377.84-.842V59.47c0-.467-.377-.843-.84-.843H73.355c-.464 0-.84.376-.84.843v10.16c0 .465.376.842.84.842zM27.78 75.26H16.082c-.463 0-.84.376-.84.843v10.16c0 .465.377.84.84.84H27.78c.463 0 .84-.375.84-.84v-10.16c0-.467-.376-.843-.84-.843zM46.87 75.26H35.175c-.465 0-.84.376-.84.843v10.16c0 .465.375.84.84.84H46.87c.464 0 .84-.375.84-.84v-10.16c0-.467-.375-.843-.84-.843zM65.962 75.26H54.264c-.462 0-.84.376-.84.843v10.16c0 .465.378.84.84.84h11.698c.464 0 .84-.375.84-.84v-10.16c0-.467-.376-.843-.84-.843zM85.053 75.26H73.355c-.464 0-.84.376-.84.843v10.16c0 .465.376.84.84.84h11.698c.463 0 .84-.375.84-.84v-10.16c0-.467-.377-.843-.84-.843z"/></symbol><symbol id="llms-icon-checkmark" viewBox="0 0 99.235 79.441"><path d="M23.925 75.434c2.565 2.564 6.01 4.008 9.618 4.008 3.606 0 7.053-1.443 9.618-4.008L95.1 23.496c5.207-5.21 5.608-13.786.56-19.157-5.29-5.69-14.187-5.772-19.557-.322l-36.87 36.87c-3.125 3.126-8.175 3.126-11.3 0l-4.73-4.81c-5.29-5.288-13.947-5.288-19.236 0-5.29 5.292-5.29 13.947 0 19.236l19.958 20.12z"/></symbol><symbol id="llms-icon-circle-empty" viewBox="0 0 100 99.999"><path d="M50 0C22.387 0 0 22.387 0 50c0 27.61 22.387 50 50 50 27.61 0 50-22.39 50-50 0-27.613-22.39-50-50-50zm-.114 89.52c-22.092 0-40-17.91-40-40s17.908-40 40-40c22.09 0 40 17.91 40 40s-17.91 40-40 40z"/></symbol><symbol id="llms-icon-circle" viewBox="0 0 100 100"><path d="M100 50c0 27.61-22.39 50-50 50-27.612 0-50-22.39-50-50C0 22.388 22.388 0 50 0c27.61 0 50 22.388 50 50z"/></symbol><symbol id="llms-icon-close" viewBox="0 0 41.347 41.347"><path d="M39.552 32.456L27.77 20.673 39.55 8.89c2.19-2.19 2.405-5.524.48-7.448l-.128-.13c-1.923-1.923-5.26-1.707-7.448.483L20.673 13.578 8.89 1.794C6.7-.396 3.366-.61 1.442 1.314l-.13.128C-.61 3.365-.394 6.702 1.796 8.89l11.783 11.783L1.795 32.456c-2.19 2.19-2.406 5.526-.482 7.448l.13.13C3.365 41.956 6.7 41.74 8.89 39.55L20.673 27.77 32.456 39.55c2.19 2.19 5.526 2.406 7.448.482l.13-.13c1.923-1.924 1.708-5.258-.482-7.448z"/></symbol><symbol id="llms-icon-course-section" viewBox="14.259 4.771 74.075 59.345"><path d="M85.367 46.827c-1.463-1.462-3.26-2.382-5.146-2.763V30.668c.01-.4-.118-.778-.39-1.052l-.014-.015.01-.01-3.62-2.077-14.956-8.585v-.002l-.045-.045c-.176-.172-.39-.287-.626-.344 1.39-3.62.632-7.878-2.29-10.797-3.955-3.957-10.367-3.957-14.323 0-2.953 2.953-3.7 7.275-2.242 10.924-.112.06-.22.134-.312.227l-.04.043-14.97 8.593-3.61 2.07-.01-.01-.02.02c-.217.217-.34.504-.378.812-.017.14-.017.29 0 .443v13.2c-1.893.382-3.693 1.302-5.16 2.767-3.957 3.955-3.955 10.367 0 14.323 3.956 3.956 10.368 3.956 14.322 0s3.954-10.368 0-14.323c-1.463-1.462-3.26-2.382-5.146-2.763V31.998l17.477-10.032c.03.03.06.064.09.096 1.466 1.466 3.267 2.387 5.162 2.768l-.006 19.23c-1.89.38-3.69 1.3-5.158 2.767-3.954 3.955-3.954 10.367 0 14.323 3.957 3.956 10.368 3.956 14.322 0 3.957-3.956 3.957-10.368 0-14.323-1.46-1.462-3.26-2.382-5.145-2.763v-19.24c1.887-.38 3.686-1.3 5.145-2.762.078-.078.15-.158.227-.235l17.69 10.153v12.08c-1.893.382-3.694 1.302-5.16 2.767-3.954 3.955-3.954 10.367 0 14.323 3.955 3.956 10.368 3.956 14.322 0s3.955-10.37 0-14.323z"/></symbol><symbol id="llms-icon-existing-lesson" viewBox="25.833 5.809 57.167 67.093"><path fill="none" d="M76.76 30.078v29.48h1.49V10.31h-38v2.41h19.148"/><path fill="none" d="M53.61 35.865v-18.52H40.25V59.56h31.88V35.864"/><path fill="none" d="M35.25 17.346h-4.788V68.27H72.13v-4.46H35.25M58.24 18.504v12.73h12.733"/><path d="M35.25 5.81v6.907h-9.417v60.186H76.76V63.81H83v-58H35.25zm36.88 62.46H30.46V17.347H53.61v18.52h18.52v32.403zM58.24 31.236v-12.73l12.732 12.73H58.24zM78.25 59.56h-1.49V30.077l-17.362-17.36H40.25v-2.41h38v49.25z"/></symbol><symbol id="llms-icon-gear" viewBox="0 0 100 100"><path d="M100 56.153v-12.5l-14.94-6.225c-.416-1.172-.854-2.306-1.39-3.42l6.03-15.014-8.84-8.837-14.882 6.128c-1.135-.55-2.294-1.012-3.49-1.44L56.152 0h-12.5l-6.178 14.794c-1.244.44-2.44.903-3.625 1.465l-14.856-5.97-8.837 8.837 6.056 14.722c-.587 1.208-1.062 2.44-1.516 3.71L0 43.848v12.5l14.71 6.128c.452 1.27.94 2.504 1.524 3.713L10.29 81.006l8.837 8.838 14.76-6.078c1.184.562 2.394 1.013 3.637 1.44L43.847 100h12.5l6.188-14.87c1.185-.44 2.356-.9 3.48-1.44l14.99 6.008 8.837-8.838-6.153-14.916c.524-1.12.952-2.26 1.368-3.418L100 56.153zM49.903 68.75c-10.35 0-18.75-8.4-18.75-18.75s8.4-18.75 18.75-18.75 18.75 8.4 18.75 18.75-8.4 18.75-18.75 18.75z"/></symbol><symbol id="llms-icon-graph" viewBox="0 0 98.976 81.71"><path d="M5.822 56.414h-3.01c-.834 0-1.506.673-1.506 1.506v22.285c0 .828.672 1.505 1.505 1.505h3.012c.833 0 1.505-.677 1.505-1.505V57.92c0-.833-.672-1.506-1.505-1.506zM23.89 56.414h-3.01c-.83 0-1.505.673-1.505 1.506v22.285c0 .828.674 1.505 1.505 1.505h3.01c.832 0 1.506-.677 1.506-1.505V57.92c0-.833-.675-1.506-1.505-1.506zM41.96 40.15h-3.012c-.83 0-1.505.677-1.505 1.51v38.545c0 .828.675 1.505 1.505 1.505h3.01c.834 0 1.506-.677 1.506-1.505V41.66c0-.833-.672-1.51-1.505-1.51zM60.028 27.504h-3.01c-.832 0-1.506.673-1.506 1.506v51.195c0 .828.675 1.505 1.505 1.505h3.01c.832 0 1.51-.677 1.51-1.505V29.01c0-.833-.678-1.506-1.51-1.506zM78.098 40.15h-3.013c-.83 0-1.505.677-1.505 1.51v38.545c0 .828.675 1.505 1.505 1.505h3.013c.83 0 1.504-.677 1.504-1.505V41.66c0-.833-.673-1.51-1.504-1.51zM96.166 20.276h-3.01c-.832 0-1.505.673-1.505 1.506v58.423c0 .828.674 1.505 1.505 1.505h3.01c.83 0 1.506-.677 1.506-1.505V21.782c0-.833-.674-1.506-1.504-1.506z"/><path d="M94.66 0c-2.38 0-4.314 1.935-4.314 4.312 0 .915.284 1.76.768 2.455L77.927 25.67c-.42-.14-.87-.218-1.334-.218-1.023 0-1.963.355-2.7.954l-11.17-8.068c.072-.312.116-.643.116-.98 0-2.382-1.94-4.316-4.318-4.316-2.38 0-4.314 1.935-4.314 4.316 0 .39.057.77.154 1.137L42.26 27.908c-.55-.26-1.16-.403-1.807-.403-2.377 0-4.312 1.93-4.316 4.31l-10.897 5.81c-.76-.677-1.76-1.084-2.854-1.084-1.614 0-3.02.886-3.764 2.204L8.544 37.18c-.4-1.967-2.145-3.45-4.228-3.45C1.936 33.73 0 35.664 0 38.042c0 2.382 1.937 4.32 4.316 4.32 1.614 0 3.02-.894 3.764-2.212l10.075 1.57c.404 1.97 2.146 3.453 4.23 3.453 2.38 0 4.316-1.94 4.316-4.32 0-.19-.017-.383-.042-.573l10.548-5.622c.794.902 1.952 1.475 3.247 1.475 2.38 0 4.317-1.935 4.317-4.312 0-.623-.137-1.222-.38-1.76l11.73-9.12c.69.46 1.513.73 2.402.73.944 0 1.816-.304 2.527-.82l11.296 8.16c-.043.244-.07.5-.07.76 0 2.382 1.934 4.316 4.315 4.316 2.38 0 4.317-1.935 4.317-4.316 0-.81-.23-1.57-.62-2.217L93.583 8.49c.346.09.703.143 1.076.143 2.38 0 4.315-1.935 4.315-4.316S97.042 0 94.66 0z"/></symbol><symbol id="llms-icon-lightbulb" viewBox="0 0 98.03 132.97"><path d="M73.946 95.57H24.083c-2.298 0-4.155-1.857-4.155-4.155s1.857-4.155 4.155-4.155h49.862c2.298 0 4.154 1.857 4.154 4.155s-1.856 4.155-4.154 4.155zm4.154 8.314c0-2.3-1.856-4.156-4.154-4.156H24.083c-2.298 0-4.155 1.855-4.155 4.156 0 2.298 1.857 4.155 4.155 4.155h49.862c2.3 0 4.155-1.858 4.155-4.156zm-8.31 12.466c0-2.296-1.856-4.156-4.154-4.156H32.394c-2.298 0-4.155 1.86-4.155 4.156 0 2.298 1.856 4.154 4.154 4.154h33.242c2.297 0 4.155-1.857 4.155-4.154zM18.556 82.115c1.707-1.53 1.843-4.16.302-5.868C4.102 59.897 4.947 35.1 20.78 19.8c15.834-15.306 40.644-15.306 56.47 0 15.836 15.3 16.678 40.095 1.923 56.447-1.544 1.707-1.405 4.337.3 5.868 1.707 1.535 4.336 1.396 5.87-.3 17.77-19.695 16.757-49.562-2.312-67.987-19.065-18.438-48.95-18.438-68.025 0C-4.07 32.253-5.085 62.12 12.69 81.815c.82.91 1.944 1.37 3.083 1.37.99.002 1.99-.355 2.782-1.07zm42.925 46.7c0-2.3-1.856-4.156-4.154-4.156H40.704c-2.298 0-4.155 1.856-4.155 4.154 0 2.296 1.856 4.155 4.154 4.155h16.622c2.298 0 4.154-1.86 4.154-4.156z"/></symbol><symbol id="llms-icon-lock" viewBox="0 0 76.861 100"><path d="M71.41 40.384h-1.95v-9.12C69.46 14.397 56.074.306 39.345.006c-.457-.008-1.37-.008-1.828 0C20.787.306 7.4 14.396 7.4 31.264v9.12H5.452C2.45 40.384 0 43.484 0 47.31v45.74C0 96.87 2.45 100 5.452 100H71.41c3.003 0 5.45-3.13 5.45-6.95V47.31c0-3.827-2.447-6.926-5.45-6.926zm-26.8 29.75v13.82c0 1.582-1.324 2.922-2.91 2.922h-6.54c-1.584 0-2.908-1.34-2.908-2.922v-13.82c-1.537-1.513-2.43-3.604-2.43-5.917 0-4.382 3.388-8.15 7.694-8.324.458-.018 1.37-.018 1.828 0 4.31.175 7.695 3.942 7.695 8.324 0 2.313-.894 4.404-2.43 5.916zm12.007-29.75H20.244v-9.12c0-10.047 8.166-18.355 18.187-18.355S56.62 21.217 56.62 31.263v9.12z"/></symbol><symbol id="llms-icon-media" viewBox="0 0 100.438 76.853"><path d="M89.695 0h-78.95C4.82 0 0 4.828 0 10.75v55.36C0 72.03 4.82 76.85 10.746 76.85h78.95c5.918 0 10.74-4.82 10.74-10.743V10.75C100.44 4.828 95.615 0 89.697 0zm5.627 66.11c0 3.105-2.52 5.635-5.627 5.635h-78.95c-3.1 0-5.63-2.53-5.63-5.636V10.75c0-3.105 2.53-5.635 5.63-5.635h78.95c3.098 0 5.627 2.53 5.627 5.635v55.36z"/><path d="M50.22 12.917c-14.092 0-25.51 11.426-25.51 25.513 0 14.087 11.418 25.505 25.51 25.505 14.086 0 25.512-11.41 25.512-25.505 0-14.087-11.426-25.513-25.513-25.513zM43.3 52.27V24.6l18.485 13.83L43.3 52.27z"/></symbol><symbol id="llms-icon-new-lesson" viewBox="25.833 4.352 50.926 60.185"><path d="M25.833 4.352h33.565l17.362 17.36v42.825H25.833V4.352zm4.63 4.63v50.925H72.13V27.5H53.61V8.98H30.464zm27.777 1.157v12.73h12.732L58.24 10.14z"/></symbol><symbol id="llms-icon-paper" viewBox="0 0 100 100.008"><path d="M0 0v100.008h65.267L100 65.268V0H0zm4.65 95.35V4.647h90.7V63.34l-.96.958H64.306v30.09l-.97.964H4.65v-.002z"/><path d="M16.528 15.283h66.945v4.77H16.528zM16.528 30.826h66.945v4.768H16.528zM16.528 46.376h33.375v4.768H16.528zM16.528 61.91h16.685v4.77H16.528z"/></symbol><symbol id="llms-icon-papers" viewBox="0 0 86.048 100.557"><path d="M83.773 25.916H81.5c-1.258 0-2.275 1.02-2.275 2.28 0 1.25 1.018 2.272 2.274 2.272v65.545H30.47c-.002-1.26-1.02-2.28-2.276-2.28-1.255 0-2.274 1.02-2.274 2.28v2.27c0 1.26 1.02 2.273 2.274 2.273h55.578c1.257 0 2.274-1.013 2.274-2.272V28.196c0-1.26-1.018-2.28-2.275-2.28z"/><path d="M77.41 89.647V19.55c0-1.252-1.02-2.273-2.277-2.273H72.86c-1.256 0-2.275 1.02-2.275 2.272 0 1.258 1.018 2.28 2.274 2.28v65.536H21.83c0-1.25-1.02-2.272-2.276-2.272-1.255 0-2.274 1.02-2.274 2.28v2.272c0 1.25 1.02 2.272 2.274 2.272h55.578c1.256 0 2.275-1.02 2.275-2.27z"/><path d="M68.768 81.008V10.91c0-1.258-1.02-2.27-2.274-2.27h-7.54c-1.257 0-2.276 1.012-2.276 2.27 0 1.26 1.02 2.28 2.276 2.28h5.263V78.73H13.19c0-1.25-1.02-2.272-2.273-2.272-1.26 0-2.276 1.02-2.276 2.272v2.28c0 1.25 1.018 2.272 2.277 2.272h55.576c1.255 0 2.275-1.02 2.275-2.272z"/><path d="M60.127 72.362V18.908c0-.08-.004-.15-.01-.23-.006-.055-.017-.11-.026-.158 0-.024-.003-.04-.007-.063-.012-.063-.03-.126-.05-.19l-.004-.024c-.02-.063-.044-.126-.07-.19-.002 0-.004-.016-.006-.016-.025-.063-.053-.12-.08-.174-.005-.008-.01-.024-.015-.032-.028-.046-.06-.094-.088-.142l-.03-.047c-.027-.04-.06-.078-.09-.125-.015-.016-.026-.032-.042-.056-.036-.04-.07-.08-.11-.12-.013-.016-.024-.032-.04-.04L42.826.665c-.014-.016-.03-.023-.043-.04-.04-.04-.078-.08-.12-.11-.017-.017-.04-.033-.056-.04-.04-.033-.08-.064-.123-.096-.016-.01-.03-.017-.045-.024-.05-.032-.096-.063-.147-.087-.01-.01-.02-.017-.032-.017-.054-.032-.11-.056-.17-.08-.005-.007-.013-.007-.02-.007-.062-.032-.124-.048-.187-.07-.008 0-.016 0-.024-.01L41.67.04c-.02 0-.04 0-.06-.008l-.163-.024C41.37 0 41.297 0 41.22 0H2.273C1.02 0 0 1.014 0 2.272v70.09c0 1.258 1.02 2.28 2.274 2.28h55.578c1.257 0 2.275-1.02 2.275-2.28zM43.493 7.768l8.866 8.86h-8.867v-8.86zM4.55 70.088V4.546h34.393v14.363c0 1.25 1.02 2.272 2.274 2.272h14.36v48.91H4.55z"/></symbol><symbol id="llms-icon-plus" viewBox="0 0 100 100"><path d="M90.897 40.873h-31.8V9.103C59.097 4.08 55.042 0 50.01 0c-5.027 0-9.083 4.078-9.083 9.106v31.788H9.117C4.086 40.894-.004 44.97 0 50c-.002 2.514 1.013 4.817 2.66 6.46 1.646 1.652 3.92 2.695 6.43 2.695h31.837v31.742c0 2.514 1 4.793 2.647 6.437C45.22 98.98 47.49 100 50.004 100c5.028 0 9.093-4.08 9.093-9.103V59.152h31.8c5.028 0 9.108-4.112 9.103-9.14 0-5.027-4.08-9.14-9.103-9.14z"/></symbol><symbol id="llms-icon-question" viewBox="0 0 100 100.001"><path d="M49.333.004C21.72.374-.363 23.06.003 50.674c.37 27.6 23.055 49.69 50.666 49.322 27.604-.372 49.692-23.058 49.325-50.67C99.625 21.725 76.94-.363 49.333.005zm-.15 80.43l-.275-.003c-4.252-.125-7.25-3.258-7.13-7.446.12-4.118 3.19-7.107 7.302-7.107l.247.005c4.37.13 7.335 3.23 7.212 7.54-.123 4.13-3.146 7.013-7.356 7.013zM67.07 44.938c-1 1.42-3.2 3.185-5.97 5.343l-3.05 2.106c-1.676 1.302-2.687 2.527-3.066 3.734-.3.947-.445 1.198-.47 3.13l-.006.49h-11.65l.034-.986c.143-4.053.242-6.437 1.922-8.406 2.634-3.094 8.446-6.836 8.693-6.994.832-.628 1.535-1.342 2.058-2.104 1.223-1.686 1.764-3.014 1.764-4.317 0-1.81-.537-3.483-1.6-4.974-1.02-1.44-2.96-2.167-5.764-2.167-2.782 0-4.687.882-5.826 2.692-1.17 1.862-1.764 3.818-1.764 5.815v.497h-12.01l.02-.52c.31-7.356 2.936-12.654 7.802-15.746 3.058-1.968 6.863-2.965 11.302-2.965 5.81 0 10.717 1.412 14.578 4.196 3.913 2.822 5.898 7.05 5.898 12.563 0 3.084-.974 5.98-2.896 8.614z"/></symbol><symbol id="llms-icon-rightarrow" viewBox="0 0 58.862 100.225"><path d="M57.36 46.492L12.37 1.508c-2-2.01-5.25-2.01-7.247 0L1.5 5.124c-2 2.003-2 5.25 0 7.247l37.737 37.744L1.5 87.844c-2 2.01-2 5.252 0 7.262l3.624 3.616c1.996 2.004 5.247 2.004 7.247 0l44.99-44.984c2.003-2.004 2.003-5.25 0-7.246z"/></symbol><symbol id="llms-icon-search" viewBox="0 0 98.727 98.726"><path d="M96.31 84.64L74.86 63.195c-.112-.11-.246-.192-.366-.303 4.222-6.397 6.685-14.062 6.685-22.304C81.18 18.174 63.003 0 40.59 0 18.174 0 0 18.174 0 40.588s18.17 40.594 40.588 40.594c8.243 0 15.906-2.466 22.306-6.686.106.12.187.252.3.363l21.45 21.445c3.223 3.227 8.44 3.227 11.667 0 3.223-3.216 3.223-8.44 0-11.665zM40.59 67.105c-14.647 0-26.52-11.872-26.52-26.518S25.943 14.07 40.59 14.07c14.643 0 26.515 11.872 26.515 26.518S55.233 67.105 40.59 67.105z"/></symbol><symbol id="llms-icon-target" viewBox="0 0 101.105 101.103"><path d="M76.976 34.705l-4.366 4.37c2.05 3.772 3.218 8.064 3.218 12.644 0 14.575-11.87 26.443-26.444 26.443S22.94 66.295 22.94 51.72c0-14.576 11.868-26.442 26.443-26.442 4.58 0 8.873 1.167 12.646 3.216l4.368-4.37c-4.954-3.068-10.774-4.832-17.015-4.832-17.884 0-32.428 14.544-32.428 32.427 0 17.88 14.544 32.427 32.428 32.427 17.88 0 32.427-14.544 32.427-32.428 0-6.24-1.765-12.062-4.834-17.015zM64.84 46.855l-5.25 5.237c-.194 5.48-4.685 9.846-10.207 9.846-5.643 0-10.22-4.577-10.22-10.22 0-5.52 4.37-10.01 9.848-10.203l5.253-5.24c-1.544-.495-3.174-.765-4.878-.765-8.937 0-16.208 7.276-16.208 16.208 0 8.936 7.27 16.21 16.208 16.21 8.932 0 16.206-7.274 16.206-16.21 0-1.688-.255-3.333-.75-4.863zm26.88-20.53l-4.373 4.37c3.46 6.225 5.433 13.394 5.433 21.024 0 23.928-19.467 43.397-43.396 43.397-23.928 0-43.398-19.47-43.398-43.398 0-23.926 19.47-43.398 43.398-43.398 7.632 0 14.8 1.976 21.024 5.435l4.372-4.37c-7.425-4.475-16.118-7.05-25.396-7.05C22.148 2.337 0 24.482 0 51.72c0 27.234 22.148 49.383 49.383 49.383S98.766 78.955 98.766 51.72c0-9.28-2.575-17.972-7.047-25.396zm-6.487.128l-5.716-.636L51.37 53.963c-1.168 1.17-3.064 1.17-4.233 0-1.167-1.166-1.167-3.06 0-4.23l28.146-28.147-.632-5.71L90.524 0l2.115 8.466 8.467 2.113-15.872 15.873z"/></symbol><symbol id="llms-icon-users" viewBox="0 0 100.188 84.312"><path d="M60.464 14.467c4.635 2.91 7.88 7.823 8.467 13.527 1.895.887 3.992 1.393 6.21 1.393 8.12 0 14.698-6.582 14.698-14.698S83.26 0 75.14 0c-8.036 0-14.556 6.458-14.676 14.467zm-9.63 30.088c8.117 0 14.7-6.573 14.7-14.69S58.95 15.17 50.833 15.17 36.143 21.75 36.143 29.866s6.577 14.69 14.693 14.69zm6.228 1.002H44.6c-10.374 0-18.814 8.436-18.814 18.814v15.25l.04.238 1.05.328c9.904 3.087 18.5 4.125 25.583 4.125 13.828 0 21.837-3.946 22.334-4.195l.984-.496h.098V64.37c.01-10.377-8.436-18.813-18.814-18.813zM81.375 30.39H69.01c-.133 4.95-2.253 9.41-5.592 12.612 9.22 2.74 15.966 11.292 15.966 21.395v4.692c12.22-.444 19.262-3.913 19.723-4.144l.98-.497h.102V49.202c-.002-10.378-8.44-18.814-18.815-18.814zM25.05 29.386c2.877 0 5.552-.834 7.818-2.27.723-4.703 3.242-8.8 6.834-11.595.013-.275.044-.55.044-.825C39.748 6.582 33.166 0 25.05 0c-8.112 0-14.69 6.582-14.69 14.698s6.578 14.69 14.69 14.69zm13.2 13.615c-3.328-3.193-5.43-7.628-5.585-12.55-.46-.027-.91-.063-1.38-.063H18.814C8.44 30.39 0 38.824 0 49.202V64.45l.04.24 1.05.328c7.95 2.475 15.032 3.62 21.192 3.982v-4.604c0-10.102 6.74-18.652 15.967-21.394z"/></symbol></svg>