<?xml version="1.0" standalone="no"?>
<!DOCTYPE svg PUBLIC "-//W3C//DTD SVG 1.1//EN" "http://www.w3.org/Graphics/SVG/1.1/DTD/svg11.dtd">
<svg xmlns="http://www.w3.org/2000/svg">
<defs >
<font id="UnifrakturMaguntia" horiz-adv-x="1062" ><font-face
    font-family="UnifrakturMaguntia"
    units-per-em="2048"
    panose-1="2 11 6 3 5 3 2 2 2 4"
    ascent="1607"
    descent="-513"
    alphabetic="0" />
<glyph unicode=" " glyph-name="space" horiz-adv-x="600" />
<glyph unicode="!" glyph-name="exclam" horiz-adv-x="476" d="M93 159Q171 209 224 291Q240 315 253 291Q300 202 384 159Q412 145 384 131Q296 88 253 0Q238 -29 224 0Q181 80 93 131Q69 143 93 159ZM76 1306Q163 1361 222 1453Q239 1479 254 1453Q306 1353
400 1306Q431 1290 400 1274Q302 1083 254 507Q237 475 222 507Q174 1074 76 1274Q49 1288 76 1306Z" />
<glyph unicode="&quot;" glyph-name="quotedbl" horiz-adv-x="825" d="M459 1304Q537 1354 590 1436Q606 1460 619 1436Q666 1347 750 1304Q758 1300 758 1290Q758 1206 699 1093T585 907Q576 897 565 902Q550 911 556 921Q617 1015 606 1112T459 1276Q432 1286
459 1304ZM76 1304Q154 1354 207 1436Q223 1460 236 1436Q283 1347 367 1304Q375 1300 375 1290Q375 1206 316 1093T202 907Q193 897 182 902Q167 911 173 921Q234 1015 223 1112T76 1276Q49 1286 76 1304Z" />
<glyph unicode="#" glyph-name="numbersign" horiz-adv-x="1055" d="M929 457H739L693 144H544L589 457H406L361 144H210L255 457H66V614H270L307 873H125V1030H322L355 1311H506L473 1030H656L688 1311H837L805 1030H982V873H790L753 614H929V457ZM459 873L422
614H605L641 873H459Z" />
<glyph unicode="$" glyph-name="dollar" horiz-adv-x="858" d="M467 -93H392V105Q312 119 240 166T120 291T72 465Q72 518 94 552T160 587Q187 587 205 572T232 530T242 475Q242 447 226 396Q209 353 209 331Q209 281 243 246T326 192T414 172Q464 172 509 196T582
264T611 370Q611 425 595 459T535 530T398 621Q327 665 283 694T197 769T131 873T107 1011Q107 1088 128 1149T188 1257T279 1334T392 1372V1559H467V1372Q519 1369 570 1344T662 1274T728 1173T752 1054Q752 1006 731 975T669 943Q632 943 608 978T584 1059Q584
1081 594 1127T604 1192Q604 1253 553 1279T444 1305Q369 1305 314 1256T258 1122Q258 1037 314 990T503 864T705 706T774 492Q774 388 735 305T626 170T467 105V-93Z" />
<glyph unicode="%" glyph-name="percent" horiz-adv-x="1461" d="M1114 768Q994 768 910 659T826 397Q826 243 910 135T1114 27Q1234 27 1318 135T1403 397Q1403 550 1319 659T1114 768ZM1114 705Q1178 705 1190 615T1203 397Q1203 269 1191 179T1114 89Q1050
89 1039 179T1027 397Q1027 525 1038 615T1114 705ZM1345 1441L1375 1415Q1386 1403 1376 1392L198 31Q187 18 175 29L145 55Q133 64 143 78L1322 1439Q1330 1451 1345 1441ZM343 1434Q462 1434 546 1326T631 1064Q631 910 547 802T343 693Q223 693 139 801T55
1064Q55 1217 139 1325T343 1434ZM343 1371Q279 1371 267 1281T255 1064Q255 936 267 846T343 756Q406 756 419 846T432 1064Q432 1191 419 1281T343 1371Z" />
<glyph unicode="&amp;" glyph-name="ampersand" horiz-adv-x="1174" d="M265 438Q265 357 294 270T378 127T501 70Q532 70 570 83T632 118Q575 198 531 276T447 441T365 630Q265 581 265 438ZM777 739H1107V683Q1063 670 1042 657T1000 605T956 487Q909 322 830
222Q887 109 967 109Q1022 109 1093 180L1119 150Q1089 100 1051 61T967 1T870 -20Q815 -20 774 1T685 67Q568 -20 413 -20Q228 -20 147 82T66 307Q66 440 145 539T338 699Q283 841 283 945Q283 1041 324 1113T434 1222T576 1260Q633 1260 686 1234T772 1156T806
1032Q806 965 770 911T690 822T572 739Q593 683 621 620T677 500T731 392T791 280Q841 334 870 405T899 551Q899 618 866 650T777 683V739ZM673 1060Q673 1124 648 1164T573 1205Q525 1205 499 1166T473 1065Q473 960 544 802Q604 844 638 910T673 1060Z" />
<glyph unicode="&apos;" glyph-name="quotesingle" horiz-adv-x="411" d="M60 1304Q138 1354 191 1436Q207 1460 220 1436Q267 1347 351 1304Q359 1300 359 1290Q359 1206 300 1093T186 907Q177 897 166 902Q151 911 157 921Q218 1015 207 1112T60 1276Q33 1286 60 1304Z" />
<glyph unicode="(" glyph-name="parenleft" horiz-adv-x="509" d="M442 -52Q269 -42 150 200T30 780Q30 1116 149 1357T442 1612Q447 1613 453 1608Q485 1575 443 1570Q366 1562 312 1467T258 780T312 94T443 -9Q457 -11 459 -26T453 -49Q448 -53 442 -52Z" />
<glyph unicode=")" glyph-name="parenright" horiz-adv-x="509" d="M73 1606Q245 1596 365 1354T485 775Q485 438 365 197T73 -58Q68 -59 62 -54Q30 -21 71 -16Q148 -7 202 87T256 774T202 1460T71 1563Q58 1566 56 1580T62 1603Q67 1607 73 1606Z" />
<glyph unicode="*" glyph-name="asterisk" horiz-adv-x="720" d="M219 1396Q283 1436 328 1505Q341 1529 352 1505Q393 1429 468 1388Q492 1376 468 1364Q388 1319 366 1191Q364 1183 373 1177Q382 1173 389 1179Q496 1265 492 1359Q489 1381 513 1370Q578 1334
662 1331Q686 1328 674 1309Q630 1236 630 1150Q630 1123 610 1138Q530 1185 408 1139Q399 1137 399 1127Q399 1117 408 1114Q534 1064 614 1114Q635 1127 635 1103Q637 1025 675 953Q684 932 663 932Q576 935 503 891Q482 877 482 902Q484 992 389 1073Q381 1077
374 1075Q364 1067 367 1060Q387 932 468 893Q489 882 468 869Q392 827 352 751Q342 731 328 751Q281 820 219 861Q195 874 219 885Q303 924 323 1066Q324 1074 316 1080Q309 1084 302 1079Q196 995 202 903Q204 877 181 891Q107 934 22 932Q0 932 9 954Q47 1027
50 1103Q50 1129 70 1115Q146 1061 278 1114Q287 1117 287 1127Q287 1137 278 1139Q152 1188 75 1138Q54 1124 54 1150Q55 1234 10 1309Q-3 1330 22 1330Q106 1334 171 1370Q194 1380 192 1358Q184 1261 302 1173Q310 1167 316 1172Q324 1177 323 1186Q304 1327
219 1372Q195 1382 219 1396Z" />
<glyph unicode="+" glyph-name="plus" horiz-adv-x="810" d="M751 731V639H462V313H372V639H77V731H372V1037H462V731H751Z" />
<glyph unicode="," glyph-name="comma" horiz-adv-x="376" d="M36 159Q114 209 167 291Q183 315 196 291Q243 202 327 159Q335 155 335 145Q335 61 276 -52T162 -238Q153 -248 142 -243Q127 -234 133 -224Q194 -130 183 -33T36 131Q9 141 36 159Z" />
<glyph unicode="-" glyph-name="hyphen" horiz-adv-x="610" d="M214 767L605 805Q613 806 617 799Q620 793 617 787L561 675Q555 666 549 666L156 628Q147 628 145 633Q140 639 145 647L201 758Q205 765 214 767ZM127 546L519 584Q526 585 531 579Q534 572 531
566L474 454Q470 446 462 446L70 407Q62 407 59 413Q54 418 59 426L115 538Q119 546 127 546Z" />
<glyph unicode="." glyph-name="period" horiz-adv-x="411" d="M53 159Q131 209 184 291Q200 315 213 291Q260 202 344 159Q372 145 344 131Q256 88 213 0Q198 -29 184 0Q141 80 53 131Q29 143 53 159Z" />
<glyph unicode="/" glyph-name="slash" horiz-adv-x="1069" d="M993 1525L1027 1505Q1040 1495 1032 1482L125 -72Q117 -87 103 -79L69 -59Q55 -52 63 -36L970 1519Q976 1532 993 1525Z" />
<glyph unicode="0" glyph-name="zero" horiz-adv-x="966" d="M483 1432Q669 1432 800 1219T932 706Q932 405 801 193T483 -19Q296 -19 165 193T34 706Q34 1006 165 1219T483 1432ZM481 48Q604 48 629 256T655 708T626 1160T481 1369Q364 1369 343 1162T321 703T339
250T481 48Z" />
<glyph unicode="1" glyph-name="one" horiz-adv-x="657" d="M70 1018Q41 989 31 1007T39 1042Q240 1209 374 1394Q379 1401 387 1401H432Q449 1401 449 1385L447 328Q448 54 614 52Q633 50 632 26T611 1H92Q69 1 69 27T91 54Q237 48 237 334L239 925Q239 1137 70 1018Z" />
<glyph unicode="2" glyph-name="two" horiz-adv-x="920" d="M54 1000Q71 1163 176 1278T463 1398Q831 1398 865 1060Q881 889 807 776T638 572L293 238Q283 229 288 220T305 210H795Q809 210 811 225L828 374Q831 401 856 400T881 363L848 11Q846 -3 832 -3H50Q39
-3 35 4T37 22L439 539Q642 800 614 1007T387 1222Q263 1217 195 1139T112 987Q106 955 76 957T54 1000Z" />
<glyph unicode="3" glyph-name="three" horiz-adv-x="955" d="M91 1196Q137 1287 239 1355T489 1422Q618 1422 729 1362T862 1155Q872 1003 805 940T649 850Q915 774 919 483Q922 281 780 135T469 -13Q301 -14 188 39T44 234Q31 287 59 332T150 379Q224 382 254
323T282 184Q287 120 328 76T467 38Q594 44 648 137T689 365Q670 593 563 646T322 692Q289 689 287 713T313 746Q429 778 512 846T613 1039Q628 1153 560 1227T371 1304Q293 1306 236 1265T132 1172Q108 1147 92 1157T91 1196Z" />
<glyph unicode="4" glyph-name="four" horiz-adv-x="937" d="M689 1378V578Q689 563 704 563H893Q909 563 909 546V437Q909 420 893 420H704Q689 420 689 403V328Q688 52 854 52Q874 50 873 25Q873 1 853 1H332Q310 1 310 27Q311 54 332 54Q480 52 479 334V403Q479
410 474 415Q470 420 463 420H36Q20 420 20 437V558Q20 560 22 566L549 1387Q556 1394 563 1394H673Q689 1394 689 1378ZM120 563H463Q480 563 480 578V1113Q480 1126 468 1128Q457 1133 450 1122L106 587Q101 579 106 571Q110 563 120 563Z" />
<glyph unicode="5" glyph-name="five" horiz-adv-x="954" d="M709 471Q688 755 417 758Q279 761 151 628Q110 596 110 644Q140 815 165 1006T174 1388Q148 1437 219 1417Q402 1360 541 1370T786 1431Q799 1437 806 1429T808 1411Q745 1260 616 1202T263 1186Q243
1189 243 1170Q236 1051 216 935Q216 914 233 918Q349 975 483 970Q696 962 810 817T921 483Q924 281 782 135T471 -13Q303 -14 192 42T46 234Q33 287 61 332T152 379Q214 379 248 325T284 184Q289 120 330 76T469 38Q596 44 662 164T709 471Z" />
<glyph unicode="6" glyph-name="six" horiz-adv-x="930" d="M614 1254Q610 1301 583 1344T502 1391Q376 1397 345 1246T308 1012Q298 845 300 692Q399 932 573 925Q692 920 794 814T891 503Q885 301 757 143T494 -15Q269 -12 151 169T52 716Q67 981 141 1135T303
1363Q391 1438 527 1438Q665 1438 755 1362Q825 1302 852 1204Q865 1150 837 1105T746 1060Q683 1058 646 1123T614 1254ZM496 40Q584 38 623 145T660 395Q657 567 624 696T494 821Q350 813 308 489Q316 358 328 262Q339 153 372 97T496 40Z" />
<glyph unicode="7" glyph-name="seven" horiz-adv-x="880" d="M32 1049L120 1387Q121 1398 136 1398H841Q850 1398 853 1392Q857 1385 856 1378L417 12Q414 0 402 0H160Q150 0 146 7Q141 14 146 24L724 1171Q727 1179 723 1187Q718 1195 710 1195Q612 1195 515
1195T319 1195Q319 1195 318 1195T233 1194T83 1036Q78 1022 64 1026L45 1028Q37 1029 34 1036Q32 1040 32 1049Z" />
<glyph unicode="8" glyph-name="eight" horiz-adv-x="957" d="M281 745Q75 884 80 1107Q81 1240 199 1340T495 1436Q652 1436 750 1349T849 1130Q849 1034 786 964Q732 904 655 859Q646 854 646 844Q646 838 648 836T655 830Q795 741 852 615Q912 483 901 360Q872
165 743 83T446 0Q277 0 156 96T34 367Q34 493 107 582Q176 667 282 730Q286 732 286 737Q286 742 281 745ZM335 698Q168 570 186 363Q182 198 261 121T449 43Q557 43 637 103T723 334Q727 445 633 527T446 655Q381 687 357 699Q352 702 346 702Q339 702 335 698ZM725
1127Q723 1394 495 1398Q390 1398 317 1334T246 1176Q247 1074 349 1009Q444 950 558 886Q563 882 576 882T593 888Q702 974 725 1127Z" />
<glyph unicode="9" glyph-name="nine" horiz-adv-x="930" d="M315 184Q318 136 345 93T427 47Q553 40 583 191T620 427Q630 584 629 746Q529 505 356 513Q236 517 135 624T38 935Q43 1136 171 1295T435 1454Q659 1451 778 1269T876 722Q861 456 787 302T626 75Q537
0 402 0Q263 0 174 76Q103 134 77 234Q63 287 91 332T183 379Q245 379 281 324T315 184ZM433 1398Q344 1399 305 1292T269 1043Q272 871 309 745T443 624Q586 631 621 949Q612 1079 601 1176Q589 1284 556 1341T433 1398Z" />
<glyph unicode=":" glyph-name="colon" horiz-adv-x="411" d="M53 817Q131 867 184 949Q200 973 213 949Q260 860 344 817Q372 803 344 789Q256 746 213 658Q198 629 184 658Q141 738 53 789Q29 801 53 817ZM53 159Q131 209 184 291Q200 315 213 291Q260 202 344
159Q372 145 344 131Q256 88 213 0Q198 -29 184 0Q141 80 53 131Q29 143 53 159Z" />
<glyph unicode=";" glyph-name="semicolon" horiz-adv-x="351" d="M36 159Q114 209 167 291Q183 315 196 291Q243 202 327 159Q335 155 335 145Q335 61 276 -52T162 -238Q153 -248 142 -243Q127 -234 133 -224Q194 -130 183 -33T36 131Q9 141 36 159ZM53 817Q131
867 184 949Q200 973 213 949Q260 860 344 817Q372 803 344 789Q256 746 213 658Q198 629 184 658Q141 738 53 789Q29 801 53 817Z" />
<glyph unicode="&lt;" glyph-name="less" horiz-adv-x="591" d="M505 956H544Q556 956 559 947Q563 938 557 930L269 588Q258 577 269 568L557 226Q563 217 559 209Q556 200 544 200H505Q497 200 495 203L15 565Q8 570 8 578Q8 584 15 591L495 953Q498 956 505 956Z" />
<glyph unicode="=" glyph-name="equal" horiz-adv-x="793" d="M63 537H736Q752 537 752 520V406Q752 389 736 389H63Q47 389 47 406V520Q47 537 63 537ZM63 834H736Q752 834 752 817V703Q752 686 736 686H63Q47 686 47 703V817Q47 834 63 834Z" />
<glyph unicode="&gt;" glyph-name="greater" horiz-adv-x="591" d="M66 200H27Q15 200 12 209Q8 218 14 226L302 568Q313 579 302 588L14 930Q8 939 12 947Q15 956 27 956H66Q74 956 76 953L556 591Q563 586 563 578Q563 572 556 565L76 203Q73 200 66 200Z" />
<glyph unicode="?" glyph-name="question" horiz-adv-x="933" d="M240 1202Q320 1202 319 1104Q319 1077 295 1051T227 1025Q74 1022 67 1180Q75 1448 465 1457Q842 1459 841 1109Q837 956 757 888T582 789T408 720T332 613Q332 547 384 497T500 449Q566 450 615
492T677 604Q687 628 709 626Q730 621 720 596Q713 526 656 467T500 408Q386 407 296 457T187 609Q163 734 215 813T367 936T551 1021T637 1164Q630 1409 444 1413Q352 1412 277 1365T200 1266Q200 1201 240 1202ZM342 159Q420 209 473 291Q489 315 502 291Q549
202 633 159Q661 145 633 131Q545 88 502 0Q487 -29 473 0Q430 80 342 131Q318 143 342 159Z" />
<glyph unicode="@" glyph-name="at" horiz-adv-x="1245" d="M1184 148Q1205 148 1216 141T1221 123Q1192 36 1135 -38T995 -171Q917 -226 825 -254T629 -283Q498 -283 391 -242T202 -116Q33 54 33 303Q33 391 54 472T118 631Q158 702 219 760T356 863Q428 903
510 925T676 948Q929 948 1049 809Q1172 665 1172 490Q1172 326 1073 172Q973 19 780 19Q645 19 644 122Q534 19 442 19Q367 19 328 71Q287 124 287 187Q287 264 320 343T419 500Q482 575 548 615T678 655Q740 655 777 629Q782 632 789 634T804 637L905 651Q927
653 940 645T947 626L872 371Q814 178 814 134Q814 105 824 105Q898 105 976 222Q1056 338 1056 502Q1056 686 948 778Q831 877 680 877Q527 877 400 783Q287 696 226 551Q171 419 171 287Q171 58 300 -70Q435 -205 633 -205Q807 -205 931 -107Q1046 -15 1111 137Q1114
141 1125 144T1146 148H1184ZM727 513Q727 586 685 586Q667 586 646 571T602 527T556 458T510 369Q490 322 478 279T466 206Q466 177 476 156T501 135Q540 135 606 206Q635 241 659 283T699 371Q713 415 720 450T727 513Z" />
<glyph unicode="A" glyph-name="A" horiz-adv-x="1667" d="M1101 1201Q1078 1201 1078 1223Q1078 1236 1093 1244L1511 1445Q1537 1455 1544 1437T1530 1404Q1461 1350 1441 1258T1421 1041V349Q1421 138 1580 214Q1607 229 1616 211T1608 179L1399 -11Q1379 -25
1353 -18Q1203 25 1177 205Q1175 214 1166 218Q1157 221 1150 214Q1126 190 1100 160T968 43T778 -25T642 37Q562 102 495 164T329 201Q319 198 297 190T266 201T296 243Q374 295 449 351T589 477Q677 570 729 698T756 975Q731 1118 614 1221T335 1300Q230 1284
181 1214T125 1079Q114 989 166 939T287 878Q448 849 503 741T422 510Q404 495 390 505T387 536Q430 625 321 656Q204 689 125 770T46 989Q46 1181 197 1319T542 1459Q768 1459 886 1324T1007 1018Q1009 819 872 668T605 415Q597 410 599 400Q600 391 609 388Q678
359 733 319T826 239Q888 174 943 165T1086 218Q1108 234 1127 254T1165 299Q1169 304 1169 310Q1165 502 1166 695T1167 1083Q1167 1121 1158 1161T1101 1201Z" />
<glyph unicode="B" glyph-name="B" horiz-adv-x="1830" d="M387 286Q378 281 369 277T352 269Q346 266 342 266Q320 266 320 289Q320 301 331 308Q489 395 651 519T813 857Q812 991 723 1133T453 1275Q330 1275 225 1189T120 995Q120 884 184 801T389 697Q502
694 571 744Q580 751 592 765T617 780Q632 780 636 767T631 745Q608 720 566 694Q500 652 415 652Q188 649 101 763T31 1058T195 1364T536 1482Q701 1475 800 1411T951 1250Q956 1239 967 1241Q979 1241 981 1253Q1009 1354 1086 1416T1284 1478Q1399 1478 1485
1405T1610 1166Q1639 1057 1691 1059Q1712 1059 1715 1043T1699 1016L1473 911Q1462 905 1464 894Q1465 883 1477 880Q1596 853 1686 751T1777 501Q1773 270 1473 93Q1308 -3 1155 -20T867 10Q713 64 604 191T387 286ZM1049 758L1439 942Q1448 949 1448 956Q1448
966 1440 971Q1372 1011 1338 1144Q1311 1242 1270 1303T1150 1356Q1044 1332 1026 1242T1020 1037Q1042 852 916 703T649 449Q739 450 836 357Q904 290 977 233T1133 138Q1236 89 1339 100T1516 208Q1570 278 1571 371T1502 560T1324 690T1058 715Q1036 714 1033
731T1049 758Z" />
<glyph unicode="C" glyph-name="C" horiz-adv-x="1407" d="M764 241Q739 230 728 245T737 276Q853 362 856 423Q859 464 819 520T676 669Q469 857 471 981Q471 1095 643 1202Q649 1205 692 1230T754 1270Q763 1278 761 1288Q730 1425 589 1425Q446 1425 375 1248T325
860Q361 494 561 311T1018 127Q1160 127 1316 203Q1339 214 1350 198T1340 163Q1101 -26 794 -26Q487 -26 287 215T72 688Q51 1022 199 1254T573 1486Q665 1486 720 1440T797 1328Q804 1308 822 1319Q910 1384 985 1462Q1018 1487 1060 1465T1139 1424Q1172 1405
1220 1379T1322 1376Q1344 1387 1355 1376T1354 1349Q1303 1299 1259 1260T1173 1182Q1163 1172 1160 1171Q1156 1169 1150 1169Q1142 1169 1132 1176T1114 1187Q941 1271 875 1271Q827 1269 778 1230Q696 1166 695 1104Q692 1026 818 917Q1080 690 1094 555Q1104
427 764 241Z" />
<glyph unicode="D" glyph-name="D" horiz-adv-x="1660" d="M214 105Q188 88 174 106T183 144Q355 303 491 347T849 250Q1046 124 1198 141T1420 322Q1540 605 1350 883T842 1236Q622 1288 402 1198T143 930Q95 716 234 619T522 559Q541 564 560 573Q587 585 598
565T582 530Q544 514 533 511Q391 466 219 560T47 927Q47 1078 142 1201T385 1399T710 1485T1059 1444Q1244 1374 1369 1242T1552 949T1593 616T1478 296Q1328 71 1113 -3T566 100Q482 145 395 163T214 105ZM788 339Q760 325 749 343T760 378Q875 456 802 540T666
678Q461 853 532 982T760 1198Q788 1212 799 1193T786 1157Q637 1064 846 889Q1035 731 1013 591T788 339Z" />
<glyph unicode="E" glyph-name="E" horiz-adv-x="1439" d="M817 1256Q798 1246 779 1231Q697 1167 696 1105Q693 1027 819 918Q871 872 903 842Q910 836 916 837T927 844Q951 874 991 921Q1047 987 1100 980T1205 934Q1295 863 1344 894Q1370 911 1385 897T1383
855Q1358 821 1333 787T1273 724Q1203 663 1120 735Q1030 808 982 798Q973 796 970 787Q967 778 974 771Q1086 648 1095 556Q1105 428 765 242Q741 229 730 244T738 277Q854 363 857 424Q860 465 820 521T677 670Q470 858 472 982Q472 1096 644 1203Q650 1206 693
1231T755 1271Q764 1279 762 1289Q733 1426 590 1426Q447 1426 369 1248T326 783T562 312T1019 128Q1161 128 1317 204Q1342 215 1352 199T1341 164Q1102 -25 795 -25Q488 -25 288 216T73 689Q52 1023 200 1255T574 1487Q666 1487 721 1441T798 1329Q801 1320 808
1319Q813 1317 819 1318L823 1320Q911 1385 986 1463Q1019 1488 1061 1466T1140 1425Q1173 1406 1223 1380T1323 1377Q1346 1392 1358 1380T1355 1350Q1304 1300 1260 1261T1174 1183Q1164 1175 1151 1175T1115 1188Q942 1272 876 1272Q847 1271 817 1256Z" />
<glyph unicode="F" glyph-name="F" horiz-adv-x="1547" d="M1358 572Q1349 563 1339 563Q1324 563 1312 581T1290 610Q1206 694 1145 644Q1133 636 1141 622Q1183 557 1211 498Q1271 367 1254 234T1163 -5T974 -178T719 -246Q542 -246 414 -163T275 77L293 159Q302
200 315 240Q351 343 306 379Q281 399 249 399Q219 400 219 423T249 448Q274 448 303 442T357 432Q464 409 523 346T541 138Q502 5 530 -87T715 -188Q852 -194 928 -111T1024 107Q1038 201 983 317T836 550Q627 814 671 925T865 1170V1171Q870 1176 881 1176Q906
1176 906 1152Q906 1142 897 1133Q812 1043 888 952Q942 886 994 822T1092 694Q1105 678 1119 693Q1161 746 1204 798T1291 905Q1309 927 1330 910Q1366 880 1400 850T1471 789Q1480 782 1491 772T1502 751Q1502 742 1489 728T1464 701L1358 572ZM678 583Q479 494
290 573Q99 653 67 883T204 1308T675 1503Q817 1503 961 1456T1252 1331Q1349 1280 1442 1312Q1462 1320 1472 1323Q1494 1327 1499 1311T1481 1276Q1409 1224 1336 1174T1193 1069Q1168 1049 1138 1068Q1048 1134 890 1206T569 1278Q379 1278 259 1170T143 895T290
634T651 627Q669 634 681 631T697 619T698 600T678 583Z" />
<glyph unicode="G" glyph-name="G" horiz-adv-x="1577" d="M1145 1457Q1205 1373 1281 1304T1441 1171Q1449 1167 1453 1163Q1463 1144 1447 1133L1207 966Q1176 941 1216 937Q1357 932 1441 779T1517 505Q1501 289 1312 132T870 -38Q546 -56 308 160T61 689Q53
1023 225 1244T624 1465Q803 1465 875 1311Q883 1294 900 1305L1115 1463Q1132 1474 1145 1457ZM992 800Q965 799 933 792Q910 788 904 803T918 831L1206 1031Q1223 1043 1207 1057Q1055 1174 962 1290Q953 1302 940 1293L826 1210Q718 1130 725 1032T862 794Q1078
556 996 433T727 211Q704 200 694 214T702 246Q746 288 796 346T667 623Q540 778 514 871T523 1027T637 1136T797 1242L836 1271Q846 1278 842 1290Q798 1420 638 1417Q495 1413 405 1249T320 874Q332 480 502 256T928 31Q1102 31 1195 161T1287 443Q1285 568 1208
684T992 800Z" />
<glyph unicode="H" glyph-name="H" horiz-adv-x="1503" d="M37 160Q24 174 39 191Q147 300 230 337T427 247Q496 172 547 149T649 175Q708 234 650 323T432 611Q251 838 251 978T476 1307Q813 1586 954 1382Q987 1334 1033 1306T1100 1291Q1122 1307 1135 1293T1128
1257Q1029 1167 946 1143T766 1234Q699 1315 639 1327T504 1272Q415 1192 452 1077T646 779Q656 768 668 776L1091 1053Q1104 1061 1110 1058T1119 1046Q1122 1017 1188 962Q1296 870 1378 737T1452 430Q1437 172 1218 -28T728 -274Q697 -280 694 -259T718 -232Q1086
-142 1184 156T1054 715Q986 790 916 806T738 754L706 735Q691 725 702 711Q823 555 839 431T695 155Q533 2 451 -20T247 85Q216 116 168 156T69 159Q51 147 37 160Z" />
<glyph unicode="I" glyph-name="I" horiz-adv-x="1403" d="M775 682Q784 662 762 650Q540 533 338 641T122 960T242 1333T621 1503Q717 1505 812 1465T950 1388Q1052 1297 1124 1244T1274 1228Q1299 1242 1311 1224T1286 1181Q1067 1041 1052 934T1202 578Q1356
345 1311 178T1102 -108Q945 -221 758 -239T405 -111Q325 -39 257 20T90 17Q64 -2 49 13T52 47Q353 353 640 36Q772 -108 878 -125T1062 -72Q1137 -1 1123 105T992 391Q828 639 833 769T1028 1052Q1040 1062 1037 1072T1018 1081Q895 1082 786 1189T517 1299Q370
1290 292 1199T230 933T409 687T741 688Q765 699 775 682Z" />
<glyph unicode="J" glyph-name="J" horiz-adv-x="1454" d="M775 683Q783 663 758 650Q536 533 332 645T116 974T239 1344T617 1503Q713 1505 808 1465T946 1388Q1047 1297 1119 1246T1271 1228Q1298 1242 1309 1224T1295 1191Q1063 1041 1073 907T1235 515Q1408
217 1337 -13T1103 -364Q946 -477 759 -495T406 -368Q326 -296 258 -236T91 -238Q61 -255 49 -241T53 -209Q353 97 641 -219Q773 -365 879 -382T1063 -328Q1138 -256 1173 -120T1023 341T849 790T1026 1052Q1036 1060 1033 1071T1016 1081Q892 1081 767 1196Q714
1244 650 1273T513 1299Q366 1290 278 1196T209 927T392 680T737 688Q765 700 775 683Z" />
<glyph unicode="K" glyph-name="K" horiz-adv-x="1662" d="M1163 725Q1172 730 1172 739T1162 754Q1097 787 1046 923Q1005 1030 920 1064T755 1045Q674 991 672 877T734 677Q869 489 845 370T695 136Q543 -4 439 -25T232 88Q145 204 79 153Q54 135 41 149T47
184Q56 193 138 262T288 331T442 226Q495 160 544 136T653 163Q710 212 651 314T483 537Q386 644 340 778T320 1009Q377 1217 573 1337T997 1455Q1260 1457 1427 1300T1602 917Q1605 805 1535 721T1364 582Q1333 566 1322 585T1338 619Q1440 682 1466 751T1490
928Q1484 1113 1349 1258T995 1412Q726 1409 601 1226T605 842Q612 830 624 833Q636 838 635 852Q626 942 662 1042T822 1201T1079 1211T1269 1050Q1313 962 1336 909T1390 859Q1413 863 1418 846T1401 817L1165 682Q1155 676 1155 667T1166 653Q1222 623 1273
531T1378 301Q1449 117 1567 160Q1599 174 1609 156T1589 119L1351 -34Q1342 -39 1333 -34Q1238 29 1178 130T1078 363Q1050 455 1003 504T898 530Q870 520 862 538T878 569L1163 725Z" />
<glyph unicode="L" glyph-name="L" horiz-adv-x="1171" d="M72 191Q47 184 41 205T66 238Q123 261 178 300T303 428T319 604T204 782Q151 857 129 942T128 1102Q172 1255 308 1348T655 1441Q1117 1440 1113 1032Q1112 841 953 755T616 757Q583 772 591 790T626
799Q728 757 821 810T923 1014Q933 1191 857 1289T651 1397Q525 1397 445 1328T365 1165Q365 1102 391 1046T450 938Q510 841 538 717T359 431Q349 423 350 414T364 402Q506 352 628 250Q745 152 875 154T1075 257Q1091 280 1110 270T1115 235Q1066 165 997 95T835
-8T627 -21T373 112Q298 172 224 198T72 191Z" />
<glyph unicode="M" glyph-name="M" horiz-adv-x="2265" d="M564 553Q566 609 538 622T417 615Q275 581 163 678T51 967Q52 1158 190 1297T520 1436Q607 1436 709 1393T883 1265Q889 1257 896 1258T908 1267Q952 1339 1021 1388T1206 1434Q1355 1427 1473 1250Q1479
1241 1488 1241T1502 1251Q1544 1329 1608 1379T1768 1429Q1891 1427 1971 1354T2087 1109Q2109 990 2179 983Q2199 982 2200 966T2176 942Q1982 876 1909 731T1915 360Q1950 258 2015 217T2159 223Q2188 240 2202 223T2197 188Q2129 134 2063 81T1929 -26Q1918
-34 1908 -26Q1695 145 1652 354T1927 849Q1934 856 1934 863T1924 875Q1854 922 1821 1116Q1786 1308 1665 1310Q1579 1312 1519 1184Q1515 1177 1519 1170Q1558 1087 1575 985T1577 769Q1537 493 1459 353T1272 72Q1129 -107 1002 33Q966 73 927 85T836 57Q817
41 804 53T805 85Q933 263 1008 288T1156 246Q1215 191 1264 187T1342 261Q1396 411 1381 680T1272 1094T1094 1263T940 1219Q930 1209 939 1198Q1058 1033 1067 816Q1073 638 998 475T805 161Q676 -3 561 -27T349 90Q265 216 178 121Q157 103 141 120T145 159Q418
437 574 232Q599 198 621 169T689 142Q747 144 811 269T875 584Q873 833 745 1020T452 1226Q287 1243 192 1164T100 977Q103 867 158 801T364 774Q653 848 615 561Q611 531 588 531T564 553Z" />
<glyph unicode="N" glyph-name="N" horiz-adv-x="1808" d="M566 562Q568 618 540 631T419 624Q277 589 165 686T53 976Q54 1179 179 1311T522 1445Q629 1445 749 1379T954 1187Q959 1180 969 1180Q980 1181 983 1190Q1022 1282 1101 1359T1281 1437Q1441 1437
1508 1362T1619 1118Q1643 1001 1712 993Q1733 992 1734 976T1711 951Q1518 885 1447 740T1457 370Q1494 268 1560 227T1705 233Q1734 251 1748 234T1742 199Q1676 145 1610 91T1477 -17Q1467 -25 1456 -17Q1227 152 1193 362T1462 859Q1471 867 1470 873T1461
885Q1390 929 1352 1127Q1332 1225 1294 1258T1181 1292Q1121 1292 1075 1240T1003 1113Q1001 1105 1004 1100Q1063 973 1069 825Q1075 647 1004 476T811 163Q678 6 563 -18T351 99Q267 225 180 130Q158 109 142 127T147 168Q420 446 576 241Q601 207 623 178T691
152Q749 153 813 278T877 593Q875 842 747 1029T454 1234Q289 1252 194 1174T102 986Q105 876 160 810T366 783Q655 857 617 570Q611 533 588 535T566 562Z" />
<glyph unicode="O" glyph-name="O" horiz-adv-x="1544" d="M61 239Q280 413 364 407T655 249Q859 99 1007 119T1254 278Q1346 409 1303 646T1019 1056Q850 1176 674 1208T351 1150Q258 1093 271 991T430 834Q703 734 716 624T565 378Q546 362 534 372T536 399Q586
456 536 493T315 597Q62 693 68 878T305 1185Q450 1253 544 1311T687 1459Q692 1468 704 1467Q944 1436 1140 1302T1416 964Q1495 757 1454 565T1290 242Q1086 21 862 -13T416 94Q317 156 235 204T80 208Q65 199 55 211T61 239Z" />
<glyph unicode="P" glyph-name="P" horiz-adv-x="1826" d="M575 751Q596 768 611 753T600 711Q560 675 508 664T403 651Q243 647 137 746T31 1017T164 1312T525 1435Q663 1432 757 1366T904 1210Q911 1196 925 1204L1358 1429Q1387 1442 1400 1426T1393 1393Q1322
1342 1374 1252T1546 1065Q1783 869 1771 666T1623 277Q1469 68 1319 0T962 46Q954 51 947 47T938 35Q923 -91 887 -176T775 -332Q761 -345 749 -336T747 -310Q824 -149 798 121Q798 130 788 134Q588 212 489 116Q472 99 457 110T455 141Q611 344 759 356Q767 357
770 361T774 374Q762 503 750 631T725 889Q710 1035 626 1141T417 1250Q283 1257 191 1185T99 981T183 774T409 698Q510 696 575 751ZM938 1137Q955 1091 961 1045T970 958Q976 745 968 597T956 326Q956 314 965 311Q1014 289 1072 255Q1275 138 1394 162T1586
300Q1744 550 1389 837Q1268 933 1186 1022T1097 1209Q1097 1221 1089 1224T1073 1223L946 1157Q932 1150 938 1137Z" />
<glyph unicode="Q" glyph-name="Q" horiz-adv-x="1633" d="M59 239Q278 413 362 408T653 251Q913 60 1100 145Q1110 149 1110 158T1104 171Q1056 225 1004 242T885 217Q861 203 848 216T854 246Q1008 392 1091 404T1255 328Q1261 321 1269 322T1283 333Q1345 474
1290 687T1017 1058Q848 1178 672 1210T349 1152Q256 1094 269 991T428 835Q701 735 714 625T563 379Q546 363 534 373T534 401Q584 457 534 494T313 598Q60 694 66 879T303 1186Q451 1263 543 1317T685 1461Q692 1470 702 1469Q942 1437 1138 1303T1414 966Q1489
772 1456 590T1317 277Q1308 264 1318 255Q1390 180 1440 187T1535 251Q1550 272 1570 260T1573 220Q1475 76 1385 12T1159 105Q1148 115 1137 108Q787 -142 414 94Q315 157 233 205T78 210Q63 200 53 212T59 239Z" />
<glyph unicode="R" glyph-name="R" horiz-adv-x="1905" d="M226 142Q209 128 198 140T204 171Q361 337 448 332T591 254Q660 161 709 149T800 185Q873 273 892 396T905 659Q898 827 832 967T605 1181Q414 1268 272 1184T131 926Q131 807 203 722T405 621Q540 604
653 684Q667 693 675 682T664 652Q551 563 393 573Q241 583 147 679T48 931Q52 1215 260 1348T707 1413Q882 1361 990 1176Q996 1165 1005 1165T1020 1180Q1061 1316 1189 1395T1467 1398T1670 1144Q1716 1006 1759 1024Q1780 1032 1790 1017T1774 985L1425 780Q1417
776 1417 768Q1415 760 1421 754Q1554 636 1582 457Q1626 281 1683 208T1812 195Q1832 211 1846 194T1835 158Q1771 112 1708 65T1582 -28Q1576 -33 1566 -30Q1395 31 1323 350Q1294 492 1257 566T1153 624Q1128 617 1125 631T1144 659L1519 893Q1525 897 1527
906Q1527 911 1522 920Q1475 962 1436 1008T1384 1114Q1360 1222 1289 1269T1144 1277Q1072 1239 1059 1154T1063 997Q1107 820 1084 630Q1065 484 992 359T795 102T568 -21T397 75Q341 149 299 157T226 142Z" />
<glyph unicode="S" glyph-name="S" horiz-adv-x="1553" d="M1382 1348Q1405 1376 1428 1358T1425 1313Q1349 1241 1299 1195T1205 1124Q1127 1079 1053 1097T842 1185Q700 1257 584 1262T367 1171Q268 1076 239 981T212 783Q219 543 425 382T936 228Q1149 232
1303 324T1432 599Q1411 744 1282 753T996 663Q790 532 697 547T439 789Q419 815 438 826T475 810Q535 721 629 756T838 858Q915 901 983 936T1156 947Q1256 922 1351 840T1477 632Q1502 522 1473 432T1396 270Q1307 135 1157 56T813 -23Q528 -23 289 168T56 696Q64
1173 770 1455Q804 1469 841 1451Q1151 1298 1249 1301T1382 1348Z" />
<glyph unicode="T" glyph-name="T" horiz-adv-x="1533" d="M539 711Q486 674 385 674Q243 677 146 768T49 993Q49 1187 202 1324T588 1462Q786 1463 961 1369T1269 1180Q1361 1111 1439 1180Q1461 1200 1477 1185T1474 1151L1302 1007Q1187 923 1039 1021Q896
1120 739 1204T450 1288Q296 1288 205 1201T112 1003Q107 740 377 713Q454 704 515 748Q538 762 549 744T539 711ZM103 392Q223 489 308 524Q430 576 497 506Q683 314 808 227T1024 120T1186 133T1333 212Q1363 232 1376 215T1366 178Q1270 99 1164 42T932 -17T652
52T309 303Q246 364 185 363Q152 363 115 345Q91 334 83 352T103 392ZM784 1113Q711 1056 745 993T891 843Q1085 693 1070 558T796 327Q775 318 766 333T775 360Q873 423 847 496T696 664Q550 773 537 895T758 1144Q782 1157 794 1144T784 1113Z" />
<glyph unicode="U" glyph-name="U" horiz-adv-x="1460" d="M1153 -14Q1052 35 1018 78Q982 125 978 247Q978 261 969 264T950 257Q908 212 866 168T781 78Q585 -126 370 103Q295 182 222 207T80 172Q62 158 50 172T56 203L309 416L310 417Q437 539 404 629T283
810Q209 885 158 992T187 1234Q250 1339 354 1385T536 1429Q676 1423 712 1315T652 1133Q630 1115 615 1133T623 1172Q704 1235 663 1305T537 1381Q476 1384 425 1340T371 1234Q367 1118 414 1074T494 999Q658 830 637 705T378 418Q367 411 368 402T384 389Q446
375 479 338T551 265Q680 145 779 187T972 337Q976 342 976 348L970 1070Q970 1144 914 1166Q868 1187 916 1214Q1016 1262 1116 1312T1317 1412Q1335 1422 1348 1409T1341 1376Q1263 1320 1237 1226T1211 1005L1218 301Q1219 141 1371 196Q1391 204 1402 191T1398
163L1207 -9Q1195 -19 1180 -20T1153 -14Z" />
<glyph unicode="V" glyph-name="V" horiz-adv-x="1817" d="M380 704Q437 702 497 719T603 775Q621 791 635 780T633 754Q524 649 400 652Q244 655 145 757T45 1029Q45 1197 182 1329T526 1461Q799 1461 937 1258Q946 1246 954 1247T966 1262Q999 1363 1102 1428T1335
1456T1537 1280Q1564 1226 1585 1182T1644 1131Q1707 1118 1656 1093Q1452 990 1457 899T1562 724Q1768 548 1704 404T1477 127Q1267 -44 1047 -23T626 176Q527 263 449 290T304 249Q283 228 267 243T272 279Q401 408 488 452T661 471Q673 469 679 477Q746 561
785 664T819 881Q812 1010 704 1143T415 1269Q296 1260 208 1184T120 990Q119 873 188 791T380 704ZM1010 1067Q1022 977 1002 873T899 662T724 469Q717 462 718 455T728 442Q775 415 828 373T948 275Q1087 155 1215 114T1437 151Q1539 236 1513 328T1384 518Q1242
651 1269 763T1433 986Q1441 992 1440 1000T1429 1013Q1373 1040 1339 1098T1280 1223Q1256 1286 1205 1330T1087 1342Q1033 1315 1012 1255T1010 1067Z" />
<glyph unicode="W" glyph-name="W" horiz-adv-x="2208" d="M385 691Q520 685 608 761Q626 778 639 768T640 743Q528 634 405 639Q249 642 150 744T50 1015Q41 1188 183 1318T531 1448Q759 1448 902 1296Q916 1283 927 1298Q1025 1452 1088 1454T1258 1311Q1269
1296 1283 1308Q1303 1328 1314 1338Q1459 1470 1657 1452T1946 1257Q1973 1201 1987 1150T2052 1068Q2080 1052 2080 1038T2062 1020Q1995 1005 1931 963Q1863 891 1888 828T2019 689Q2154 590 2140 448T1975 162Q1785 -22 1620 -23T1323 114Q1257 182 1178 128Q962
-41 820 -13T582 148Q428 360 252 251Q229 235 218 248T223 277Q363 399 463 429T642 431Q654 427 660 435Q737 522 783 633T824 867Q817 996 709 1129T420 1248Q312 1238 222 1166T125 977Q124 860 193 778T385 691ZM1836 961Q1772 1008 1741 1068T1679 1190Q1615
1317 1515 1352T1349 1315Q1282 1242 1284 1149T1386 920Q1497 764 1508 638T1426 379Q1419 370 1421 363T1436 354Q1479 343 1537 293Q1691 124 1787 118T1941 183Q1983 236 1975 307T1804 509Q1582 685 1743 849Q1792 898 1837 934Q1843 940 1843 947T1836 961ZM951
1233Q1049 1076 1009 869Q985 745 891 630T698 426Q685 411 700 400Q746 369 806 303Q905 189 1000 153T1225 228Q1348 333 1317 460T1194 720Q1091 869 1110 1000T1226 1248Q1235 1257 1226 1269Q1148 1354 1086 1351T951 1251Q945 1242 951 1233Z" />
<glyph unicode="X" glyph-name="X" horiz-adv-x="1476" d="M497 780Q530 792 539 772T519 742Q351 685 230 748T73 985T153 1306T463 1455Q658 1455 757 1363T898 1118Q901 1106 913 1106Q925 1106 929 1118Q977 1313 1045 1404T1224 1416Q1326 1341 1383 1409Q1395
1424 1412 1417T1420 1382Q1363 1211 1290 1172T1143 1190Q1081 1236 1041 1212T976 1132T941 1009T931 904Q931 897 935 892Q940 887 946 887H1256Q1283 887 1268 859L1188 723Q1173 695 1144 695H954Q948 695 942 690Q936 684 938 678Q962 363 1092 269T1342
243Q1361 255 1374 246T1377 222Q1325 153 1263 88Q1215 38 1174 -4Q1160 -18 1138 -19T1095 -14Q823 61 751 374Q748 390 736 390T719 374Q632 33 518 2T332 24Q207 116 163 46Q154 31 139 39T136 75Q236 290 315 304T464 256Q546 179 596 221T674 352T712 540T724
678Q725 685 720 690Q715 695 709 695H588Q550 695 576 723L699 859Q707 868 722 879Q729 883 729 894Q717 1058 643 1156T446 1255Q300 1254 219 1177T141 988T246 800T497 780Z" />
<glyph unicode="Y" glyph-name="Y" horiz-adv-x="1755" d="M380 710Q515 704 603 780Q620 797 635 787T635 763Q523 655 400 658Q244 661 145 763T45 1034Q45 1202 182 1334T526 1467Q661 1467 777 1406T959 1236Q973 1316 1030 1379T1181 1468Q1309 1501 1420
1431T1574 1225Q1630 1040 1671 1047Q1695 1052 1700 1033T1670 1000Q1481 922 1460 847T1558 566Q1696 326 1647 150T1421 -163Q1310 -244 1195 -283T963 -319Q778 -314 642 -243T403 -43Q390 -26 404 -16T434 -23Q538 -137 661 -196T951 -255Q1265 -240 1357
-32T1282 449Q1182 609 1222 716T1439 917Q1448 924 1448 932Q1448 940 1439 946Q1403 964 1366 1010T1308 1160Q1290 1242 1248 1301T1118 1350Q1047 1341 1018 1275T1005 1123Q1031 1008 1004 888Q959 684 876 570T700 373Q695 368 695 358Q696 348 705 346Q739
331 806 283Q901 208 966 222T1086 300Q1107 323 1126 310T1129 272Q1076 212 1039 165T975 82Q915 -2 823 4T639 95Q538 187 468 131Q446 115 433 130T443 168Q501 230 566 287T680 417Q744 514 783 646T819 887Q812 1015 704 1148T415 1267Q299 1269 210 1191T120
996Q119 879 188 797T380 710Z" />
<glyph unicode="Z" glyph-name="Z" horiz-adv-x="1364" d="M521 849Q553 848 551 824T509 799Q389 801 304 881T232 1128T387 1397T763 1497Q934 1497 1072 1390T1214 1133Q1214 1000 1146 923T975 803Q963 797 964 787T979 773Q1126 731 1216 629T1310 386Q1313
232 1253 115T1095 -74Q813 -276 635 -230T328 -51Q241 36 191 61T83 42Q62 25 47 43T60 86Q219 234 338 222T565 83Q703 -79 815 -117T1039 -50Q1123 28 1123 149T1046 391Q851 684 550 616Q511 610 507 639T544 674Q748 710 869 795T1000 1019Q1009 1149 906
1222T623 1293Q481 1291 405 1233T321 1069T367 910T521 849Z" />
<glyph unicode="[" glyph-name="bracketleft" horiz-adv-x="375" d="M57 1514Q102 1514 178 1514T299 1514Q322 1514 322 1490V1483Q322 1460 299 1460H241Q218 1460 218 1437V-21Q218 -43 241 -43H299Q322 -43 322 -66V-74Q322 -97 299 -97Q254 -97 178 -97T57
-97Q34 -97 34 -74V1490Q34 1514 57 1514Z" />
<glyph unicode="\" glyph-name="backslash" horiz-adv-x="219" d="M827 1326L857 1300Q868 1288 858 1277L-320 -84Q-331 -97 -343 -86L-373 -60Q-385 -51 -375 -37L804 1324Q812 1336 827 1326Z" />
<glyph unicode="]" glyph-name="bracketright" horiz-adv-x="375" d="M299 -97Q254 -97 178 -97T57 -97Q34 -97 34 -73V-66Q34 -43 57 -43H115Q138 -43 138 -20V1438Q138 1460 115 1460H57Q34 1460 34 1483V1491Q34 1514 57 1514Q102 1514 178 1514T299 1514Q322
1514 322 1491V-73Q322 -97 299 -97Z" />
<glyph unicode="^" glyph-name="asciicircum" horiz-adv-x="857" d="M798 946V907Q798 895 789 892Q780 888 772 894L430 1182Q419 1193 410 1182L68 894Q59 888 51 892Q42 895 42 907V946Q42 954 45 956L407 1436Q412 1443 420 1443Q426 1443 433 1436L795 956Q798
953 798 946Z" />
<glyph unicode="_" glyph-name="underscore" horiz-adv-x="934" d="M-2 -231H934Q950 -231 950 -248V-362Q950 -379 934 -379H-2Q-18 -379 -18 -362V-248Q-18 -231 -2 -231Z" />
<glyph unicode="`" glyph-name="grave" horiz-adv-x="1024" d="M408 1238Q332 1312 332 1362Q332 1434 427 1434Q468 1434 498 1408Q524 1386 556 1292L636 1054H599L408 1238Z" />
<glyph unicode="a" glyph-name="a" horiz-adv-x="943" d="M534 141Q483 102 422 56T309 -30Q291 -44 281 -42T272 -24Q272 -3 210 56Q47 209 53 454Q59 664 248 809Q306 853 356 902T446 1021Q462 1052 490 1023Q642 851 794 820Q842 811 804 782Q757 748 753
698V696L756 239Q756 193 789 176T862 202Q877 219 890 211T891 180Q855 126 822 74T765 -34L764 -35Q750 -58 730 -35Q719 -23 704 -19Q590 6 560 132Q558 138 550 144Q541 145 534 141ZM545 730Q483 747 400 826Q360 874 336 835Q230 677 253 486Q285 213 445
149Q446 149 447 148Q488 135 546 197Q550 203 550 208Q549 223 549 255L558 714Q558 726 545 730Z" />
<glyph unicode="b" glyph-name="b" horiz-adv-x="910" d="M56 1309Q44 1329 58 1339T88 1332Q135 1271 161 1210Q165 1199 174 1197T190 1207Q299 1385 549 1411Q571 1412 573 1393T550 1372Q448 1367 406 1317T365 1119L368 860Q368 848 375 845T392 846Q454
879 517 919T635 1010Q671 1048 678 997Q681 960 709 931T759 874Q874 725 866 555Q856 382 752 276Q709 231 657 190T567 103L566 105Q506 27 476 -35Q462 -64 440 -35Q330 101 105 171Q83 178 84 188T100 203Q164 225 163 336L161 942Q160 1078 131 1163T56 1309ZM368
792L372 283Q372 269 383 262L537 170Q562 157 579 174L596 193Q598 193 598 195Q679 312 679 487Q678 586 638 667T531 824Q488 871 376 806Q368 801 368 792Z" />
<glyph unicode="c" glyph-name="c" horiz-adv-x="726" d="M340 -29Q338 -5 315 7T275 31Q160 109 113 221T59 460Q47 745 213 894Q272 947 349 980T507 1035Q529 1039 544 1010L661 774Q675 745 654 741Q580 730 519 689Q491 671 473 707L369 923Q359 944 333
929Q267 890 249 743T257 473Q304 242 420 177T652 157Q667 164 675 155Q683 142 670 136Q589 95 516 52T384 -38Q375 -44 358 -42T340 -29Z" />
<glyph unicode="d" glyph-name="d" horiz-adv-x="930" d="M258 1393Q179 1371 181 1300Q182 1255 232 1217T351 1165Q352 1165 353 1164Q563 1086 718 960T895 594V591Q874 411 808 291T652 108L651 106Q609 70 552 42T451 -16Q423 -35 415 -16Q359 117 106 187Q91
190 90 202T101 219Q164 243 164 352L162 768Q162 803 194 801Q294 788 394 869Q400 873 400 884Q398 892 390 896Q352 912 314 927T240 961Q147 1003 103 1070T50 1203V1208Q75 1399 242 1421Q268 1425 270 1411T258 1393ZM453 868Q444 872 436 866L389 829Q369
814 369 793L373 299Q373 284 385 278L601 151Q627 135 649 163Q739 290 719 500T545 819Q517 838 453 868Z" />
<glyph unicode="e" glyph-name="e" horiz-adv-x="741" d="M340 -28Q338 -4 315 8T275 32Q160 110 113 222T59 461Q47 746 213 895Q272 948 349 981T507 1036Q532 1041 544 1011L688 673Q698 646 681 639H679L269 480Q257 474 259 461Q308 239 423 177T652 158Q672
167 677 155T670 137Q589 96 516 53T384 -37Q375 -43 358 -41T340 -28ZM247 537Q248 529 254 525T269 524L482 604Q497 610 491 625L369 924Q360 946 333 930Q275 896 254 775T247 537Z" />
<glyph unicode="f" glyph-name="f" horiz-adv-x="500" d="M327 1011H500Q516 1011 516 995V933Q516 917 500 917H379Q372 917 367 911T363 899Q369 843 360 743L259 -309Q255 -343 239 -343T219 -307Q194 -1 168 304T113 915H-3Q-18 915 -18 929T-7 946Q58 957
101 1013T138 1159Q131 1301 175 1397T351 1451Q424 1426 484 1408T570 1428Q582 1449 592 1446T589 1407Q553 1293 496 1254T317 1272Q200 1326 180 1219T223 1078Q285 1044 304 1022Q315 1011 327 1011Z" />
<glyph unicode="g" glyph-name="g" horiz-adv-x="952" d="M595 123Q523 90 422 50T264 -33Q243 -47 234 -44T227 -27Q228 -9 212 34T172 111Q108 204 89 281T58 464Q47 566 103 657T252 819Q310 863 361 912T450 1031Q467 1062 495 1033Q645 863 815 828Q859 817
834 796Q742 661 752 521T817 236V235L818 234Q908 -95 758 -243T459 -407Q203 -432 120 -275Q101 -239 119 -207T174 -169Q245 -157 299 -261Q373 -410 515 -352Q637 -301 655 -176T619 111Q619 113 618 114L617 115Q611 130 595 123ZM653 681Q597 704 520 752T407
833L405 834Q405 835 405 836Q369 889 341 845Q235 687 257 496Q272 369 312 262T436 122L437 121H438Q494 106 583 163Q593 168 590 182Q548 297 558 415T660 657Q669 673 653 681Z" />
<glyph unicode="h" glyph-name="h" horiz-adv-x="908" d="M55 1315Q42 1334 57 1344T87 1337Q131 1282 158 1219Q161 1209 172 1209Q181 1207 188 1217Q246 1321 370 1377T623 1423Q649 1422 649 1402T624 1384Q519 1391 441 1336T364 1124L366 900Q366 890 374
886T390 886Q445 916 500 952T603 1033Q640 1070 645 1020Q649 983 676 954T726 897Q861 725 865 525Q872 231 658 6T269 -339Q245 -356 234 -345T240 -318Q381 -193 524 -45T655 424Q649 550 617 661T498 847Q454 884 376 846Q367 843 367 831L371 227Q371 146
436 160Q450 164 461 175T485 194T510 193T510 172Q461 118 411 72T334 -29Q322 -53 298 -29Q209 67 104 115Q70 133 99 148Q163 170 162 280L160 948Q159 1083 130 1169T55 1315Z" />
<glyph unicode="i" glyph-name="i" horiz-adv-x="559" d="M165 235L158 783Q158 802 152 814Q128 853 111 833L71 792Q55 774 41 788T45 827Q89 882 124 937T196 1046Q212 1065 233 1045Q275 994 315 956T429 874Q450 866 448 855T434 843Q408 833 388 809T368
727V304Q368 202 406 179Q450 153 478 201Q488 220 502 210T502 175Q472 128 446 81T393 -14Q374 -42 346 -26Q256 17 211 79T165 235ZM310 1422Q421 1422 411 1315Q405 1261 344 1207T246 1153Q210 1153 191 1210T176 1315Q179 1361 220 1391T310 1422Z" />
<glyph unicode="j" glyph-name="j" horiz-adv-x="497" d="M134 782Q133 828 126 841Q104 882 87 862L47 821Q31 803 16 819T22 856Q66 911 100 966T172 1075Q190 1095 209 1074Q250 1021 290 982T405 903Q426 895 424 884T410 872Q382 866 363 840T344 756L343
88Q341 -36 372 -119T459 -258Q476 -279 460 -289T428 -280Q405 -252 381 -220T339 -154Q334 -144 325 -144T310 -152Q251 -252 146 -313T-81 -371Q-106 -370 -106 -352T-81 -333Q18 -333 77 -276T137 -68L134 782ZM286 1451Q399 1451 387 1344Q381 1290 320 1236T222
1182Q186 1182 168 1239T152 1344Q155 1390 196 1420T286 1451Z" />
<glyph unicode="k" glyph-name="k" horiz-adv-x="665" d="M41 851Q43 865 62 869Q123 884 147 920T169 1048Q158 1144 130 1205T57 1311Q40 1328 54 1340T87 1333Q110 1305 134 1273T176 1207Q181 1197 190 1197T205 1205Q265 1305 369 1366T596 1424Q617 1423
619 1405T596 1386Q497 1386 438 1329T378 1110Q378 1097 390 1094T410 1103Q471 1236 595 1271Q616 1272 616 1255V1078Q617 1057 598 1062Q489 1076 409 999Q394 978 396 956T422 934H594Q610 934 610 918V854Q610 837 594 837H392Q378 837 378 819L377 255Q377
223 392 214L464 173Q487 162 533 221Q543 233 557 223T559 201Q454 84 398 -29Q386 -50 362 -29Q311 38 264 72T115 126Q99 128 99 140T109 158Q134 167 154 191T175 273L174 817Q174 837 154 837H63Q40 837 41 851Z" />
<glyph unicode="l" glyph-name="l" horiz-adv-x="559" d="M52 1314Q39 1328 51 1341T83 1336Q106 1308 130 1276T172 1210Q177 1200 186 1200T201 1208Q260 1308 365 1369T592 1427Q615 1426 616 1408T592 1389Q493 1389 434 1332T374 1124L373 258Q373 226 388
217L460 176Q485 167 529 224Q540 239 556 231T555 204Q450 87 394 -26Q382 -47 358 -26Q309 37 257 73T111 129Q95 131 95 143T105 161Q130 170 150 194T171 276L170 948Q170 1092 139 1175T52 1314Z" />
<glyph unicode="m" glyph-name="m" horiz-adv-x="1453" d="M405 786L404 362Q403 199 464 177Q471 171 471 163T464 150Q376 85 318 -29Q312 -38 303 -38T288 -29Q230 84 136 149Q130 155 130 163T137 177Q204 199 202 362V715Q202 817 164 840Q120 869 92 819Q81
798 67 807T68 844Q97 890 123 938T178 1034Q194 1063 223 1046L224 1045Q368 974 398 869Q401 859 409 858Q417 855 425 860Q474 902 528 950T604 1034Q620 1062 648 1046Q792 975 823 873Q827 859 835 859T849 865Q903 909 955 956T1029 1046Q1040 1072 1065
1045Q1125 982 1168 945T1313 890Q1328 887 1329 877Q1329 860 1318 859Q1292 849 1272 825T1252 743V308Q1252 206 1290 183Q1334 157 1362 205Q1372 224 1386 214T1387 179Q1357 132 1330 85T1276 -10Q1258 -38 1231 -23Q1140 21 1095 85T1049 238L1050 762Q1050
792 1034 803L950 873Q938 881 926 874Q861 824 846 812T831 784L830 362Q830 198 891 177Q898 170 898 164T891 150Q803 87 744 -29Q738 -38 728 -38T715 -29Q658 82 563 149Q556 154 556 162T563 177Q634 199 629 362L628 715Q628 789 590 840Q543 902 495 864L411
800L407 794L405 786Z" />
<glyph unicode="n" glyph-name="n" horiz-adv-x="1032" d="M399 361Q398 200 459 175Q466 170 466 162T459 149Q369 81 313 -32Q307 -40 298 -40T283 -32Q227 81 131 148Q125 152 125 161T132 175Q197 200 197 361V693Q197 795 159 818Q115 847 87 797Q76 776
62 787T63 822Q92 868 118 916T173 1012Q189 1041 218 1024L219 1023Q366 949 395 842Q397 831 405 829T421 833Q476 879 534 930T613 1024Q624 1050 649 1023Q709 960 751 923T896 868Q914 864 914 853T902 837Q876 827 856 803T836 721V298Q836 196 874 173Q918
146 945 195Q956 214 970 204T970 169Q940 122 914 75T860 -20Q842 -48 815 -33Q633 55 633 228L634 740Q634 770 619 779H618V781L533 851Q522 859 510 852L406 771Q399 766 399 759V361Z" />
<glyph unicode="o" glyph-name="o" horiz-adv-x="847" d="M387 -18Q372 -43 350 -18Q240 119 16 188Q-2 193 -2 204T10 220Q74 242 74 353L71 863Q71 874 69 880T70 892T84 899Q350 921 557 1044Q566 1049 573 1047T582 1033Q599 925 688 821Q737 761 769 657T795
484Q785 403 742 339T644 220Q579 156 504 112T387 -18ZM278 876L282 300Q282 285 294 279L471 169Q497 152 519 179Q614 281 605 424Q603 513 571 583T490 707Q412 786 371 903Q369 908 362 911T349 912Q319 901 289 893Q278 889 278 876Z" />
<glyph unicode="p" glyph-name="p" horiz-adv-x="923" d="M174 1184Q130 1138 135 1095T207 1031Q293 1005 321 964T355 867Q356 857 363 854T379 854Q506 928 640 1031Q648 1037 656 1033T666 1021Q676 967 706 929T770 854Q893 715 879 543Q865 332 732 220Q585
96 506 -13Q496 -26 483 -17Q458 -2 433 12T383 41Q375 45 368 42T360 28Q348 -80 330 -184T290 -393Q286 -407 273 -407T257 -393Q236 -272 218 -135T189 130Q187 141 178 144Q77 181 35 135Q26 126 17 129T7 147Q8 310 163 320Q178 320 178 336V367Q178 516 174
581T166 739Q164 784 143 808T101 850Q10 925 25 1015T144 1200Q162 1219 175 1209T174 1184ZM372 278Q372 266 381 263Q432 237 480 208T579 151Q594 144 602 157Q632 204 658 273T686 445Q688 552 645 636T550 798Q497 872 367 809Q357 804 357 794Q358 782 358
758L371 362Q372 333 372 278Z" />
<glyph unicode="q" glyph-name="q" horiz-adv-x="881" d="M528 157Q477 118 413 70T294 -21Q276 -35 266 -33T257 -15Q257 6 195 65Q32 218 38 463Q44 673 233 818Q291 862 341 911T431 1030Q447 1061 475 1032Q546 951 634 890T802 814L805 815Q816 818 824 809Q834
793 823 789Q760 765 748 708T738 590L747 183Q751 -34 728 -128T665 -402Q662 -421 649 -421T634 -402Q604 -232 581 -110T555 144Q553 155 545 159T528 157ZM388 832L385 835Q351 888 321 844Q215 686 238 495Q270 222 430 158Q451 150 471 155T551 229Q554 233
554 239Q553 375 550 506T543 712Q543 722 536 724Q466 760 388 832Z" />
<glyph unicode="r" glyph-name="r" horiz-adv-x="743" d="M392 750L391 265Q391 233 407 224L479 182Q502 168 549 231Q559 244 574 237T574 211Q469 94 413 -19Q396 -42 376 -19Q320 46 272 80T129 136Q111 141 111 152T124 168Q191 179 190 283V706Q190 808
152 831Q108 860 80 810Q69 789 55 800T56 835Q85 881 111 929T166 1025Q183 1055 211 1036Q358 965 387 856Q390 846 399 844T415 850L569 1027Q575 1033 583 1033T596 1024L701 823Q705 814 699 806L579 662Q572 655 564 656T552 665L471 815Q467 821 459 822T443
817L396 760Q392 756 392 750Z" />
<glyph unicode="s" glyph-name="s" horiz-adv-x="855" d="M388 1239Q528 1276 645 1222Q724 1184 768 1117T803 967T749 844T674 782T619 736Q568 688 611 650Q746 533 766 453T738 312Q670 228 594 153T442 0Q405 -36 397 4Q384 59 280 100T59 180Q38 188 56
210Q83 238 112 266T170 321Q215 363 201 395T147 469Q49 571 52 660T117 817Q174 880 245 932T381 1050Q389 1057 402 1045Q536 926 625 925T742 978Q769 1033 737 1092T633 1191Q524 1245 394 1201Q368 1191 363 1212T388 1239ZM228 341Q218 324 234 315Q305
282 376 250T519 188Q569 166 619 245Q681 344 455 505Q420 526 369 485L228 341ZM366 549Q378 540 388 550L574 732Q583 742 580 750T564 760Q507 766 438 804Q327 867 293 889T206 849Q139 770 205 698T366 549Z" />
<glyph unicode="t" glyph-name="t" horiz-adv-x="633" d="M383 815L382 255Q382 224 397 214L469 173Q490 155 539 221Q548 234 563 225T565 201Q458 84 404 -29Q387 -50 367 -29Q311 37 263 70T120 126Q104 129 103 141T115 158Q182 174 181 273L180 814Q181
832 165 832H47Q33 832 29 843Q25 854 38 862Q158 947 282 1067T509 1295Q522 1309 534 1301T535 1276Q489 1219 443 1128T386 962Q384 952 387 947Q393 941 401 941H574Q581 941 586 936Q591 929 591 923L587 848Q585 832 570 832H397Q383 832 383 815Z" />
<glyph unicode="u" glyph-name="u" horiz-adv-x="1032" d="M632 247L633 664Q633 832 572 850Q565 855 565 862T572 876Q661 940 719 1056Q723 1065 733 1065T748 1056Q801 941 900 877Q907 871 907 863T899 850Q833 831 835 664V312Q835 209 873 186Q915 158
944 208Q955 227 969 217T969 182Q939 136 913 88T859 -6Q842 -35 812 -17Q663 54 637 163Q635 171 625 174T611 171Q554 125 497 75T419 -18Q402 -42 382 -17Q327 47 275 81T135 136Q116 143 117 153T130 168Q155 177 175 201T196 283V706Q196 808 158 831Q113
858 86 809Q75 790 61 801T62 836Q91 881 117 929T172 1025Q189 1055 217 1036H218Q399 941 399 776L397 264Q397 235 412 225L498 154Q508 145 521 152Q602 216 626 234Q632 238 632 247Z" />
<glyph unicode="v" glyph-name="v" horiz-adv-x="925" d="M124 104Q105 97 103 110T118 140Q233 293 233 428T138 661Q-23 826 0 920T155 1147Q168 1161 178 1152T177 1129Q107 1045 167 984Q240 910 281 852Q289 840 303 847Q391 895 470 949T628 1065Q636 1072
645 1069T655 1055Q664 1000 695 961T759 885Q880 741 868 565Q852 346 720 234Q654 177 585 107T471 -27Q460 -39 449 -31Q393 5 299 68T124 104ZM305 269Q359 249 422 211Q491 170 545 138Q558 130 567 144Q596 193 634 276T675 465Q676 574 633 661T538 827Q480
911 322 820Q308 813 316 798Q401 649 378 521Q357 399 296 294Q293 289 295 280T305 269Z" />
<glyph unicode="w" glyph-name="w" horiz-adv-x="1411" d="M871 849Q932 882 1005 927T1127 1018Q1162 1055 1169 1005Q1173 968 1200 939T1250 882Q1368 729 1357 563Q1346 389 1243 284Q1200 239 1148 198T1049 98T968 -27Q955 -54 931 -27Q823 109 596 179Q581
186 581 196T591 211Q655 233 654 344Q654 443 652 542T652 741V742Q650 773 620 810Q573 872 525 834L417 752Q411 746 411 738Q411 642 412 546T413 353Q413 195 475 167Q481 162 481 154T475 141Q377 70 327 -40Q320 -50 312 -49T298 -40Q243 71 147 140Q139
144 139 153T147 167Q212 197 212 353V539Q212 632 209 725Q208 770 187 794T144 836Q54 911 69 1001T187 1186Q206 1204 219 1194T218 1170Q174 1124 178 1081T251 1017Q344 988 374 939T409 826Q409 815 417 811T436 814Q487 857 549 911T634 1004Q650 1033 679
1016Q679 1015 681 1015Q813 949 848 858Q851 849 857 847T871 849ZM861 639Q862 407 863 291Q863 276 875 270L1029 178Q1054 165 1070 182L1088 201Q1171 322 1171 495Q1171 594 1130 675T1022 832Q986 871 909 836Q894 829 870 816Q860 812 862 800Q862 772
861 639Z" />
<glyph unicode="x" glyph-name="x" horiz-adv-x="807" d="M453 772L452 287Q452 255 468 246L539 205Q561 194 609 253Q623 266 635 256T635 233Q584 183 526 107T441 -24Q437 -32 427 -33T405 -24Q384 -2 340 33T252 68Q192 69 150 28T111 -56Q112 -184 217 -255T439
-291Q469 -281 503 -243T588 -205T667 -253Q683 -289 664 -321T603 -363Q363 -424 203 -313T71 -9Q82 64 115 110T212 192Q251 219 252 313L251 728Q251 830 213 853Q169 882 142 832Q130 811 116 822T117 857Q146 903 172 951T226 1047Q244 1077 273 1058Q419
986 448 878Q451 868 460 866T476 872L630 1049Q636 1055 644 1055T657 1046L762 845Q767 836 761 828L640 684Q626 667 613 687L531 837Q528 843 519 844T505 839L457 782Q453 778 453 772Z" />
<glyph unicode="y" glyph-name="y" horiz-adv-x="959" d="M416 878Q476 911 537 949T651 1038Q686 1075 693 1025Q696 988 724 959T775 902Q909 732 914 530Q920 236 707 11T317 -334Q293 -350 283 -338T288 -313Q429 -188 573 -40T703 429Q697 555 664 666T546
852Q498 891 407 839Q400 834 400 824Q401 631 402 499T405 232Q408 140 471 165L516 200Q533 213 546 202T544 177Q493 126 446 78T369 -24Q358 -47 332 -24Q284 31 260 53T139 120Q119 127 119 138T133 153Q197 175 196 285Q196 399 198 515T198 743Q196 789
175 813T133 855Q43 930 61 1021T182 1206Q200 1226 213 1215T214 1190Q169 1144 174 1101T246 1037Q324 1013 354 976T392 891Q393 883 400 879T416 878Z" />
<glyph unicode="z" glyph-name="z" horiz-adv-x="682" d="M132 827Q112 816 107 829T116 857Q164 901 212 945T306 1039Q325 1063 340 1061T361 1041Q365 1017 380 1016T418 1000Q583 873 515 767T307 568Q298 562 299 553T311 539Q366 521 410 496Q420 492 427
498Q509 555 596 597Q622 608 629 594T618 570Q524 525 469 486Q449 475 468 460Q544 403 586 324T632 80Q635 -93 525 -234T300 -376Q212 -376 134 -290T56 -74Q56 166 249 353Q265 371 246 379Q180 415 92 428Q47 438 86 462Q196 526 279 610T341 767T263 855T132
827ZM300 -340Q371 -340 416 -260T444 17Q424 233 307 336Q295 348 284 335Q144 173 143 -75Q143 -180 178 -260T300 -340Z" />
<glyph unicode="{" glyph-name="braceleft" horiz-adv-x="679" d="M589 -32Q589 -37 578 -40T551 -43Q395 -20 302 74Q197 179 197 301Q197 332 217 441Q228 495 232 527T237 574Q237 645 190 686Q136 737 69 745Q56 746 48 748T40 756V792Q40 797 48 799T69 804Q136
812 191 861Q214 881 225 909T237 973Q237 988 233 1020T217 1107Q197 1216 197 1247Q197 1314 226 1373T309 1481Q360 1525 421 1553T551 1590Q567 1591 578 1588T589 1579V1549Q589 1546 582 1543T563 1538Q393 1496 393 1350Q393 1335 398 1300T412 1214Q421
1163 426 1126T431 1074Q431 971 372 898T181 776Q235 753 280 723T355 658V659Q431 571 431 474Q431 459 426 422T412 334Q403 283 398 248T393 198Q393 52 563 8Q574 7 581 4T589 -3V-32Z" />
<glyph unicode="|" glyph-name="bar" horiz-adv-x="324" d="M221 -87Q221 -92 213 -94T191 -96H126Q114 -96 106 -94T97 -87V1587Q97 1592 105 1594T126 1597H191Q204 1597 212 1595T221 1587V-87Z" />
<glyph unicode="}" glyph-name="braceright" horiz-adv-x="679" d="M40 1579Q40 1584 51 1587T78 1590Q234 1567 327 1473Q432 1368 432 1246Q432 1215 412 1106Q401 1052 397 1020T392 973Q392 902 439 861Q493 810 560 802Q573 801 581 799T589 791V755Q589
750 581 748T560 743Q493 735 438 686Q415 666 404 638T392 574Q392 559 396 527T412 440Q432 331 432 300Q432 233 403 174T320 66Q269 22 208 -6T78 -43Q62 -44 51 -41T40 -32V-2Q40 1 47 4T66 9Q236 51 236 197Q236 212 231 247T217 333Q208 384 203 421T198
473Q198 576 257 649T448 771Q394 794 349 824T274 889V888Q198 976 198 1073Q198 1088 203 1125T217 1213Q226 1264 231 1299T236 1349Q236 1495 66 1539Q55 1540 48 1543T40 1550V1579Z" />
<glyph unicode="~" glyph-name="asciitilde" horiz-adv-x="750" d="M63 685H688Q704 685 704 668V554Q704 537 688 537H63Q47 537 47 554V668Q47 685 63 685Z" />
<glyph unicode="&#xa0;" glyph-name="space" horiz-adv-x="600" />
<glyph unicode="&#xa1;" glyph-name="exclamdown" horiz-adv-x="411" d="M347 898Q269 848 216 766Q200 742 187 766Q140 855 56 898Q28 912 56 926Q144 969 187 1057Q202 1086 216 1057Q259 977 347 926Q371 914 347 898ZM364 -249Q277 -304 218 -396Q201 -422
186 -396Q134 -296 40 -249Q9 -233 40 -217Q138 -26 186 550Q203 582 218 550Q266 -17 364 -217Q391 -231 364 -249Z" />
<glyph unicode="&#xa2;" glyph-name="cent" horiz-adv-x="852" d="M497 -96H433V-3Q405 -21 384 -38Q375 -44 358 -42T340 -29Q338 -5 315 7T275 31Q160 109 113 221T59 460Q47 745 213 894Q272 947 349 980Q390 998 433 1013V1101H497V1032Q502 1033 507 1035Q529
1039 546 1013L748 881Q847 870 792 850Q718 839 657 798Q629 780 580 793L497 846V172Q634 131 738 171Q753 178 761 169Q769 156 756 150Q675 109 558 59Q525 45 497 31V-96ZM333 929Q267 890 249 743T257 473Q299 264 433 197V886L373 925Q359 944 333 929Z"
/>
<glyph unicode="&#xa3;" glyph-name="sterling" horiz-adv-x="1171" d="M564 617H565H692Q741 617 741 578T692 538H501Q487 538 472 535T446 519Q410 482 359 442Q349 434 350 425T364 413Q506 363 628 261Q745 163 875 165T1075 268Q1091 291 1110 281T1115
246Q1066 176 997 106T835 3T627 -10T373 123Q298 183 224 209T72 202Q47 195 41 216T66 249Q123 272 178 311T303 439Q332 476 339 512Q341 517 339 521T332 530T320 536T306 538H123Q77 538 77 577T123 617H274Q290 615 296 629T291 658Q249 725 204 793Q151
868 129 953T128 1113Q172 1266 308 1359T655 1452Q1117 1451 1113 1043Q1112 852 953 766T616 768Q583 783 591 801T626 810Q728 768 821 821T923 1025Q933 1202 857 1300T651 1408Q525 1408 445 1339T365 1176Q365 1113 391 1057T450 949Q510 852 538 728Q546
694 536 657Q531 642 541 630T564 617Z" />
<glyph unicode="&#xa4;" glyph-name="currency" horiz-adv-x="1365" d="M138 242L325 429Q214 565 214 725Q214 879 321 1016L132 1205L196 1269L384 1081Q527 1192 683 1192Q840 1192 980 1082L1168 1268L1232 1205L1045 1018Q1151 880 1151 724Q1151 570 1044
432L1234 242L1171 178L981 368Q845 259 685 259Q533 259 388 365L201 178L138 242ZM678 1094Q531 1094 422 985Q316 877 316 726Q316 573 423 466Q531 358 682 358Q834 358 942 466Q1049 573 1049 724Q1049 880 943 985Q833 1094 678 1094Z" />
<glyph unicode="&#xa5;" glyph-name="yen" horiz-adv-x="1174" d="M107 827H339L141 1297H48V1365H583V1297H496L725 746L877 1114Q916 1208 916 1229Q916 1283 881 1293Q865 1297 806 1297V1365H1134V1297Q1074 1294 1063 1291Q1036 1284 1009 1235Q963 1152
957 1133L831 827H1075V741H795L756 646V517H1075V431H756V68H877V0H312V68H434V431H107V517H434V602L375 741H107V827Z" />
<glyph unicode="&#xa6;" glyph-name="brokenbar" horiz-adv-x="1024" d="M457 1365H566V693H457V1365ZM457 314H566V-341H457V314Z" />
<glyph unicode="&#xa7;" glyph-name="section" horiz-adv-x="966" d="M804 1339Q838 1291 836 1213T744 1128Q701 1124 664 1141T617 1179Q602 1209 609 1250T634 1322Q687 1418 490 1421Q379 1421 326 1374T282 1259Q288 1206 344 1163T490 1081T671 1007T811
944Q895 893 907 834T895 716T823 606T745 522Q738 517 740 509Q741 501 747 497Q826 447 870 383T898 225Q878 116 768 55T498 -6Q336 -6 261 30T142 126Q106 173 108 250T200 336Q243 339 281 322T329 286Q344 254 336 214T312 142Q258 46 492 45Q602 44 668
87T727 200Q720 252 651 298T490 383T309 457T170 520Q85 570 73 630T86 749T158 859T237 944Q242 947 242 957Q240 965 234 968Q154 1018 124 1080T111 1235Q129 1344 226 1408T484 1473Q608 1472 684 1435T804 1339ZM321 920Q309 926 302 917Q268 881 236 818T260
725Q355 674 461 632T661 544Q671 539 680 548Q713 584 745 647T722 740Q626 791 520 833T321 920Z" />
<glyph unicode="&#xa8;" glyph-name="dieresis" horiz-adv-x="943" d="M311 1451Q422 1451 412 1344Q406 1290 345 1236T247 1182Q211 1182 192 1239T177 1344Q180 1390 221 1420T311 1451ZM741 1451Q852 1451 842 1344Q836 1290 775 1236T677 1182Q641 1182 622
1239T607 1344Q610 1390 651 1420T741 1451Z" />
<glyph unicode="&#xa9;" glyph-name="copyright" horiz-adv-x="1678" d="M826 1331Q705 1331 601 1288T410 1157Q323 1070 280 967T236 741Q236 620 279 517T410 326Q496 240 600 197T826 154Q949 154 1052 196T1242 326Q1329 413 1372 516T1416 741Q1416 863
1373 966T1242 1157Q1154 1245 1051 1288T826 1331ZM826 1485Q978 1485 1109 1430T1350 1266Q1459 1157 1513 1026T1567 741Q1567 589 1513 459T1350 219Q1241 110 1110 55T826 0Q674 0 543 55T302 219Q193 328 139 458T85 741Q85 895 139 1026T302 1266Q411 1375
542 1430T826 1485ZM465 525Q492 479 530 441T615 376T715 334T827 319Q914 319 990 352T1124 442T1215 577T1248 741Q1248 828 1215 905T1125 1039T991 1130T827 1163Q767 1163 712 1147T609 1102T523 1033T457 943L601 876Q635 936 695 973T830 1010Q884 1010
932 990T1015 934T1070 850T1091 748Q1091 694 1071 646T1015 563T932 508T830 487Q761 487 703 519T610 605L465 525Z" />
<glyph unicode="&#xaa;" glyph-name="ordfeminine" horiz-adv-x="737" d="M427 538Q386 507 338 470T247 401Q233 390 225 391T218 406Q218 423 168 470Q38 592 42 788Q47 956 198 1072Q245 1107 285 1146T357 1242Q370 1267 392 1243Q514 1106 635 1081Q674 1074
643 1051Q606 1023 602 983V982L605 616Q605 579 631 566T690 587Q702 600 712 594T713 569Q684 526 657 485T612 398L611 397Q600 379 584 397Q575 407 563 410Q472 430 448 531Q446 535 440 540Q433 541 427 538ZM436 1009Q386 1023 320 1086Q288 1124 269 1093Q184
967 202 814Q228 595 356 544Q357 544 358 543Q390 533 437 583Q440 587 440 591Q439 603 439 629L446 996Q446 1006 436 1009ZM63 303H688Q704 303 704 286V172Q704 155 688 155H63Q47 155 47 172V286Q47 303 63 303Z" />
<glyph unicode="&#xab;" glyph-name="guillemotleft" horiz-adv-x="997" d="M519 956H558Q570 956 573 947Q577 938 571 930L283 588Q272 577 283 568L571 226Q577 217 573 209Q570 200 558 200H519Q511 200 509 203L29 565Q22 570 22 578Q22 584 29 591L509 953Q512
956 519 956ZM901 956H940Q952 956 955 947Q959 938 953 930L665 588Q654 577 665 568L953 226Q959 217 955 209Q952 200 940 200H901Q893 200 891 203L411 565Q404 570 404 578Q404 584 411 591L891 953Q894 956 901 956Z" />
<glyph unicode="&#xac;" glyph-name="logicalnot" horiz-adv-x="1024" d="M846 0V447H68V546H955V0H846Z" />
<glyph unicode="&#xad;" glyph-name="uni00AD" horiz-adv-x="793" d="M63 685H736Q752 685 752 668V554Q752 537 736 537H63Q47 537 47 554V668Q47 685 63 685Z" />
<glyph unicode="&#xae;" glyph-name="registered" horiz-adv-x="1100" d="M531 1395Q460 1395 400 1370T288 1293Q237 1242 212 1182T186 1050Q186 979 211 919T288 807Q338 757 399 732T531 707Q603 707 663 732T774 807Q825 858 850 918T876 1050Q876 1121 851
1181T774 1293Q723 1345 663 1370T531 1395ZM498 1223H477V1101H498Q543 1101 566 1116T590 1163Q590 1193 568 1208T498 1223ZM520 1303Q622 1303 673 1269T724 1163Q724 1113 694 1080T607 1037Q631 1024 651 1001T689 944L754 814H620L558 939Q535 985 518 1004T484
1023H477V814H353V1303H520ZM531 1485Q620 1485 697 1453T838 1357Q901 1293 932 1217T964 1050Q964 961 933 885T838 745Q774 681 697 649T531 617Q442 617 366 649T225 745Q161 809 130 885T98 1050Q98 1140 129 1216T225 1357Q289 1421 365 1453T531 1485Z"
/>
<glyph unicode="&#xaf;" glyph-name="overscore" horiz-adv-x="1032" d="M82 1335H917Q933 1335 933 1318V1204Q933 1187 917 1187H82Q66 1187 66 1204V1318Q66 1335 82 1335Z" />
<glyph unicode="&#xb0;" glyph-name="degree" horiz-adv-x="685" d="M343 1434Q462 1434 546 1326T631 1064Q631 910 547 802T343 693Q223 693 139 801T55 1064Q55 1217 139 1325T343 1434ZM343 1371Q279 1371 267 1281T255 1064Q255 936 267 846T343 756Q406
756 419 846T432 1064Q432 1191 419 1281T343 1371Z" />
<glyph unicode="&#xb1;" glyph-name="plusminus" horiz-adv-x="793" d="M325 424V686H63Q47 686 47 703V817Q47 834 63 834H325V1097Q325 1113 342 1113H456Q473 1113 473 1097V834H736Q752 834 752 817V703Q752 686 736 686H473V424Q473 408 456 408H342Q325
408 325 424ZM63 297H736Q752 297 752 280V166Q752 149 736 149H63Q47 149 47 166V280Q47 297 63 297Z" />
<glyph unicode="&#xb2;" glyph-name="uni00B2" horiz-adv-x="607" d="M27 1195Q48 1300 113 1380Q179 1462 303 1462Q553 1462 575 1233Q576 1222 576 1213T577 1193Q577 1104 535 1041Q511 1004 483 971T425 907L199 689V688Q199 686 200 685Q198 688 200 688H519Q520
688 520 689Q522 713 525 737T531 786Q534 814 563 809Q588 804 586 777L564 546Q561 529 544 529H34Q18 529 15 541Q13 552 18 562L279 898Q328 961 354 1022T380 1138Q380 1167 372 1199V1198Q337 1329 254 1328Q209 1327 179 1314T130 1278Q94 1227 84 1183Q80
1154 49 1156Q18 1158 27 1195Z" />
<glyph unicode="&#xb3;" glyph-name="uni00B3" horiz-adv-x="630" d="M52 1311Q68 1343 95 1369T159 1419Q195 1440 236 1452T321 1464Q363 1464 405 1451T485 1413Q523 1387 546 1354T574 1281Q579 1197 531 1148Q495 1109 450 1083Q608 1024 611 842Q612 774
589 717T517 608Q419 510 308 509Q251 509 204 518T120 547T58 599T21 677Q16 697 18 716T31 750T59 774T100 784Q146 784 170 734Q181 712 187 691T196 648Q198 610 223 584T305 561Q382 565 415 622Q429 646 435 674T442 734Q442 742 442 749T441 764Q426 901
362 937Q329 954 292 962T213 968Q198 967 189 972T179 991Q177 1016 203 1024Q278 1045 330 1087Q355 1107 370 1137T392 1205Q398 1273 359 1320Q338 1344 309 1355T244 1367Q196 1368 160 1343T95 1284Q82 1270 71 1268T53 1269T45 1285T52 1312V1311Z" />
<glyph unicode="&#xb4;" glyph-name="acute" horiz-adv-x="1024" d="M464 1053H427L507 1291Q539 1385 565 1407Q595 1433 636 1433Q731 1433 731 1361Q731 1311 655 1237L464 1053Z" />
<glyph unicode="&#xb5;" glyph-name="uni00B5" horiz-adv-x="1016" d="M419 55Q421 -47 448 -119Q479 -202 535 -258Q548 -272 531 -286Q516 -295 504 -280Q481 -252 457 -220T415 -154Q410 -144 401 -144Q391 -144 386 -152Q327 -252 222 -313T-5 -371Q-21 -371
-25 -358Q-30 -333 -5 -333Q94 -333 153 -276T213 -68L211 706Q211 808 173 831Q128 858 101 809Q90 790 76 801T77 836Q106 881 132 929T187 1025Q204 1055 232 1036H233Q429 941 421 778L419 148Q420 140 423 136T436 136L610 234Q616 238 616 247L617 664Q617
713 612 763T556 850Q549 855 549 863Q549 870 556 876Q645 940 703 1056Q707 1065 718 1065Q727 1065 732 1056Q787 944 884 877Q891 871 891 863Q891 854 883 850Q838 820 829 772T819 664V312Q819 209 857 186Q899 158 928 208Q939 227 953 217T953 182Q923
136 897 88T843 -6Q826 -35 798 -18L796 -17Q647 54 621 163Q615 184 592 169L432 79Q425 75 422 71T419 55Z" />
<glyph unicode="&#xb6;" glyph-name="paragraph" horiz-adv-x="823" d="M591 1234Q614 1232 654 1229Q661 1227 668 1232Q673 1237 673 1244V1292Q673 1308 689 1308H717Q733 1308 733 1292V1224Q733 1212 745 1209Q756 1206 787 1195Q798 1190 798 1180V1149Q798
1140 790 1136Q783 1131 776 1133Q776 1133 755 1140Q746 1142 740 1138Q733 1131 733 1125V418Q733 410 740 405Q748 400 755 403Q755 403 776 409Q784 412 790 408Q798 401 798 394V350Q798 338 787 335Q756 323 745 321Q733 317 733 306V104Q733 87 717 87H689Q673
87 673 104V285Q673 292 668 297Q663 302 654 302Q633 297 591 296Q576 296 576 280V104Q576 87 559 87H531Q515 87 515 104V283Q515 298 500 300Q301 322 166 453T31 765Q31 943 166 1075T500 1230Q515 1231 515 1246V1292Q515 1308 531 1308H559Q576 1308 576
1292V1250Q576 1234 591 1234ZM658 1158Q630 1160 614 1160Q608 1160 602 1160T591 1160Q576 1158 576 1143V400Q576 384 591 384Q596 384 602 384T614 384Q644 384 658 385Q673 386 673 401V1142Q673 1156 658 1158ZM494 1142Q383 1105 345 1003T306 771Q306 641
344 540T494 401Q501 398 508 403Q515 408 515 417V1127Q515 1135 508 1140Q501 1144 494 1142Z" />
<glyph unicode="&#xb7;" glyph-name="middot" horiz-adv-x="411" d="M53 817Q131 867 184 949Q200 973 213 949Q260 860 344 817Q372 803 344 789Q256 746 213 658Q198 629 184 658Q141 738 53 789Q29 801 53 817Z" />
<glyph unicode="&#xb8;" glyph-name="cedilla" horiz-adv-x="1024" d="M555 0H623L524 -154Q578 -139 619 -139Q692 -139 742 -176Q797 -216 797 -280Q797 -371 708 -411Q647 -439 549 -439Q484 -439 398 -423Q350 -415 322 -403L342 -358Q398 -377 460 -377Q518
-377 552 -357Q593 -333 593 -285Q593 -249 568 -230Q544 -212 509 -212Q480 -212 455 -225L425 -196L555 0Z" />
<glyph unicode="&#xb9;" glyph-name="uni00B9" horiz-adv-x="434" d="M52 1195Q35 1184 24 1184T9 1190T6 1205T20 1225Q86 1279 140 1336T237 1453Q244 1462 254 1462H283Q305 1462 305 1442L303 753Q303 590 402 583Q413 582 418 575T424 555Q423 530 399 530H62Q37
530 37 557Q37 584 61 584Q113 585 130 628T147 757L148 1142Q146 1217 109 1217Q89 1217 52 1194V1195Z" />
<glyph unicode="&#xba;" glyph-name="ordmasculine" horiz-adv-x="726" d="M358 388Q346 368 328 388Q240 497 61 552Q46 556 46 565T56 578Q107 596 107 684L105 1092Q105 1101 104 1106T104 1116T115 1121Q328 1139 494 1237Q501 1241 507 1240T514 1228Q527
1142 598 1059Q638 1011 664 928T684 789Q676 724 642 673T563 578Q511 527 451 492T358 388ZM270 1103L274 642Q274 630 283 625L425 537Q446 524 463 545Q539 627 532 741Q530 812 504 868T440 968Q378 1031 345 1124Q343 1128 338 1131T327 1132Q303 1123 279
1116Q270 1113 270 1103ZM69 303H674Q690 303 690 286V172Q690 155 674 155H69Q53 155 53 172V286Q53 303 69 303Z" />
<glyph unicode="&#xbb;" glyph-name="guillemotright" horiz-adv-x="983" d="M448 200H409Q397 200 394 209Q390 218 396 226L684 568Q695 579 684 588L396 930Q390 939 394 947Q397 956 409 956H448Q456 956 458 953L938 591Q945 586 945 578Q945 572 938 565L458
203Q455 200 448 200ZM66 200H27Q15 200 12 209Q8 218 14 226L302 568Q313 579 302 588L14 930Q8 939 12 947Q15 956 27 956H66Q74 956 76 953L556 591Q563 586 563 578Q563 572 556 565L76 203Q73 200 66 200Z" />
<glyph unicode="&#xbc;" glyph-name="onequarter" horiz-adv-x="1509" d="M1398 1336L1427 1311Q1438 1298 1428 1287L250 -73Q238 -85 227 -74L197 -49Q185 -39 196 -26L1374 1335Q1382 1346 1398 1336ZM906 114Q899 114 898 119Q893 123 898 128L1104 450Q1107
455 1115 454Q1122 452 1122 445V123Q1122 114 1112 114H906ZM1248 605Q1248 614 1238 614H1173Q1167 614 1164 609L847 116Q846 113 846 111V39Q846 28 855 28H1112Q1116 28 1119 25Q1122 22 1122 18V-22Q1122 -191 1033 -191Q1020 -191 1020 -207Q1020 -223 1033
-223H1347Q1358 -223 1358 -209Q1359 -193 1347 -192Q1246 -192 1248 -27V18Q1248 28 1257 28H1371Q1380 28 1380 39V103Q1380 114 1371 114H1257Q1248 114 1248 123V605ZM174 1179Q156 1159 149 1172Q143 1183 154 1194Q277 1295 363 1413Q366 1418 371 1418H398Q409
1418 409 1408L408 750Q408 580 512 577Q524 577 524 562Q522 546 510 546H187Q173 546 173 563Q173 579 186 579Q278 575 278 753L279 1121Q279 1254 174 1179Z" />
<glyph unicode="&#xbd;" glyph-name="onehalf" horiz-adv-x="1519" d="M1398 1336L1427 1311Q1438 1298 1428 1287L250 -73Q238 -85 227 -74L197 -49Q185 -39 196 -26L1374 1335Q1382 1346 1398 1336ZM174 1179Q156 1159 149 1172Q143 1183 154 1194Q277 1295
363 1413Q366 1418 371 1418H398Q409 1418 409 1408L408 750Q408 580 512 577Q524 577 524 562Q522 546 510 546H187Q173 546 173 563Q173 579 186 579Q278 575 278 753L279 1121Q279 1254 174 1179ZM933 391Q943 491 1009 563Q1073 633 1187 638Q1414 638 1437
428Q1446 320 1400 252Q1350 176 1296 125L1081 -81Q1074 -87 1079 -93Q1080 -98 1089 -98H1393Q1401 -98 1403 -89L1413 2Q1416 19 1431 18Q1447 18 1447 -4L1426 -222Q1424 -231 1416 -231H930Q924 -231 921 -226Q919 -220 923 -215L1172 104Q1297 267 1280 395Q1262
523 1140 529Q1062 524 1021 476Q978 428 969 383Q965 362 946 364Q928 365 933 391Z" />
<glyph unicode="&#xbe;" glyph-name="threequarters" horiz-adv-x="1509" d="M1398 1336L1427 1311Q1438 1298 1428 1287L250 -73Q238 -85 227 -74L197 -49Q185 -39 196 -26L1374 1335Q1382 1346 1398 1336ZM812 106Q805 106 804 111Q799 115 804 120L1010 442Q1013
447 1021 446Q1028 444 1028 437V115Q1028 106 1018 106H812ZM1154 597Q1154 606 1144 606H1079Q1073 606 1070 601L753 108Q752 105 752 103V31Q752 20 761 20H1018Q1022 20 1025 17Q1028 14 1028 10V-30Q1028 -199 939 -199Q926 -199 926 -215Q926 -231 939 -231H1253Q1264
-231 1264 -217Q1265 -201 1253 -200Q1152 -200 1154 -35V10Q1154 20 1163 20H1277Q1286 20 1286 31V95Q1286 106 1277 106H1163Q1154 106 1154 115V597ZM103 1290Q132 1347 195 1388Q257 1429 348 1428Q428 1428 495 1391Q563 1353 577 1264Q584 1170 542 1132Q501
1094 447 1076Q610 1030 612 851Q614 727 527 637Q439 547 336 546Q235 544 162 578Q93 610 74 698Q66 730 83 758Q101 785 139 787Q184 788 204 752Q221 713 220 667Q224 627 249 601Q273 573 335 577Q412 581 446 639Q478 695 471 778Q458 919 394 951Q326 984
245 979Q225 977 224 993Q220 1007 240 1012Q312 1033 363 1074Q415 1116 424 1193Q434 1262 392 1308Q349 1354 275 1356Q225 1357 192 1331Q156 1305 128 1275Q113 1259 104 1266Q93 1270 103 1290Z" />
<glyph unicode="&#xbf;" glyph-name="questiondown" horiz-adv-x="895" d="M703 -129Q623 -129 624 -31Q624 -4 648 22T716 48Q869 51 876 -107Q868 -375 453 -379Q45 -383 42 -31Q46 122 143 190T336 289T510 358T586 465Q586 531 534 581T418 629Q352 628 311
583T241 474Q231 450 209 452Q188 457 198 482Q218 537 268 603T418 670Q532 671 622 621T731 469Q755 344 692 279T530 169T340 75T246 -86Q253 -331 474 -335Q591 -339 666 -292T743 -193Q743 -128 703 -129ZM576 919Q498 869 445 787Q429 763 416 787Q369 876
285 919Q257 933 285 947Q373 990 416 1078Q431 1107 445 1078Q488 998 576 947Q600 935 576 919Z" />
<glyph unicode="&#xc0;" glyph-name="Agrave" horiz-adv-x="1667" d="M1101 1201Q1078 1201 1078 1223Q1078 1236 1093 1244L1511 1445Q1537 1455 1544 1437T1530 1404Q1461 1350 1441 1258T1421 1041V349Q1421 138 1580 214Q1607 229 1616 211T1608 179L1399
-11Q1379 -25 1353 -18Q1203 25 1177 205Q1175 214 1166 218Q1157 221 1150 214Q1126 190 1100 160T968 43T778 -25T642 37Q562 102 495 164T329 201Q319 198 297 190T266 201T296 243Q374 295 449 351T589 477Q677 570 729 698T756 975Q731 1118 614 1221T335
1300Q230 1284 181 1214T125 1079Q114 989 166 939T287 878Q448 849 503 741T422 510Q404 495 390 505T387 536Q430 625 321 656Q204 689 125 770T46 989Q46 1181 197 1319T542 1459Q768 1459 886 1324T1007 1018Q1009 819 872 668T605 415Q597 410 599 400Q600
391 609 388Q678 359 733 319T826 239Q888 174 943 165T1086 218Q1108 234 1127 254T1165 299Q1169 304 1169 310Q1165 502 1166 695T1167 1083Q1167 1121 1158 1161T1101 1201ZM852 1602Q776 1676 776 1726Q776 1798 871 1798Q912 1798 942 1772Q968 1750 1000
1656L1080 1418H1043L852 1602Z" />
<glyph unicode="&#xc1;" glyph-name="Aacute" horiz-adv-x="1667" d="M1101 1201Q1078 1201 1078 1223Q1078 1236 1093 1244L1511 1445Q1537 1455 1544 1437T1530 1404Q1461 1350 1441 1258T1421 1041V349Q1421 138 1580 214Q1607 229 1616 211T1608 179L1399
-11Q1379 -25 1353 -18Q1203 25 1177 205Q1175 214 1166 218Q1157 221 1150 214Q1126 190 1100 160T968 43T778 -25T642 37Q562 102 495 164T329 201Q319 198 297 190T266 201T296 243Q374 295 449 351T589 477Q677 570 729 698T756 975Q731 1118 614 1221T335
1300Q230 1284 181 1214T125 1079Q114 989 166 939T287 878Q448 849 503 741T422 510Q404 495 390 505T387 536Q430 625 321 656Q204 689 125 770T46 989Q46 1181 197 1319T542 1459Q768 1459 886 1324T1007 1018Q1009 819 872 668T605 415Q597 410 599 400Q600
391 609 388Q678 359 733 319T826 239Q888 174 943 165T1086 218Q1108 234 1127 254T1165 299Q1169 304 1169 310Q1165 502 1166 695T1167 1083Q1167 1121 1158 1161T1101 1201ZM1074 1414H1037L1117 1652Q1149 1746 1175 1768Q1205 1794 1246 1794Q1341 1794 1341
1722Q1341 1672 1265 1598L1074 1414Z" />
<glyph unicode="&#xc2;" glyph-name="Acircumflex" horiz-adv-x="1667" d="M1101 1201Q1078 1201 1078 1223Q1078 1236 1093 1244L1511 1445Q1537 1455 1544 1437T1530 1404Q1461 1350 1441 1258T1421 1041V349Q1421 138 1580 214Q1607 229 1616 211T1608 179L1399
-11Q1379 -25 1353 -18Q1203 25 1177 205Q1175 214 1166 218Q1157 221 1150 214Q1126 190 1100 160T968 43T778 -25T642 37Q562 102 495 164T329 201Q319 198 297 190T266 201T296 243Q374 295 449 351T589 477Q677 570 729 698T756 975Q731 1118 614 1221T335
1300Q230 1284 181 1214T125 1079Q114 989 166 939T287 878Q448 849 503 741T422 510Q404 495 390 505T387 536Q430 625 321 656Q204 689 125 770T46 989Q46 1181 197 1319T542 1459Q768 1459 886 1324T1007 1018Q1009 819 872 668T605 415Q597 410 599 400Q600
391 609 388Q678 359 733 319T826 239Q888 174 943 165T1086 218Q1108 234 1127 254T1165 299Q1169 304 1169 310Q1165 502 1166 695T1167 1083Q1167 1121 1158 1161T1101 1201ZM1334 1483V1458Q1334 1450 1329 1448Q1323 1446 1318 1450L1098 1634Q1091 1642 1085
1634L866 1450Q860 1446 855 1448Q849 1450 849 1458V1483Q849 1488 851 1489L1083 1798Q1087 1802 1092 1802Q1096 1802 1100 1798L1332 1489Q1334 1487 1334 1483Z" />
<glyph unicode="&#xc3;" glyph-name="Atilde" horiz-adv-x="1667" d="M1101 1201Q1078 1201 1078 1223Q1078 1236 1093 1244L1511 1445Q1537 1455 1544 1437T1530 1404Q1461 1350 1441 1258T1421 1041V349Q1421 138 1580 214Q1607 229 1616 211T1608 179L1399
-11Q1379 -25 1353 -18Q1203 25 1177 205Q1175 214 1166 218Q1157 221 1150 214Q1126 190 1100 160T968 43T778 -25T642 37Q562 102 495 164T329 201Q319 198 297 190T266 201T296 243Q374 295 449 351T589 477Q677 570 729 698T756 975Q731 1118 614 1221T335
1300Q230 1284 181 1214T125 1079Q114 989 166 939T287 878Q448 849 503 741T422 510Q404 495 390 505T387 536Q430 625 321 656Q204 689 125 770T46 989Q46 1181 197 1319T542 1459Q768 1459 886 1324T1007 1018Q1009 819 872 668T605 415Q597 410 599 400Q600
391 609 388Q678 359 733 319T826 239Q888 174 943 165T1086 218Q1108 234 1127 254T1165 299Q1169 304 1169 310Q1165 502 1166 695T1167 1083Q1167 1121 1158 1161T1101 1201ZM1373 1641H1414Q1398 1571 1367 1528Q1313 1455 1226 1455Q1172 1455 1030 1501Q974
1519 939 1519Q887 1519 871 1460H833Q848 1530 872 1567Q925 1644 1015 1644Q1059 1644 1122 1626Q1148 1619 1209 1599Q1270 1580 1301 1580Q1335 1580 1353 1601Q1363 1613 1373 1641Z" />
<glyph unicode="&#xc4;" glyph-name="Adieresis" horiz-adv-x="1667" d="M853 1815Q964 1815 954 1708Q948 1654 887 1600T789 1546Q753 1546 734 1603T719 1708Q722 1754 763 1784T853 1815ZM1283 1815Q1394 1815 1384 1708Q1378 1654 1317 1600T1219 1546Q1183
1546 1164 1603T1149 1708Q1152 1754 1193 1784T1283 1815ZM1101 1219Q1078 1219 1078 1241Q1078 1254 1093 1262L1511 1463Q1537 1473 1544 1455T1530 1422Q1461 1368 1441 1276T1421 1059V367Q1421 156 1580 232Q1607 247 1616 229T1608 197L1399 7Q1379 -7 1353
0Q1203 43 1177 223Q1175 232 1166 236Q1157 239 1150 232Q1126 208 1100 178T968 61T778 -7T642 55Q562 120 495 182T329 219Q319 216 297 208T266 219T296 261Q374 313 449 369T589 495Q677 588 729 716T756 993Q731 1136 614 1239T335 1318Q230 1302 181 1232T125
1097Q114 1007 166 957T287 896Q448 867 503 759T422 528Q404 513 390 523T387 554Q430 643 321 674Q204 707 125 788T46 1007Q46 1199 197 1337T542 1477Q768 1477 886 1342T1007 1036Q1009 837 872 686T605 433Q597 428 599 418Q600 409 609 406Q678 377 733
337T826 257Q888 192 943 183T1086 236Q1108 252 1127 272T1165 317Q1169 322 1169 328Q1165 520 1166 713T1167 1101Q1167 1139 1158 1179T1101 1219Z" />
<glyph unicode="&#xc5;" glyph-name="Aring" horiz-adv-x="1667" d="M1052 1804Q1150 1804 1219 1738T1289 1579Q1289 1485 1220 1419T1052 1353Q954 1353 885 1419T816 1579Q816 1672 885 1738T1052 1804ZM1052 1737Q1000 1737 990 1690T980 1576Q980 1509 990
1462T1052 1415Q1104 1415 1114 1462T1125 1576Q1125 1642 1115 1689T1052 1737ZM1101 1201Q1078 1201 1078 1223Q1078 1236 1093 1244L1511 1445Q1537 1455 1544 1437T1530 1404Q1461 1350 1441 1258T1421 1041V349Q1421 138 1580 214Q1607 229 1616 211T1608
179L1399 -11Q1379 -25 1353 -18Q1203 25 1177 205Q1175 214 1166 218Q1157 221 1150 214Q1126 190 1100 160T968 43T778 -25T642 37Q562 102 495 164T329 201Q319 198 297 190T266 201T296 243Q374 295 449 351T589 477Q677 570 729 698T756 975Q731 1118 614
1221T335 1300Q230 1284 181 1214T125 1079Q114 989 166 939T287 878Q448 849 503 741T422 510Q404 495 390 505T387 536Q430 625 321 656Q204 689 125 770T46 989Q46 1181 197 1319T542 1459Q768 1459 886 1324T1007 1018Q1009 819 872 668T605 415Q597 410 599
400Q600 391 609 388Q678 359 733 319T826 239Q888 174 943 165T1086 218Q1108 234 1127 254T1165 299Q1169 304 1169 310Q1165 502 1166 695T1167 1083Q1167 1121 1158 1161T1101 1201Z" />
<glyph unicode="&#xc6;" glyph-name="AE" horiz-adv-x="2132" d="M1101 1094Q1078 1094 1078 1116Q1078 1129 1093 1137Q1566 1387 1639 1463Q1672 1488 1714 1466T1793 1425Q1826 1406 1876 1380T1976 1377Q1999 1392 2011 1380T2008 1350Q1957 1300 1913 1261T1827
1183Q1817 1175 1804 1175T1768 1188Q1595 1272 1529 1272Q1514 1271 1485 1245T1441 1151Q1421 1059 1421 934V837Q1474 892 1499 921Q1555 987 1608 980T1713 934Q1803 863 1852 894Q1878 911 1893 897T1891 855Q1866 821 1841 787T1781 724Q1711 663 1628 735Q1507
852 1471 816Q1441 790 1421 772V392Q1549 345 1634 250T1850 156T2050 259Q2066 282 2085 272T2090 237Q2041 167 1972 97T1810 -6T1622 -21T1394 111Q1338 168 1264 194Q1199 217 1157 198T1099 160Q1073 130 968 43T778 -25T642 37Q562 102 495 164T329 201Q319
198 297 190T266 201T296 243Q374 295 449 351T589 477Q677 570 729 698T756 975Q731 1118 614 1221T335 1300Q230 1284 181 1214T125 1079Q114 989 166 939T287 878Q448 849 503 741T422 510Q404 495 390 505T387 536Q430 625 321 656Q204 689 125 770T46 989Q46
1181 197 1319T542 1459Q768 1459 886 1324T1007 1018Q1009 819 872 668T605 415Q597 410 599 400Q600 391 609 388Q678 359 733 319T826 239Q888 174 943 165T1086 218Q1108 234 1127 254T1165 299Q1169 304 1169 310Q1165 502 1166 695T1167 976Q1167 1014 1158
1054T1101 1094Z" />
<glyph unicode="&#xc7;" glyph-name="Ccedilla" horiz-adv-x="1407" d="M764 241Q739 230 728 245T737 276Q853 362 856 423Q859 464 819 520T676 669Q469 857 471 981Q471 1095 643 1202Q649 1205 692 1230T754 1270Q763 1278 761 1288Q730 1425 589 1425Q446
1425 375 1248T325 860Q361 494 561 311T1018 127Q1160 127 1316 203Q1339 214 1350 198T1340 163Q1101 -26 794 -26Q487 -26 287 215T72 688Q51 1022 199 1254T573 1486Q665 1486 720 1440T797 1328Q804 1308 822 1319Q910 1384 985 1462Q1018 1487 1060 1465T1139
1424Q1172 1405 1220 1379T1322 1376Q1344 1387 1355 1376T1354 1349Q1303 1299 1259 1260T1173 1182Q1163 1172 1160 1171Q1156 1169 1150 1169Q1142 1169 1132 1176T1114 1187Q941 1271 875 1271Q827 1269 778 1230Q696 1166 695 1104Q692 1026 818 917Q1080
690 1094 555Q1104 427 764 241ZM699 0H767L668 -154Q722 -139 763 -139Q836 -139 886 -176Q941 -216 941 -280Q941 -371 852 -411Q791 -439 693 -439Q628 -439 542 -423Q494 -415 466 -403L486 -358Q542 -377 604 -377Q662 -377 696 -357Q737 -333 737 -285Q737
-249 712 -230Q688 -212 653 -212Q624 -212 599 -225L569 -196L699 0Z" />
<glyph unicode="&#xc8;" glyph-name="Egrave" horiz-adv-x="1439" d="M817 1256Q798 1246 779 1231Q697 1167 696 1105Q693 1027 819 918Q871 872 903 842Q910 836 916 837T927 844Q951 874 991 921Q1047 987 1100 980T1205 934Q1295 863 1344 894Q1370 911 1385
897T1383 855Q1358 821 1333 787T1273 724Q1203 663 1120 735Q1030 808 982 798Q973 796 970 787Q967 778 974 771Q1086 648 1095 556Q1105 428 765 242Q741 229 730 244T738 277Q854 363 857 424Q860 465 820 521T677 670Q470 858 472 982Q472 1096 644 1203Q650
1206 693 1231T755 1271Q764 1279 762 1289Q733 1426 590 1426Q447 1426 369 1248T326 783T562 312T1019 128Q1161 128 1317 204Q1342 215 1352 199T1341 164Q1102 -25 795 -25Q488 -25 288 216T73 689Q52 1023 200 1255T574 1487Q666 1487 721 1441T798 1329Q801
1320 808 1319Q813 1317 819 1318L823 1320Q911 1385 986 1463Q1019 1488 1061 1466T1140 1425Q1173 1406 1223 1380T1323 1377Q1346 1392 1358 1380T1355 1350Q1304 1300 1260 1261T1174 1183Q1164 1175 1151 1175T1115 1188Q942 1272 876 1272Q847 1271 817 1256ZM663
1664Q587 1738 587 1788Q587 1860 682 1860Q723 1860 753 1834Q779 1812 811 1718L891 1480H854L663 1664Z" />
<glyph unicode="&#xc9;" glyph-name="Eacute" horiz-adv-x="1439" d="M817 1256Q798 1246 779 1231Q697 1167 696 1105Q693 1027 819 918Q871 872 903 842Q910 836 916 837T927 844Q951 874 991 921Q1047 987 1100 980T1205 934Q1295 863 1344 894Q1370 911 1385
897T1383 855Q1358 821 1333 787T1273 724Q1203 663 1120 735Q1030 808 982 798Q973 796 970 787Q967 778 974 771Q1086 648 1095 556Q1105 428 765 242Q741 229 730 244T738 277Q854 363 857 424Q860 465 820 521T677 670Q470 858 472 982Q472 1096 644 1203Q650
1206 693 1231T755 1271Q764 1279 762 1289Q733 1426 590 1426Q447 1426 369 1248T326 783T562 312T1019 128Q1161 128 1317 204Q1342 215 1352 199T1341 164Q1102 -25 795 -25Q488 -25 288 216T73 689Q52 1023 200 1255T574 1487Q666 1487 721 1441T798 1329Q801
1320 808 1319Q813 1317 819 1318L823 1320Q911 1385 986 1463Q1019 1488 1061 1466T1140 1425Q1173 1406 1223 1380T1323 1377Q1346 1392 1358 1380T1355 1350Q1304 1300 1260 1261T1174 1183Q1164 1175 1151 1175T1115 1188Q942 1272 876 1272Q847 1271 817 1256ZM846
1461H809L889 1699Q921 1793 947 1815Q977 1841 1018 1841Q1113 1841 1113 1769Q1113 1719 1037 1645L846 1461Z" />
<glyph unicode="&#xca;" glyph-name="Ecircumflex" horiz-adv-x="1439" d="M817 1256Q798 1246 779 1231Q697 1167 696 1105Q693 1027 819 918Q871 872 903 842Q910 836 916 837T927 844Q951 874 991 921Q1047 987 1100 980T1205 934Q1295 863 1344 894Q1370 911
1385 897T1383 855Q1358 821 1333 787T1273 724Q1203 663 1120 735Q1030 808 982 798Q973 796 970 787Q967 778 974 771Q1086 648 1095 556Q1105 428 765 242Q741 229 730 244T738 277Q854 363 857 424Q860 465 820 521T677 670Q470 858 472 982Q472 1096 644 1203Q650
1206 693 1231T755 1271Q764 1279 762 1289Q733 1426 590 1426Q447 1426 369 1248T326 783T562 312T1019 128Q1161 128 1317 204Q1342 215 1352 199T1341 164Q1102 -25 795 -25Q488 -25 288 216T73 689Q52 1023 200 1255T574 1487Q666 1487 721 1441T798 1329Q801
1320 808 1319Q813 1317 819 1318L823 1320Q911 1385 986 1463Q1019 1488 1061 1466T1140 1425Q1173 1406 1223 1380T1323 1377Q1346 1392 1358 1380T1355 1350Q1304 1300 1260 1261T1174 1183Q1164 1175 1151 1175T1115 1188Q942 1272 876 1272Q847 1271 817 1256ZM1092
1543V1518Q1092 1510 1087 1508Q1081 1506 1076 1510L856 1694Q849 1702 843 1694L624 1510Q618 1506 613 1508Q607 1510 607 1518V1543Q607 1548 609 1549L841 1858Q845 1862 850 1862Q854 1862 858 1858L1090 1549Q1092 1547 1092 1543Z" />
<glyph unicode="&#xcb;" glyph-name="Edieresis" horiz-adv-x="1439" d="M817 1256Q798 1246 779 1231Q697 1167 696 1105Q693 1027 819 918Q871 872 903 842Q910 836 916 837T927 844Q951 874 991 921Q1047 987 1100 980T1205 934Q1295 863 1344 894Q1370 911
1385 897T1383 855Q1358 821 1333 787T1273 724Q1203 663 1120 735Q1030 808 982 798Q973 796 970 787Q967 778 974 771Q1086 648 1095 556Q1105 428 765 242Q741 229 730 244T738 277Q854 363 857 424Q860 465 820 521T677 670Q470 858 472 982Q472 1096 644 1203Q650
1206 693 1231T755 1271Q764 1279 762 1289Q733 1426 590 1426Q447 1426 369 1248T326 783T562 312T1019 128Q1161 128 1317 204Q1342 215 1352 199T1341 164Q1102 -25 795 -25Q488 -25 288 216T73 689Q52 1023 200 1255T574 1487Q666 1487 721 1441T798 1329Q801
1320 808 1319Q813 1317 819 1318L823 1320Q911 1385 986 1463Q1019 1488 1061 1466T1140 1425Q1173 1406 1223 1380T1323 1377Q1346 1392 1358 1380T1355 1350Q1304 1300 1260 1261T1174 1183Q1164 1175 1151 1175T1115 1188Q942 1272 876 1272Q847 1271 817 1256ZM639
1811Q750 1811 740 1704Q734 1650 673 1596T575 1542Q539 1542 520 1599T505 1704Q508 1750 549 1780T639 1811ZM1069 1811Q1180 1811 1170 1704Q1164 1650 1103 1596T1005 1542Q969 1542 950 1599T935 1704Q938 1750 979 1780T1069 1811Z" />
<glyph unicode="&#xcc;" glyph-name="Igrave" horiz-adv-x="1403" d="M775 682Q784 662 762 650Q540 533 338 641T122 960T242 1333T621 1503Q717 1505 812 1465T950 1388Q1052 1297 1124 1244T1274 1228Q1299 1242 1311 1224T1286 1181Q1067 1041 1052 934T1202
578Q1356 345 1311 178T1102 -108Q945 -221 758 -239T405 -111Q325 -39 257 20T90 17Q64 -2 49 13T52 47Q353 353 640 36Q772 -108 878 -125T1062 -72Q1137 -1 1123 105T992 391Q828 639 833 769T1028 1052Q1040 1062 1037 1072T1018 1081Q895 1082 786 1189T517
1299Q370 1290 292 1199T230 933T409 687T741 688Q765 699 775 682ZM711 1710Q635 1784 635 1834Q635 1906 730 1906Q771 1906 801 1880Q827 1858 859 1764L939 1526H902L711 1710Z" />
<glyph unicode="&#xcd;" glyph-name="Iacute" horiz-adv-x="1403" d="M775 682Q784 662 762 650Q540 533 338 641T122 960T242 1333T621 1503Q717 1505 812 1465T950 1388Q1052 1297 1124 1244T1274 1228Q1299 1242 1311 1224T1286 1181Q1067 1041 1052 934T1202
578Q1356 345 1311 178T1102 -108Q945 -221 758 -239T405 -111Q325 -39 257 20T90 17Q64 -2 49 13T52 47Q353 353 640 36Q772 -108 878 -125T1062 -72Q1137 -1 1123 105T992 391Q828 639 833 769T1028 1052Q1040 1062 1037 1072T1018 1081Q895 1082 786 1189T517
1299Q370 1290 292 1199T230 933T409 687T741 688Q765 699 775 682ZM901 1524H864L944 1762Q976 1856 1002 1878Q1032 1904 1073 1904Q1168 1904 1168 1832Q1168 1782 1092 1708L901 1524Z" />
<glyph unicode="&#xce;" glyph-name="Icircumflex" horiz-adv-x="1403" d="M775 682Q784 662 762 650Q540 533 338 641T122 960T242 1333T621 1503Q717 1505 812 1465T950 1388Q1052 1297 1124 1244T1274 1228Q1299 1242 1311 1224T1286 1181Q1067 1041 1052 934T1202
578Q1356 345 1311 178T1102 -108Q945 -221 758 -239T405 -111Q325 -39 257 20T90 17Q64 -2 49 13T52 47Q353 353 640 36Q772 -108 878 -125T1062 -72Q1137 -1 1123 105T992 391Q828 639 833 769T1028 1052Q1040 1062 1037 1072T1018 1081Q895 1082 786 1189T517
1299Q370 1290 292 1199T230 933T409 687T741 688Q765 699 775 682ZM1000 1583V1558Q1000 1550 995 1548Q989 1546 984 1550L764 1734Q757 1742 751 1734L532 1550Q526 1546 521 1548Q515 1550 515 1558V1583Q515 1588 517 1589L749 1898Q753 1902 758 1902Q762
1902 766 1898L998 1589Q1000 1587 1000 1583Z" />
<glyph unicode="&#xcf;" glyph-name="Idieresis" horiz-adv-x="1403" d="M775 682Q784 662 762 650Q540 533 338 641T122 960T242 1333T621 1503Q717 1505 812 1465T950 1388Q1052 1297 1124 1244T1274 1228Q1299 1242 1311 1224T1286 1181Q1067 1041 1052 934T1202
578Q1356 345 1311 178T1102 -108Q945 -221 758 -239T405 -111Q325 -39 257 20T90 17Q64 -2 49 13T52 47Q353 353 640 36Q772 -108 878 -125T1062 -72Q1137 -1 1123 105T992 391Q828 639 833 769T1028 1052Q1040 1062 1037 1072T1018 1081Q895 1082 786 1189T517
1299Q370 1290 292 1199T230 933T409 687T741 688Q765 699 775 682ZM500 1815Q611 1815 601 1708Q595 1654 534 1600T436 1546Q400 1546 381 1603T366 1708Q369 1754 410 1784T500 1815ZM930 1815Q1041 1815 1031 1708Q1025 1654 964 1600T866 1546Q830 1546 811
1603T796 1708Q799 1754 840 1784T930 1815Z" />
<glyph unicode="&#xd0;" glyph-name="Eth" horiz-adv-x="1660" d="M722 625Q693 654 666 678Q461 853 532 982T760 1198Q788 1212 799 1193T786 1157Q637 1064 846 889Q952 783 988 693L1305 780Q1313 781 1317 774Q1320 768 1317 762L1318 728Q1312 719 1306
719L1004 636Q1009 608 1006 583Q991 451 788 339Q760 325 749 343T760 378Q875 456 801 540Q785 559 769 576Q391 466 219 560T47 927Q47 1078 142 1201T385 1399T710 1485T1059 1444Q1244 1374 1369 1242T1552 949T1593 616T1478 296Q1328 71 1113 -3T566 100Q482
145 395 163T214 105Q188 88 174 106T183 144Q355 303 491 347T849 250Q1046 124 1198 141T1420 322Q1540 605 1350 883T842 1236Q622 1288 402 1198T143 930Q95 716 234 619T722 625Z" />
<glyph unicode="&#xd1;" glyph-name="Ntilde" horiz-adv-x="1808" d="M566 562Q568 618 540 631T419 624Q277 589 165 686T53 976Q54 1179 179 1311T522 1445Q629 1445 749 1379T954 1187Q959 1180 969 1180Q980 1181 983 1190Q1022 1282 1101 1359T1281 1437Q1441
1437 1508 1362T1619 1118Q1643 1001 1712 993Q1733 992 1734 976T1711 951Q1518 885 1447 740T1457 370Q1494 268 1560 227T1705 233Q1734 251 1748 234T1742 199Q1676 145 1610 91T1477 -17Q1467 -25 1456 -17Q1227 152 1193 362T1462 859Q1471 867 1470 873T1461
885Q1390 929 1352 1127Q1332 1225 1294 1258T1181 1292Q1121 1292 1075 1240T1003 1113Q1001 1105 1004 1100Q1063 973 1069 825Q1075 647 1004 476T811 163Q678 6 563 -18T351 99Q267 225 180 130Q158 109 142 127T147 168Q420 446 576 241Q601 207 623 178T691
152Q749 153 813 278T877 593Q875 842 747 1029T454 1234Q289 1252 194 1174T102 986Q105 876 160 810T366 783Q655 857 617 570Q611 533 588 535T566 562ZM1153 1743H1194Q1178 1673 1147 1630Q1093 1557 1006 1557Q952 1557 810 1603Q754 1621 719 1621Q667 1621
651 1562H613Q628 1632 652 1669Q705 1746 795 1746Q839 1746 902 1728Q928 1721 989 1701Q1050 1682 1081 1682Q1115 1682 1133 1703Q1143 1715 1153 1743Z" />
<glyph unicode="&#xd2;" glyph-name="Ograve" horiz-adv-x="1544" d="M61 239Q280 413 364 407T655 249Q859 99 1007 119T1254 278Q1346 409 1303 646T1019 1056Q850 1176 674 1208T351 1150Q258 1093 271 991T430 834Q703 734 716 624T565 378Q546 362 534 372T536
399Q586 456 536 493T315 597Q62 693 68 878T305 1185Q450 1253 544 1311T687 1459Q692 1468 704 1467Q944 1436 1140 1302T1416 964Q1495 757 1454 565T1290 242Q1086 21 862 -13T416 94Q317 156 235 204T80 208Q65 199 55 211T61 239ZM947 1608Q871 1682 871
1732Q871 1804 966 1804Q1007 1804 1037 1778Q1063 1756 1095 1662L1175 1424H1138L947 1608Z" />
<glyph unicode="&#xd3;" glyph-name="Oacute" horiz-adv-x="1544" d="M61 239Q280 413 364 407T655 249Q859 99 1007 119T1254 278Q1346 409 1303 646T1019 1056Q850 1176 674 1208T351 1150Q258 1093 271 991T430 834Q703 734 716 624T565 378Q546 362 534 372T536
399Q586 456 536 493T315 597Q62 693 68 878T305 1185Q450 1253 544 1311T687 1459Q692 1468 704 1467Q944 1436 1140 1302T1416 964Q1495 757 1454 565T1290 242Q1086 21 862 -13T416 94Q317 156 235 204T80 208Q65 199 55 211T61 239ZM509 1421H472L552 1659Q584
1753 610 1775Q640 1801 681 1801Q776 1801 776 1729Q776 1679 700 1605L509 1421Z" />
<glyph unicode="&#xd4;" glyph-name="Ocircumflex" horiz-adv-x="1544" d="M61 239Q280 413 364 407T655 249Q859 99 1007 119T1254 278Q1346 409 1303 646T1019 1056Q850 1176 674 1208T351 1150Q258 1093 271 991T430 834Q703 734 716 624T565 378Q546 362 534
372T536 399Q586 456 536 493T315 597Q62 693 68 878T305 1185Q450 1253 544 1311T687 1459Q692 1468 704 1467Q944 1436 1140 1302T1416 964Q1495 757 1454 565T1290 242Q1086 21 862 -13T416 94Q317 156 235 204T80 208Q65 199 55 211T61 239ZM1014 1491V1466Q1014
1458 1009 1456Q1003 1454 998 1458L778 1642Q771 1650 765 1642L546 1458Q540 1454 535 1456Q529 1458 529 1466V1491Q529 1496 531 1497L763 1806Q767 1810 772 1810Q776 1810 780 1806L1012 1497Q1014 1495 1014 1491Z" />
<glyph unicode="&#xd5;" glyph-name="Otilde" horiz-adv-x="1544" d="M61 239Q280 413 364 407T655 249Q859 99 1007 119T1254 278Q1346 409 1303 646T1019 1056Q850 1176 674 1208T351 1150Q258 1093 271 991T430 834Q703 734 716 624T565 378Q546 362 534 372T536
399Q586 456 536 493T315 597Q62 693 68 878T305 1185Q450 1253 544 1311T687 1459Q692 1468 704 1467Q944 1436 1140 1302T1416 964Q1495 757 1454 565T1290 242Q1086 21 862 -13T416 94Q317 156 235 204T80 208Q65 199 55 211T61 239ZM1021 1743H1062Q1046 1673
1015 1630Q961 1557 874 1557Q820 1557 678 1603Q622 1621 587 1621Q535 1621 519 1562H481Q496 1632 520 1669Q573 1746 663 1746Q707 1746 770 1728Q796 1721 857 1701Q918 1682 949 1682Q983 1682 1001 1703Q1011 1715 1021 1743Z" />
<glyph unicode="&#xd6;" glyph-name="Odieresis" horiz-adv-x="1544" d="M570 1815Q681 1815 671 1708Q665 1654 604 1600T506 1546Q470 1546 451 1603T436 1708Q439 1754 480 1784T570 1815ZM1000 1815Q1111 1815 1101 1708Q1095 1654 1034 1600T936 1546Q900
1546 881 1603T866 1708Q869 1754 910 1784T1000 1815ZM61 239Q280 413 364 407T655 249Q859 99 1007 119T1254 278Q1346 409 1303 646T1019 1056Q850 1176 674 1208T351 1150Q258 1093 271 991T430 834Q703 734 716 624T565 378Q546 362 534 372T536 399Q586 456
536 493T315 597Q62 693 68 878T305 1185Q450 1253 544 1311T687 1459Q692 1468 704 1467Q944 1436 1140 1302T1416 964Q1495 757 1454 565T1290 242Q1086 21 862 -13T416 94Q317 156 235 204T80 208Q65 199 55 211T61 239Z" />
<glyph unicode="&#xd7;" glyph-name="multiply" horiz-adv-x="793" d="M214 901L399 716L584 901Q596 912 608 900L688 820Q700 808 689 796L504 611L690 425Q701 414 689 402L608 321Q596 309 585 320L399 506L213 320Q202 309 190 321L109 402Q97 414 108 425L294
611L109 796Q98 808 110 820L190 900Q202 912 214 901Z" />
<glyph unicode="&#xd8;" glyph-name="Oslash" horiz-adv-x="1544" d="M1217 1525L1251 1505Q1264 1495 1256 1482L1148 1297Q1338 1164 1416 964Q1495 757 1454 565T1290 242Q1086 21 862 -13Q649 -45 438 80L349 -72Q341 -87 327 -79L293 -59Q279 -52 287 -36L377
118Q300 165 234 204Q152 253 80 208Q65 199 55 211T61 239Q280 413 364 407Q414 403 510 346L529 379Q526 388 536 399Q586 456 536 493T315 597Q62 693 68 878T305 1185Q450 1253 544 1311T687 1459Q692 1468 704 1467Q912 1440 1087 1336L1194 1519Q1200 1532
1217 1525ZM655 249Q859 99 1007 119T1254 278Q1346 409 1303 646T1019 1056L1011 1062L571 308Q610 282 655 249ZM674 1208Q498 1240 351 1150Q258 1093 271 991T430 834Q644 755 698 670L950 1101Q814 1182 674 1208Z" />
<glyph unicode="&#xd9;" glyph-name="Ugrave" horiz-adv-x="1460" d="M1153 -14Q1052 35 1018 78Q982 125 978 247Q978 261 969 264T950 257Q908 212 866 168T781 78Q585 -126 370 103Q295 182 222 207T80 172Q62 158 50 172T56 203L309 416L310 417Q437 539 404
629T283 810Q209 885 158 992T187 1234Q250 1339 354 1385T536 1429Q676 1423 712 1315T652 1133Q630 1115 615 1133T623 1172Q704 1235 663 1305T537 1381Q476 1384 425 1340T371 1234Q367 1118 414 1074T494 999Q658 830 637 705T378 418Q367 411 368 402T384
389Q446 375 479 338T551 265Q680 145 779 187T972 337Q976 342 976 348L970 1070Q970 1144 914 1166Q868 1187 916 1214Q1016 1262 1116 1312T1317 1412Q1335 1422 1348 1409T1341 1376Q1263 1320 1237 1226T1211 1005L1218 301Q1219 141 1371 196Q1391 204 1402
191T1398 163L1207 -9Q1195 -19 1180 -20T1153 -14ZM749 1602Q673 1676 673 1726Q673 1798 768 1798Q809 1798 839 1772Q865 1750 897 1656L977 1418H940L749 1602Z" />
<glyph unicode="&#xda;" glyph-name="Uacute" horiz-adv-x="1460" d="M1153 -14Q1052 35 1018 78Q982 125 978 247Q978 261 969 264T950 257Q908 212 866 168T781 78Q585 -126 370 103Q295 182 222 207T80 172Q62 158 50 172T56 203L309 416L310 417Q437 539 404
629T283 810Q209 885 158 992T187 1234Q250 1339 354 1385T536 1429Q676 1423 712 1315T652 1133Q630 1115 615 1133T623 1172Q704 1235 663 1305T537 1381Q476 1384 425 1340T371 1234Q367 1118 414 1074T494 999Q658 830 637 705T378 418Q367 411 368 402T384
389Q446 375 479 338T551 265Q680 145 779 187T972 337Q976 342 976 348L970 1070Q970 1144 914 1166Q868 1187 916 1214Q1016 1262 1116 1312T1317 1412Q1335 1422 1348 1409T1341 1376Q1263 1320 1237 1226T1211 1005L1218 301Q1219 141 1371 196Q1391 204 1402
191T1398 163L1207 -9Q1195 -19 1180 -20T1153 -14ZM853 1388H816L896 1626Q928 1720 954 1742Q984 1768 1025 1768Q1120 1768 1120 1696Q1120 1646 1044 1572L853 1388Z" />
<glyph unicode="&#xdb;" glyph-name="Ucircumflex" horiz-adv-x="1460" d="M1153 -14Q1052 35 1018 78Q982 125 978 247Q978 261 969 264T950 257Q908 212 866 168T781 78Q585 -126 370 103Q295 182 222 207T80 172Q62 158 50 172T56 203L309 416L310 417Q437
539 404 629T283 810Q209 885 158 992T187 1234Q250 1339 354 1385T536 1429Q676 1423 712 1315T652 1133Q630 1115 615 1133T623 1172Q704 1235 663 1305T537 1381Q476 1384 425 1340T371 1234Q367 1118 414 1074T494 999Q658 830 637 705T378 418Q367 411 368
402T384 389Q446 375 479 338T551 265Q680 145 779 187T972 337Q976 342 976 348L970 1070Q970 1144 914 1166Q868 1187 916 1214Q1016 1262 1116 1312T1317 1412Q1335 1422 1348 1409T1341 1376Q1263 1320 1237 1226T1211 1005L1218 301Q1219 141 1371 196Q1391
204 1402 191T1398 163L1207 -9Q1195 -19 1180 -20T1153 -14ZM972 1491V1466Q972 1458 967 1456Q961 1454 956 1458L736 1642Q729 1650 723 1642L504 1458Q498 1454 493 1456Q487 1458 487 1466V1491Q487 1496 489 1497L721 1806Q725 1810 730 1810Q734 1810 738
1806L970 1497Q972 1495 972 1491Z" />
<glyph unicode="&#xdc;" glyph-name="Udieresis" horiz-adv-x="1460" d="M1113 1815Q1224 1815 1214 1708Q1208 1654 1147 1600T1049 1546Q1013 1546 994 1603T979 1708Q982 1754 1023 1784T1113 1815ZM683 1815Q794 1815 784 1708Q778 1654 717 1600T619 1546Q583
1546 564 1603T549 1708Q552 1754 593 1784T683 1815ZM1153 29Q1052 78 1018 121Q982 168 978 290Q978 304 969 307T950 300Q908 255 866 211T781 121Q585 -83 370 146Q295 225 222 250T80 215Q62 201 50 215T56 246L309 459L310 460Q437 582 404 672T283 853Q209
928 158 1035T187 1277Q250 1382 354 1428T536 1472Q676 1466 712 1358T652 1176Q630 1158 615 1176T623 1215Q704 1278 663 1348T537 1424Q476 1427 425 1383T371 1277Q367 1161 414 1117T494 1042Q658 873 637 748T378 461Q367 454 368 445T384 432Q446 418 479
381T551 308Q680 188 779 230T972 380Q976 385 976 391L970 1113Q970 1187 914 1209Q868 1230 916 1257Q1016 1305 1116 1355T1317 1455Q1335 1465 1348 1452T1341 1419Q1263 1363 1237 1269T1211 1048L1218 344Q1219 184 1371 239Q1391 247 1402 234T1398 206L1207
34Q1195 24 1180 23T1153 29Z" />
<glyph unicode="&#xdd;" glyph-name="Yacute" horiz-adv-x="1755" d="M380 710Q515 704 603 780Q620 797 635 787T635 763Q523 655 400 658Q244 661 145 763T45 1034Q45 1202 182 1334T526 1467Q661 1467 777 1406T959 1236Q973 1316 1030 1379T1181 1468Q1309
1501 1420 1431T1574 1225Q1630 1040 1671 1047Q1695 1052 1700 1033T1670 1000Q1481 922 1460 847T1558 566Q1696 326 1647 150T1421 -163Q1310 -244 1195 -283T963 -319Q778 -314 642 -243T403 -43Q390 -26 404 -16T434 -23Q538 -137 661 -196T951 -255Q1265
-240 1357 -32T1282 449Q1182 609 1222 716T1439 917Q1448 924 1448 932Q1448 940 1439 946Q1403 964 1366 1010T1308 1160Q1290 1242 1248 1301T1118 1350Q1047 1341 1018 1275T1005 1123Q1031 1008 1004 888Q959 684 876 570T700 373Q695 368 695 358Q696 348
705 346Q739 331 806 283Q901 208 966 222T1086 300Q1107 323 1126 310T1129 272Q1076 212 1039 165T975 82Q915 -2 823 4T639 95Q538 187 468 131Q446 115 433 130T443 168Q501 230 566 287T680 417Q744 514 783 646T819 887Q812 1015 704 1148T415 1267Q299 1269
210 1191T120 996Q119 879 188 797T380 710ZM950 1447H913L993 1685Q1025 1779 1051 1801Q1081 1827 1122 1827Q1217 1827 1217 1755Q1217 1705 1141 1631L950 1447Z" />
<glyph unicode="&#xde;" glyph-name="Thorn" horiz-adv-x="1823" d="M1574 1060Q1603 1073 1616 1057T1609 1024Q1538 973 1569 887T1692 730T1766 561T1613 277Q1459 68 1309 0Q1185 -57 1025 13L1021 15Q992 28 962 46Q954 51 947 47T938 35Q923 -91 887 -176T775
-332Q761 -345 749 -336T747 -310Q824 -149 798 121Q798 130 788 134Q588 212 489 116Q472 99 457 110T455 141Q611 344 759 356Q767 357 770 361T774 374Q762 503 750 631T725 889Q710 1035 626 1141T417 1250Q283 1257 191 1185T99 981T183 774T409 698Q510 696
575 751Q596 768 611 753T600 711Q560 675 508 664T403 651Q243 647 137 746T31 1017T164 1312T525 1435Q663 1432 757 1366T901 1217T960 1067T970 958Q973 849 972 757L1574 1060ZM1062 255Q1265 138 1384 162T1576 300Q1645 513 1482 627T1313 840Q1313 852
1305 855T1289 854L971 698Q970 644 967 597Q959 449 956 326Q956 314 965 311Q1008 291 1062 255Z" />
<glyph unicode="&#xdf;" glyph-name="germandbls" horiz-adv-x="997" d="M115 915H8Q-7 915 -8 929Q-8 944 4 946Q69 957 112 1013T149 1159Q142 1301 186 1397T362 1451Q469 1419 529 1401T615 1421Q629 1442 644 1436Q645 1435 634 1400Q598 1286 541 1247T328
1272Q211 1326 191 1219T234 1078Q339 1024 361 952Q376 905 374 858Q378 832 415 858Q492 913 527 945Q576 990 621 1039Q656 1072 676 1041Q685 1021 703 1016T733 1000Q898 873 830 767T622 568Q611 561 612 552T626 539Q690 532 781 492T910 373T935 133Q924
-67 763 -202Q605 -335 377 -389Q368 -390 363 -386T357 -375T360 -362T372 -354Q543 -313 644 -206T746 67Q733 294 621 362T407 428Q362 438 401 462Q511 526 595 605T648 786Q629 843 569 855Q530 867 404 798Q389 791 381 777T371 743L270 -309Q266 -343 249
-341T230 -307Q205 -1 179 304Q153 604 125 906Q123 915 115 915Z" />
<glyph unicode="&#xe0;" glyph-name="agrave" horiz-adv-x="943" d="M534 141Q483 102 422 56T309 -30Q291 -44 281 -42T272 -24Q272 -3 210 56Q47 209 53 454Q59 664 248 809Q306 853 356 902T446 1021Q462 1052 490 1023Q642 851 794 820Q842 811 804 782Q757
748 753 698V696L756 239Q756 193 789 176T862 202Q877 219 890 211T891 180Q855 126 822 74T765 -34L764 -35Q750 -58 730 -35Q719 -23 704 -19Q590 6 560 132Q558 138 550 144Q541 145 534 141ZM545 730Q483 747 400 826Q360 874 336 835Q230 677 253 486Q285
213 445 149Q446 149 447 148Q488 135 546 197Q550 203 550 208Q549 223 549 255L558 714Q558 726 545 730ZM490 1238Q414 1312 414 1362Q414 1434 509 1434Q550 1434 580 1408Q606 1386 638 1292L718 1054H681L490 1238Z" />
<glyph unicode="&#xe1;" glyph-name="aacute" horiz-adv-x="943" d="M534 141Q483 102 422 56T309 -30Q291 -44 281 -42T272 -24Q272 -3 210 56Q47 209 53 454Q59 664 248 809Q306 853 356 902T446 1021Q462 1052 490 1023Q642 851 794 820Q842 811 804 782Q757
748 753 698V696L756 239Q756 193 789 176T862 202Q877 219 890 211T891 180Q855 126 822 74T765 -34L764 -35Q750 -58 730 -35Q719 -23 704 -19Q590 6 560 132Q558 138 550 144Q541 145 534 141ZM545 730Q483 747 400 826Q360 874 336 835Q230 677 253 486Q285
213 445 149Q446 149 447 148Q488 135 546 197Q550 203 550 208Q549 223 549 255L558 714Q558 726 545 730ZM302 1053H265L345 1291Q377 1385 403 1407Q433 1433 474 1433Q569 1433 569 1361Q569 1311 493 1237L302 1053Z" />
<glyph unicode="&#xe2;" glyph-name="acircumflex" horiz-adv-x="943" d="M534 141Q483 102 422 56T309 -30Q291 -44 281 -42T272 -24Q272 -3 210 56Q47 209 53 454Q59 664 248 809Q306 853 356 902T446 1021Q462 1052 490 1023Q642 851 794 820Q842 811 804 782Q757
748 753 698V696L756 239Q756 193 789 176T862 202Q877 219 890 211T891 180Q855 126 822 74T765 -34L764 -35Q750 -58 730 -35Q719 -23 704 -19Q590 6 560 132Q558 138 550 144Q541 145 534 141ZM545 730Q483 747 400 826Q360 874 336 835Q230 677 253 486Q285
213 445 149Q446 149 447 148Q488 135 546 197Q550 203 550 208Q549 223 549 255L558 714Q558 726 545 730ZM714 1127V1102Q714 1094 709 1092Q703 1090 698 1094L478 1278Q471 1286 465 1278L246 1094Q240 1090 235 1092Q229 1094 229 1102V1127Q229 1132 231
1133L463 1442Q467 1446 472 1446Q476 1446 480 1442L712 1133Q714 1131 714 1127Z" />
<glyph unicode="&#xe3;" glyph-name="atilde" horiz-adv-x="943" d="M534 141Q483 102 422 56T309 -30Q291 -44 281 -42T272 -24Q272 -3 210 56Q47 209 53 454Q59 664 248 809Q306 853 356 902T446 1021Q462 1052 490 1023Q642 851 794 820Q842 811 804 782Q757
748 753 698V696L756 239Q756 193 789 176T862 202Q877 219 890 211T891 180Q855 126 822 74T765 -34L764 -35Q750 -58 730 -35Q719 -23 704 -19Q590 6 560 132Q558 138 550 144Q541 145 534 141ZM545 730Q483 747 400 826Q360 874 336 835Q230 677 253 486Q285
213 445 149Q446 149 447 148Q488 135 546 197Q550 203 550 208Q549 223 549 255L558 714Q558 726 545 730ZM978 1379H1019Q1003 1309 972 1266Q918 1193 831 1193Q777 1193 635 1239Q579 1257 544 1257Q492 1257 476 1198H438Q453 1268 477 1305Q530 1382 620
1382Q664 1382 727 1364Q753 1357 814 1337Q875 1318 906 1318Q940 1318 958 1339Q968 1351 978 1379Z" />
<glyph unicode="&#xe4;" glyph-name="adieresis" horiz-adv-x="943" d="M362 1451Q473 1451 463 1344Q457 1290 396 1236T298 1182Q262 1182 243 1239T228 1344Q231 1390 272 1420T362 1451ZM741 1451Q852 1451 842 1344Q836 1290 775 1236T677 1182Q641 1182
622 1239T607 1344Q610 1390 651 1420T741 1451ZM534 188Q483 149 422 103T309 17Q291 3 281 5T272 23Q272 44 210 103Q47 256 53 501Q59 711 248 856Q306 900 356 949T446 1068Q462 1099 490 1070Q642 898 794 867Q842 858 804 829Q757 795 753 745V743L756 286Q756
240 789 223T862 249Q877 266 890 258T891 227Q855 173 822 121T765 13L764 12Q750 -11 730 12Q719 24 704 28Q590 53 560 179Q558 185 550 191Q541 192 534 188ZM545 777Q483 794 400 873Q360 921 336 882Q230 724 253 533Q285 260 445 196Q446 196 447 195Q488
182 546 244Q550 250 550 255Q549 270 549 302L558 761Q558 773 545 777Z" />
<glyph unicode="&#xe5;" glyph-name="aring" horiz-adv-x="943" d="M480 1551Q578 1551 647 1485T717 1326Q717 1232 648 1166T480 1100Q382 1100 313 1166T244 1326Q244 1419 313 1485T480 1551ZM480 1484Q428 1484 418 1437T408 1323Q408 1256 418 1209T480
1162Q532 1162 542 1209T553 1323Q553 1389 543 1436T480 1484ZM534 141Q483 102 422 56T309 -30Q291 -44 281 -42T272 -24Q272 -3 210 56Q47 209 53 454Q59 664 248 809Q306 853 356 902T446 1021Q462 1052 490 1023Q642 851 794 820Q842 811 804 782Q757 748
753 698V696L756 239Q756 193 789 176T862 202Q877 219 890 211T891 180Q855 126 822 74T765 -34L764 -35Q750 -58 730 -35Q719 -23 704 -19Q590 6 560 132Q558 138 550 144Q541 145 534 141ZM545 730Q483 747 400 826Q360 874 336 835Q230 677 253 486Q285 213
445 149Q446 149 447 148Q488 135 546 197Q550 203 550 208Q549 223 549 255L558 714Q558 726 545 730Z" />
<glyph unicode="&#xe6;" glyph-name="ae" horiz-adv-x="1188" d="M783 -28Q781 -4 758 8T718 32Q628 93 579 175Q474 95 422 55Q361 9 309 -30Q291 -44 281 -42T272 -24Q272 -3 210 56Q47 209 53 454Q59 664 248 809Q306 853 356 902T446 1021Q462 1052 490 1023Q567
935 644 884Q650 889 656 895Q715 948 792 981T950 1036Q975 1041 987 1011L1131 673Q1141 646 1124 639H1122L712 480Q700 474 702 461Q751 239 866 177T1095 158Q1115 167 1120 155T1113 137Q1032 96 959 53T827 -37Q818 -43 801 -41T783 -28ZM400 826Q360 874
336 835Q230 677 253 486Q285 213 445 149Q446 149 447 148Q475 139 563 205Q559 213 555 222Q508 335 502 461Q495 616 541 731L514 738Q483 747 400 826ZM690 537Q691 529 697 525T712 524L925 604Q940 610 934 625L812 924Q803 946 776 930Q718 896 697 775T690
537Z" />
<glyph unicode="&#xe7;" glyph-name="ccedilla" horiz-adv-x="726" d="M340 -29Q338 -5 315 7T275 31Q160 109 113 221T59 460Q47 745 213 894Q272 947 349 980T507 1035Q529 1039 544 1010L661 774Q675 745 654 741Q580 730 519 689Q491 671 473 707L369 923Q359
944 333 929Q267 890 249 743T257 473Q304 242 420 177T652 157Q667 164 675 155Q683 142 670 136Q589 95 516 52T384 -38Q375 -44 358 -42T340 -29ZM360 0H428L329 -154Q383 -139 424 -139Q497 -139 547 -176Q602 -216 602 -280Q602 -371 513 -411Q452 -439 354
-439Q289 -439 203 -423Q155 -415 127 -403L147 -358Q203 -377 265 -377Q323 -377 357 -357Q398 -333 398 -285Q398 -249 373 -230Q349 -212 314 -212Q285 -212 260 -225L230 -196L360 0Z" />
<glyph unicode="&#xe8;" glyph-name="egrave" horiz-adv-x="741" d="M340 -28Q338 -4 315 8T275 32Q160 110 113 222T59 461Q47 746 213 895Q272 948 349 981T507 1036Q532 1041 544 1011L688 673Q698 646 681 639H679L269 480Q257 474 259 461Q308 239 423 177T652
158Q672 167 677 155T670 137Q589 96 516 53T384 -37Q375 -43 358 -41T340 -28ZM247 537Q248 529 254 525T269 524L482 604Q497 610 491 625L369 924Q360 946 333 930Q275 896 254 775T247 537ZM427 1491Q351 1565 351 1615Q351 1687 446 1687Q487 1687 517 1661Q543
1639 575 1545L655 1307H618L427 1491Z" />
<glyph unicode="&#xe9;" glyph-name="eacute" horiz-adv-x="741" d="M340 -28Q338 -4 315 8T275 32Q160 110 113 222T59 461Q47 746 213 895Q272 948 349 981T507 1036Q532 1041 544 1011L688 673Q698 646 681 639H679L269 480Q257 474 259 461Q308 239 423 177T652
158Q672 167 677 155T670 137Q589 96 516 53T384 -37Q375 -43 358 -41T340 -28ZM247 537Q248 529 254 525T269 524L482 604Q497 610 491 625L369 924Q360 946 333 930Q275 896 254 775T247 537ZM201 1053H164L244 1291Q276 1385 302 1407Q332 1433 373 1433Q468
1433 468 1361Q468 1311 392 1237L201 1053Z" />
<glyph unicode="&#xea;" glyph-name="ecircumflex" horiz-adv-x="741" d="M340 -28Q338 -4 315 8T275 32Q160 110 113 222T59 461Q47 746 213 895Q272 948 349 981T507 1036Q532 1041 544 1011L688 673Q698 646 681 639H679L269 480Q257 474 259 461Q308 239 423
177T652 158Q672 167 677 155T670 137Q589 96 516 53T384 -37Q375 -43 358 -41T340 -28ZM247 537Q248 529 254 525T269 524L482 604Q497 610 491 625L369 924Q360 946 333 930Q275 896 254 775T247 537ZM870 1127V1102Q870 1094 865 1092Q859 1090 854 1094L634
1278Q627 1286 621 1278L402 1094Q396 1090 391 1092Q385 1094 385 1102V1127Q385 1132 387 1133L619 1442Q623 1446 628 1446Q632 1446 636 1442L868 1133Q870 1131 870 1127Z" />
<glyph unicode="&#xeb;" glyph-name="edieresis" horiz-adv-x="741" d="M273 1427Q384 1427 374 1320Q368 1266 307 1212T209 1158Q173 1158 154 1215T139 1320Q142 1366 183 1396T273 1427ZM599 1426Q710 1426 700 1319Q694 1265 633 1211T535 1157Q499 1157
480 1214T465 1319Q468 1365 509 1395T599 1426ZM340 -28Q338 -4 315 8T275 32Q160 110 113 222T59 461Q47 746 213 895Q272 948 349 981T507 1036Q532 1041 544 1011L688 673Q698 646 681 639H679L269 480Q257 474 259 461Q308 239 423 177T652 158Q672 167 677
155T670 137Q589 96 516 53T384 -37Q375 -43 358 -41T340 -28ZM247 537Q248 529 254 525T269 524L482 604Q497 610 491 625L369 924Q360 946 333 930Q275 896 254 775T247 537Z" />
<glyph unicode="&#xec;" glyph-name="igrave" horiz-adv-x="559" d="M165 235L158 783Q158 802 152 814Q128 853 111 833L71 792Q55 774 41 788T45 827Q89 882 124 937T196 1046Q212 1065 233 1045Q275 994 315 956T429 874Q450 866 448 855T434 843Q408 833 388
809T368 727V304Q368 202 406 179Q450 153 478 201Q488 220 502 210T502 175Q472 128 446 81T393 -14Q374 -42 346 -26Q256 17 211 79T165 235ZM96 1312Q20 1386 20 1436Q20 1508 115 1508Q156 1508 186 1482Q212 1460 244 1366L324 1128H287L96 1312Z" />
<glyph unicode="&#xed;" glyph-name="iacute" horiz-adv-x="559" d="M165 235L158 783Q158 802 152 814Q128 853 111 833L71 792Q55 774 41 788T45 827Q89 882 124 937T196 1046Q212 1065 233 1045Q275 994 315 956T429 874Q450 866 448 855T434 843Q408 833 388
809T368 727V304Q368 202 406 179Q450 153 478 201Q488 220 502 210T502 175Q472 128 446 81T393 -14Q374 -42 346 -26Q256 17 211 79T165 235ZM200 1140H163L243 1378Q275 1472 301 1494Q331 1520 372 1520Q467 1520 467 1448Q467 1398 391 1324L200 1140Z" />
<glyph unicode="&#xee;" glyph-name="icircumflex" horiz-adv-x="559" d="M165 235L158 783Q158 802 152 814Q128 853 111 833L71 792Q55 774 41 788T45 827Q89 882 124 937T196 1046Q212 1065 233 1045Q275 994 315 956T429 874Q450 866 448 855T434 843Q408
833 388 809T368 727V304Q368 202 406 179Q450 153 478 201Q488 220 502 210T502 175Q472 128 446 81T393 -14Q374 -42 346 -26Q256 17 211 79T165 235ZM522 1127V1102Q522 1094 517 1092Q511 1090 506 1094L286 1278Q279 1286 273 1278L54 1094Q48 1090 43 1092Q37
1094 37 1102V1127Q37 1132 39 1133L271 1442Q275 1446 280 1446Q284 1446 288 1442L520 1133Q522 1131 522 1127Z" />
<glyph unicode="&#xef;" glyph-name="idieresis" horiz-adv-x="559" d="M165 235L158 783Q158 802 152 814Q128 853 111 833L71 792Q55 774 41 788T45 827Q89 882 124 937T196 1046Q212 1065 233 1045Q275 994 315 956T429 874Q450 866 448 855T434 843Q408 833
388 809T368 727V304Q368 202 406 179Q450 153 478 201Q488 220 502 210T502 175Q472 128 446 81T393 -14Q374 -42 346 -26Q256 17 211 79T165 235ZM147 1413Q258 1413 248 1306Q242 1252 181 1198T83 1144Q47 1144 28 1201T13 1306Q16 1352 57 1382T147 1413ZM424
1407Q535 1407 525 1300Q519 1246 458 1192T360 1138Q324 1138 305 1195T290 1300Q293 1346 334 1376T424 1407Z" />
<glyph unicode="&#xf0;" glyph-name="eth" horiz-adv-x="930" d="M102 979L168 1001Q128 1032 102 1070Q58 1137 50 1203V1208Q75 1399 242 1421Q268 1425 270 1411T258 1393Q179 1371 181 1300Q182 1255 232 1217T351 1165Q352 1165 353 1164Q421 1138 483 1108L663
1169Q671 1170 675 1163Q678 1157 675 1151L648 1091Q642 1082 636 1082L573 1060Q651 1015 718 960Q874 834 895 594V591Q874 411 808 291T652 108L651 106Q609 70 552 42T451 -16Q423 -35 415 -16Q359 117 106 187Q91 190 90 202T101 219Q164 243 164 352L162
768Q162 803 194 801Q294 788 394 869Q400 873 400 884Q398 892 390 896Q352 912 314 927Q284 940 255 953L73 892Q64 892 62 897Q57 903 62 911L89 970Q93 977 102 979ZM453 868Q444 872 436 866L389 829Q369 814 369 793L373 299Q373 284 385 278L601 151Q627
135 649 163Q739 290 719 500T545 819Q517 838 453 868Z" />
<glyph unicode="&#xf1;" glyph-name="ntilde" horiz-adv-x="1032" d="M399 361Q398 200 459 175Q466 170 466 162T459 149Q369 81 313 -32Q307 -40 298 -40T283 -32Q227 81 131 148Q125 152 125 161T132 175Q197 200 197 361V693Q197 795 159 818Q115 847 87 797Q76
776 62 787T63 822Q92 868 118 916T173 1012Q189 1041 218 1024L219 1023Q366 949 395 842Q397 831 405 829T421 833Q476 879 534 930T613 1024Q624 1050 649 1023Q709 960 751 923T896 868Q914 864 914 853T902 837Q876 827 856 803T836 721V298Q836 196 874 173Q918
146 945 195Q956 214 970 204T970 169Q940 122 914 75T860 -20Q842 -48 815 -33Q633 55 633 228L634 740Q634 770 619 779H618V781L533 851Q522 859 510 852L406 771Q399 766 399 759V361ZM765 1379H806Q790 1309 759 1266Q705 1193 618 1193Q564 1193 422 1239Q366
1257 331 1257Q279 1257 263 1198H225Q240 1268 264 1305Q317 1382 407 1382Q451 1382 514 1364Q540 1357 601 1337Q662 1318 693 1318Q727 1318 745 1339Q755 1351 765 1379Z" />
<glyph unicode="&#xf2;" glyph-name="ograve" horiz-adv-x="847" d="M387 -18Q372 -43 350 -18Q240 119 16 188Q-2 193 -2 204T10 220Q74 242 74 353L71 863Q71 874 69 880T70 892T84 899Q350 921 557 1044Q566 1049 573 1047T582 1033Q599 925 688 821Q737 761
769 657T795 484Q785 403 742 339T644 220Q579 156 504 112T387 -18ZM278 876L282 300Q282 285 294 279L471 169Q497 152 519 179Q614 281 605 424Q603 513 571 583T490 707Q412 786 371 903Q369 908 362 911T349 912Q319 901 289 893Q278 889 278 876ZM164 1238Q88
1312 88 1362Q88 1434 183 1434Q224 1434 254 1408Q280 1386 312 1292L392 1054H355L164 1238Z" />
<glyph unicode="&#xf3;" glyph-name="oacute" horiz-adv-x="847" d="M387 -18Q372 -43 350 -18Q240 119 16 188Q-2 193 -2 204T10 220Q74 242 74 353L71 863Q71 874 69 880T70 892T84 899Q350 921 557 1044Q566 1049 573 1047T582 1033Q599 925 688 821Q737 761
769 657T795 484Q785 403 742 339T644 220Q579 156 504 112T387 -18ZM278 876L282 300Q282 285 294 279L471 169Q497 152 519 179Q614 281 605 424Q603 513 571 583T490 707Q412 786 371 903Q369 908 362 911T349 912Q319 901 289 893Q278 889 278 876ZM254 1053H217L297
1291Q329 1385 355 1407Q385 1433 426 1433Q521 1433 521 1361Q521 1311 445 1237L254 1053Z" />
<glyph unicode="&#xf4;" glyph-name="ocircumflex" horiz-adv-x="847" d="M387 -18Q372 -43 350 -18Q240 119 16 188Q-2 193 -2 204T10 220Q74 242 74 353L71 863Q71 874 69 880T70 892T84 899Q350 921 557 1044Q566 1049 573 1047T582 1033Q599 925 688 821Q737
761 769 657T795 484Q785 403 742 339T644 220Q579 156 504 112T387 -18ZM278 876L282 300Q282 285 294 279L471 169Q497 152 519 179Q614 281 605 424Q603 513 571 583T490 707Q412 786 371 903Q369 908 362 911T349 912Q319 901 289 893Q278 889 278 876ZM872
1127V1102Q872 1094 867 1092Q861 1090 856 1094L636 1278Q629 1286 623 1278L404 1094Q398 1090 393 1092Q387 1094 387 1102V1127Q387 1132 389 1133L621 1442Q625 1446 630 1446Q634 1446 638 1442L870 1133Q872 1131 872 1127Z" />
<glyph unicode="&#xf5;" glyph-name="otilde" horiz-adv-x="847" d="M387 -18Q372 -43 350 -18Q240 119 16 188Q-2 193 -2 204T10 220Q74 242 74 353L71 863Q71 874 69 880T70 892T84 899Q350 921 557 1044Q566 1049 573 1047T582 1033Q599 925 688 821Q737 761
769 657T795 484Q785 403 742 339T644 220Q579 156 504 112T387 -18ZM278 876L282 300Q282 285 294 279L471 169Q497 152 519 179Q614 281 605 424Q603 513 571 583T490 707Q412 786 371 903Q369 908 362 911T349 912Q319 901 289 893Q278 889 278 876ZM930 1379H971Q955
1309 924 1266Q870 1193 783 1193Q729 1193 587 1239Q531 1257 496 1257Q444 1257 428 1198H390Q405 1268 429 1305Q482 1382 572 1382Q616 1382 679 1364Q705 1357 766 1337Q827 1318 858 1318Q892 1318 910 1339Q920 1351 930 1379Z" />
<glyph unicode="&#xf6;" glyph-name="odieresis" horiz-adv-x="847" d="M222 1451Q333 1451 323 1344Q317 1290 256 1236T158 1182Q122 1182 103 1239T88 1344Q91 1390 132 1420T222 1451ZM592 1451Q703 1451 693 1344Q687 1290 626 1236T528 1182Q492 1182 473
1239T458 1344Q461 1390 502 1420T592 1451ZM387 16Q372 -9 350 16Q240 153 16 222Q-2 227 -2 238T10 254Q74 276 74 387L71 897Q71 908 69 914T70 926T84 933Q350 955 557 1078Q566 1083 573 1081T582 1067Q599 959 688 855Q737 795 769 691T795 518Q785 437 742
373T644 254Q579 190 504 146T387 16ZM278 910L282 334Q282 319 294 313L471 203Q497 186 519 213Q614 315 605 458Q603 547 571 617T490 741Q412 820 371 937Q369 942 362 945T349 946Q319 935 289 927Q278 923 278 910Z" />
<glyph unicode="&#xf8;" glyph-name="oslash" horiz-adv-x="847" d="M713 1068L747 1048Q760 1038 752 1025L656 861Q671 841 688 821Q737 761 769 657T795 484Q785 403 742 339T644 220Q579 156 504 112T387 -18Q372 -43 350 -18Q295 50 213 101L124 -52Q116
-67 102 -59L68 -39Q54 -32 62 -16L150 135Q89 165 16 188Q-2 193 -2 204T10 220Q74 242 74 353L71 863Q71 874 69 880T70 892T84 899Q350 921 557 1044Q566 1049 573 1047T582 1033Q590 981 614 931L690 1062Q696 1075 713 1068ZM471 169Q497 152 519 179Q614
281 605 424Q603 513 570 583Q554 618 533 650L311 268L471 169ZM278 876L281 360L486 711Q411 789 371 903Q369 908 362 911T349 912Q319 901 289 893Q278 889 278 876Z" />
<glyph unicode="&#xf9;" glyph-name="ugrave" horiz-adv-x="1032" d="M632 247L633 664Q633 832 572 850Q565 855 565 862T572 876Q661 940 719 1056Q723 1065 733 1065T748 1056Q801 941 900 877Q907 871 907 863T899 850Q833 831 835 664V312Q835 209 873 186Q915
158 944 208Q955 227 969 217T969 182Q939 136 913 88T859 -6Q842 -35 812 -17Q663 54 637 163Q635 171 625 174T611 171Q554 125 497 75T419 -18Q402 -42 382 -17Q327 47 275 81T135 136Q116 143 117 153T130 168Q155 177 175 201T196 283V706Q196 808 158 831Q113
858 86 809Q75 790 61 801T62 836Q91 881 117 929T172 1025Q189 1055 217 1036H218Q399 941 399 776L397 264Q397 235 412 225L498 154Q508 145 521 152Q602 216 626 234Q632 238 632 247ZM654 1482Q578 1556 578 1606Q578 1678 673 1678Q714 1678 744 1652Q770
1630 802 1536L882 1298H845L654 1482Z" />
<glyph unicode="&#xfa;" glyph-name="uacute" horiz-adv-x="1032" d="M632 247L633 664Q633 832 572 850Q565 855 565 862T572 876Q661 940 719 1056Q723 1065 733 1065T748 1056Q801 941 900 877Q907 871 907 863T899 850Q833 831 835 664V312Q835 209 873 186Q915
158 944 208Q955 227 969 217T969 182Q939 136 913 88T859 -6Q842 -35 812 -17Q663 54 637 163Q635 171 625 174T611 171Q554 125 497 75T419 -18Q402 -42 382 -17Q327 47 275 81T135 136Q116 143 117 153T130 168Q155 177 175 201T196 283V706Q196 808 158 831Q113
858 86 809Q75 790 61 801T62 836Q91 881 117 929T172 1025Q189 1055 217 1036H218Q399 941 399 776L397 264Q397 235 412 225L498 154Q508 145 521 152Q602 216 626 234Q632 238 632 247ZM602 1053H565L645 1291Q677 1385 703 1407Q733 1433 774 1433Q869 1433
869 1361Q869 1311 793 1237L602 1053Z" />
<glyph unicode="&#xfb;" glyph-name="ucircumflex" horiz-adv-x="1032" d="M632 247L633 664Q633 832 572 850Q565 855 565 862T572 876Q661 940 719 1056Q723 1065 733 1065T748 1056Q801 941 900 877Q907 871 907 863T899 850Q833 831 835 664V312Q835 209 873
186Q915 158 944 208Q955 227 969 217T969 182Q939 136 913 88T859 -6Q842 -35 812 -17Q663 54 637 163Q635 171 625 174T611 171Q554 125 497 75T419 -18Q402 -42 382 -17Q327 47 275 81T135 136Q116 143 117 153T130 168Q155 177 175 201T196 283V706Q196 808
158 831Q113 858 86 809Q75 790 61 801T62 836Q91 881 117 929T172 1025Q189 1055 217 1036H218Q399 941 399 776L397 264Q397 235 412 225L498 154Q508 145 521 152Q602 216 626 234Q632 238 632 247ZM758 1127V1102Q758 1094 753 1092Q747 1090 742 1094L522
1278Q515 1286 509 1278L290 1094Q284 1090 279 1092Q273 1094 273 1102V1127Q273 1132 275 1133L507 1442Q511 1446 516 1446Q520 1446 524 1442L756 1133Q758 1131 758 1127Z" />
<glyph unicode="&#xfc;" glyph-name="udieresis" horiz-adv-x="1032" d="M744 1451Q855 1451 845 1344Q839 1290 778 1236T680 1182Q644 1182 625 1239T610 1344Q613 1390 654 1420T744 1451ZM314 1451Q425 1451 415 1344Q409 1290 348 1236T250 1182Q214 1182
195 1239T180 1344Q183 1390 224 1420T314 1451ZM632 247L633 664Q633 832 572 850Q565 855 565 862T572 876Q661 940 719 1056Q723 1065 733 1065T748 1056Q801 941 900 877Q907 871 907 863T899 850Q833 831 835 664V312Q835 209 873 186Q915 158 944 208Q955
227 969 217T969 182Q939 136 913 88T859 -6Q842 -35 812 -17Q663 54 637 163Q635 171 625 174T611 171Q554 125 497 75T419 -18Q402 -42 382 -17Q327 47 275 81T135 136Q116 143 117 153T130 168Q155 177 175 201T196 283V706Q196 808 158 831Q113 858 86 809Q75
790 61 801T62 836Q91 881 117 929T172 1025Q189 1055 217 1036H218Q399 941 399 776L397 264Q397 235 412 225L498 154Q508 145 521 152Q602 216 626 234Q632 238 632 247Z" />
<glyph unicode="&#xfd;" glyph-name="yacute" horiz-adv-x="959" d="M416 878Q476 911 537 949T651 1038Q686 1075 693 1025Q696 988 724 959T775 902Q909 732 914 530Q920 236 707 11T317 -334Q293 -350 283 -338T288 -313Q429 -188 573 -40T703 429Q697 555
664 666T546 852Q498 891 407 839Q400 834 400 824Q401 631 402 499T405 232Q408 140 471 165L516 200Q533 213 546 202T544 177Q493 126 446 78T369 -24Q358 -47 332 -24Q284 31 260 53T139 120Q119 127 119 138T133 153Q197 175 196 285Q196 399 198 515T198
743Q196 789 175 813T133 855Q43 930 61 1021T182 1206Q200 1226 213 1215T214 1190Q169 1144 174 1101T246 1037Q324 1013 354 976T392 891Q393 883 400 879T416 878ZM710 1066H673L753 1304Q785 1398 811 1420Q841 1446 882 1446Q977 1446 977 1374Q977 1324
901 1250L710 1066Z" />
<glyph unicode="&#xfe;" glyph-name="thorn" horiz-adv-x="923" d="M150 948Q150 1092 119 1175T32 1314Q19 1328 31 1341T63 1336Q86 1308 110 1276T152 1210Q157 1200 166 1200T181 1208Q240 1308 345 1369T572 1427Q595 1426 596 1408T572 1389Q473 1389 414
1332T354 1124V876L355 867Q356 857 363 854T379 854Q506 928 640 1031Q648 1037 656 1033T666 1021Q676 967 706 929T770 854Q893 715 879 543Q865 332 732 220Q585 96 506 -13Q496 -26 483 -17Q458 -2 433 12T383 41Q375 45 368 42T360 28Q348 -80 330 -184T290
-393Q286 -407 273 -407T257 -393Q236 -272 218 -135T189 130Q187 141 178 144Q77 181 35 135Q26 126 17 129T7 147Q8 310 146 319Q161 319 161 335L158 386L150 948ZM372 278Q372 266 381 263Q432 237 480 208T579 151Q594 144 602 157Q632 204 658 273T686 445Q688
552 645 636T550 798Q497 872 367 809Q357 804 357 794Q358 782 371 362Q372 333 372 278Z" />
<glyph unicode="&#xff;" glyph-name="ydieresis" horiz-adv-x="959" d="M389 1450Q500 1450 490 1343Q484 1289 423 1235T325 1181Q289 1181 270 1238T255 1343Q258 1389 299 1419T389 1450ZM708 1451Q819 1451 809 1344Q803 1290 742 1236T644 1182Q608 1182
589 1239T574 1344Q577 1390 618 1420T708 1451ZM416 878Q476 911 537 949T651 1038Q686 1075 693 1025Q696 988 724 959T775 902Q909 732 914 530Q920 236 707 11T317 -334Q293 -350 283 -338T288 -313Q429 -188 573 -40T703 429Q697 555 664 666T546 852Q498
891 407 839Q400 834 400 824Q401 631 402 499T405 232Q408 140 471 165L516 200Q533 213 546 202T544 177Q493 126 446 78T369 -24Q358 -47 332 -24Q284 31 260 53T139 120Q119 127 119 138T133 153Q197 175 196 285Q196 399 198 515T198 743Q196 789 175 813T133
855Q43 930 61 1021T182 1206Q200 1226 213 1215T214 1190Q169 1144 174 1101T246 1037Q324 1013 354 976T392 891Q393 883 400 879T416 878Z" />
<glyph unicode="&#x2013;" glyph-name="endash" horiz-adv-x="793" d="M63 685H736Q752 685 752 668V554Q752 537 736 537H63Q47 537 47 554V668Q47 685 63 685Z" />
<glyph unicode="&#x2014;" glyph-name="emdash" horiz-adv-x="1060" d="M63 685H999Q1015 685 1015 668V554Q1015 537 999 537H63Q47 537 47 554V668Q47 685 63 685Z" />
<glyph unicode="&#x2018;" glyph-name="quoteleft" horiz-adv-x="405" d="M343 1053Q265 1003 212 921Q196 897 183 921Q136 1010 52 1053Q44 1057 44 1067Q44 1151 103 1264T217 1450Q226 1460 237 1455Q252 1446 246 1436Q185 1342 196 1245T343 1081Q370 1071
343 1053Z" />
<glyph unicode="&#x2019;" glyph-name="quoteright" horiz-adv-x="448" d="M75 1304Q153 1354 206 1436Q222 1460 235 1436Q282 1347 366 1304Q374 1300 374 1290Q374 1206 315 1093T201 907Q192 897 181 902Q166 911 172 921Q233 1015 222 1112T75 1276Q48 1286
75 1304Z" />
<glyph unicode="&#x201a;" glyph-name="quotesinglbase" horiz-adv-x="393" d="M46 159Q124 209 177 291Q193 315 206 291Q253 202 337 159Q345 155 345 145Q345 61 286 -52T172 -238Q163 -248 152 -243Q137 -234 143 -224Q204 -130 193 -33T46 131Q19 141 46 159Z" />
<glyph unicode="&#x201c;" glyph-name="quotedblleft" horiz-adv-x="803" d="M356 1053Q278 1003 225 921Q209 897 196 921Q149 1010 65 1053Q57 1057 57 1067Q57 1151 116 1264T230 1450Q239 1460 250 1455Q265 1446 259 1436Q198 1342 209 1245T356 1081Q383
1071 356 1053ZM739 1053Q661 1003 608 921Q592 897 579 921Q532 1010 448 1053Q440 1057 440 1067Q440 1151 499 1264T613 1450Q622 1460 633 1455Q648 1446 642 1436Q581 1342 592 1245T739 1081Q766 1071 739 1053Z" />
<glyph unicode="&#x201d;" glyph-name="quotedblright" horiz-adv-x="836" d="M458 1304Q536 1354 589 1436Q605 1460 618 1436Q665 1347 749 1304Q757 1300 757 1290Q757 1206 698 1093T584 907Q575 897 564 902Q549 911 555 921Q616 1015 605 1112T458 1276Q431
1286 458 1304ZM75 1304Q153 1354 206 1436Q222 1460 235 1436Q282 1347 366 1304Q374 1300 374 1290Q374 1206 315 1093T201 907Q192 897 181 902Q166 911 172 921Q233 1015 222 1112T75 1276Q48 1286 75 1304Z" />
<glyph unicode="&#x201e;" glyph-name="quotedblbase" horiz-adv-x="754" d="M421 159Q499 209 552 291Q568 315 581 291Q628 202 712 159Q720 155 720 145Q720 61 661 -52T547 -238Q538 -248 527 -243Q512 -234 518 -224Q579 -130 568 -33T421 131Q394 141 421
159ZM42 159Q120 209 173 291Q189 315 202 291Q249 202 333 159Q341 155 341 145Q341 61 282 -52T168 -238Q159 -248 148 -243Q133 -234 139 -224Q200 -130 189 -33T42 131Q15 141 42 159Z" />
<glyph unicode="&#x2022;" glyph-name="bullet" horiz-adv-x="616" d="M79 685Q196 760 276 883Q300 919 319 883Q390 749 516 685Q558 664 516 643Q384 578 319 446Q297 403 276 446Q211 566 79 643Q43 661 79 685Z" />
<glyph unicode="&#x2039;" glyph-name="guilsinglleft" horiz-adv-x="591" d="M505 956H544Q556 956 559 947Q563 938 557 930L269 588Q258 577 269 568L557 226Q563 217 559 209Q556 200 544 200H505Q497 200 495 203L15 565Q8 570 8 578Q8 584 15 591L495 953Q498
956 505 956Z" />
<glyph unicode="&#x203a;" glyph-name="guilsinglright" horiz-adv-x="591" d="M66 200H27Q15 200 12 209Q8 218 14 226L302 568Q313 579 302 588L14 930Q8 939 12 947Q15 956 27 956H66Q74 956 76 953L556 591Q563 586 563 578Q563 572 556 565L76 203Q73 200 66 200Z" />
</font>
</defs>
</svg>
