<?xml version="1.0" encoding="UTF-8" standalone="no"?>
<svg
   xmlns:osb="http://www.openswatchbook.org/uri/2009/osb"
   xmlns:dc="http://purl.org/dc/elements/1.1/"
   xmlns:cc="http://creativecommons.org/ns#"
   xmlns:rdf="http://www.w3.org/1999/02/22-rdf-syntax-ns#"
   xmlns:svg="http://www.w3.org/2000/svg"
   xmlns="http://www.w3.org/2000/svg"
   xmlns:sodipodi="http://sodipodi.sourceforge.net/DTD/sodipodi-0.dtd"
   xmlns:inkscape="http://www.inkscape.org/namespaces/inkscape"
   version="1.1"
   id="Capa_1"
   x="0px"
   y="0px"
   viewBox="0 0 487.9 487.9"
   style="enable-background:new 0 0 487.9 487.9;"
   xml:space="preserve"
   sodipodi:docname="optional_achievement.svg"
   inkscape:export-filename="/home/thoams/Downloads/badge-svgrepo-com.png"
   inkscape:export-xdpi="96"
   inkscape:export-ydpi="96"
   inkscape:version="0.92.5 (2060ec1f9f, 2020-04-08)"><metadata
   id="metadata3791"><rdf:RDF><cc:Work
       rdf:about=""><dc:format>image/svg+xml</dc:format><dc:type
         rdf:resource="http://purl.org/dc/dcmitype/StillImage" /></cc:Work></rdf:RDF></metadata><defs
   id="defs3789"><linearGradient
     id="linearGradient4616"
     osb:paint="solid"><stop
       style="stop-color:#850000;stop-opacity:1;"
       offset="0"
       id="stop4614" /></linearGradient></defs><sodipodi:namedview
   pagecolor="#ffffff"
   bordercolor="#666666"
   borderopacity="1"
   objecttolerance="10"
   gridtolerance="10"
   guidetolerance="10"
   inkscape:pageopacity="0"
   inkscape:pageshadow="2"
   inkscape:window-width="2048"
   inkscape:window-height="1152"
   id="namedview3787"
   showgrid="false"
   inkscape:zoom="1.2064629"
   inkscape:cx="208.45946"
   inkscape:cy="227.34749"
   inkscape:window-x="2240"
   inkscape:window-y="109"
   inkscape:window-maximized="0"
   inkscape:current-layer="g3784" />
<g
   id="g3784">
	<path
   style="opacity:1;fill:#111111;fill-opacity:1;stroke:none;stroke-width:65.14765167;stroke-linejoin:miter;stroke-miterlimit:4;stroke-dasharray:none;stroke-opacity:0.03744495;paint-order:markers stroke fill"
   d="m 243.60571,9.1969269 c -11.35513,0 -22.13325,5.4847301 -30.21657,15.4926411 l -4.61979,5.677942 c -8.08331,10.007911 -16.55116,20.400743 -24.63448,30.793574 -11.06644,-3.079357 -22.13288,-6.063237 -31.27472,-8.468985 -3.36805,-0.866069 -6.64024,-1.731763 -9.52715,-2.501602 -0.0962,0 -0.19283,-0.09586 -0.38529,-0.09586 -5.19642,-1.250989 -10.10301,-1.828745 -14.72204,-1.828745 -21.65173,0 -36.087351,13.569172 -37.72326,35.413364 -1.250989,17.225154 -1.924598,34.065764 -2.405748,47.537944 -15.300557,5.7738 -30.118461,11.45061 -44.168029,17.03195 -11.64382,4.61903 -19.920721,12.99066 -23.288768,23.67218 -3.464278,10.68152 -1.539303,22.42233 5.196792,33.00762 8.179543,12.70235 16.937217,26.07831 25.79037,39.45426 -9.141843,13.85711 -17.899893,27.42479 -26.175666,40.60828 -6.254945,9.91168 -7.890478,21.65249 -4.4262,32.04531 3.464277,10.48906 11.837031,18.95655 22.903472,23.28689 l 4.136759,1.63704 c 13.279729,5.10018 26.945505,10.39245 40.610154,15.49264 0.28869,4.61904 0.575875,9.23695 0.864565,13.75975 0.769839,10.48906 1.443825,20.40225 1.347595,30.41016 -0.09623,10.68152 4.042408,21.07435 11.355884,28.38782 7.02478,7.12102 16.45494,10.96871 26.55908,10.96871 4.33035,0 8.66069,-0.67323 12.99104,-2.02045 9.43053,-2.98313 19.34184,-5.58171 28.96482,-8.08369 4.61905,-1.25099 9.43129,-2.50047 14.24279,-3.75146 9.91168,12.41366 19.91959,24.63448 29.35012,36.18207 8.17955,9.91168 18.85993,15.39679 30.11883,15.39679 11.35513,0 22.03742,-5.48473 30.12073,-15.49264 10.87398,-13.37596 20.1128,-24.82807 29.15841,-36.37566 11.83628,3.27181 23.86351,6.44779 35.50733,9.52713 l 9.91245,2.59746 c 3.75296,0.96231 7.50555,1.44345 11.16228,1.44345 20.40075,0 36.08585,-15.30093 37.14438,-36.47151 0.28869,-5.29265 0.57776,-10.58492 0.86644,-15.9738 0.57739,-10.2966 1.15438,-20.88151 1.5393,-31.37057 13.56842,-5.10019 27.13684,-10.39209 40.41657,-15.5885 l 3.17635,-1.25174 c 11.83628,-4.61903 20.30375,-13.08801 23.76803,-23.86577 3.46428,-10.97021 1.63591,-22.70989 -5.29265,-33.29518 l -1.24985,-1.9246 c -7.98708,-12.2212 -16.167,-24.92242 -24.44278,-37.33608 7.12102,-10.77775 14.24241,-21.74946 21.07473,-32.33475 l 3.94505,-6.15722 c 7.21725,-11.2589 9.23883,-23.38537 5.58209,-34.25935 -3.65674,-10.87398 -12.60763,-19.43844 -25.11752,-24.05748 -7.79462,-2.8869 -15.78057,-5.86965 -23.38274,-8.75655 -6.25494,-2.40575 -12.70311,-4.81149 -19.05428,-7.21724 -0.48115,-9.91168 -0.96191,-19.82299 -1.53929,-29.44598 -0.28869,-5.773798 -0.67361,-11.547585 -0.9623,-17.32138 -1.15476,-21.651732 -16.35909,-36.856811 -37.04852,-36.856811 -3.75297,0 -7.60254,0.482653 -11.45175,1.541182 l -3.36804,0.864566 c -13.76088,3.656737 -27.90668,7.410079 -41.86002,11.451736 -6.25494,-7.794624 -12.60612,-15.588871 -18.76483,-23.191034 -3.5605,-4.330347 -7.02479,-8.660693 -10.5853,-12.99104 -8.0833,-9.911681 -18.76369,-15.3967871 -30.11883,-15.3967871 z m 0.34395,95.5194731 c 78.06211,-6.2e-4 141.34448,62.33594 141.34521,139.23266 3.2e-4,76.89746 -63.28236,139.23516 -141.34521,139.23455 -78.06212,-4.1e-4 -141.34365,-62.33781 -141.34333,-139.23455 7.3e-4,-76.896 63.28196,-139.23225 141.34333,-139.23266 z"
   id="path3780"
   inkscape:connector-curvature="0"
   sodipodi:nodetypes="cccccccsccccccccccccccsccccsccccscccccccccccscccccscccccscscccs" />
	
<path
   id="path10"
   d="m 311.409,162.40298 23.45041,16.45057 -101.67186,146.64316 h -23.4504 l -56.69651,-79.44895 23.4504,-21.87392 44.97131,41.9989 z"
   inkscape:connector-curvature="0"
   style="fill:#111111;fill-opacity:1;stroke:#111111;stroke-width:18.18187714;stroke-linecap:butt;stroke-linejoin:round;stroke-miterlimit:0;stroke-dasharray:none;stroke-opacity:1;paint-order:normal" /></g>
</svg>