<?xml version="1.0" encoding="UTF-8" standalone="no"?>
<!-- Created with Inkscape (http://www.inkscape.org/) -->

<svg
   xmlns:dc="http://purl.org/dc/elements/1.1/"
   xmlns:cc="http://creativecommons.org/ns#"
   xmlns:rdf="http://www.w3.org/1999/02/22-rdf-syntax-ns#"
   xmlns:svg="http://www.w3.org/2000/svg"
   xmlns="http://www.w3.org/2000/svg"
   xmlns:sodipodi="http://sodipodi.sourceforge.net/DTD/sodipodi-0.dtd"
   xmlns:inkscape="http://www.inkscape.org/namespaces/inkscape"
   width="450"
   height="450"
   viewBox="0 0 119.0625 119.0625"
   version="1.1"
   id="svg8"
   inkscape:export-filename="/home/thoams/bitmap.png"
   inkscape:export-xdpi="150"
   inkscape:export-ydpi="150"
   inkscape:version="0.92.5 (2060ec1f9f, 2020-04-08)"
   sodipodi:docname="placeholder.svg">
  <defs
     id="defs2" />
  <sodipodi:namedview
     id="base"
     pagecolor="#ffffff"
     bordercolor="#666666"
     borderopacity="1.0"
     inkscape:pageopacity="0.0"
     inkscape:pageshadow="2"
     inkscape:zoom="1.1383333"
     inkscape:cx="223.30677"
     inkscape:cy="282.90514"
     inkscape:document-units="mm"
     inkscape:current-layer="layer1"
     showgrid="false"
     units="px"
     inkscape:window-width="2464"
     inkscape:window-height="1635"
     inkscape:window-x="2078"
     inkscape:window-y="0"
     inkscape:window-maximized="0" />
  <metadata
     id="metadata5">
    <rdf:RDF>
      <cc:Work
         rdf:about="">
        <dc:format>image/svg+xml</dc:format>
        <dc:type
           rdf:resource="http://purl.org/dc/dcmitype/StillImage" />
        <dc:title></dc:title>
      </cc:Work>
    </rdf:RDF>
  </metadata>
  <g
     inkscape:label="Layer 1"
     inkscape:groupmode="layer"
     id="layer1"
     transform="translate(0,-177.93748)">
    <rect
       style="opacity:1;fill:#fafafa;fill-opacity:1;stroke:#f1f1f1;stroke-width:6.61458445;stroke-linecap:butt;stroke-linejoin:miter;stroke-miterlimit:4;stroke-dasharray:none;stroke-opacity:1;paint-order:markers stroke fill"
       id="rect826"
       width="112.44791"
       height="112.44791"
       x="3.3072968"
       y="181.24478" />
    <g
       id="g4882"
       transform="translate(2.4646746,1.2256086)">
      <rect
         transform="matrix(-0.93420448,0.35673799,0.35673799,0.93420448,0,0)"
         y="223.39162"
         x="11.416698"
         height="30.427084"
         width="41.010418"
         id="rect828-3"
         style="opacity:1;fill:#fafafa;fill-opacity:1;stroke:#eaeaea;stroke-width:3.96875;stroke-linecap:butt;stroke-linejoin:miter;stroke-miterlimit:4;stroke-dasharray:none;stroke-opacity:1;paint-order:markers stroke fill" />
      <rect
         transform="scale(-1,1)"
         y="222.25519"
         x="-80.036461"
         height="30.427084"
         width="41.010418"
         id="rect828"
         style="opacity:1;fill:#fafafa;fill-opacity:1;stroke:#eaeaea;stroke-width:3.96875;stroke-linecap:butt;stroke-linejoin:miter;stroke-miterlimit:4;stroke-dasharray:none;stroke-opacity:1;paint-order:markers stroke fill" />
      <g
         style="fill:#c8c8c8;fill-opacity:1;stroke:#fafafa;stroke-width:6.20889807;stroke-miterlimit:4;stroke-dasharray:none;stroke-opacity:1"
         transform="matrix(0.14926234,0,0,0.14903276,31.926458,203.44061)"
         id="g4625">
        <g
           style="fill:#c8c8c8;fill-opacity:1;stroke:#fafafa;stroke-width:6.20889807;stroke-miterlimit:4;stroke-dasharray:none;stroke-opacity:1"
           id="g4564">
	
<g
   style="fill:#c8c8c8;fill-opacity:1;stroke:#fafafa;stroke-width:6.20889807;stroke-miterlimit:4;stroke-dasharray:none;stroke-opacity:1"
   transform="translate(-11.299048,-33.352321)"
   id="g4683">
  <path
     id="path4558-6"
     d="m 364.92898,307.03255 c -1.45579,-1.29664 -3.10985,-2.76677 -3.47118,-3.88339 -0.39591,-1.22098 0.0652,-3.36226 0.50809,-5.4344 0.69788,-3.24746 1.48904,-6.92735 -0.51983,-9.6876 -2.02518,-2.78568 -5.79378,-3.16723 -9.11755,-3.50444 -1.99387,-0.2035 -4.25255,-0.43112 -5.2609,-1.16684 -0.98618,-0.71746 -1.88822,-2.7746 -2.68394,-4.5891 -1.35273,-3.0818 -2.88417,-6.57385 -6.20272,-7.65068 -0.61049,-0.19828 -1.26011,-0.29873 -1.92996,-0.29873 -2.54044,0 -4.97848,1.41535 -7.335,2.78503 -1.86016,1.0801 -3.78359,2.19672 -5.11741,2.19672 -1.33512,0 -3.25724,-1.11662 -5.11871,-2.19672 -2.35652,-1.36968 -4.79522,-2.78503 -7.33501,-2.78503 -0.66984,0 -1.31816,0.10045 -1.92995,0.29873 -3.31725,1.07683 -4.8513,4.56953 -6.20403,7.65068 -0.79638,1.8145 -1.69841,3.87295 -2.68263,4.5891 -1.01161,0.73572 -3.27029,0.96465 -5.2609,1.16684 -3.32378,0.33721 -7.09172,0.71941 -9.11821,3.50444 -2.00887,2.75894 -1.21771,6.43949 -0.51982,9.6876 0.44482,2.07214 0.90595,4.21407 0.50808,5.43505 -0.36198,1.11597 -2.01409,2.5861 -3.47117,3.88274 -2.53392,2.25411 -5.40505,4.8089 -5.40505,8.35443 0,3.54488 2.87113,6.09968 5.40505,8.35379 1.45708,1.29598 3.10984,2.76612 3.47248,3.88339 0.39525,1.22032 -0.0639,3.36291 -0.50939,5.43439 -0.69789,3.24747 -1.48905,6.92734 0.51982,9.68758 2.02649,2.78569 5.79508,3.16724 9.11821,3.5051 1.99256,0.20284 4.25124,0.43047 5.2609,1.16619 0.98617,0.71811 1.88821,2.77459 2.68393,4.58975 1.35143,3.08115 2.88548,6.57254 6.20273,7.65003 0.61179,0.19893 1.26141,0.29807 1.93126,0.29807 2.53913,0 4.97718,-1.41534 7.3337,-2.78438 1.86016,-1.08009 3.78359,-2.19737 5.11871,-2.19737 1.33382,0 3.25725,1.11663 5.11741,2.19737 2.35652,1.36904 4.79521,2.78438 7.335,2.78438 0.66985,0 1.31947,-0.10044 1.93126,-0.29807 3.31595,-1.07749 4.84869,-4.57019 6.20012,-7.65068 0.79768,-1.81451 1.69906,-3.87295 2.68524,-4.5891 1.0103,-0.73572 3.26898,-0.96465 5.2609,-1.16684 3.32508,-0.33721 7.09172,-0.71942 9.11755,-3.50445 2.00887,-2.75959 1.21771,-6.44011 0.51983,-9.68758 -0.44483,-2.07148 -0.90595,-4.21407 -0.50679,-5.43439 0.36199,-1.11727 2.01409,-2.58741 3.46988,-3.88404 2.53522,-2.25346 5.40504,-4.80826 5.40504,-8.35314 0,-3.54553 -2.87112,-6.10032 -5.40504,-8.35443 z m -41.1317,25.29224 c -9.35562,0 -16.93912,-7.5835 -16.93912,-16.93911 0,-9.35496 7.5835,-16.93846 16.93912,-16.93846 9.35431,0 16.93781,7.5835 16.93781,16.93846 0,9.35561 -7.5835,16.93911 -16.93781,16.93911 z"
     inkscape:connector-curvature="0"
     style="fill:#c8c8c8;fill-opacity:1;stroke:#fafafa;stroke-width:6.20889807;stroke-miterlimit:4;stroke-dasharray:none;stroke-opacity:1" />
  <path
     id="path4560-7"
     d="m 339.71369,365.4027 c -1.10684,0.4246 -2.27237,0.63919 -3.464,0.63919 -3.87752,0 -7.17716,-2.25982 -9.82783,-4.07583 -0.75137,-0.51534 -1.92082,-1.31528 -2.62393,-1.67679 -0.70441,0.36151 -1.87256,1.16222 -2.62523,1.67679 -2.64937,1.81447 -5.95032,4.07583 -9.82523,4.07583 v 0 c -1.19228,0 -2.35782,-0.21459 -3.46596,-0.63841 -3.2742,-1.25375 -5.36722,-3.88354 -6.86213,-6.71409 v 63.2165 c 0,1.25452 0.6294,2.38904 1.60253,2.89439 0.97183,0.5038 2.10671,0.28075 2.892,-0.56687 l 18.28663,-19.82997 18.28532,19.82997 c 0.50287,0.54765 1.15445,0.83455 1.81516,0.83455 0.36329,0 0.72985,-0.0876 1.07488,-0.26768 0.97443,-0.5038 1.60253,-1.63987 1.60253,-2.89439 v -63.24727 c -1.50078,2.82132 -3.61923,5.50265 -6.86474,6.74408 z"
     inkscape:connector-curvature="0"
     style="fill:#c8c8c8;fill-opacity:1;stroke:#fafafa;stroke-width:6.20889807;stroke-miterlimit:4;stroke-dasharray:none;stroke-opacity:1" />
</g>
</g>
        <g
           style="fill:#c8c8c8;fill-opacity:1;stroke:#fafafa;stroke-width:6.20889807;stroke-miterlimit:4;stroke-dasharray:none;stroke-opacity:1"
           id="g4566">
</g>
        <g
           style="fill:#c8c8c8;fill-opacity:1;stroke:#fafafa;stroke-width:6.20889807;stroke-miterlimit:4;stroke-dasharray:none;stroke-opacity:1"
           id="g4568">
</g>
        <g
           style="fill:#c8c8c8;fill-opacity:1;stroke:#fafafa;stroke-width:6.20889807;stroke-miterlimit:4;stroke-dasharray:none;stroke-opacity:1"
           id="g4570">
</g>
        <g
           style="fill:#c8c8c8;fill-opacity:1;stroke:#fafafa;stroke-width:6.20889807;stroke-miterlimit:4;stroke-dasharray:none;stroke-opacity:1"
           id="g4572">
</g>
        <g
           style="fill:#c8c8c8;fill-opacity:1;stroke:#fafafa;stroke-width:6.20889807;stroke-miterlimit:4;stroke-dasharray:none;stroke-opacity:1"
           id="g4574">
</g>
        <g
           style="fill:#c8c8c8;fill-opacity:1;stroke:#fafafa;stroke-width:6.20889807;stroke-miterlimit:4;stroke-dasharray:none;stroke-opacity:1"
           id="g4576">
</g>
        <g
           style="fill:#c8c8c8;fill-opacity:1;stroke:#fafafa;stroke-width:6.20889807;stroke-miterlimit:4;stroke-dasharray:none;stroke-opacity:1"
           id="g4578">
</g>
        <g
           style="fill:#c8c8c8;fill-opacity:1;stroke:#fafafa;stroke-width:6.20889807;stroke-miterlimit:4;stroke-dasharray:none;stroke-opacity:1"
           id="g4580">
</g>
        <g
           style="fill:#c8c8c8;fill-opacity:1;stroke:#fafafa;stroke-width:6.20889807;stroke-miterlimit:4;stroke-dasharray:none;stroke-opacity:1"
           id="g4582">
</g>
        <g
           style="fill:#c8c8c8;fill-opacity:1;stroke:#fafafa;stroke-width:6.20889807;stroke-miterlimit:4;stroke-dasharray:none;stroke-opacity:1"
           id="g4584">
</g>
        <g
           style="fill:#c8c8c8;fill-opacity:1;stroke:#fafafa;stroke-width:6.20889807;stroke-miterlimit:4;stroke-dasharray:none;stroke-opacity:1"
           id="g4586">
</g>
        <g
           style="fill:#c8c8c8;fill-opacity:1;stroke:#fafafa;stroke-width:6.20889807;stroke-miterlimit:4;stroke-dasharray:none;stroke-opacity:1"
           id="g4588">
</g>
        <g
           style="fill:#c8c8c8;fill-opacity:1;stroke:#fafafa;stroke-width:6.20889807;stroke-miterlimit:4;stroke-dasharray:none;stroke-opacity:1"
           id="g4590">
</g>
        <g
           style="fill:#c8c8c8;fill-opacity:1;stroke:#fafafa;stroke-width:6.20889807;stroke-miterlimit:4;stroke-dasharray:none;stroke-opacity:1"
           id="g4592">
</g>
        <g
           style="fill:#c8c8c8;fill-opacity:1;stroke:#fafafa;stroke-width:6.20889807;stroke-miterlimit:4;stroke-dasharray:none;stroke-opacity:1"
           id="g4594">
</g>
      </g>
      <rect
         y="243.81627"
         x="78.570679"
         height="3.12271"
         width="2.3420324"
         id="rect4685"
         style="opacity:1;fill:#fafafa;fill-opacity:1;stroke:none;stroke-width:0.92604166;stroke-linecap:butt;stroke-linejoin:miter;stroke-miterlimit:4;stroke-dasharray:none;stroke-opacity:1;paint-order:markers stroke fill" />
      <rect
         rx="0.5788632"
         y="225.70251"
         x="44.451847"
         height="2.136591"
         width="30.158804"
         id="rect4741"
         style="opacity:1;fill:#c8c8c8;fill-opacity:1;stroke:none;stroke-width:0.9260416;stroke-linecap:butt;stroke-linejoin:miter;stroke-miterlimit:4;stroke-dasharray:none;stroke-opacity:1;paint-order:markers stroke fill" />
      <rect
         rx="0.41009384"
         y="228.76349"
         x="48.848293"
         height="2.136591"
         width="21.36591"
         id="rect4741-5"
         style="opacity:1;fill:#c8c8c8;fill-opacity:1;stroke:none;stroke-width:0.9260416;stroke-linecap:butt;stroke-linejoin:miter;stroke-miterlimit:4;stroke-dasharray:none;stroke-opacity:1;paint-order:markers stroke fill" />
      <rect
         rx="0.3533116"
         y="247.44749"
         x="45.469791"
         height="2.136591"
         width="18.407553"
         id="rect4741-5-6"
         style="opacity:1;fill:#c8c8c8;fill-opacity:1;stroke:none;stroke-width:0.9260416;stroke-linecap:butt;stroke-linejoin:miter;stroke-miterlimit:4;stroke-dasharray:none;stroke-opacity:1;paint-order:markers stroke fill" />
      <rect
         rx="0.32492051"
         y="234.46361"
         x="51.067062"
         height="1.150472"
         width="16.928375"
         id="rect4741-5-2"
         style="opacity:1;fill:#c8c8c8;fill-opacity:1;stroke:none;stroke-width:0.92604166;stroke-linecap:butt;stroke-linejoin:miter;stroke-miterlimit:4;stroke-dasharray:none;stroke-opacity:1;paint-order:markers stroke fill" />
      <rect
         rx="0.32492051"
         y="236.14323"
         x="51.067062"
         height="1.150472"
         width="16.928375"
         id="rect4741-5-2-9"
         style="opacity:1;fill:#c8c8c8;fill-opacity:1;stroke:none;stroke-width:0.92604166;stroke-linecap:butt;stroke-linejoin:miter;stroke-miterlimit:4;stroke-dasharray:none;stroke-opacity:1;paint-order:markers stroke fill" />
      <rect
         rx="0.32492051"
         y="237.73071"
         x="51.067062"
         height="1.150472"
         width="16.928375"
         id="rect4741-5-2-9-1"
         style="opacity:1;fill:#c8c8c8;fill-opacity:1;stroke:none;stroke-width:0.92604166;stroke-linecap:butt;stroke-linejoin:miter;stroke-miterlimit:4;stroke-dasharray:none;stroke-opacity:1;paint-order:markers stroke fill" />
      <rect
         rx="0.32492051"
         y="239.41034"
         x="51.067062"
         height="1.150472"
         width="16.928375"
         id="rect4741-5-2-9-1-2"
         style="opacity:1;fill:#c8c8c8;fill-opacity:1;stroke:none;stroke-width:0.92604166;stroke-linecap:butt;stroke-linejoin:miter;stroke-miterlimit:4;stroke-dasharray:none;stroke-opacity:1;paint-order:markers stroke fill" />
      <circle
         r="2"
         cy="248.5108"
         cx="42.962162"
         id="path4833"
         style="opacity:1;fill:#c8c8c8;fill-opacity:1;stroke:none;stroke-width:0.92604166;stroke-linecap:butt;stroke-linejoin:miter;stroke-miterlimit:4;stroke-dasharray:none;stroke-opacity:1;paint-order:markers stroke fill" />
      <rect
         y="250.80754"
         x="81.79673"
         height="1.6435317"
         width="1.2326487"
         id="rect4685-7"
         style="opacity:1;fill:#fafafa;fill-opacity:1;stroke:none;stroke-width:0.92604166;stroke-linecap:butt;stroke-linejoin:miter;stroke-miterlimit:4;stroke-dasharray:none;stroke-opacity:1;paint-order:markers stroke fill" />
    </g>
  </g>
</svg>
