<?xml version="1.0" encoding="UTF-8" standalone="no"?><!DOCTYPE svg PUBLIC "-//W3C//DTD SVG 1.1//EN" "http://www.w3.org/Graphics/SVG/1.1/DTD/svg11.dtd"><svg width="100%" height="100%" viewBox="0 0 257 257" version="1.1" xmlns="http://www.w3.org/2000/svg" xmlns:xlink="http://www.w3.org/1999/xlink" xml:space="preserve" xmlns:serif="http://www.serif.com/" style="fill-rule:evenodd;clip-rule:evenodd;stroke-linejoin:round;stroke-miterlimit:1.41421;"><rect id="Icon" x="0.792" y="0.486" width="256" height="256" style="fill:none;"/><clipPath id="_clip1"><rect x="0.792" y="0.486" width="256" height="256"/></clipPath><g clip-path="url(#_clip1)"><rect id="Background" x="0.792" y="0.486" width="256" height="256" style="fill:#fff;"/><path d="M89.312,154.275l-6.883,-3.93l-18.485,31.852c-16.712,-23.201 -20.056,-54.468 -7.078,-81.408l0.195,-0.197c0.788,-1.769 1.771,-3.344 2.556,-4.915c13.176,-22.814 36.185,-36.775 60.568,-39.33c4.327,-5.898 9.047,-11.013 14.356,-15.928c-34.807,-1.966 -69.615,15.336 -88.295,47.589c-23.991,41.687 -12.977,93.993 23.991,122.706l18.484,-54.866c0.199,-0.391 0.396,-0.983 0.591,-1.573m112.481,-50.932c9.833,22.617 9.243,49.358 -3.933,72.171c-0.786,1.574 -1.769,3.142 -2.752,4.719l-0.198,0.199c-16.91,24.776 -45.62,37.556 -74.134,34.606l18.486,-31.857l-6.884,-3.934c-0.393,0.398 -0.786,0.789 -1.18,1.185l-38.149,43.458c43.263,17.699 94.193,0.983 118.182,-40.709c18.683,-32.245 16.324,-70.987 -2.947,-100.089c-1.574,6.88 -3.541,13.763 -6.491,20.251" style="fill:#466dd8;"/><path d="M137.884,153.094c-4.918,6.492 -12.783,9.836 -21.237,10.621c-2.556,0.199 -4.917,-1.179 -6.097,-3.539c-3.541,-7.672 -4.718,-16.125 -1.376,-23.598l-38.544,-22.222c-2.554,-1.572 -3.734,-4.129 -2.948,-6.881c0.59,-2.754 2.948,-4.721 5.704,-4.721l39.13,-1.375c2.95,-11.996 7.866,-23.401 14.946,-34.021c11.208,-16.715 27.137,-29.103 45.817,-36.575c4.525,-1.77 9.047,-3.341 13.571,-4.523c3.34,-0.787 6.683,1.182 7.471,4.33c1.376,4.519 2.361,9.24 3.146,13.957c2.753,20.06 -0.197,40.116 -8.847,58.207c-5.507,11.407 -13.178,21.24 -22.026,29.89l18.288,34.413c1.378,2.556 0.983,5.507 -1.179,7.474c-1.967,1.966 -4.918,2.164 -7.276,0.786l-38.543,-22.223Zm29.103,-82.392c5.899,3.539 7.865,11.012 4.523,16.91c-3.343,5.9 -11.01,7.868 -16.911,4.524c-5.899,-3.344 -7.865,-11.013 -4.524,-16.912c3.541,-5.899 11.014,-7.866 16.912,-4.522" style="fill:#2295ff;"/><path d="M80.266,219.759l41.689,-47.392c-1.572,0.197 -3.146,0.393 -4.72,0.59c-6.293,0.394 -12.192,-2.951 -14.942,-8.847c-0.789,-1.377 -1.379,-2.755 -1.968,-4.328l-20.059,59.977Z" style="fill:#f8954f;"/></g></svg>