<?xml version="1.0" encoding="UTF-8"?>
<svg version="1.1" viewBox="0 0 238.17 256" xmlns="http://www.w3.org/2000/svg">
<g transform="matrix(1.25 0 0 1.25 -41.904 -32.607)" fill="#a7aaad">
<path d="m89.312 154.28-6.883-3.93-18.485 31.852c-16.712-23.201-20.056-54.468-7.078-81.408l0.195-0.197c0.788-1.769 1.771-3.344 2.556-4.915 13.176-22.814 36.185-36.775 60.568-39.33 4.327-5.898 9.047-11.013 14.356-15.928-34.807-1.966-69.615 15.336-88.295 47.589-23.991 41.687-12.977 93.993 23.991 122.71l18.484-54.866c0.199-0.391 0.396-0.983 0.591-1.573m112.48-50.932c9.833 22.617 9.243 49.358-3.933 72.171-0.786 1.574-1.769 3.142-2.752 4.719l-0.198 0.199c-16.91 24.776-45.62 37.556-74.134 34.606l18.486-31.857-6.884-3.934c-0.393 0.398-0.786 0.789-1.18 1.185l-38.149 43.458c43.263 17.699 94.193 0.983 118.18-40.709 18.683-32.245 16.324-70.987-2.947-100.09-1.574 6.88-3.541 13.763-6.491 20.251"/>
<path transform="translate(33.523 26.087)" d="m154.57 0.0039062c-0.4126 0.01533-0.83055 0.071547-1.248 0.16992-4.524 1.182-9.0453 2.7534-13.57 4.5234-18.68 7.472-34.608 19.859-45.816 36.574-7.08 10.62-11.997 22.025-14.947 34.021l-39.129 1.375c-2.756 0-5.1151 1.9667-5.7051 4.7207-0.786 2.752 0.39522 5.3089 2.9492 6.8809l38.543 22.223c-3.342 7.473-2.164 15.926 1.377 23.598 1.18 2.36 3.5397 3.7381 6.0957 3.5391 8.454-0.785 16.32-4.1291 21.238-10.621l38.543 22.223c2.358 1.378 5.3084 1.1808 7.2754-0.78516 2.162-1.967 2.5577-4.9186 1.1797-7.4746l-18.289-34.414c8.848-8.65 16.518-18.482 22.025-29.889 8.65-18.091 11.601-38.147 8.8477-58.207-0.785-4.717-1.7705-9.438-3.1465-13.957-0.68951-2.7545-3.3345-4.6073-6.2227-4.5zm-26.934 42.99c1.9827 0.04978 3.9792 0.57609 5.8223 1.6211 5.899 3.539 7.8654 11.012 4.5234 16.91-3.343 5.9-11.009 7.8674-16.91 4.5234-5.899-3.344-7.8664-11.013-4.5254-16.912 2.4344-4.0556 6.7279-6.2521 11.09-6.1426z"/>
<path d="m80.266 219.76 41.689-47.392c-1.572 0.197-3.146 0.393-4.72 0.59-6.293 0.394-12.192-2.951-14.942-8.847-0.789-1.377-1.379-2.755-1.968-4.328z"/>
</g>
</svg>
