<?xml version="1.0" standalone="no"?>
<!DOCTYPE svg PUBLIC "-//W3C//DTD SVG 1.1//EN" "http://www.w3.org/Graphics/SVG/1.1/DTD/svg11.dtd">
<svg xmlns="http://www.w3.org/2000/svg">
<defs >
<font id="ImperialScript" horiz-adv-x="497" ><font-face
    font-family="Imperial Script"
    units-per-em="1000"
    panose-1="0 0 0 0 0 0 0 0 0 0"
    ascent="880"
    descent="-330"
    alphabetic="0" />
<glyph unicode=" " glyph-name="space" horiz-adv-x="158" />
<glyph unicode="!" glyph-name="exclam" horiz-adv-x="329" d="M167 157V160Q167 182 214 334Q234 398 250 444T276 518Q297 571 316 571Q336 571 336 541Q336 530 330 516L294 432Q281 400 261 353T212 243Q203 220 180 176Q172 157 167 157ZM122 -11Q92 -11
92 18Q92 34 104 46Q115 57 132 57Q162 57 162 28Q162 12 150 0Q139 -11 122 -11Z" />
<glyph unicode="&quot;" glyph-name="quotedbl" horiz-adv-x="245" d="M220 349Q216 349 216 354Q216 354 216 355T217 359Q219 364 219 375T219 403Q219 408 219 417T218 439V475Q218 487 218 494T219 505Q223 521 241 521Q254 521 253 511V509Q248 457 242 419T226
356Q223 349 220 349ZM125 349Q122 349 122 354Q122 354 122 355T123 359Q124 364 124 375T125 403Q125 408 125 417T124 439V475Q124 487 124 494T125 505Q129 521 147 521Q160 521 159 511V509Q154 457 148 419T132 356Q129 349 125 349Z" />
<glyph unicode="#" glyph-name="numbersign" horiz-adv-x="664" d="M156 104L243 320H19L27 342H251L304 473H84L93 495H312L389 688H411L334 495H475L552 688H574L497 495H717L708 473H488L436 342H652L643 320H427L341 104H319L405 320H264L178 104H156ZM273
342H414L466 473H325L273 342Z" />
<glyph unicode="$" glyph-name="dollar" horiz-adv-x="432" d="M102 -65Q98 -65 92 -64T85 -62L107 -8Q68 -6 38 11T8 58Q8 73 16 86T45 106Q47 108 51 108T59 108Q71 108 83 105T99 98Q90 98 81 89T65 67T58 48Q57 24 74 16T114 7L223 272Q192 300 178 330T163
390Q163 428 184 461T244 515T333 539L366 619Q370 619 377 619T385 615L353 539Q387 538 411 526T431 490Q427 465 413 453T386 441Q369 441 365 454Q374 460 379 472T385 491Q385 505 371 512T345 520L261 316Q263 314 266 311Q305 273 323 234T341 159Q341 114
315 77T240 17T126 -8L102 -65ZM214 417Q214 374 247 332L325 519Q272 515 243 486T214 417ZM289 145Q289 173 277 202T237 259L132 7Q205 10 247 50T289 145Z" />
<glyph unicode="%" glyph-name="percent" horiz-adv-x="481" d="M32 0L343 475Q325 463 307 463Q295 463 283 470Q243 398 188 398Q153 398 133 429Q116 457 116 493Q116 556 157 611Q201 671 262 671Q294 671 312 648Q328 627 328 595Q328 525 287 478L289 476Q297
471 307 471Q317 471 335 479Q343 484 348 488T357 498L456 666H488L64 0H32ZM193 407Q244 407 275 472L277 476Q263 499 263 522Q263 534 266 544T273 565Q285 588 307 588Q308 588 310 588T319 587Q319 657 274 657Q236 657 202 611Q174 574 162 529Q155 505
155 477Q155 407 193 407ZM274 -6Q237 -6 217 24Q199 50 199 89Q199 153 239 208Q284 267 345 267Q379 267 398 246Q417 226 417 191Q417 133 376 66Q331 -6 274 -6ZM274 4Q322 4 364 80Q401 147 401 200Q401 254 357 254Q319 254 284 207Q257 170 245 126Q241
113 239 100T237 73Q237 4 274 4Z" />
<glyph unicode="&amp;" glyph-name="ampersand" horiz-adv-x="613" d="M231 -51Q139 -51 79 -3Q13 50 13 139Q13 168 20 190Q46 283 123 340Q196 393 297 404Q266 437 266 477Q266 544 328 585Q382 621 452 621Q568 621 568 541Q568 510 544 486Q520 462 489 462Q472
462 459 469Q442 478 442 493Q442 496 444 502Q444 508 448 508Q451 508 451 504Q451 501 450 498Q448 494 448 492Q448 473 468 473Q498 473 522 491Q548 511 548 541Q548 574 521 593Q498 610 463 610Q396 610 349 569Q300 526 300 460Q300 427 316 405Q322 405
328 405T340 406Q451 406 451 375Q451 355 415 355Q359 355 314 388Q121 353 78 189Q71 165 71 135Q71 59 120 10Q169 -36 247 -36Q341 -36 420 24Q505 90 505 181Q505 269 402 269Q371 269 341 262T279 240Q261 232 246 221T218 195Q189 160 189 126Q189 96 209
76Q229 56 259 56Q292 56 317 71Q347 88 347 118Q347 127 353 127Q361 127 361 112Q361 79 326 58Q298 41 261 41Q216 41 188 75Q161 108 161 152Q161 240 243 279Q288 300 377 300Q429 300 531 291Q633 282 684 282Q843 282 843 352Q843 391 800 398Q791 400 791
407Q791 416 800 416Q823 416 843 396Q860 376 860 352Q860 350 860 347T859 342Q843 264 685 264Q651 264 589 267Q555 269 531 270T492 271Q543 247 543 178Q543 75 435 7Q340 -51 231 -51ZM400 365Q431 365 431 378Q431 395 386 395Q372 395 358 394T329 391Q360
365 400 365Z" />
<glyph unicode="&apos;" glyph-name="quotesingle" horiz-adv-x="151" d="M105 359Q102 359 102 364Q102 364 102 365T103 369Q104 374 104 385T105 413Q105 418 105 427T104 449V485Q104 497 104 504T105 515Q109 531 127 531Q140 531 139 521V519Q134 467 128
429T112 366Q109 359 105 359Z" />
<glyph unicode="(" glyph-name="parenleft" horiz-adv-x="306" d="M246 -172Q127 -172 65 -76Q12 5 12 132Q12 164 15 195T26 254Q65 408 207 531Q336 644 502 688Q504 689 509 689Q521 689 521 681Q521 673 505 669Q462 656 429 643T372 616Q269 560 189 462Q147
411 119 359T77 251Q60 185 60 116Q60 9 100 -66Q151 -157 251 -157Q263 -157 263 -164Q263 -172 246 -172Z" />
<glyph unicode=")" glyph-name="parenright" horiz-adv-x="547" d="M14 -171Q3 -171 3 -163Q3 -155 18 -151Q61 -137 94 -124T151 -98Q254 -42 334 56Q418 156 447 267Q463 331 463 402Q463 511 423 584Q372 675 273 675Q261 675 261 682Q261 690 278 690Q396
690 459 594Q512 511 512 386Q512 321 497 264Q460 111 316 -13Q184 -127 22 -170Q20 -170 18 -170T14 -171Z" />
<glyph unicode="*" glyph-name="asterisk" horiz-adv-x="352" d="M139 365Q133 365 133 379Q133 385 148 470Q69 412 58 412Q52 412 52 417Q52 425 64 434L136 487Q27 487 27 499Q27 507 48 508L141 511Q84 585 84 602Q84 607 89 607Q99 607 106 596L161 527L179
607Q186 639 192 639Q199 639 199 625Q199 607 184 523Q270 584 276 584Q278 584 278 581Q278 565 200 508H282Q307 508 307 503Q307 489 196 486L246 419Q264 394 264 391Q264 388 261 388Q247 388 176 468Q152 365 139 365Z" />
<glyph unicode="+" glyph-name="plus" horiz-adv-x="335" d="M170 137Q161 137 157 139L183 215H82Q82 215 82 215T81 217Q81 232 90 239H191L218 313Q219 315 230 315Q241 315 241 313L215 239H317Q317 238 317 238T318 237Q318 221 309 215H207L180 139Q179
137 170 137Z" />
<glyph unicode="," glyph-name="comma" horiz-adv-x="233" d="M95 -99Q84 -99 84 -94Q84 -92 91 -91Q116 -87 138 -70T174 -29T192 16Q176 0 159 0Q145 0 139 9T133 35Q135 49 148 58T174 68Q190 68 200 59T210 30Q210 10 200 -13T174 -55T141 -84Q122 -95 111
-97T95 -99Z" />
<glyph unicode="-" glyph-name="hyphen" horiz-adv-x="373" d="M109 209Q106 209 106 213Q106 218 111 224T124 230H359Q361 230 361 227Q361 221 358 216T346 210L109 209Z" />
<glyph unicode="." glyph-name="period" horiz-adv-x="232" d="M163 -11Q130 -11 130 21Q130 57 166 57Q199 57 199 25Q199 -11 163 -11Z" />
<glyph unicode="/" glyph-name="slash" horiz-adv-x="622" d="M6 -95L590 666H622L38 -95H6Z" />
<glyph unicode="0" glyph-name="zero" horiz-adv-x="562" d="M198 -33Q76 -33 76 96Q76 224 194 366Q317 514 440 514Q444 514 444 510Q444 506 440 506Q420 501 409 495Q309 447 176 222Q133 151 133 82Q133 40 149 14Q168 -20 206 -20Q275 -20 352 41Q384 65
411 94T463 158Q481 185 497 215T528 279Q566 369 566 429Q566 500 513 500Q468 500 430 461Q396 427 385 380Q383 367 382 355T380 330Q380 250 431 250Q435 250 438 251Q442 252 445 252Q450 252 450 248Q450 242 430 242Q397 242 380 275Q367 300 367 337Q367
349 368 360T372 383Q383 436 429 476Q476 520 529 520Q575 520 599 476Q618 442 618 391Q618 331 594 272Q541 144 438 61Q326 -33 198 -33Z" />
<glyph unicode="1" glyph-name="one" horiz-adv-x="359" d="M88 -3Q88 -2 89 -2Q94 0 100 2T115 6Q150 17 177 39Q187 47 232 155T358 473L352 468Q286 410 233 365T137 288Q129 282 117 274T87 254L80 248Q77 248 77 254Q77 274 97 288Q102 290 107 292T120 298Q141
311 176 338Q193 352 213 368T258 406Q420 549 420 549Q423 549 423 542Q423 527 407 476T355 338L268 120Q254 86 248 67T241 43Q241 30 271 16Q282 11 293 7T314 1V-2Q283 1 237 1Q224 1 205 1T162 -1Q137 -2 118 -2T88 -3Z" />
<glyph unicode="2" glyph-name="two" horiz-adv-x="553" d="M52 -11Q44 -11 44 -2Q44 0 44 3T46 9Q60 44 99 82T205 157Q263 189 321 219T436 282Q498 318 532 355T573 429Q576 444 576 461Q576 543 488 543Q362 543 251 391Q202 323 202 279Q202 235 260 235Q316
235 386 289Q460 348 460 400Q460 419 441 428Q438 430 438 432Q438 436 443 436Q455 436 462 423Q468 413 468 400Q468 335 395 280Q327 227 260 227Q168 227 168 313Q168 359 196 396Q242 462 325 506Q367 529 407 540T488 552Q548 552 590 519Q637 484 637 426Q637
363 549 302Q526 286 491 267T405 224Q383 214 350 199T273 164Q221 141 183 121T120 82Q132 90 143 90Q169 90 195 87T249 75Q268 71 286 65T323 54Q367 42 399 42Q515 42 515 122Q515 128 514 134T510 146Q508 152 507 155T505 158Q505 162 509 162Q515 162 520
145Q522 138 523 133T524 122Q524 72 475 32Q430 -7 378 -7Q335 -7 252 17Q210 28 179 34T125 40Q90 40 75 15Q61 -11 52 -11Z" />
<glyph unicode="3" glyph-name="three" horiz-adv-x="549" d="M239 -10Q175 -10 125 18Q62 53 62 110Q62 154 98 179Q131 201 175 201Q264 201 343 128Q344 127 344 125Q344 121 340 120L337 121Q274 181 198 181Q160 181 133 164Q99 144 99 110Q99 54 143 24Q181
-2 239 -2Q322 -2 387 44Q459 92 474 171Q476 179 476 185T476 199Q476 249 440 277Q437 279 434 281Q382 262 326 262Q261 262 261 284Q261 312 339 312Q391 312 432 301Q451 311 468 326Q530 378 530 453Q530 495 506 519Q482 543 440 543Q351 543 273 436Q238
387 238 357Q238 326 280 326Q318 326 368 364Q420 404 420 442Q420 456 407 462Q405 464 405 465Q405 468 408 468Q426 468 426 442Q426 398 375 357Q324 320 280 320Q215 320 215 381Q215 412 234 440Q251 463 273 482T326 517Q385 549 440 549Q495 549 533 527Q577
500 577 448Q577 396 536 349Q503 312 459 292Q466 289 473 285Q539 251 539 177V173Q539 80 430 29Q346 -10 239 -10ZM296 286Q296 276 334 276Q376 276 414 292Q388 303 355 303Q296 303 296 286Z" />
<glyph unicode="4" glyph-name="four" horiz-adv-x="523" d="M182 -1Q180 1 202 10Q230 21 269 43Q294 76 341 171Q340 172 324 175T275 186Q256 190 240 192T209 194Q178 194 138 172Q87 144 69 139Q67 138 63 138Q45 138 45 156Q45 166 55 169Q65 173 79 178T112
192Q194 230 275 297T440 460Q465 489 493 513T552 559Q630 611 689 611Q717 611 739 599Q766 584 766 560Q766 554 762 554Q758 554 757 558Q754 602 689 602Q635 602 559 544Q531 522 505 497T452 442Q401 384 345 331T228 232Q244 240 262 240Q278 240 312 231Q325
228 337 225T363 218Q477 457 504 457Q509 457 509 451Q509 442 497 419Q468 366 443 314T396 211Q407 209 417 208T437 206Q479 206 513 218Q560 235 560 267Q560 284 545 293L531 302Q531 307 537 307Q552 307 564 290Q574 276 574 260Q574 212 512 186Q464 165
410 165Q403 165 395 165T378 167Q356 109 344 77T332 37Q332 13 405 2V0Q389 2 369 3T322 5Q282 5 226 2Q213 1 182 -1Z" />
<glyph unicode="5" glyph-name="five" d="M189 -20Q30 -20 30 90Q30 145 85 176Q131 201 191 201H207Q243 197 269 176Q300 151 300 118Q300 90 288 90Q284 90 284 94L287 102Q291 109 291 118Q291 153 258 174Q230 193 193 193Q147 193 111 165Q75 135 75 88Q75
43 110 16Q142 -7 189 -7Q278 -7 354 67Q428 140 428 231Q428 277 400 301Q373 325 326 325Q280 325 243 308Q199 243 178 243Q168 243 168 255Q168 261 176 274Q191 293 219 307Q233 324 251 350Q268 375 280 396T302 436Q326 483 333 495Q357 528 386 528Q399
528 418 523T462 506Q512 484 538 484Q569 484 591 498Q617 514 617 544Q617 561 608 570L599 580Q599 584 603 584Q614 584 621 565Q627 550 627 538Q627 496 594 469Q564 443 521 443Q505 443 485 448T439 463Q390 483 374 483Q344 483 317 429Q304 405 289 379T254
324L252 321Q297 335 341 335Q373 335 399 329T447 309Q498 278 498 218Q498 199 493 177Q457 49 278 -4Q229 -20 189 -20Z" />
<glyph unicode="6" glyph-name="six" horiz-adv-x="476" d="M183 -13Q56 -13 56 127Q56 152 59 171Q76 271 190 384Q278 472 393 540Q494 599 578 599Q622 599 622 582Q622 576 613 576Q605 576 590 579Q577 583 568 583Q489 583 397 525Q296 464 204 327Q107
182 107 72Q107 4 162 4Q238 4 337 104Q436 205 436 280Q436 316 417 339Q398 363 362 363Q309 363 270 324Q231 285 231 231Q231 224 236 209Q239 202 240 198T241 191Q241 188 237 187L234 189Q221 206 221 238Q221 299 264 339Q305 379 367 379Q418 379 453
341Q487 304 487 251Q487 154 383 68Q283 -13 183 -13Z" />
<glyph unicode="7" glyph-name="seven" horiz-adv-x="325" d="M134 -4Q104 -4 104 10Q104 23 116 59Q145 141 214 240T394 457Q378 451 352 451Q342 451 326 452T287 456Q277 457 243 465Q230 469 219 470T200 472Q161 472 145 419Q144 412 144 406T141 392Q138
373 125 373Q114 373 114 387Q114 397 120 407Q130 425 130 425Q153 481 161 491Q185 525 222 525Q230 525 242 523T270 517Q296 510 333 507T419 504Q440 504 479 514Q499 519 513 521T536 524Q553 524 553 516Q553 504 529 495Q511 489 494 489Q488 489 482 489T468
491Q399 440 351 380Q211 204 181 69Q179 59 178 45T174 13Q172 -4 134 -4Z" />
<glyph unicode="8" glyph-name="eight" horiz-adv-x="476" d="M195 -4Q138 -4 94 25Q43 58 43 111Q43 184 144 240Q170 254 210 271T307 307Q256 355 256 417Q256 461 300 496Q334 524 383 538Q403 544 424 546T467 549Q512 549 545 528Q582 504 582 460Q582 438
567 418Q539 380 384 324Q453 255 453 167Q453 142 430 107Q394 53 327 23Q266 -4 195 -4ZM376 332Q544 404 544 484Q544 537 467 537Q313 537 313 431Q313 400 333 375Q335 371 346 361T376 332ZM195 6Q329 6 374 106Q387 135 387 165Q387 206 366 240Q350 265
314 300Q215 266 167 231Q91 176 91 95Q91 6 195 6Z" />
<glyph unicode="9" glyph-name="nine" d="M35 -72Q-9 -72 -9 -56Q-9 -49 0 -49Q10 -49 23 -53Q38 -56 45 -56Q123 -56 217 2Q318 62 409 200Q506 345 506 455Q506 523 451 523Q375 523 276 423Q177 323 177 246Q177 210 196 188Q217 164 251 164Q306 164 343 203Q382
242 382 295Q382 300 381 305T377 318Q371 332 371 336Q371 339 376 339L379 338Q392 321 392 289Q392 228 349 188Q308 148 246 148Q194 148 160 186Q126 223 126 275Q126 373 230 459Q331 539 430 539Q557 539 557 400Q557 376 554 355Q537 256 423 143Q379 99
328 60T220 -13Q121 -72 35 -72Z" />
<glyph unicode=":" glyph-name="colon" horiz-adv-x="188" d="M179 224Q146 224 146 256Q146 292 182 292Q215 292 215 259Q215 224 179 224ZM151 49Q118 49 118 81Q118 117 154 117Q187 117 187 84Q187 49 151 49Z" />
<glyph unicode=";" glyph-name="semicolon" horiz-adv-x="169" d="M166 189Q129 189 129 226Q129 263 167 263Q203 263 203 225Q203 189 166 189ZM68 -98V-97Q68 -95 109 -41Q150 15 150 33Q150 39 144 39Q139 39 136 38Q104 38 104 72Q104 86 114 95Q124 105
138 105Q178 105 178 67Q178 3 91 -80Q83 -88 68 -98Z" />
<glyph unicode="&lt;" glyph-name="less" horiz-adv-x="252" d="M183 84Q174 84 108 126Q77 145 57 158T29 177Q23 183 23 200Q23 218 29 225Q39 235 108 298Q177 361 178 361Q181 361 181 350Q181 335 176 329Q172 324 162 313T136 283Q122 267 106 250T72 212L176
111Q189 98 189 91Q189 84 183 84Z" />
<glyph unicode="=" glyph-name="equal" horiz-adv-x="335" d="M82 215Q82 215 82 215T81 217Q81 232 90 239H317Q317 238 317 238T318 237Q318 223 309 215H82ZM37 86Q36 86 36 88Q36 103 45 110H272V109Q272 91 264 86H37Z" />
<glyph unicode="&gt;" glyph-name="greater" horiz-adv-x="252" d="M59 84Q52 84 52 91Q52 97 66 111L169 212L105 283Q98 291 89 302T66 329Q60 337 60 350Q60 361 64 361L66 360L162 271Q171 264 183 253T212 225Q219 218 219 200Q219 183 212 177Q200 167 134
126Q67 84 59 84Z" />
<glyph unicode="?" glyph-name="question" horiz-adv-x="431" d="M190 146Q171 146 171 173Q171 215 232 276Q246 290 266 306T314 339Q374 377 395 396Q435 432 455 482Q471 523 471 567Q471 668 384 668Q312 668 256 611Q200 555 200 481Q200 452 211 434Q224
409 249 409Q273 409 298 431Q325 455 325 477Q325 483 329 483Q334 483 334 475Q334 448 300 423Q266 397 240 397Q205 397 179 421Q153 447 153 481Q153 496 157 511Q175 585 240 635Q305 683 382 683Q539 683 539 569Q539 553 537 538T529 507Q519 480 500 455T448
407Q443 403 415 386T333 338Q266 299 243 263Q217 223 217 192V176Q217 146 190 146ZM181 -6Q150 -6 150 23Q150 39 162 51Q173 63 190 63Q220 63 220 34Q220 17 208 6Q198 -6 181 -6Z" />
<glyph unicode="@" glyph-name="at" horiz-adv-x="699" d="M372 -173Q208 -173 112 -88Q14 2 14 164Q14 311 120 408Q222 501 372 501Q498 501 579 426Q663 350 663 224Q663 212 662 200T659 177Q647 106 593 46Q534 -19 466 -19Q383 -19 383 92Q383 116 387 131Q317
-4 248 -4Q215 -4 198 29Q184 54 184 92Q184 123 193 157Q210 216 265 268Q326 324 382 324Q431 324 431 264Q431 238 420 203L482 323H484Q487 319 497 319Q518 319 548 342L550 340L465 174Q417 80 417 28Q417 -6 457 -6Q497 -6 541 34Q576 66 599 109Q618 145
624 186Q625 196 625 206T626 227Q626 346 559 416Q490 490 373 490Q242 490 147 393Q52 296 52 164Q52 23 139 -69Q228 -164 369 -164Q492 -164 583 -71Q675 23 675 145V157Q674 161 674 164T674 169Q674 178 683 178Q693 178 693 144Q693 14 597 -79Q503 -173
372 -173ZM252 3Q307 3 396 161Q423 209 423 258Q423 314 386 314Q347 314 302 251Q283 226 270 202T249 154Q228 94 228 46Q228 3 252 3Z" />
<glyph unicode="A" glyph-name="A" horiz-adv-x="930" d="M248 -109Q153 -109 90 -55Q24 4 24 97Q24 183 85 244Q148 305 233 305Q294 305 340 270Q390 233 390 173Q390 115 351 80Q313 48 255 48Q216 48 204 57L203 59Q206 63 209 63Q209 63 209 63T211 62Q216
59 226 58T251 57Q306 57 338 89Q370 120 370 175Q370 229 333 262Q296 294 243 294Q161 294 108 241Q56 189 56 106Q56 16 114 -36Q170 -86 262 -86Q460 -86 679 209Q848 435 944 490L734 561Q712 569 690 572T644 575Q566 575 501 534Q428 486 428 412Q428 378
444 346Q478 275 574 275Q582 275 589 275T603 276Q647 282 682 316Q721 354 721 394Q721 424 696 439Q695 440 695 442Q695 444 697 444Q698 444 698 444T700 443H703Q735 426 735 388Q735 347 700 310Q668 278 624 267Q597 260 566 260Q496 260 447 304Q397 351
397 421Q397 508 468 561Q532 610 621 610Q627 610 632 610T643 609Q762 599 904 528Q914 524 927 517T959 498Q1006 534 1073 534Q1087 534 1100 532T1124 523Q1152 508 1152 481Q1152 435 1102 435Q1087 435 1069 440T1043 449Q1033 434 1022 417T999 380Q983
353 942 252Q926 212 909 182T871 130Q790 42 685 1Q687 1 690 1T700 2H715Q736 2 753 0T786 -5Q845 -20 855 -20Q873 -20 873 -5Q873 1 871 5Q870 9 870 11T870 15Q870 16 870 16T871 17Q872 17 873 16Q882 7 882 -8Q882 -46 831 -46Q821 -46 809 -44T783 -36L738
-18Q720 -10 701 -9T662 -7L661 -4Q720 38 770 95Q806 135 855 216Q858 221 867 236H716Q660 156 611 98T521 4Q393 -109 248 -109ZM1085 443Q1136 443 1136 480Q1136 502 1118 514Q1102 526 1079 526Q1017 526 967 494Q983 487 999 479T1031 462L1074 506Q1076
506 1076 504Q1076 498 1047 454Q1066 443 1085 443ZM724 247H874Q937 351 1024 457L954 486Q929 470 898 443T830 377Q768 309 724 247Z" />
<glyph unicode="B" glyph-name="B" horiz-adv-x="787" d="M157 -28Q80 -28 80 15Q80 63 144 63Q174 63 287 28Q314 51 340 84T391 164Q411 202 429 241T466 320Q551 495 661 570Q630 579 591 584T504 589Q452 589 406 581T319 555Q222 516 175 438Q146 389 146
341Q146 290 178 256Q210 221 261 221Q318 221 362 262Q406 304 406 360Q406 399 385 424Q363 450 324 450Q295 450 272 432Q249 412 249 382Q249 358 275 358Q277 358 278 361Q281 364 283 364Q285 363 285 361Q285 351 274 351Q240 351 240 383Q240 415 269 439Q297
462 329 462Q372 462 399 434Q427 406 427 363Q427 297 375 252Q326 210 259 210Q196 210 156 247Q113 287 113 346Q113 388 134 428Q180 519 296 564Q391 601 512 601Q607 601 679 581Q711 599 740 608T797 618Q805 618 805 616Q805 613 802 613Q798 613 792 613T777
611Q733 607 691 577Q796 543 796 462Q796 453 795 445T791 428Q779 377 695 345Q635 324 560 318H591Q768 318 768 197Q768 128 715 75Q669 29 597 6Q568 -4 536 -8T470 -13Q429 -13 386 -6T297 16Q217 -28 157 -28ZM516 321Q728 341 747 429Q751 448 751 467Q751
537 676 565Q589 492 516 321ZM434 1Q537 1 617 50Q714 107 714 201Q714 314 549 314Q539 314 530 314T513 312Q464 197 435 149Q385 69 307 22Q376 1 434 1ZM164 -20Q224 -20 279 21Q236 36 204 43T151 50Q90 50 90 14Q90 -20 164 -20Z" />
<glyph unicode="C" glyph-name="C" horiz-adv-x="557" d="M261 -48Q159 -48 100 12Q41 73 41 175Q41 336 175 467Q124 511 124 563Q124 657 236 657Q265 657 292 649T346 623L347 622Q349 621 349 620T348 616Q348 613 346 613Q345 613 340 616Q295 643 249 643Q205
643 176 622Q143 600 143 556Q143 514 185 475Q315 596 512 596Q578 596 626 577Q695 552 695 497Q695 455 640 424Q621 412 598 404T549 390Q504 381 452 381Q315 381 217 438Q104 311 104 163Q104 82 141 27Q183 -37 261 -37Q410 -37 505 106Q537 155 537 195Q537
230 513 252Q490 275 455 275Q421 275 392 255Q362 236 349 203Q346 195 342 195Q338 195 338 200Q338 201 338 202T339 205Q352 242 387 263Q420 284 460 284Q503 284 532 258Q559 231 559 189Q559 141 530 97Q490 33 413 -8Q339 -48 261 -48ZM428 394Q465 394
501 400T573 416Q673 448 673 504Q673 584 520 584Q357 584 225 446Q315 394 428 394Z" />
<glyph unicode="D" glyph-name="D" horiz-adv-x="778" d="M102 -32Q14 -32 14 17Q14 40 39 52Q59 62 85 62Q121 62 224 20Q253 43 280 77T331 157Q351 196 370 236T408 316Q488 481 591 557Q504 595 414 595Q307 595 227 561Q130 520 84 438Q56 388 56 334Q56
281 86 246Q118 210 171 210Q236 210 289 254Q346 299 346 364Q346 398 319 425Q292 451 256 451Q224 451 198 430Q172 407 172 376Q172 351 198 351Q207 351 207 348Q207 343 197 343Q161 343 161 376Q161 414 190 437Q219 461 255 461Q301 461 331 428Q361 397
361 352Q361 284 302 239Q249 198 179 198Q111 198 64 239Q15 282 15 349Q15 366 18 384T28 420Q66 522 173 570Q262 609 384 609Q502 609 608 568Q676 614 741 614Q751 614 752 610Q752 610 745 608Q717 603 701 600T679 595Q663 591 648 583T618 564Q817 480
817 313Q817 297 815 282T809 250Q776 110 658 39Q554 -23 400 -23Q305 -23 240 2Q176 -32 102 -32ZM384 -15Q539 -15 646 68Q762 157 762 309H763Q763 473 603 551Q535 487 476 326Q390 90 252 9Q317 -15 384 -15ZM105 -24Q162 -24 213 12Q128 45 87 45Q32 45
32 9Q32 -24 105 -24Z" />
<glyph unicode="E" glyph-name="E" horiz-adv-x="553" d="M288 -75Q196 -75 136 -27Q70 26 70 115Q70 142 76 166Q103 260 180 316Q253 369 354 380Q323 411 323 454Q323 520 385 561Q439 597 509 597Q625 597 625 518Q625 486 601 462Q577 438 545 438Q529 438
515 445Q499 454 499 469Q499 475 501 478Q501 484 505 484Q508 484 508 480Q508 477 507 475Q505 469 505 468Q505 449 524 449Q556 449 579 468Q605 488 605 517Q605 550 578 569Q553 586 520 586Q453 586 406 545Q357 503 357 436Q357 404 372 381Q379 382 385
382T397 382Q508 382 508 352Q508 331 472 331Q415 331 371 364Q178 329 135 165Q128 141 128 111Q128 33 177 -13Q225 -60 304 -60Q401 -60 479 2Q562 68 562 162Q562 245 491 245Q464 245 444 230Q422 214 422 187Q422 170 419 170Q411 170 411 187Q411 191 412
196T416 209Q436 257 502 257Q547 257 574 229Q599 201 599 154Q599 51 492 -17Q397 -75 288 -75ZM457 341Q488 341 488 354Q488 371 443 371Q429 371 415 370T386 367Q417 341 457 341Z" />
<glyph unicode="F" glyph-name="F" horiz-adv-x="597" d="M174 -35Q102 -35 47 12Q-10 62 -10 133Q-10 205 40 263Q90 317 162 332Q158 347 158 366Q158 414 181 463Q205 515 243 540Q317 589 413 589Q482 589 564 564Q577 561 613 549T710 514Q765 552 811 552Q856
552 856 518Q856 484 796 484Q765 484 717 501Q658 439 604 303H657L659 301V295L657 294H601Q541 152 456 78V79Q425 51 394 31T332 -3Q272 -28 186 -34Q183 -34 180 -34T174 -35ZM187 -20Q270 -20 351 46Q417 100 468 184Q479 203 495 230T534 294H445L444 295V301L445
303H539Q636 459 699 506Q530 560 419 560Q307 560 251 507Q188 446 188 357Q188 352 188 347T189 336Q194 336 197 336T205 337Q300 337 321 256Q360 273 392 309Q429 349 429 387Q429 393 433 393Q437 393 437 389Q437 388 437 386T436 382Q414 283 323 247Q326
235 326 221Q326 165 282 123Q239 83 182 83Q176 83 176 88Q176 95 186 96Q191 97 199 98T218 102Q294 120 311 195Q313 203 314 211T315 227Q315 231 315 235T314 244Q293 237 271 237Q231 237 204 260Q176 283 165 320Q102 296 63 241Q23 185 23 118Q23 49 72
13Q116 -20 187 -20ZM797 492Q847 492 847 518Q847 546 808 546Q763 546 725 509Q773 492 797 492ZM274 246Q294 246 312 253Q303 288 274 308Q245 328 209 328Q205 328 201 328T191 327Q194 311 201 297T219 271Q243 246 274 246Z" />
<glyph unicode="G" glyph-name="G" horiz-adv-x="713" d="M245 -307Q156 -307 156 -245Q156 -165 257 -93Q312 -55 372 -32T499 -3L521 40Q484 26 448 19T377 11Q276 11 215 67Q154 125 154 226Q154 381 280 507Q226 551 226 599Q226 634 254 663Q285 697 373
697Q428 697 462 678Q468 678 468 673Q468 668 460 668Q453 668 441 672Q411 684 369 684Q288 684 267 652Q249 625 249 595Q249 553 289 517Q435 657 636 657Q805 657 805 577Q805 562 801 547Q793 523 766 501Q684 433 528 433Q410 433 324 478Q271 418 239 341Q201
254 201 184Q201 30 377 30Q458 30 531 59Q563 123 586 166T623 232Q701 363 745 363Q780 363 780 324Q780 271 709 176Q688 148 658 122T587 72L563 -2Q639 -10 639 -41Q639 -48 634 -48Q630 -48 620 -41Q596 -22 558 -17Q520 -129 484 -178Q390 -307 245 -307ZM529
442Q555 442 579 444T626 452Q678 462 720 485Q779 517 783 555Q784 558 784 561T784 567Q784 644 681 644Q582 644 490 602Q398 561 332 486Q412 442 529 442ZM593 91Q623 111 650 135T700 188Q758 258 758 316Q758 345 741 345Q737 345 733 343T724 338Q656 291
593 91ZM239 -292Q323 -292 422 -144Q433 -127 450 -96T491 -19Q362 -36 268 -105Q176 -172 176 -235Q176 -262 194 -277Q212 -292 239 -292Z" />
<glyph unicode="H" glyph-name="H" horiz-adv-x="1026" d="M251 -32Q156 -32 93 19Q24 75 24 167Q24 257 77 306Q129 355 220 355Q275 355 313 321Q354 286 354 233Q354 186 321 153Q290 120 241 120Q194 120 194 132Q194 133 195 135Q197 137 200 137Q200 137
204 136T216 132Q234 127 243 127Q285 127 313 161Q342 193 342 234Q342 288 298 320Q261 347 203 347Q129 347 82 296Q37 247 37 171Q37 85 95 31Q152 -20 238 -20Q387 -20 505 104Q536 138 579 201T676 357Q767 511 872 583Q722 629 719 629Q629 654 563 654Q472
654 411 607Q336 547 336 457Q336 397 374 357Q414 319 473 319Q541 319 588 363Q636 406 639 473Q641 486 645 486Q651 486 651 472Q651 401 595 353Q541 308 469 308Q400 308 350 352Q298 398 298 467Q298 514 323 557Q348 600 389 624Q463 665 559 665Q632 665
725 641Q745 636 785 624T886 592Q954 634 1020 634Q1099 634 1099 593Q1099 572 1067 561Q1043 553 1017 553Q973 553 893 577Q788 501 719 319H962Q1002 384 1045 437Q1116 525 1172 570T1272 615H1276Q1299 615 1312 599Q1325 583 1325 561Q1325 532 1304 499V500Q1304
504 1301 499T1293 493Q1292 493 1292 495Q1292 499 1297 503Q1317 537 1317 562Q1317 607 1277 607Q1217 607 1124 483Q1042 374 974 230Q907 87 907 26Q907 -3 924 -3Q929 -3 937 1Q995 24 1049 104V103Q1049 99 1051 104T1058 111Q1060 110 1060 107Q1060 103
1058 101Q1041 78 1029 62T1007 38Q992 22 976 11T942 -9Q933 -13 925 -15T910 -17Q866 -17 866 56Q866 159 955 308H715Q654 151 560 74Q502 28 429 -2T266 -32H251ZM1018 562Q1039 562 1059 569Q1088 578 1088 593Q1088 623 1030 623Q964 623 906 586Q983 562
1018 562Z" />
<glyph unicode="I" glyph-name="I" horiz-adv-x="589" d="M215 -47Q140 -47 86 -2Q29 48 29 120Q29 216 104 280Q177 342 272 342Q322 342 356 316Q393 287 393 238Q393 180 343 144Q297 110 238 110Q209 110 189 127Q169 145 169 174Q169 192 178 213V212Q178
207 180 215T186 223Q189 222 189 220Q189 216 183 201Q178 186 178 176Q178 149 197 133Q217 118 243 118Q297 118 335 153Q374 189 374 242Q374 285 348 308Q323 332 280 332Q184 332 121 263Q59 197 59 99Q59 33 103 -2Q144 -34 211 -34Q223 -34 233 -33T252
-30Q366 0 438 83Q498 152 543 276Q537 275 532 275T521 275Q455 275 413 311Q366 349 366 413Q366 528 512 584Q616 624 756 624Q791 624 817 622T863 613L862 611H858Q842 611 828 605Q826 604 821 601T807 592Q773 570 744 542T692 479Q719 457 719 422Q719
378 683 339Q650 303 606 288Q526 4 249 -44Q231 -47 215 -47ZM539 285H546Q566 343 594 393T658 486Q645 489 632 489Q604 489 577 473Q548 454 548 427Q548 417 552 412Q556 407 556 403Q556 401 553 401Q538 409 538 426Q538 458 569 480Q597 500 629 500Q647
500 665 494Q743 586 822 611H820Q814 611 806 611T786 612Q775 614 767 614T752 614Q701 614 654 607T563 582Q455 542 420 463Q405 429 405 396Q405 344 447 312Q467 298 490 292T539 285ZM610 300Q650 318 677 348Q709 383 709 423Q709 453 687 471Q640 399
610 300Z" />
<glyph unicode="J" glyph-name="J" horiz-adv-x="613" d="M195 -230Q116 -230 57 -174Q-2 -117 -2 -37Q-2 46 60 106Q124 168 205 168Q267 168 305 130Q341 93 341 29Q341 -18 299 -57Q258 -95 211 -95Q172 -95 143 -77Q109 -56 109 -18Q109 0 119 17Q130 38 146
38Q150 38 150 35Q150 34 141 26Q132 17 129 11Q123 -2 123 -17Q123 -48 146 -68Q169 -88 199 -88Q249 -88 282 -46Q313 -8 313 44Q313 97 284 127Q255 159 203 159Q125 159 76 103Q30 51 30 -29Q30 -148 137 -198Q173 -214 207 -214H218Q238 -211 255 -205T287
-192Q336 -166 380 -111T464 27Q499 101 569 300Q601 389 657 466Q722 554 795 588Q665 588 588 561Q477 523 445 424Q441 411 441 396Q441 372 456 355Q471 338 496 338Q545 338 564 401Q568 412 568 418V426Q567 429 567 432Q568 434 570 434Q574 434 574 421Q574
383 552 357Q528 329 492 329Q459 329 440 351Q421 371 421 404Q421 410 421 415T423 425Q443 523 564 568Q654 600 775 600Q823 600 826 597Q822 596 814 592T792 576Q686 492 636 324Q572 112 501 -7Q390 -192 236 -226Q226 -227 216 -228T195 -230Z" />
<glyph unicode="K" glyph-name="K" horiz-adv-x="836" d="M206 -55Q127 -55 72 -9Q13 39 13 116Q13 196 77 252Q137 305 220 305Q282 305 318 273Q357 240 357 179Q357 134 314 99Q274 66 226 66Q188 66 160 82Q124 100 124 136Q124 152 135 169Q145 188 162 188Q166
188 166 185Q166 184 157 176Q153 172 150 169T145 163Q138 149 138 137Q138 108 162 90Q185 73 214 73Q263 73 296 109Q329 144 329 193Q329 242 298 270Q267 298 218 298Q142 298 89 238Q40 182 40 102Q40 33 97 -9Q147 -47 220 -47H234Q319 -35 376 32Q397 58
416 94T454 179Q468 218 481 257T509 336Q525 379 547 416T596 487Q660 566 730 595Q677 594 628 587T533 565Q411 526 385 449Q381 438 381 425Q381 401 396 386Q413 371 436 371Q485 371 504 428Q508 439 508 444Q508 448 507 451V457Q507 457 509 459Q514 459
514 446Q514 411 489 387Q464 362 430 362Q400 362 380 380Q360 398 360 428Q360 521 510 570Q566 588 623 595T739 603H756V602H757Q747 597 736 589T710 568Q614 487 570 353Q539 260 515 199T473 107Q399 -17 268 -48Q253 -52 238 -53T206 -55ZM919 -119Q841
-119 779 -56Q755 -32 732 3T687 84Q670 121 654 158T621 232Q606 228 590 228Q573 228 562 235Q546 242 546 257Q546 271 555 283Q564 294 578 294Q609 294 641 250Q664 261 704 295T804 386Q837 418 862 441T905 480Q1045 598 1123 598Q1136 598 1151 592Q1169
585 1169 572Q1169 566 1162 566Q1159 566 1157 568Q1148 578 1131 578Q1089 578 1014 530Q986 512 960 493T909 451Q878 423 848 394T785 335Q746 298 712 275T649 240Q678 194 706 148T765 57Q806 -6 842 -42T907 -89Q916 -92 925 -94T943 -96Q1003 -96 1014
-25Q1014 -21 1018 -21Q1029 -21 1029 -30Q1029 -37 1027 -44T1022 -60Q996 -119 919 -119ZM599 240H603Q606 240 609 240T617 241Q599 277 580 277Q561 277 561 258Q561 244 573 241Q575 241 581 241T599 240Z" />
<glyph unicode="L" glyph-name="L" horiz-adv-x="573" d="M452 -65Q351 -65 248 -6Q185 -35 128 -35Q73 -35 20 -11Q-44 20 -44 69Q-44 103 -17 124Q8 143 43 143Q127 143 199 78Q217 61 231 49T255 29Q303 68 349 145Q368 178 386 211T422 277Q334 283 267 320Q181
367 181 444Q181 504 223 546Q265 588 325 588Q363 588 391 569Q422 546 422 510Q422 496 413 496Q409 496 409 512Q409 514 408 518T405 528Q387 579 326 579Q276 579 239 536Q203 494 203 444Q203 372 283 328Q346 293 428 288Q460 344 493 390T561 475Q663 587
746 587Q775 587 795 574Q818 559 818 532Q818 493 772 436Q755 415 735 396T692 360Q673 345 653 333T610 310Q562 287 501 280Q459 184 413 126Q358 56 279 11Q372 -55 458 -55Q504 -55 538 -37Q580 -14 580 28Q580 34 584 34Q588 34 588 27V24Q588 -20 552 -42T452
-65ZM507 293Q532 297 556 303T603 318Q623 326 642 337T680 362Q723 394 758 438Q804 493 804 532Q804 564 771 564Q744 564 707 545Q648 514 601 457T518 318L507 293ZM118 -22Q178 -22 226 7Q200 24 174 41T122 74Q48 120 13 120Q-32 120 -32 79Q-32 39 12 9Q49
-16 92 -21Q99 -22 105 -22T118 -22Z" />
<glyph unicode="M" glyph-name="M" horiz-adv-x="1186" d="M261 -57Q173 -57 115 -10Q52 41 52 126Q52 189 86 242Q120 295 178 318Q171 343 171 375Q171 459 220 529Q271 603 349 628Q429 656 509 656Q558 656 613 643T729 601Q781 577 832 552T935 500Q988 533
1034 533Q1117 533 1117 479Q1117 443 1077 443Q1051 443 979 473Q928 409 894 294Q890 281 885 263T871 220Q845 147 815 98T752 24Q863 86 1020 272Q1317 625 1498 625Q1593 625 1593 570Q1593 555 1582 533Q1568 510 1556 510Q1551 510 1551 513Q1551 513 1554
517T1564 528Q1577 543 1577 561Q1577 597 1527 597Q1468 597 1395 562Q1234 484 1019 245Q908 124 866 86Q759 -9 678 -9Q665 -9 651 -6L650 -5Q650 -3 683 12Q690 16 697 20T712 30Q730 44 771 125Q785 153 798 180T824 234Q841 266 857 298T891 361Q912 399
931 428T967 478L940 490Q826 421 704 252Q481 -57 261 -57ZM262 -46Q358 -46 449 16Q481 38 517 72T596 153Q614 173 640 203T703 273Q729 303 755 333T809 392Q841 427 871 452T928 496Q854 529 803 550T724 582Q665 602 612 612T509 623Q428 623 360 595Q289
567 242 506Q193 442 193 367Q193 356 194 346T198 325Q222 331 246 331Q257 331 266 330T286 327Q333 318 361 279Q390 239 387 193Q468 194 534 241Q606 294 606 371Q606 429 565 470Q527 511 467 511Q422 511 384 482Q345 449 345 405Q345 365 380 347V346Q387
345 387 336Q387 336 387 336T385 335Q382 335 374 340Q335 366 335 409Q335 459 378 493Q416 525 469 525Q533 525 577 482Q623 438 623 377Q623 289 546 233Q477 181 386 182Q379 132 330 95Q308 79 283 71T230 62Q207 62 207 68Q207 72 228 72Q234 72 242 73T261
76Q343 94 364 183Q220 195 182 305Q129 286 97 237Q68 190 68 131Q68 116 70 102T76 72Q91 16 148 -17Q201 -46 262 -46ZM1083 -47Q1040 -47 1040 27Q1040 116 1085 209Q1103 245 1141 295Q1156 314 1173 333T1210 375Q1221 388 1240 407T1285 454Q1353 522 1360
522Q1362 522 1357 516Q1356 514 1352 509T1339 496Q1296 450 1255 388Q1228 348 1202 301T1150 198Q1119 129 1103 79T1086 -5Q1086 -33 1103 -33Q1112 -33 1140 -16Q1166 1 1174 11Q1177 15 1182 15Q1184 13 1184 12Q1184 11 1182 9Q1128 -47 1083 -47ZM1069
455Q1094 455 1094 480Q1094 501 1074 513Q1056 522 1034 522Q996 522 948 495Q955 492 961 490T973 485Q995 508 1008 508Q1010 508 1010 507Q1005 501 999 495T985 480Q1019 468 1040 462T1069 455ZM366 194Q367 198 367 207Q367 241 348 273Q327 304 293 312Q282
314 270 315T247 317Q223 317 202 311Q219 259 265 228Q308 199 366 194Z" />
<glyph unicode="N" glyph-name="N" horiz-adv-x="1062" d="M296 -97Q205 -97 146 -44Q85 11 85 102Q85 181 132 236Q181 294 261 294Q266 294 271 294T281 293Q329 287 361 246Q394 206 394 158Q394 104 350 63Q307 24 252 24Q241 24 241 28Q241 31 259 34Q286
37 307 48T344 76Q374 111 374 165Q374 206 350 239Q322 275 284 279Q280 279 275 279T263 280Q190 280 143 231Q99 182 99 109Q99 24 150 -29Q203 -82 287 -82Q292 -82 296 -82T304 -81Q393 -72 464 2Q505 45 570 153Q585 179 607 216T662 303Q711 377 763 432T869
525Q755 584 728 594Q643 629 577 629Q552 629 528 624T482 610Q430 589 397 541Q363 493 363 438Q363 380 402 344Q441 308 499 308Q556 308 604 345Q652 384 652 443Q652 484 626 515Q599 547 557 547Q524 547 498 524Q471 500 471 467Q471 445 485 433Q499 420
499 416Q499 415 499 415T498 414Q495 414 489 418Q462 438 462 469Q462 507 492 532Q520 557 559 557Q603 557 637 525Q669 491 669 446Q669 382 614 337Q561 293 497 293Q429 293 387 337Q344 379 344 448Q344 510 377 562Q413 618 468 637Q519 656 574 656Q612
656 652 647T735 615Q772 596 808 575T881 534Q947 577 996 577Q1018 577 1039 565Q1064 550 1064 530Q1064 507 1039 494Q1018 482 994 482Q977 482 951 490Q938 469 928 439T912 369Q909 350 907 318T902 239Q893 56 846 0Q864 2 888 19Q980 84 1064 300Q1215
685 1398 685Q1441 685 1467 669Q1500 650 1500 610Q1500 606 1498 599T1493 584Q1487 564 1479 564Q1476 564 1476 570H1475Q1480 579 1482 587T1485 604Q1485 629 1462 646Q1441 661 1414 661Q1357 661 1301 617Q1264 589 1231 550T1168 460Q1148 428 1125 382T1075
274Q1050 219 1029 177T990 108Q929 17 854 -13Q838 -19 824 -22T799 -26Q790 -26 786 -24L784 -23Q784 -21 800 -15Q826 -6 843 18Q851 29 851 66Q851 78 850 96T847 140Q845 166 844 184T843 215Q843 289 863 364Q887 454 932 496Q921 501 907 507T877 521Q823
482 767 417Q740 385 718 354T681 291Q673 275 662 251T634 194Q498 -73 316 -96Q312 -97 307 -97T296 -97ZM996 489Q1042 489 1042 520Q1042 538 1020 552Q1000 563 980 563Q941 563 889 529Q903 522 916 516T941 504Q962 522 974 522Q980 522 980 518Q980 515
976 515Q966 508 957 498Q981 489 996 489Z" />
<glyph unicode="O" glyph-name="O" horiz-adv-x="641" d="M332 -48Q214 -48 148 24Q84 92 84 212Q84 356 170 465Q100 517 100 578Q100 657 199 657Q258 657 313 623Q317 622 317 615Q317 613 315 613Q314 613 309 616Q258 643 213 643Q119 643 119 569Q119 519
178 474Q282 596 485 596Q553 596 603 577Q671 552 682 497Q683 495 683 489Q683 451 635 421Q666 368 666 291Q666 203 625 132Q577 51 502 3Q421 -48 332 -48ZM431 394Q535 394 605 429Q580 480 534 480Q532 480 529 480T522 478Q518 477 515 477T510 477Q499
477 499 483Q499 492 524 492Q584 492 623 440Q659 464 659 493Q659 584 495 584Q331 584 227 443Q274 419 325 407T431 394ZM349 -33Q422 -33 497 31Q560 85 599 162Q629 222 629 309Q629 367 614 409Q583 396 544 389T457 381Q324 381 220 434Q147 331 147 200Q147
106 191 45Q238 -20 330 -32Q334 -32 339 -32T349 -33Z" />
<glyph unicode="P" glyph-name="P" horiz-adv-x="738" d="M131 -56Q102 -56 91 -53Q62 -45 62 -34Q62 -28 75 -28Q81 -28 90 -29T112 -33Q138 -39 151 -39Q222 -39 284 26Q307 51 331 86T377 168Q394 203 410 239T443 311Q562 557 683 630Q611 654 521 654Q418
654 335 621Q238 582 192 504Q163 455 163 406Q163 355 194 321Q227 287 278 287Q335 287 379 328Q422 368 422 426Q422 465 401 490Q378 516 341 516Q310 516 289 498Q265 477 265 448Q265 424 291 424Q292 424 294 426Q295 428 299 430Q302 429 302 426Q302 416
290 416Q257 416 257 449Q257 481 285 505Q313 528 345 528Q386 528 416 500Q443 472 443 429Q443 363 392 318Q341 275 275 275Q215 275 172 313Q130 351 130 412Q130 453 150 493Q195 584 312 630Q407 667 527 667Q624 667 705 643Q755 668 808 668Q833 668 857
660Q886 648 886 625Q886 600 872 600Q868 600 868 618Q868 655 805 655Q766 655 724 637Q885 581 885 454Q885 342 786 276Q701 218 583 218Q573 218 561 219T534 222Q494 226 494 234Q494 242 499 242V242H500H499Q499 241 513 238Q526 234 548 234Q649 234 738
292Q836 358 836 455Q836 570 700 624Q594 559 503 329Q495 307 484 275T453 199Q411 102 342 41T180 -49Q159 -56 131 -56Z" />
<glyph unicode="Q" glyph-name="Q" horiz-adv-x="638" d="M439 -49Q413 -49 385 -43T327 -23Q317 -18 292 -5T225 32Q185 23 146 23Q58 23 58 50Q58 64 84 70Q93 73 102 74T120 75Q159 75 243 49Q263 54 281 60T318 74Q504 158 576 257Q593 282 608 309T634 368Q660
435 660 489Q660 617 529 617Q444 617 357 563Q276 514 224 438Q190 389 174 333Q169 317 167 301T164 270Q164 220 190 188Q219 155 268 155Q312 155 357 179Q407 207 421 243Q427 257 431 257Q435 257 435 251Q435 245 434 242Q416 197 354 166Q297 137 244 137Q190
137 158 172Q127 206 127 260Q127 364 217 473Q275 545 357 587Q442 631 530 631Q614 631 665 592Q723 548 723 468Q723 358 633 251Q608 220 565 189T462 125Q358 69 264 42Q334 20 386 8T473 -4Q508 -4 542 5Q591 18 591 42Q591 44 591 46T590 52Q589 56 589
58T589 62Q589 70 593 70Q606 70 606 43Q606 0 541 -27Q491 -49 439 -49ZM152 37Q166 37 180 38T208 42Q167 64 133 64Q91 64 91 51Q91 37 152 37Z" />
<glyph unicode="R" glyph-name="R" horiz-adv-x="738" d="M152 -32Q82 -32 82 15Q82 36 94 49Q108 64 126 64Q139 64 139 57Q139 51 136 51Q135 51 129 53Q126 54 122 54Q111 54 103 43Q95 34 95 21Q95 1 117 -11Q137 -20 158 -20Q235 -20 299 41Q324 64 348 98T397
177Q397 178 414 214T466 320Q550 492 656 566Q595 589 504 589Q452 589 406 581T319 555Q222 516 175 438Q146 389 146 341Q146 290 178 256Q210 221 261 221Q318 221 362 262Q406 304 406 360Q406 399 385 424Q363 450 324 450Q295 450 272 432Q249 412 249 382Q249
358 275 358Q277 358 278 361Q281 364 283 364Q285 363 285 361Q285 351 274 351Q240 351 240 383Q240 415 269 439Q297 462 329 462Q372 462 399 434Q427 406 427 363Q427 297 375 252Q326 210 259 210Q196 210 156 247Q113 287 113 346Q113 388 134 428Q180 519
296 564Q391 601 512 601Q602 601 674 578Q742 618 797 618Q805 618 805 616Q805 613 802 613Q798 613 791 613T774 611Q728 605 687 573Q794 532 794 454Q794 381 719 333Q659 295 576 286Q587 256 593 206Q596 179 598 152T604 98Q615 19 643 9Q656 4 667 4Q711
4 762 63Q806 116 819 165L821 166L826 164V162Q807 105 759 49Q702 -15 650 -15Q628 -15 609 -1Q574 22 562 79Q559 96 557 122T554 185Q554 254 546 283H526Q519 283 513 283T501 285Q447 155 395 91Q320 1 211 -24Q177 -32 152 -32ZM571 298Q640 310 691 346Q751
391 751 455Q751 524 671 560Q633 527 597 472T525 340Q556 328 571 298ZM527 295H534L543 296Q534 319 520 328Q517 323 514 315T506 296Q511 296 516 296T527 295Z" />
<glyph unicode="S" glyph-name="S" horiz-adv-x="570" d="M260 -103Q256 -101 252 -100T243 -97Q190 -79 167 -40Q85 -28 35 19Q-17 70 -17 152Q-17 262 63 342Q142 421 253 421Q331 421 376 380Q398 397 430 422T506 482V501Q506 628 565 628Q579 628 590 617Q602
607 602 593Q602 553 521 482Q523 468 530 440T550 369Q571 299 571 253Q571 123 455 36Q347 -43 214 -43Q206 -43 197 -43T180 -41Q200 -74 241 -88Q250 -92 254 -92Q257 -92 266 -89Q274 -86 277 -86Q283 -86 283 -92Q283 -103 260 -103ZM519 494Q593 559 593
598Q593 618 567 618Q518 618 518 522Q518 515 518 509T519 494ZM172 -25Q233 -25 303 11Q334 27 362 46T416 90Q453 125 466 153Q515 248 515 349Q515 342 513 372T507 470Q486 454 456 430T384 372Q418 338 418 288Q418 221 370 174Q321 126 254 126Q216 126
191 143Q162 77 162 28Q162 13 165 0T172 -25ZM161 -25Q152 -4 152 24Q152 79 182 151Q158 174 158 207Q158 219 164 235Q172 256 180 256Q182 256 184 254Q182 248 179 247H180Q166 227 166 205Q166 179 185 159Q230 260 359 366Q315 407 248 407Q154 407 77 323Q2
242 2 146Q2 79 48 29Q71 4 99 -9T161 -25ZM250 133Q304 133 350 182Q396 231 396 284Q396 324 367 358Q305 306 262 254T195 150Q218 133 250 133Z" />
<glyph unicode="T" glyph-name="T" horiz-adv-x="659" d="M196 -56Q115 -56 56 -7Q-10 44 -10 122Q-10 202 47 265Q102 326 182 341Q180 352 179 363T177 385Q177 438 201 490Q227 547 268 573Q347 625 452 625Q527 625 625 596Q639 592 680 578T791 537Q852 577
904 577Q954 577 954 541Q954 504 889 504Q853 504 800 522Q736 456 675 311Q610 155 509 67Q474 36 440 14T371 -22Q337 -35 297 -45T210 -56H196ZM211 -41Q302 -41 392 31Q429 60 462 97T524 181Q538 204 559 238T608 318Q633 356 660 394T718 470Q732 487 747
501T780 529Q579 595 477 595Q356 595 282 528Q251 500 230 456Q211 414 211 370Q211 363 211 357T212 345Q217 346 221 346T229 346Q336 346 361 258Q405 277 437 312Q471 351 480 395Q480 395 480 396T479 399Q479 407 484 407Q488 407 488 402Q488 401 488 399T487
394Q461 287 363 248Q364 241 364 235T365 221Q365 159 316 116Q269 73 206 73Q199 73 199 78Q199 85 209 86Q273 93 311 127Q353 165 353 227Q353 232 353 236T352 244Q330 237 305 237Q262 237 230 262Q214 275 203 291T186 328Q117 304 72 242Q28 180 28 109Q28
34 83 -7Q132 -41 211 -41ZM889 512Q944 512 944 541Q944 572 902 572Q854 572 809 530Q860 512 889 512ZM309 247Q329 247 350 254Q339 292 306 315Q273 337 234 337Q230 337 225 337T214 335Q223 300 247 274Q274 247 309 247Z" />
<glyph unicode="U" glyph-name="U" horiz-adv-x="772" d="M705 -80Q640 -80 640 38Q640 217 795 415Q790 411 774 390T732 331Q712 303 681 260T607 160Q579 124 559 100T526 63Q469 2 430 -14Q388 -29 356 -29Q278 -29 278 53Q278 124 337 204Q369 245 396 287T447
373Q511 489 511 559Q511 623 458 655Q414 681 345 681Q246 681 164 625Q85 571 44 478Q28 443 28 401Q28 346 56 309Q87 266 139 266Q193 266 239 301Q284 337 299 389V390Q299 401 302 406T308 412Q312 412 312 401Q312 394 309 386Q291 328 245 294Q199 257
140 257Q79 257 41 305Q7 348 7 411Q7 531 115 615Q216 693 340 693Q431 693 490 655Q561 612 561 526Q561 470 530 420Q516 398 496 368T447 300Q375 202 375 202Q329 135 318 97Q314 84 312 73T310 50Q310 -15 375 -15Q402 -15 427 -3Q507 32 753 377Q767 397
788 426T839 493Q871 530 902 547T964 564Q1000 564 1000 550Q1000 538 980 538Q972 538 959 542Q946 545 938 545Q922 545 914 538Q825 470 757 303Q691 146 691 24Q691 -61 729 -61Q741 -61 757 -51Q765 -46 768 -44T772 -41Q780 -41 780 -45Q780 -50 758 -62Q728
-80 705 -80Z" />
<glyph unicode="V" glyph-name="V" horiz-adv-x="605" d="M182 -46Q126 -46 126 -10Q126 13 161 13Q172 13 187 12T221 6Q241 2 256 0T281 -2Q495 139 495 420Q495 499 454 553Q409 613 333 613Q248 613 178 545Q117 484 91 395Q87 382 86 368T84 339Q84 287 104
253Q128 210 174 210Q226 210 265 255Q303 299 303 352Q298 360 298 367Q298 374 304 374Q314 374 314 351Q314 290 275 245Q235 199 174 199Q117 199 81 248Q48 293 48 351Q48 461 135 543Q221 626 331 626Q338 626 344 626T357 624Q447 611 498 550Q550 489 550
399Q550 359 541 316T513 226Q463 99 304 -2Q310 -1 316 0T328 2Q427 28 502 92Q532 118 563 156T628 245Q661 293 709 374Q738 423 758 456T790 505Q841 579 889 622Q936 665 986 665Q1004 665 1025 656Q1049 646 1049 629Q1049 611 1041 611Q1037 611 1037 616Q1037
619 1038 621V625Q1038 637 1020 644Q1007 651 993 651Q957 651 917 614Q890 590 856 548T781 445L644 240Q567 127 495 69Q401 -6 287 -12Q231 -46 182 -46ZM191 -36Q207 -36 225 -31T263 -13Q250 -13 237 -12T210 -8Q177 -2 173 -2Q158 -2 158 -18Q158 -36 191
-36Z" />
<glyph unicode="W" glyph-name="W" horiz-adv-x="867" d="M138 -46Q84 -46 84 -11Q84 -8 87 -4Q100 13 160 13H196Q217 13 234 14T266 18Q452 159 452 420Q452 499 409 546Q366 594 287 594Q112 594 43 397Q34 372 34 343Q34 291 57 255Q84 210 131 210Q183 210
222 255Q260 301 260 352Q260 361 264 361Q271 361 271 351Q271 290 232 245Q192 199 131 199Q76 199 43 251Q15 294 15 354Q15 380 21 402Q45 494 119 551Q191 608 286 608Q294 608 302 608T318 606Q406 593 457 543Q513 491 513 404Q513 325 467 226Q417 118
304 29Q340 44 378 69T456 130Q527 195 576 270Q737 513 832 513Q842 513 855 509Q873 503 873 497Q873 495 867 494T864 492H865Q849 485 835 465T811 413Q803 389 797 365T782 315Q774 287 765 262T744 212Q714 144 668 91Q653 72 628 47T567 -11H568L572 -9L580
-7Q585 -5 591 -3T605 4Q624 13 643 25T683 51Q730 86 774 134T859 245Q891 294 922 344T986 443Q1025 502 1063 546T1136 622Q1183 664 1223 664Q1243 664 1259 654Q1279 642 1279 624Q1279 617 1274 617Q1269 617 1269 628Q1269 640 1255 649Q1242 657 1231 657Q1214
657 1194 646T1147 614Q1095 568 1009 442Q987 408 954 358T874 241Q834 184 802 145T745 82Q670 11 567 -20Q557 -23 550 -23Q546 -23 546 -20Q546 -16 551 -10Q590 48 624 103T687 213Q703 242 730 311Q743 345 754 369T774 410Q788 436 804 457T840 491L852
499Q843 503 830 503Q755 503 597 270Q437 38 275 8Q197 -46 138 -46ZM148 -37Q187 -37 246 4Q222 1 167 1Q124 1 119 -7Q115 -12 115 -18Q115 -37 148 -37Z" />
<glyph unicode="X" glyph-name="X" horiz-adv-x="721" d="M-24 -119Q-38 -119 -52 -113Q-70 -104 -70 -91Q-70 -86 -63 -86Q-56 -86 -43 -91Q-31 -95 -23 -95Q77 -95 458 301Q453 445 436 506Q423 550 390 580Q356 613 310 613Q255 613 216 565Q180 520 180 464Q180
368 268 368Q304 368 335 396Q366 424 366 460Q366 478 358 496Q347 516 329 516Q304 516 298 491Q301 490 301 486Q300 483 298 483Q291 483 291 495Q291 508 304 517Q313 525 329 525Q355 525 372 505Q389 485 389 460Q389 414 346 383Q307 355 261 355Q213 355
181 391Q151 426 151 475Q151 543 200 589Q247 631 317 631Q359 631 391 615Q451 587 486 516Q517 454 517 380Q530 394 558 424T631 499Q649 517 672 537T723 580Q794 638 822 641Q829 642 833 642T841 642Q863 642 863 635Q863 626 836 620Q796 612 733 565T582
428Q569 415 553 399T516 364H518Q518 351 519 329T523 276Q544 10 618 10Q657 10 709 80V79Q709 82 713 82Q720 82 721 80Q719 79 716 67H715Q693 42 682 29T669 15Q644 -7 603 -7Q579 -7 555 -1Q500 12 479 89Q470 125 464 214L459 288Q397 214 330 144T192 8Q56
-119 -24 -119ZM721 80V79Q721 79 721 79T721 80Q721 80 721 80Z" />
<glyph unicode="Y" glyph-name="Y" horiz-adv-x="743" d="M322 -318Q234 -318 234 -257Q234 -225 255 -198Q279 -167 363 -121Q365 -120 395 -105T485 -61Q524 -42 556 -25T614 6Q656 103 681 160T716 237Q788 380 862 434Q864 436 867 438T875 445Q823 427 743
317Q715 278 687 238T630 158Q610 131 584 105T527 53Q450 -13 405 -22Q395 -23 385 -24T365 -26Q274 -26 274 58Q274 129 333 206Q361 242 389 277T444 349Q516 446 531 501Q540 533 540 559Q540 623 487 655Q443 681 373 681Q275 681 193 625Q114 571 73 478Q57
443 57 401Q57 346 85 309Q116 266 168 266Q222 266 268 301Q313 337 328 389V390Q328 401 331 406T337 412Q341 412 341 401Q341 394 338 386Q320 328 274 294Q226 257 169 257Q108 257 70 305Q36 348 36 411Q36 531 144 615Q245 693 369 693Q461 693 519 652Q584
607 584 518Q584 458 556 414Q540 389 517 358T463 290Q442 266 421 243T378 194Q317 122 309 93Q303 69 303 50Q303 -14 366 -14Q453 -14 586 134Q621 172 664 227T759 357Q766 366 777 378T806 407Q824 424 837 435T859 451Q900 476 935 476Q971 476 971 461Q971
449 951 449Q950 449 947 449T939 450Q935 450 932 450T926 451Q893 451 854 414Q846 406 833 390T801 347Q781 320 763 284T727 202Q722 187 710 148T677 45Q694 56 704 63T718 73Q741 93 741 114Q741 115 740 117Q739 118 739 120Q739 124 743 124Q750 124 750
111Q750 90 721 66Q717 63 706 55T673 33Q631 -103 594 -156Q550 -221 475 -268Q396 -318 322 -318ZM307 -306Q365 -306 441 -246Q508 -193 545 -135Q558 -115 573 -83T608 -8Q573 -29 510 -61T357 -137Q318 -157 287 -186Q246 -225 246 -258Q246 -280 266 -294Q284
-306 307 -306Z" />
<glyph unicode="Z" glyph-name="Z" horiz-adv-x="743" d="M212 -314Q102 -314 102 -253Q102 -215 139 -182Q176 -149 273 -130Q305 -124 420 -109Q500 -100 548 -91Q628 12 628 108Q628 195 546 195Q521 195 492 183Q476 158 459 135T421 91Q364 31 329 31Q310
31 310 50Q310 92 377 142Q433 184 483 199Q507 237 525 325Q533 364 537 398T541 460Q541 598 459 647Q410 677 352 677Q204 677 94 509Q62 460 62 405Q62 351 91 317Q123 282 176 282Q224 282 267 308Q309 332 330 378Q336 398 343 398Q345 398 345 391Q345 384
339 372Q287 273 179 273Q117 273 80 313Q42 354 42 414Q42 529 152 616Q258 699 372 699Q431 699 486 676Q591 630 591 465Q591 348 506 205Q515 207 524 208T542 209Q600 209 633 172Q665 137 665 79Q665 3 607 -79Q699 -58 746 -31Q769 -17 769 1Q769 3 768
4V7Q768 11 772 11Q778 11 778 3V2Q778 -20 749 -38Q723 -53 685 -67T597 -94Q526 -187 427 -247Q318 -314 212 -314ZM191 -299Q246 -299 327 -259Q360 -243 391 -225T451 -185Q498 -151 536 -107Q511 -111 472 -117T380 -129Q357 -132 322 -136T242 -151Q223 -155
205 -164T167 -187Q121 -218 121 -250Q121 -273 145 -287Q166 -299 191 -299Z" />
<glyph unicode="[" glyph-name="bracketleft" horiz-adv-x="332" d="M80 -191Q79 -189 372 661H503L505 656L500 642L494 639H416L140 -168H219L221 -174L215 -187L210 -191H80Z" />
<glyph unicode="\" glyph-name="backslash" horiz-adv-x="622" d="M590 -95L6 666H38L622 -95H590Z" />
<glyph unicode="]" glyph-name="bracketright" horiz-adv-x="325" d="M-29 -192V-185L-24 -172L-19 -168H60L408 638H328L326 643L334 657L339 661H468V656L103 -192H-29Z" />
<glyph unicode="^" glyph-name="asciicircum" horiz-adv-x="505" d="M48 454L270 661H326L463 454H433L289 619L78 454H48Z" />
<glyph unicode="_" glyph-name="underscore" horiz-adv-x="453" d="M-14 -213Q-17 -213 -17 -209Q-17 -204 -12 -198T1 -192H453Q455 -192 455 -195Q455 -201 452 -206T440 -212L-14 -213Z" />
<glyph unicode="`" glyph-name="grave" horiz-adv-x="133" d="M143 388Q143 385 133 390Q109 402 81 415T31 441T2 457Q-2 460 3 468T15 477Q21 477 43 462T85 432Q93 427 106 417T131 399T143 388Z" />
<glyph unicode="a" glyph-name="a" horiz-adv-x="378" d="M311 -3Q259 -3 259 69Q259 97 268 133Q198 -2 129 -2Q96 -2 79 31Q65 56 65 94Q65 125 74 159Q91 218 146 270Q207 326 262 326Q312 326 312 266Q312 240 301 205L362 325H365Q368 320 378 320Q398 320
429 344L431 342L346 176Q295 77 295 26Q295 6 313 6Q325 6 342 15T378 45Q402 73 419 98T460 168Q463 173 466 173Q472 173 466 163Q448 129 428 96T378 33Q342 -3 311 -3ZM133 5Q189 5 277 163Q305 213 305 264Q305 318 270 318Q232 318 184 255Q165 229 152
204T130 156Q109 96 109 48Q109 5 133 5Z" />
<glyph unicode="b" glyph-name="b" horiz-adv-x="299" d="M141 -7Q68 -7 68 93Q68 108 70 123T76 153Q101 248 142 331Q158 364 176 395T215 454Q236 483 259 510T307 560Q378 626 425 626Q467 626 467 586Q467 554 438 504Q414 462 386 434Q301 346 172 269Q108
117 108 51Q108 25 117 14T145 2Q169 2 189 19T227 61T257 112T277 157Q275 162 273 176T270 206Q270 223 274 235T288 248Q304 248 304 224Q304 211 300 194T287 158Q289 135 296 119T320 103Q337 103 352 120T382 168Q382 169 384 169Q386 169 387 167T387 161Q373
130 357 113T318 96Q285 96 280 145Q222 -7 141 -7ZM179 282Q308 369 377 438Q456 519 456 588Q456 620 425 620Q371 620 282 479Q254 434 229 385T179 282Z" />
<glyph unicode="c" glyph-name="c" horiz-adv-x="257" d="M147 -10Q108 -10 83 12T58 81Q58 119 73 161T118 243Q183 329 253 329Q318 329 318 270Q318 248 304 222Q287 193 267 193Q252 193 252 205Q252 218 279 237Q306 257 306 282Q306 316 271 316Q234 316
189 262Q157 222 135 176Q125 156 115 124T105 61Q105 36 116 18T155 0Q181 0 209 14T257 49Q274 66 295 95T339 168Q342 173 345 173Q351 173 345 163Q328 129 309 98T257 38Q238 19 209 5T147 -10Z" />
<glyph unicode="d" glyph-name="d" horiz-adv-x="380" d="M127 -5Q91 -5 76 25T61 91Q61 128 72 155Q86 192 113 230T178 295T261 322Q311 322 311 264Q311 235 299 202L462 522H464Q468 518 478 518Q499 518 528 541L530 539L380 252Q293 85 293 33Q293 6 315
6Q327 6 344 15T380 45Q404 73 421 98T462 168Q465 173 468 173Q474 173 468 163Q450 129 430 96T380 33Q344 -3 313 -3Q288 -3 272 11T255 59Q255 91 266 130Q196 -5 127 -5ZM134 4Q161 4 198 44T275 160Q279 168 285 185T297 224T303 265Q303 285 295 298T267
311Q248 311 227 298T182 252Q144 201 127 153Q125 147 120 130T111 91T107 49Q107 30 113 17T134 4Z" />
<glyph unicode="e" glyph-name="e" horiz-adv-x="259" d="M149 -10Q100 -10 81 17T62 95Q62 167 122 245Q186 327 255 327Q306 327 306 292Q306 249 259 202Q192 134 118 134Q106 103 106 72Q106 38 119 19T157 0Q183 0 211 14T259 49Q276 66 297 95T341 168Q344
173 347 173Q353 173 347 163Q330 129 311 98T259 38Q240 19 211 5T149 -10ZM119 141Q174 141 242 200V201Q261 217 278 245Q298 276 298 298Q298 314 274 314Q236 314 182 246Q157 216 142 190T119 141Z" />
<glyph unicode="f" glyph-name="f" horiz-adv-x="266" d="M72 -306Q42 -304 26 -283T4 -232T-2 -177Q-2 -35 87 194Q207 497 337 590Q380 621 416 621Q463 621 463 578Q463 456 132 150H133Q35 -100 35 -225Q35 -262 46 -279T78 -296Q106 -296 128 -268T165 -197T185
-110Q186 -103 186 -97T186 -83Q186 -48 179 -21T157 17Q108 18 108 43Q108 55 122 55Q145 55 163 24Q200 22 226 33T277 67Q300 87 319 115T348 166Q353 174 355 174Q357 174 357 171Q357 167 355 163Q318 89 272 52T170 16Q182 3 189 -24T196 -84Q196 -121 187
-160T162 -233T123 -287T72 -306ZM140 167Q453 461 453 580Q453 613 423 613Q353 613 254 425Q188 302 140 167Z" />
<glyph unicode="g" glyph-name="g" horiz-adv-x="322" d="M25 -224Q-29 -224 -29 -187Q-29 -137 79 -65Q118 -39 157 -18T236 20Q239 29 243 42T253 74Q255 81 260 98T276 145Q201 -2 123 -2Q59 -2 59 83Q59 162 119 240Q184 324 258 324Q310 324 310 263Q310
248 307 231Q358 347 396 347Q409 347 409 335Q409 326 391 323Q368 319 357 309Q341 292 325 260T295 177Q285 140 276 104T258 30Q305 46 341 80T403 166Q405 169 407 169Q409 169 410 167T409 161Q396 134 374 106T322 56T256 23L242 -33Q208 -172 88 -212Q52
-224 25 -224ZM128 6Q171 6 223 78Q243 105 259 132T286 187Q294 208 298 227T302 266Q302 314 267 314H259Q228 308 189 255Q155 212 139 172Q123 134 114 101T105 41Q105 6 128 6ZM23 -216Q100 -216 194 -66Q200 -56 208 -41T227 -5Q230 0 233 12Q160 -21 103
-59T4 -142Q-20 -167 -20 -189Q-20 -216 23 -216Z" />
<glyph unicode="h" glyph-name="h" horiz-adv-x="346" d="M16 -16L14 -15Q74 185 173 370Q317 639 445 639Q492 639 492 593Q492 538 430 467Q378 410 319 375Q273 348 213 327Q204 324 200 325Q169 270 145 218T101 116Q143 196 191 251Q260 330 321 330Q371
330 371 294Q371 259 304 163Q245 80 245 31Q245 6 267 6Q284 6 306 17T352 53Q383 87 399 116T429 169Q432 174 435 173T436 167Q421 136 401 103T358 46Q330 16 303 5T249 -6Q196 -6 196 45Q196 90 231 149Q239 162 255 185T297 241Q332 288 332 302Q332 320
309 320Q265 320 204 253Q163 208 128 148Q112 121 95 84T59 0L57 -1Q49 4 42 4Q24 4 16 -16ZM205 334Q209 334 213 335Q236 340 260 351T310 378Q337 396 364 419T418 473Q484 545 484 595Q484 630 449 630Q403 630 313 506Q286 468 259 425T205 334Z" />
<glyph unicode="i" glyph-name="i" horiz-adv-x="192" d="M237 380Q205 380 205 411Q205 445 236 445Q268 445 268 414Q268 380 237 380ZM119 -10Q53 -10 53 63Q53 116 84 175L159 322H162Q165 318 174 318Q193 318 224 341L226 339L141 174Q88 72 88 32Q88 14
98 7T121 0Q135 0 148 6T172 19Q199 40 217 67T250 123T275 170Q278 175 281 174T282 167Q262 125 238 81T177 11Q164 2 150 -4T119 -10Z" />
<glyph unicode="j" glyph-name="j" horiz-adv-x="174" d="M217 389Q184 389 184 418Q184 436 196 446Q208 458 224 458Q257 458 257 429Q257 413 245 401Q233 389 217 389ZM-207 -268Q-266 -268 -266 -233Q-266 -198 -196 -141Q-145 -99 -2 -50Q30 20 68 113T151
321L153 322Q155 321 161 321Q182 321 216 335L218 333L59 -27Q191 32 255 164Q258 169 260 169Q265 169 262 161Q195 21 54 -40Q50 -48 45 -60T32 -90Q11 -144 -42 -194Q-96 -245 -151 -260Q-181 -268 -207 -268ZM-220 -259Q-172 -259 -117 -216Q-69 -180 -41
-130Q-34 -118 -26 -102T-8 -63Q-95 -92 -170 -140Q-256 -194 -256 -236Q-256 -259 -220 -259Z" />
<glyph unicode="k" glyph-name="k" horiz-adv-x="313" d="M5 -8Q4 -8 4 -6T5 -3Q266 627 455 627Q501 627 501 588Q501 547 464 497Q394 399 268 341Q233 325 212 320Q210 319 205 319Q172 262 142 207T86 96Q229 338 330 338Q367 338 367 303Q367 246 281 211Q272
207 256 202T216 191H218Q229 191 237 173Q239 166 241 159T243 143Q243 124 234 88Q230 69 228 56T226 33Q226 5 250 5Q288 5 334 69Q351 90 364 113T393 164Q395 168 400 169T400 161Q386 133 371 107T337 58Q288 -5 243 -5Q177 -5 177 47Q177 68 189 108Q201
149 201 167Q201 191 174 191Q170 191 170 194Q170 198 176 198Q194 199 213 204T253 221Q291 240 316 270Q339 299 339 318Q339 330 325 330Q292 330 234 275Q213 255 195 235T159 191Q122 142 75 56Q69 46 62 32T44 -1Q44 -1 44 -1T42 -2Q35 4 29 4Q19 4 13 -2Q6
-8 5 -8ZM211 328H213Q279 345 357 411Q490 522 490 592Q490 616 465 616Q408 616 321 499Q302 474 275 432T211 328Z" />
<glyph unicode="l" glyph-name="l" horiz-adv-x="220" d="M148 -8Q67 -8 67 99Q67 163 95 248Q108 287 123 323T155 390Q176 428 199 462T248 528Q323 621 376 621Q398 621 398 600Q398 572 375 514Q298 323 125 166Q108 103 108 65Q108 0 149 0Q163 0 176 5T199
18Q226 39 245 67T278 123T303 170Q306 175 309 174T310 167Q290 125 266 81T205 11Q178 -8 148 -8ZM128 176Q148 193 170 218T217 275Q242 307 268 346T320 430Q390 549 390 596Q390 613 379 613Q342 613 247 454Q222 409 202 367Q178 314 160 267T128 176Z" />
<glyph unicode="m" glyph-name="m" horiz-adv-x="464" d="M-16 -24L-18 -22Q11 28 38 81T93 190Q104 212 119 245T155 322H157Q164 317 173 317Q194 317 219 336L221 338L220 336H219Q212 322 194 288T146 197Q228 327 283 327Q320 327 320 292Q320 263 295 207Q316
236 330 254T351 280Q393 325 426 325Q469 325 469 283Q469 252 454 221T417 158T379 95Q371 79 365 62T358 30Q358 17 366 9T393 0Q407 0 420 5T443 18Q470 39 489 67T522 123T547 170Q550 175 553 174T554 167Q534 125 510 81T449 11Q436 2 421 -4T388 -10Q353
-10 338 5T322 46Q322 64 330 90Q336 108 345 128T370 173Q423 261 423 287Q423 304 408 304Q366 304 286 173Q261 133 238 90T192 -1H190Q183 1 177 2T166 3Q136 3 130 -18L127 -16Q165 50 187 89T216 140Q280 262 280 296Q280 311 269 311Q228 311 146 177Q92
90 49 -2L47 -3Q34 2 24 2Q7 2 -4 -11Q-14 -24 -16 -24Z" />
<glyph unicode="n" glyph-name="n" horiz-adv-x="326" d="M-3 -34L-4 -32Q32 46 89 184Q98 207 110 241T139 320H141Q151 312 158 312Q183 312 205 355V354Q205 352 161 247Q137 190 125 160T111 126Q225 331 293 331Q308 331 320 321Q332 311 332 295Q332 253
275 157Q218 61 218 26Q218 13 228 6T252 -1Q266 -1 281 5T306 18Q333 39 352 67T385 123T410 170Q413 175 416 174T417 167Q397 125 373 81T312 11Q299 2 284 -4T251 -10Q223 -10 206 5T188 51Q188 105 238 187Q289 271 289 293Q289 310 270 310H264Q242 310 204
260T112 111Q99 89 86 61T57 -3L55 -4Q43 2 34 2Q21 2 12 -14Q4 -31 -3 -34Z" />
<glyph unicode="o" glyph-name="o" horiz-adv-x="323" d="M161 -9Q117 -9 94 29Q73 61 73 107Q73 186 123 254Q178 328 255 328Q294 328 315 301Q335 275 335 235Q335 217 332 198T321 158Q306 114 284 89L286 86Q296 79 310 79Q339 79 359 98T404 166Q405 170
408 170Q410 170 411 168T410 161Q389 117 366 94T311 71Q291 71 280 82Q270 64 258 49T231 21Q197 -9 161 -9ZM168 -1Q221 -1 272 80Q272 83 275 86Q257 116 257 143Q257 144 257 147T258 157Q259 168 262 179T272 201Q287 225 308 225H317Q321 224 323 224T326
224Q326 314 269 314Q221 314 178 256Q143 210 128 153Q119 122 119 88Q119 -1 168 -1Z" />
<glyph unicode="p" glyph-name="p" horiz-adv-x="290" d="M-209 -258Q-231 -258 -252 -242Q-272 -226 -278 -203L-277 -201L-272 -199H-270Q-258 -245 -225 -245Q-186 -245 -127 -180Q-83 -133 -51 -80Q-32 -49 -8 -3T46 104Q77 167 101 213T142 289Q153 309 168
328T201 366Q249 418 278 418Q298 418 298 400Q298 383 279 378L263 376Q233 373 211 354Q197 342 179 319T137 259Q96 195 75 125Q177 317 260 317Q321 317 321 241Q321 155 255 80Q221 42 186 22T107 -1Q127 -4 145 -4Q182 -4 215 8T276 43Q305 66 329 98T372
168Q375 174 378 174Q384 174 379 164Q363 134 346 108T308 60Q284 36 243 11T141 -14Q124 -14 104 -10T72 4Q63 12 61 24T58 53Q53 34 44 10T23 -44Q10 -77 -1 -99T-20 -134Q-108 -258 -209 -258ZM95 3Q129 3 178 61Q217 105 239 148Q279 228 279 282Q279 311
255 311Q199 311 130 205Q98 156 83 117T68 47Q68 3 95 3Z" />
<glyph unicode="q" glyph-name="q" horiz-adv-x="346" d="M182 -266Q134 -266 134 -200Q134 -152 163 -73Q173 -47 216 48Q176 -4 131 -4Q94 -4 75 21Q56 43 56 81Q56 125 79 176Q104 230 148 274Q202 326 251 326Q306 326 306 267Q306 238 293 200L357 326H359Q368
323 377 323Q404 323 415 343L418 342Q399 307 371 254T307 128Q297 107 283 76T249 2Q279 6 299 18T339 50Q354 63 372 85T405 129T427 166Q432 174 434 174Q436 174 436 171Q436 167 434 163Q404 104 363 60T276 0Q292 -8 300 -30T308 -74Q308 -130 273 -194Q233
-266 182 -266ZM138 5Q191 5 246 113Q297 211 297 270Q297 318 263 318Q228 318 182 257Q147 211 128 166Q100 104 100 58Q100 5 138 5ZM178 -257Q228 -257 266 -186Q299 -124 299 -69Q299 -45 289 -26Q285 -18 276 -11T256 -4Q251 -4 245 -7Q164 -184 164 -231Q164
-257 178 -257Z" />
<glyph unicode="r" glyph-name="r" horiz-adv-x="273" d="M178 -4Q118 -4 118 49Q118 91 151 145Q162 164 212 230Q245 274 245 292Q245 309 217 309Q198 309 176 308T139 306Q136 290 130 269T116 225Q111 211 101 187T73 136Q70 132 68 132Q67 132 67 134Q67
139 71 147Q79 161 89 181T108 227Q116 249 122 273T130 307Q106 322 106 352Q106 386 130 386Q147 386 147 355Q147 348 145 338T140 314Q154 315 184 316T243 318Q294 318 294 287Q294 254 215 151Q198 126 178 95T157 30Q157 21 161 13T178 5Q221 5 273 57Q299
83 321 113T361 180Q365 188 368 188Q370 188 370 185Q370 180 367 174Q350 139 326 107T273 45Q224 -4 178 -4Z" />
<glyph unicode="s" glyph-name="s" horiz-adv-x="266" d="M142 -12Q41 -12 41 84Q41 111 50 142V141Q55 159 69 176Q86 197 100 197Q100 197 103 197T113 195L124 212Q138 233 149 254T174 297Q211 361 230 366Q236 368 239 368Q254 368 254 357Q254 344 232 341Q212
338 207 336Q199 330 199 310Q199 289 226 239Q253 190 253 152Q253 142 252 133T248 114Q221 1 105 1Q128 -4 147 -4Q182 -4 215 8T276 43Q305 66 329 98T372 168Q375 174 378 174Q384 174 379 164Q363 134 346 108T308 60Q284 36 243 12T142 -12ZM98 9Q149 9
182 86Q209 146 209 207Q209 215 207 228T199 261Q195 279 193 292T192 316Q173 278 154 247T118 191Q123 183 123 175Q123 161 112 144Q105 134 88 125Q71 116 64 108Q53 92 53 66Q53 9 98 9Z" />
<glyph unicode="t" glyph-name="t" horiz-adv-x="211" d="M123 -3Q52 -3 52 67Q52 122 93 206Q95 210 112 241T163 332H111L109 334L110 340L111 341H168L240 467Q249 463 261 463Q275 463 291 473Q308 482 314 493L317 492L227 341H296L297 340V334L295 332H222L154
212Q93 105 93 47Q93 6 125 6Q175 6 226 62Q240 77 259 107T291 164Q293 169 296 168T298 161Q283 131 267 104T229 54Q177 -3 123 -3Z" />
<glyph unicode="u" glyph-name="u" horiz-adv-x="336" d="M99 -6Q74 -6 59 11Q45 28 45 52Q45 74 58 110T97 196Q108 218 125 249T168 322H170Q177 317 186 317Q207 317 234 338L236 336Q221 319 184 253Q172 232 162 214T141 180Q82 79 82 32Q82 5 107 5Q163
5 262 180Q276 205 295 242T339 328H341Q348 325 354 323T366 321Q388 321 397 341L400 340L322 189Q253 57 253 22Q253 4 270 4Q282 4 299 14T336 45Q360 73 377 98T418 168Q421 173 424 173Q430 173 424 163Q406 129 386 96T336 33Q298 -5 269 -5Q243 -5 230
8T216 50Q216 74 226 103Q159 -6 99 -6Z" />
<glyph unicode="v" glyph-name="v" horiz-adv-x="307" d="M122 -5Q60 -5 60 73Q60 105 74 147Q82 168 103 212T161 322H163Q171 317 180 317Q204 317 231 337L232 335Q204 307 136 180Q96 103 96 40Q96 3 120 3Q181 3 261 134Q250 153 250 193Q250 205 251 217T255
243Q258 266 270 292Q285 327 301 327Q320 327 320 294Q320 236 268 136Q270 123 281 108T309 93Q352 93 387 164Q390 170 393 168T394 161Q375 124 356 105T310 86Q296 86 284 95T263 124Q240 76 207 42Q163 -5 122 -5Z" />
<glyph unicode="w" glyph-name="w" horiz-adv-x="494" d="M100 -9Q43 -9 43 49Q43 113 165 322H167Q174 317 184 317Q205 317 236 337L237 335Q197 291 144 190Q86 80 86 32Q86 3 109 3Q142 3 188 65Q219 107 243 157Q257 184 277 224T326 318L328 319Q341 312
354 312Q378 312 391 332L393 330L311 187Q267 110 267 45Q267 3 295 3Q368 3 449 134Q437 152 437 193Q437 205 438 217T442 243Q447 269 457 292Q472 327 489 327Q508 327 508 294Q508 266 495 224T455 132Q458 119 469 106T496 93Q539 93 574 164Q577 170 580
168T581 161Q562 124 543 105T497 86Q466 86 451 121Q438 96 422 75T387 36Q341 -6 290 -6Q220 -6 220 58Q220 69 222 81T228 107Q166 -9 100 -9Z" />
<glyph unicode="x" glyph-name="x" horiz-adv-x="404" d="M85 -26Q76 -26 76 -19Q76 20 248 168Q246 236 233 281Q224 311 204 311Q160 311 88 162H86L84 164L83 166Q152 329 229 329Q265 329 283 287Q290 271 293 253T297 212Q309 228 323 244T353 278Q365 291
376 305T398 332Q434 374 444 374H447Q454 374 454 370V362Q454 350 413 323Q407 319 402 315T391 305Q363 277 297 202Q299 156 303 120T314 56Q326 16 352 16Q370 16 388 27T428 68Q443 89 457 114T485 166Q487 170 490 169T491 161Q473 127 461 104T431 58Q408
27 381 13T325 -2Q261 -2 252 119Q250 133 249 159Q199 117 164 79T109 7Q91 -26 85 -26Z" />
<glyph unicode="y" glyph-name="y" horiz-adv-x="365" d="M2 -239Q-55 -239 -55 -195Q-55 -146 27 -103Q37 -98 59 -91T116 -74Q140 -68 159 -63T193 -52Q198 -38 206 -19T222 26Q227 39 232 58T247 104Q256 130 270 161T305 226Q295 214 282 195T251 149Q203
75 186 55Q137 -5 97 -5Q71 -5 54 12Q38 31 38 56Q38 101 71 158Q76 166 91 188T133 250Q166 298 166 319Q166 330 153 330Q141 330 130 322Q118 314 116 303L114 301H111L109 302Q111 315 126 326Q140 336 154 339Q159 340 164 340T175 341Q212 341 212 312Q212
273 145 182Q82 94 82 37Q82 6 107 6Q147 6 247 160Q331 290 386 330Q412 350 426 350Q437 350 437 339Q437 328 413 320Q358 304 321 241Q307 216 296 187T280 124Q276 105 274 86T268 48Q264 29 260 11T249 -28Q380 32 445 164Q448 169 450 169Q455 169 452 161Q419
92 368 42T245 -39Q220 -101 188 -142T96 -215Q51 -239 2 -239ZM8 -230Q118 -230 187 -67Q172 -72 153 -78T111 -91Q98 -95 78 -101T32 -118Q20 -125 9 -133T-13 -153Q-38 -180 -38 -202Q-38 -230 8 -230Z" />
<glyph unicode="z" glyph-name="z" horiz-adv-x="320" d="M37 -226Q-24 -226 -24 -181Q-24 -124 80 -59Q102 -45 141 -25T238 20V30Q238 85 175 85Q146 85 120 72Q107 67 99 67Q82 67 82 79Q82 95 116 98L162 101Q215 110 248 163Q278 211 278 268Q278 327 230
327Q167 327 88 161H86L82 162V164Q92 188 103 210T127 253Q177 336 238 336Q318 336 318 245Q318 142 169 94Q180 96 187 96T198 96Q215 96 229 89Q242 83 254 65Q266 46 266 32Q283 38 303 52T341 83T370 114Q390 142 405 174Q408 179 410 179Q415 179 412 171Q405
155 397 140T377 110Q359 83 329 60T267 25Q268 -101 149 -186Q91 -226 37 -226ZM19 -213Q68 -213 132 -152Q186 -99 214 -45Q234 -9 235 12Q215 5 196 -4T160 -23Q111 -51 84 -66T51 -86Q-16 -134 -16 -180Q-16 -213 19 -213Z" />
<glyph unicode="{" glyph-name="braceleft" horiz-adv-x="485" d="M302 -117Q236 -117 203 -103Q154 -82 154 -25Q154 -5 160 25T177 96Q189 137 194 166T200 215Q200 291 89 291Q82 291 82 299Q82 315 98 318Q107 320 125 321Q186 330 214 353Q234 370 247 398Q256
416 264 444T282 512Q290 551 299 579T316 626Q345 687 400 709Q443 726 520 726Q530 726 530 722Q530 717 517 710Q453 710 411 675Q401 667 393 656T379 631Q360 581 342 530T305 428Q257 328 136 307Q243 286 243 191Q243 174 239 149T226 89Q218 55 214 30T209
-14Q209 -96 307 -102Q318 -104 318 -106Q318 -111 307 -117H302Z" />
<glyph unicode="|" glyph-name="bar" horiz-adv-x="485" d="M168 -231L376 749H428L220 -231H168Z" />
<glyph unicode="}" glyph-name="braceright" horiz-adv-x="485" d="M59 -117Q52 -112 52 -108Q52 -104 65 -102Q134 -97 168 -65Q209 -27 231 67Q258 180 279 214Q323 289 428 307Q314 328 314 434Q314 451 317 475T325 533Q330 565 333 590T336 631Q336 710 234
710Q226 715 226 720Q226 726 243 726Q313 726 346 711Q396 688 396 626Q396 607 391 579T377 512Q368 475 363 447T358 398Q358 352 394 335Q400 333 419 329T470 318Q479 317 479 308Q479 291 464 291Q390 291 350 256Q316 227 300 155Q293 122 287 89T272 24Q263
-13 247 -39T211 -82Q165 -117 59 -117Z" />
<glyph unicode="~" glyph-name="asciitilde" horiz-adv-x="374" d="M210 241Q194 241 160 260Q126 278 106 278Q101 278 99 277Q83 276 75 260Q69 246 66 246Q63 246 63 250Q63 268 82 288Q102 308 118 308Q135 308 169 289Q205 271 223 271Q246 271 257 288Q263
296 266 300T270 305L272 303V302Q272 289 254 268Q238 251 223 244H224Q217 241 210 241Z" />
<glyph unicode="&#xa0;" glyph-name="uni00A0" horiz-adv-x="158" />
<glyph unicode="&#xa1;" glyph-name="exclamdown" horiz-adv-x="188" d="M205 273Q175 273 175 302Q175 320 187 330Q198 342 214 342Q245 342 245 313Q245 297 233 285Q223 273 205 273ZM21 -241Q1 -241 1 -210Q1 -198 7 -186L43 -101Q57 -69 77 -22T125 87Q130
99 138 116T157 155Q166 175 170 173V170Q170 147 123 -3Q103 -67 88 -113T61 -188Q40 -241 21 -241Z" />
<glyph unicode="&#xa2;" glyph-name="cent" horiz-adv-x="417" d="M95 -104Q91 -104 91 -100Q91 -100 102 -73T137 7Q78 15 46 59Q16 101 16 161Q16 282 108 408Q207 545 317 545Q331 545 343 542Q354 570 364 594T385 639Q389 649 396 649Q401 649 401 645Q401
645 390 619T355 540Q417 522 417 452Q417 418 396 377Q371 331 340 331Q317 331 317 350Q317 370 357 400Q398 433 398 470Q398 526 343 526Q298 526 235 472Q211 451 190 429T152 381Q125 341 106 295Q90 255 81 219T72 152Q72 68 137 28Q145 24 154 21T175 18Q272
18 381 159Q387 166 389 166Q393 166 393 161Q393 154 388 149Q369 118 344 94T290 51Q226 5 160 5H150Q137 -22 127 -46T106 -93Q102 -104 95 -104Z" />
<glyph unicode="&#xa3;" glyph-name="sterling" horiz-adv-x="499" d="M202 241L211 259H313Q405 405 480 474T625 543Q653 543 671 531Q693 518 693 496Q693 460 653 414Q621 376 581 350Q576 345 569 345Q565 345 565 349Q565 351 570 356Q680 440 680 497Q680
525 644 525Q600 525 547 486Q527 471 509 453T474 414Q461 397 449 376T424 330Q414 309 410 300T401 282T388 259H477L468 241H378Q340 176 297 132T198 59Q228 42 270 24T358 -6T443 -18Q467 -18 487 -13T520 6Q535 21 535 45Q535 50 538 50Q542 50 542 43Q542
6 510 -19T413 -45Q382 -45 344 -37T267 -15T195 12T139 37Q101 20 61 20Q38 20 12 27T-32 48T-50 81Q-50 105 -29 118T22 131Q63 131 101 116T175 74Q195 89 210 108T247 156Q250 161 264 182T301 241H202ZM53 27Q71 27 90 32T125 44Q108 55 92 65T58 84Q33 98
15 104T-14 111Q-38 111 -38 87Q-38 68 -23 55T14 34T53 27Z" />
<glyph unicode="&#xa4;" glyph-name="currency" horiz-adv-x="337" d="M71 280L60 295V296L123 349Q115 363 115 380Q115 399 126 423Q138 454 164 478L114 541L131 556H133L182 494Q204 511 229 520T278 530Q308 530 326 515L374 555L375 556L387 541V539L339
500Q348 485 348 464Q348 444 339 423Q332 406 319 390T288 360L338 297V295L320 280L318 281L268 345Q249 332 228 325T185 317Q155 317 136 333L71 280ZM200 351Q230 351 260 372T304 423Q310 438 310 452Q310 472 298 484T263 497Q239 497 214 482T171 444T153
395Q153 376 165 364T200 351Z" />
<glyph unicode="&#xa5;" glyph-name="yen" horiz-adv-x="722" d="M-17 0L-10 15Q18 15 50 19T93 40Q139 108 165 178H26L34 196H171Q182 230 189 265H60L68 283H192Q201 335 201 392Q201 406 201 419T199 446Q193 502 188 509Q184 516 170 519T141 524T121 526L127
537Q129 536 137 536T158 536Q182 536 211 536T251 537Q254 537 254 507Q254 494 254 477T252 436Q251 399 247 358T238 283H248Q275 315 307 354T369 427Q406 468 431 495T467 531Q471 535 485 535Q486 535 496 534T529 533Q537 533 546 533T568 534L562 520Q538
522 514 514T471 490Q415 439 367 388T279 283H391L383 265H266Q243 231 223 196H357L349 178H213Q177 111 152 37Q150 30 162 25T193 18T228 15L221 0H-17Z" />
<glyph unicode="&#xa6;" glyph-name="brokenbar" horiz-adv-x="485" d="M334 322L286 327L376 749H428L334 322ZM168 -231L264 220L311 216L220 -231H168Z" />
<glyph unicode="&#xa7;" glyph-name="section" horiz-adv-x="660" d="M271 -103Q267 -101 264 -100T255 -98Q200 -79 178 -40Q96 -28 46 19Q-6 70 -6 152Q-6 231 40 301Q88 371 160 401Q211 421 263 421Q341 421 388 380Q443 441 476 492L475 505Q475 580 493
616Q484 654 484 673Q484 722 520 722Q553 722 553 676Q553 640 524 570Q529 561 546 534T594 463Q614 432 628 403T649 344Q653 328 654 312T656 279Q656 185 606 111Q549 29 459 29Q450 29 441 30T421 33Q324 -43 216 -43Q210 -43 204 -43T191 -41Q202 -58 217
-69T253 -89Q262 -92 265 -92Q268 -92 277 -89Q285 -86 288 -86Q294 -86 294 -92Q294 -103 271 -103ZM519 579Q543 641 543 679Q543 708 524 708Q494 708 494 670Q494 630 519 579ZM496 529Q505 543 511 561Q507 572 504 581T498 600Q492 587 492 568Q492 560 493
550T496 529ZM433 43Q493 43 543 119Q585 183 590 251Q590 259 590 267T591 284Q591 360 570 423L516 550Q510 532 499 513L529 388Q537 351 541 320T545 262Q545 137 433 43ZM388 60Q482 157 482 317Q482 332 482 351T480 395Q479 427 478 447T476 474Q442 423
394 375Q428 341 428 288Q428 239 401 198Q372 157 328 139Q339 88 388 60ZM171 -25Q163 -3 163 24Q163 79 193 151Q168 173 168 207Q168 218 174 236Q182 256 191 256Q194 256 194 254L185 237Q176 222 176 205Q176 181 196 159Q241 260 370 366Q326 407 259 407Q165
407 88 323Q13 242 13 146Q13 79 59 29Q105 -22 171 -25ZM261 133Q289 133 317 148Q316 152 316 156T316 166Q316 201 337 225Q338 226 340 226Q344 226 344 222L334 206Q325 193 325 166Q325 163 325 160T326 153Q343 164 357 177T382 209Q407 247 407 284Q407
324 378 358Q316 306 273 254T205 150Q228 133 261 133ZM183 -25Q300 -25 382 54Q330 86 319 135Q292 126 265 126Q227 126 202 143Q173 77 173 28Q173 -4 183 -25Z" />
<glyph unicode="&#xa8;" glyph-name="dieresis" horiz-adv-x="173" d="M138 385Q115 385 115 406Q115 418 124 427T145 437Q168 437 168 416Q168 404 159 395T138 385ZM38 385Q15 385 15 406Q15 418 24 427T45 437Q68 437 68 416Q68 404 59 395T38 385Z" />
<glyph unicode="&#xa9;" glyph-name="copyright" horiz-adv-x="648" d="M304 -10Q225 -10 162 26T62 125T25 266Q25 335 52 396T128 506T238 581T369 608Q448 608 511 572T611 474T648 333Q648 264 621 202T545 93T435 18T304 -10ZM305 7Q370 7 428 33T532 104T603
207T629 331Q629 406 595 465T501 558T368 592Q303 592 245 566T141 495T70 392T44 269Q44 195 78 136T172 42T305 7ZM287 116Q250 116 228 132T197 175T187 232Q187 258 192 284T206 332Q218 363 239 399T293 461T366 487Q403 487 419 466T436 414Q436 377 421
359T392 341Q376 341 376 361Q376 375 384 392Q391 406 395 420T399 447Q399 475 373 475Q355 475 337 459T303 418T275 367T255 320Q233 262 233 215Q233 181 246 158T290 135Q316 135 345 153T399 198T439 254Q442 259 444 259Q447 259 448 255T446 245Q418 188
375 152T287 116Z" />
<glyph unicode="&#xaa;" glyph-name="ordfeminine" horiz-adv-x="283" d="M165 419Q137 419 137 457Q137 462 137 466T138 476Q107 420 74 420Q40 420 40 470Q40 478 41 486T45 503Q53 532 81 559Q112 588 141 588Q167 588 167 556Q167 552 167 549T166 540L190
587H194Q196 585 198 585Q208 585 224 598L227 594L184 510Q159 461 159 436Q159 427 166 427Q181 427 206 458Q218 473 225 485T237 510L243 506Q235 479 213 453Q186 419 165 419ZM76 427Q101 427 146 505Q154 519 157 531T160 555Q160 580 144 580Q125 580 103
549Q85 523 76 500Q66 473 66 447Q66 427 76 427Z" />
<glyph unicode="&#xab;" glyph-name="guillemotleft" horiz-adv-x="372" d="M331 84Q324 84 256 126Q225 145 206 158T178 177Q171 183 171 200Q171 218 178 225Q183 230 202 248T256 298Q325 361 326 361Q330 361 330 350Q330 337 324 329Q320 324 311 312T285
283Q271 267 255 250T221 212L324 111Q338 97 338 91Q338 84 331 84ZM183 84Q174 84 108 126Q77 145 57 158T29 177Q23 183 23 200Q23 218 29 225Q39 235 108 298Q177 361 178 361Q181 361 181 350Q181 335 176 329Q172 324 162 313T136 283Q122 267 106 250T72
212L176 111Q189 98 189 91Q189 84 183 84Z" />
<glyph unicode="&#xac;" glyph-name="logicalnot" horiz-adv-x="808" d="M591 14Q572 14 572 33V36L613 229H91Q71 229 71 242Q71 252 82 264Q94 277 101 277H669L618 36Q613 14 591 14Z" />
<glyph unicode="&#xad;" glyph-name="uni00AD" horiz-adv-x="303" d="M109 209Q106 209 106 213Q106 218 111 224T124 230H289Q291 230 291 227Q291 221 288 216T276 210L109 209Z" />
<glyph unicode="&#xae;" glyph-name="registered" horiz-adv-x="553" d="M246 -10Q140 -10 64 63Q-9 135 -9 243Q-9 371 86 463Q180 557 307 557Q416 557 488 485Q562 413 562 304Q562 179 467 84Q371 -10 246 -10ZM248 6Q367 6 456 95Q545 184 545 303Q545 404
476 473Q407 542 305 542Q186 542 97 453Q8 364 8 246Q8 144 77 75Q146 6 248 6ZM91 100Q50 100 50 127Q50 156 76 156Q84 156 84 152Q84 148 82 148Q81 148 81 148T78 149Q76 150 74 150Q58 150 58 131Q58 107 95 107Q158 107 207 179Q216 191 232 222T274 305Q322
405 385 448Q350 461 296 461Q156 461 105 374Q88 347 88 317Q88 287 106 267Q126 247 155 247Q189 247 213 271Q239 295 239 328Q239 381 191 381Q175 381 161 370Q147 358 147 341Q147 327 163 327Q163 327 163 327T164 328Q166 330 167 330Q168 330 168 330T169
329Q169 323 162 323Q143 323 143 341Q143 361 159 374Q176 388 194 388Q218 388 235 371Q251 355 251 330Q251 292 221 265Q193 241 153 241Q117 241 93 262Q69 285 69 320Q69 343 80 368Q107 420 175 447Q231 468 300 468Q356 468 395 455Q433 478 467 478Q471
478 471 477L469 475Q428 472 402 452Q465 430 465 383Q465 341 421 312Q403 302 383 295T338 285Q341 276 344 263T348 232L354 173Q360 131 377 124Q385 121 391 121Q415 121 446 155Q472 187 479 215H480L483 214L484 213Q472 178 444 147Q411 110 381 110Q366
110 357 118Q329 138 326 195L321 284L309 283Q303 283 295 285Q279 247 264 219T232 172Q191 121 125 104Q116 103 108 102T91 100ZM335 292Q376 300 405 320Q440 346 440 383Q440 424 393 445Q348 405 308 317Q326 309 335 292ZM297 291H318Q314 304 305 310L297
291Z" />
<glyph unicode="&#xaf;" glyph-name="overscore" horiz-adv-x="169" d="M3 386Q0 386 0 390Q0 395 5 401T18 407H190Q192 407 192 404Q192 398 189 392T177 386H3Z" />
<glyph unicode="&#xb0;" glyph-name="degree" horiz-adv-x="312" d="M168 368Q142 368 123 387Q105 405 105 432Q105 459 123 477Q142 496 168 496Q195 496 214 477Q232 459 232 432Q232 405 214 387Q195 368 168 368ZM168 385Q186 385 200 399Q214 413 214 432Q214
450 200 464Q186 478 168 478Q149 478 135 464Q121 450 121 432Q121 413 135 399Q149 385 168 385Z" />
<glyph unicode="&#xb1;" glyph-name="plusminus" horiz-adv-x="335" d="M170 137Q161 137 157 139L183 215H82Q82 215 82 215T81 217Q81 232 90 239H191L218 313Q219 315 230 315Q241 315 241 313L215 239H317Q317 238 317 238T318 237Q318 221 309 215H207L180
139Q179 137 170 137ZM37 86Q36 86 36 88Q36 103 45 110H272V109Q272 91 264 86H37Z" />
<glyph unicode="&#xb2;" glyph-name="uni00B2" horiz-adv-x="357" d="M0 287Q-7 287 -7 295Q-7 298 -5 302Q4 325 29 347T91 392L152 425Q191 445 230 467Q302 510 311 554Q312 558 312 562T313 573Q313 620 262 620Q188 620 121 529Q101 502 101 482Q101 459
130 459Q148 459 171 472T212 503T230 540Q230 552 221 553Q219 555 220 557T225 560Q233 560 237 554T241 540Q241 515 223 495T179 462T130 450Q97 450 84 464T71 495Q71 506 75 516T85 535Q114 575 163 601Q213 629 262 629Q279 629 295 625T324 609Q353 588
353 552Q353 512 300 476Q286 466 264 455T213 429Q200 423 180 414T134 393Q83 370 54 352H55Q70 352 86 350T119 343Q127 342 133 340T147 335Q152 334 155 333T163 330Q177 327 187 325T208 323Q276 323 276 369Q276 377 273 383Q271 389 270 390Q270 395 274
395Q280 395 283 383Q284 379 284 376T285 369Q285 338 255 314Q230 290 196 290Q183 290 164 293T120 304Q95 311 76 314T44 318Q24 318 16 304Q6 287 0 287Z" />
<glyph unicode="&#xb3;" glyph-name="uni00B3" horiz-adv-x="357" d="M130 270Q104 270 79 279T38 307T22 348Q22 375 44 391Q66 405 91 405Q119 405 144 394T194 360Q195 359 195 357Q195 353 190 352L188 353Q149 389 105 389Q84 389 67 379Q48 366 48 348Q48
317 70 300T130 283Q180 283 217 310Q260 339 269 385Q270 390 270 393T270 401Q270 431 249 447Q248 448 247 448Q216 437 182 437Q141 437 141 452Q141 471 190 471Q221 471 245 465Q256 470 266 479Q302 509 302 554Q302 577 289 592Q275 606 250 606Q198 606
152 542Q134 517 134 499Q134 480 157 480Q183 480 210 501Q225 512 230 524T236 547Q236 556 230 557Q226 559 227 562T231 565Q245 565 245 547Q245 516 216 492Q190 472 154 472Q113 472 113 511Q113 521 116 530T125 547Q136 562 150 573T181 594Q215 613 250
613Q284 613 307 600Q335 582 335 551Q335 520 310 490Q291 470 267 457Q269 456 271 455Q312 434 312 388V386Q312 329 245 298Q186 270 130 270ZM166 454Q166 450 187 450Q209 450 229 457Q215 462 199 462Q166 462 166 454Z" />
<glyph unicode="&#xb4;" glyph-name="acute" horiz-adv-x="133" d="M0 388Q0 390 11 398T37 417T58 432Q78 446 100 461T128 477Q134 477 140 469T141 457Q135 453 113 441T62 416T10 390Q0 385 0 388Z" />
<glyph unicode="&#xb5;" glyph-name="uni00B5" horiz-adv-x="324" d="M-90 -263Q-111 -263 -125 -257Q-129 -254 -129 -252L64 127Q76 152 88 176T113 226Q127 255 141 279T168 322H170Q177 317 186 317Q207 317 234 338L236 336Q229 328 217 309T187 259Q174
235 163 216T141 180Q82 79 82 32Q82 5 107 5Q163 5 262 180Q276 205 295 242T339 328H341Q348 325 354 323T366 321Q388 321 397 341L400 340L322 189Q253 57 253 22Q253 2 270 2Q306 2 352 68Q383 111 405 163H411L413 161Q335 -8 268 -8Q216 -8 216 50Q216 74
226 103Q159 -6 99 -6Q65 -6 52 22L-77 -260Q-78 -263 -90 -263Z" />
<glyph unicode="&#xb6;" glyph-name="paragraph" horiz-adv-x="403" d="M60 -71L259 309Q189 309 169 345Q161 361 161 378Q161 410 183 451Q234 548 337 586Q376 600 441 600H633L620 577H540L200 -71H176L515 577H424L84 -71H60Z" />
<glyph unicode="&#xb7;" glyph-name="middot" horiz-adv-x="188" d="M179 224Q146 224 146 256Q146 292 182 292Q215 292 215 259Q215 224 179 224Z" />
<glyph unicode="&#xb8;" glyph-name="cedilla" horiz-adv-x="139" d="M52 -177Q33 -177 19 -169T0 -142Q0 -137 5 -137Q11 -137 13 -143Q19 -153 29 -156T50 -160Q76 -160 89 -144T103 -110Q103 -97 96 -89T74 -80Q61 -80 54 -83T41 -86Q31 -86 31 -78Q31 -73
34 -70Q36 -68 46 -57T69 -32T92 -8T103 2Q105 2 110 2T115 0Q114 -1 106 -10T88 -29T74 -48T71 -59Q75 -58 78 -58T85 -58Q104 -58 121 -69T139 -102Q139 -126 126 -142T92 -168T52 -177Z" />
<glyph unicode="&#xb9;" glyph-name="uni00B9" horiz-adv-x="339" d="M74 296V301L89 306Q100 309 109 314T126 325Q132 330 159 396T231 576Q192 542 161 516T104 471L74 451Q73 449 72 448T70 447Q65 445 65 452Q65 465 78 475Q84 477 88 479Q90 479 92 481Q99
485 107 491T125 504Q136 512 148 522T174 545L229 593Q251 613 262 620T273 627V631Q277 631 277 625Q277 615 267 584T236 502L184 371Q175 351 172 340T168 326Q168 319 184 311Q192 308 198 306T211 302V299L209 297Q200 298 189 298T163 299L118 297H102Q92
296 86 296T74 296Z" />
<glyph unicode="&#xba;" glyph-name="ordmasculine" horiz-adv-x="253" d="M86 420Q61 420 51 440T40 480Q40 521 65 555Q94 593 133 593Q175 593 175 544Q175 499 150 470Q154 468 160 468Q188 468 206 510L213 508Q194 460 161 460Q153 460 147 464Q119 420
86 420ZM89 428Q114 428 140 470Q132 485 132 505Q132 520 139 531T164 541V541Q164 541 166 540Q166 582 140 582Q118 582 96 553Q77 528 71 502Q69 495 68 486T67 469Q67 453 72 441T89 428Z" />
<glyph unicode="&#xbb;" glyph-name="guillemotright" horiz-adv-x="422" d="M59 84Q52 84 52 91Q52 97 66 111L169 212L105 283Q98 291 89 302T66 329Q60 337 60 350Q60 361 64 361L66 360L162 271Q171 264 183 253T212 225Q219 218 219 200Q219 183 212 177Q200
167 134 126Q67 84 59 84ZM228 84Q222 84 222 91Q222 98 235 111L339 212Q322 230 306 248T275 283Q268 291 258 302T235 329Q230 335 230 350Q230 361 234 361L235 360L332 271Q340 264 353 253T382 225Q388 218 388 200Q388 183 382 177Q369 167 304 126Q237
84 228 84Z" />
<glyph unicode="&#xbc;" glyph-name="onequarter" horiz-adv-x="717" d="M74 296V301L89 306Q112 314 126 325Q132 330 159 396T230 575Q194 539 162 514T104 471L74 451Q73 449 72 448T70 447Q65 445 65 452Q65 465 78 475Q84 477 88 479Q90 479 92 481Q99 485
107 491T125 504Q136 512 148 522T174 545L229 593Q251 613 262 620T273 627V631Q277 631 277 625Q277 615 267 584T236 502L184 371Q176 351 172 340T168 326Q168 319 184 311Q192 308 198 306T211 302V299L209 297Q200 298 189 299T163 299L118 297H102Q92 297
86 297T74 296ZM80 0L518 576H544L106 0H80ZM344 -2L343 -1Q342 -1 342 1Q342 3 346 5T355 9Q364 13 374 17T395 28Q409 47 437 102Q433 103 420 106T400 111Q388 113 378 114T360 115Q342 115 319 102Q307 96 293 89T273 82Q260 82 260 95Q260 101 274 107Q337
130 394 177T497 278Q517 301 542 322T596 356T648 370Q665 370 679 362Q697 352 697 337Q697 331 692 331Q688 331 687 335Q686 360 648 360Q626 360 600 345T550 308T508 265Q449 197 382 146Q387 147 392 147Q401 147 414 144T438 138Q444 136 452 134Q521 277
537 277Q542 277 542 272Q542 265 535 251Q518 220 504 190T475 129Q480 128 486 128T498 127Q510 127 521 128T542 134Q569 143 569 161Q569 170 561 175L552 181Q551 187 557 187Q567 187 575 176Q581 169 581 157Q581 126 543 111Q524 103 504 101T463 99Q448
61 442 44T436 23Q436 10 478 4L480 2V1L478 -1Q459 2 428 2Q416 2 402 2T371 0Q367 0 360 0T344 -2Z" />
<glyph unicode="&#xbd;" glyph-name="onehalf" horiz-adv-x="615" d="M74 296V301L89 306Q112 314 126 325Q132 330 159 396T230 575Q194 539 162 514T104 471L74 451Q73 449 72 448T70 447Q65 445 65 452Q65 465 78 475Q84 477 88 479Q90 479 92 481Q99 485 107
491T125 504Q136 512 148 522T174 545L229 593Q251 613 262 620T273 627V631Q277 631 277 625Q277 615 267 584T236 502L184 371Q176 351 172 340T168 326Q168 319 184 311Q192 308 198 306T211 302V299L209 297Q200 298 189 299T163 299L118 297H102Q92 297 86
297T74 296ZM40 0L478 576H504L66 0H40ZM242 -12Q235 -12 235 -4Q235 -1 237 3Q255 50 333 93L394 126Q414 137 433 147T472 168Q544 211 553 255Q554 259 554 263T555 274Q555 321 504 321Q430 321 363 230Q343 203 343 183Q343 160 372 160Q390 160 413 173T454
204T472 241Q472 253 463 254Q461 256 462 258T467 261Q475 261 479 255T483 241Q483 216 465 196T421 163T372 151Q339 151 326 165T313 196Q313 207 317 217T327 236Q356 276 405 302Q455 330 504 330Q521 330 537 326T566 310Q595 289 595 253Q595 213 542 177Q528
167 506 156T455 130Q442 124 422 115T376 94Q325 71 296 53H297Q312 53 328 51T361 44Q369 43 375 41T389 36Q394 35 397 34T405 31Q419 28 429 26T450 24Q518 24 518 70Q518 78 515 84Q513 90 512 91Q512 96 516 96Q522 96 525 84Q526 80 526 77T527 70Q527 39
497 15Q472 -9 438 -9Q425 -9 406 -6T362 5Q337 12 318 15T286 19Q266 19 258 5Q248 -12 242 -12Z" />
<glyph unicode="&#xbe;" glyph-name="threequarters" horiz-adv-x="766" d="M130 270Q104 270 79 279T38 307T22 348Q22 375 44 391Q66 405 91 405Q119 405 144 394T194 360Q195 359 195 357Q195 353 190 352L188 353Q149 389 105 389Q84 389 67 379Q48 366 48
348Q48 317 70 300T130 283Q180 283 217 310Q260 339 269 385Q270 390 270 393T270 401Q270 431 249 447Q248 448 247 448Q216 437 182 437Q141 437 141 452Q141 471 190 471Q221 471 245 465Q256 470 266 479Q302 509 302 554Q302 577 289 592Q275 606 250 606Q198
606 152 542Q134 517 134 499Q134 480 157 480Q183 480 210 501Q225 512 230 524T236 547Q236 556 230 557Q226 559 227 562T231 565Q245 565 245 547Q245 516 216 492Q190 472 154 472Q113 472 113 511Q113 521 116 530T125 547Q136 562 150 573T181 594Q215 613
250 613Q284 613 307 600Q335 582 335 551Q335 520 310 490Q291 470 267 457Q269 456 271 455Q312 434 312 388V386Q312 329 245 298Q186 270 130 270ZM119 0L557 576H583L145 0H119ZM166 454Q166 450 187 450Q209 450 229 457Q215 462 199 462Q166 462 166 454ZM393
-2L392 -1Q391 -1 391 1Q391 3 395 5T404 9Q413 13 423 17T444 28Q458 47 486 102Q482 103 469 106T449 111Q437 113 427 114T409 115Q391 115 368 102Q356 96 342 89T322 82Q309 82 309 95Q309 101 323 107Q386 130 443 177T546 278Q566 301 591 322T645 356T697
370Q714 370 728 362Q746 352 746 337Q746 331 741 331Q737 331 736 335Q735 360 697 360Q675 360 649 345T599 308T557 265Q498 197 431 146Q436 147 441 147Q450 147 463 144T487 138Q493 136 501 134Q570 277 586 277Q591 277 591 272Q591 265 584 251Q567 220
553 190T524 129Q529 128 535 128T547 127Q559 127 570 128T591 134Q618 143 618 161Q618 170 610 175L601 181Q600 187 606 187Q616 187 624 176Q630 169 630 157Q630 126 592 111Q573 103 553 101T512 99Q497 61 491 44T485 23Q485 10 527 4L529 2V1L527 -1Q508
2 477 2Q465 2 451 2T420 0Q416 0 409 0T393 -2Z" />
<glyph unicode="&#xbf;" glyph-name="questiondown" horiz-adv-x="513" d="M361 309Q331 309 331 338Q331 354 343 366Q354 378 370 378Q400 378 400 349Q400 331 389 321Q377 309 361 309ZM168 -311Q12 -311 12 -197Q12 -182 15 -167T22 -136Q42 -80 103 -36Q108
-32 137 -15T218 33Q285 71 308 109Q334 152 334 180V195Q334 225 361 225Q380 225 380 198Q380 156 319 95Q292 68 237 33Q177 -4 156 -24Q116 -60 96 -110Q80 -151 80 -195Q80 -296 166 -296Q240 -296 295 -239Q351 -184 351 -109Q351 -81 340 -62Q327 -37 302
-37Q278 -37 253 -59Q225 -84 225 -105Q225 -112 221 -112Q217 -112 217 -104Q217 -78 251 -51Q285 -25 311 -25Q347 -25 372 -50Q398 -74 398 -109Q398 -126 394 -139Q376 -215 311 -263Q247 -311 168 -311Z" />
<glyph unicode="&#xc0;" glyph-name="Agrave" horiz-adv-x="930" d="M248 -109Q153 -109 90 -55Q24 4 24 97Q24 183 85 244Q148 305 233 305Q294 305 340 270Q390 233 390 173Q390 115 351 80Q313 48 255 48Q216 48 204 57L203 59Q206 63 209 63Q209 63 209 63T211
62Q216 59 226 58T251 57Q306 57 338 89Q370 120 370 175Q370 229 333 262Q296 294 243 294Q161 294 108 241Q56 189 56 106Q56 16 114 -36Q170 -86 262 -86Q460 -86 679 209Q848 435 944 490L734 561Q712 569 690 572T644 575Q566 575 501 534Q428 486 428 412Q428
378 444 346Q478 275 574 275Q582 275 589 275T603 276Q647 282 682 316Q721 354 721 394Q721 424 696 439Q695 440 695 442Q695 444 697 444Q698 444 698 444T700 443H703Q735 426 735 388Q735 347 700 310Q668 278 624 267Q597 260 566 260Q496 260 447 304Q397
351 397 421Q397 508 468 561Q532 610 621 610Q627 610 632 610T643 609Q762 599 904 528Q914 524 927 517T959 498Q1006 534 1073 534Q1087 534 1100 532T1124 523Q1152 508 1152 481Q1152 435 1102 435Q1087 435 1069 440T1043 449Q1033 434 1022 417T999 380Q983
353 942 252Q926 212 909 182T871 130Q790 42 685 1Q687 1 690 1T700 2H715Q736 2 753 0T786 -5Q845 -20 855 -20Q873 -20 873 -5Q873 1 871 5Q870 9 870 11T870 15Q870 16 870 16T871 17Q872 17 873 16Q882 7 882 -8Q882 -46 831 -46Q821 -46 809 -44T783 -36L738
-18Q720 -10 701 -9T662 -7L661 -4Q720 38 770 95Q806 135 855 216Q858 221 867 236H716Q660 156 611 98T521 4Q393 -109 248 -109ZM1085 443Q1136 443 1136 480Q1136 502 1118 514Q1102 526 1079 526Q1017 526 967 494Q983 487 999 479T1031 462L1074 506Q1076
506 1076 504Q1076 498 1047 454Q1066 443 1085 443ZM724 247H874Q937 351 1024 457L954 486Q929 470 898 443T830 377Q768 309 724 247ZM1116 596Q1116 593 1106 598Q1082 610 1051 625T994 655T961 673Q957 676 962 684T974 693Q980 693 1004 677T1058 640Q1066
635 1080 625T1105 607T1116 596Z" />
<glyph unicode="&#xc1;" glyph-name="Aacute" horiz-adv-x="930" d="M248 -109Q153 -109 90 -55Q24 4 24 97Q24 183 85 244Q148 305 233 305Q294 305 340 270Q390 233 390 173Q390 115 351 80Q313 48 255 48Q216 48 204 57L203 59Q206 63 209 63Q209 63 209 63T211
62Q216 59 226 58T251 57Q306 57 338 89Q370 120 370 175Q370 229 333 262Q296 294 243 294Q161 294 108 241Q56 189 56 106Q56 16 114 -36Q170 -86 262 -86Q460 -86 679 209Q848 435 944 490L734 561Q712 569 690 572T644 575Q566 575 501 534Q428 486 428 412Q428
378 444 346Q478 275 574 275Q582 275 589 275T603 276Q647 282 682 316Q721 354 721 394Q721 424 696 439Q695 440 695 442Q695 444 697 444Q698 444 698 444T700 443H703Q735 426 735 388Q735 347 700 310Q668 278 624 267Q597 260 566 260Q496 260 447 304Q397
351 397 421Q397 508 468 561Q532 610 621 610Q627 610 632 610T643 609Q762 599 904 528Q914 524 927 517T959 498Q1006 534 1073 534Q1087 534 1100 532T1124 523Q1152 508 1152 481Q1152 435 1102 435Q1087 435 1069 440T1043 449Q1033 434 1022 417T999 380Q983
353 942 252Q926 212 909 182T871 130Q790 42 685 1Q687 1 690 1T700 2H715Q736 2 753 0T786 -5Q845 -20 855 -20Q873 -20 873 -5Q873 1 871 5Q870 9 870 11T870 15Q870 16 870 16T871 17Q872 17 873 16Q882 7 882 -8Q882 -46 831 -46Q821 -46 809 -44T783 -36L738
-18Q720 -10 701 -9T662 -7L661 -4Q720 38 770 95Q806 135 855 216Q858 221 867 236H716Q660 156 611 98T521 4Q393 -109 248 -109ZM1085 443Q1136 443 1136 480Q1136 502 1118 514Q1102 526 1079 526Q1017 526 967 494Q983 487 999 479T1031 462L1074 506Q1076
506 1076 504Q1076 498 1047 454Q1066 443 1085 443ZM724 247H874Q937 351 1024 457L954 486Q929 470 898 443T830 377Q768 309 724 247ZM1004 596Q1004 598 1015 606T1040 625T1062 640Q1092 660 1116 676T1146 693Q1152 693 1158 685T1159 673Q1153 669 1127
655T1070 626T1014 598Q1004 593 1004 596Z" />
<glyph unicode="&#xc2;" glyph-name="Acircumflex" horiz-adv-x="930" d="M248 -109Q153 -109 90 -55Q24 4 24 97Q24 183 85 244Q148 305 233 305Q294 305 340 270Q390 233 390 173Q390 115 351 80Q313 48 255 48Q216 48 204 57L203 59Q206 63 209 63Q209 63 209
63T211 62Q216 59 226 58T251 57Q306 57 338 89Q370 120 370 175Q370 229 333 262Q296 294 243 294Q161 294 108 241Q56 189 56 106Q56 16 114 -36Q170 -86 262 -86Q460 -86 679 209Q848 435 944 490L734 561Q712 569 690 572T644 575Q566 575 501 534Q428 486
428 412Q428 378 444 346Q478 275 574 275Q582 275 589 275T603 276Q647 282 682 316Q721 354 721 394Q721 424 696 439Q695 440 695 442Q695 444 697 444Q698 444 698 444T700 443H703Q735 426 735 388Q735 347 700 310Q668 278 624 267Q597 260 566 260Q496 260
447 304Q397 351 397 421Q397 508 468 561Q532 610 621 610Q627 610 632 610T643 609Q762 599 904 528Q914 524 927 517T959 498Q1006 534 1073 534Q1087 534 1100 532T1124 523Q1152 508 1152 481Q1152 435 1102 435Q1087 435 1069 440T1043 449Q1033 434 1022
417T999 380Q983 353 942 252Q926 212 909 182T871 130Q790 42 685 1Q687 1 690 1T700 2H715Q736 2 753 0T786 -5Q845 -20 855 -20Q873 -20 873 -5Q873 1 871 5Q870 9 870 11T870 15Q870 16 870 16T871 17Q872 17 873 16Q882 7 882 -8Q882 -46 831 -46Q821 -46
809 -44T783 -36L738 -18Q720 -10 701 -9T662 -7L661 -4Q720 38 770 95Q806 135 855 216Q858 221 867 236H716Q660 156 611 98T521 4Q393 -109 248 -109ZM1085 443Q1136 443 1136 480Q1136 502 1118 514Q1102 526 1079 526Q1017 526 967 494Q983 487 999 479T1031
462L1074 506Q1076 506 1076 504Q1076 498 1047 454Q1066 443 1085 443ZM724 247H874Q937 351 1024 457L954 486Q929 470 898 443T830 377Q768 309 724 247ZM1185 590Q1178 590 1149 608T1087 648Q1071 638 1049 626T1008 604T979 592Q972 590 973 593Q974 595
985 602T1011 619T1035 634Q1058 649 1073 661T1096 674Q1100 675 1104 674Q1109 673 1121 663T1156 634Q1163 629 1171 620T1187 603T1193 593Q1192 590 1185 590Z" />
<glyph unicode="&#xc3;" glyph-name="Atilde" horiz-adv-x="930" d="M248 -109Q153 -109 90 -55Q24 4 24 97Q24 183 85 244Q148 305 233 305Q294 305 340 270Q390 233 390 173Q390 115 351 80Q313 48 255 48Q216 48 204 57L203 59Q206 63 209 63Q209 63 209 63T211
62Q216 59 226 58T251 57Q306 57 338 89Q370 120 370 175Q370 229 333 262Q296 294 243 294Q161 294 108 241Q56 189 56 106Q56 16 114 -36Q170 -86 262 -86Q460 -86 679 209Q848 435 944 490L734 561Q712 569 690 572T644 575Q566 575 501 534Q428 486 428 412Q428
378 444 346Q478 275 574 275Q582 275 589 275T603 276Q647 282 682 316Q721 354 721 394Q721 424 696 439Q695 440 695 442Q695 444 697 444Q698 444 698 444T700 443H703Q735 426 735 388Q735 347 700 310Q668 278 624 267Q597 260 566 260Q496 260 447 304Q397
351 397 421Q397 508 468 561Q532 610 621 610Q627 610 632 610T643 609Q762 599 904 528Q914 524 927 517T959 498Q1006 534 1073 534Q1087 534 1100 532T1124 523Q1152 508 1152 481Q1152 435 1102 435Q1087 435 1069 440T1043 449Q1033 434 1022 417T999 380Q983
353 942 252Q926 212 909 182T871 130Q790 42 685 1Q687 1 690 1T700 2H715Q736 2 753 0T786 -5Q845 -20 855 -20Q873 -20 873 -5Q873 1 871 5Q870 9 870 11T870 15Q870 16 870 16T871 17Q872 17 873 16Q882 7 882 -8Q882 -46 831 -46Q821 -46 809 -44T783 -36L738
-18Q720 -10 701 -9T662 -7L661 -4Q720 38 770 95Q806 135 855 216Q858 221 867 236H716Q660 156 611 98T521 4Q393 -109 248 -109ZM1085 443Q1136 443 1136 480Q1136 502 1118 514Q1102 526 1079 526Q1017 526 967 494Q983 487 999 479T1031 462L1074 506Q1076
506 1076 504Q1076 498 1047 454Q1066 443 1085 443ZM724 247H874Q937 351 1024 457L954 486Q929 470 898 443T830 377Q768 309 724 247ZM968 593Q966 593 967 600Q972 620 982 636T1015 653Q1038 653 1061 645T1106 629T1144 621Q1161 621 1168 630T1178 647T1184
656Q1186 656 1186 652T1184 646Q1179 624 1164 609T1134 593Q1119 593 1098 601T1055 617T1009 625Q992 625 985 617T974 601T968 593Z" />
<glyph unicode="&#xc4;" glyph-name="Adieresis" horiz-adv-x="930" d="M248 -109Q153 -109 90 -55Q24 4 24 97Q24 183 85 244Q148 305 233 305Q294 305 340 270Q390 233 390 173Q390 115 351 80Q313 48 255 48Q216 48 204 57L203 59Q206 63 209 63Q209 63 209
63T211 62Q216 59 226 58T251 57Q306 57 338 89Q370 120 370 175Q370 229 333 262Q296 294 243 294Q161 294 108 241Q56 189 56 106Q56 16 114 -36Q170 -86 262 -86Q460 -86 679 209Q848 435 944 490L734 561Q712 569 690 572T644 575Q566 575 501 534Q428 486
428 412Q428 378 444 346Q478 275 574 275Q582 275 589 275T603 276Q647 282 682 316Q721 354 721 394Q721 424 696 439Q695 440 695 442Q695 444 697 444Q698 444 698 444T700 443H703Q735 426 735 388Q735 347 700 310Q668 278 624 267Q597 260 566 260Q496 260
447 304Q397 351 397 421Q397 508 468 561Q532 610 621 610Q627 610 632 610T643 609Q762 599 904 528Q914 524 927 517T959 498Q1006 534 1073 534Q1087 534 1100 532T1124 523Q1152 508 1152 481Q1152 435 1102 435Q1087 435 1069 440T1043 449Q1033 434 1022
417T999 380Q983 353 942 252Q926 212 909 182T871 130Q790 42 685 1Q687 1 690 1T700 2H715Q736 2 753 0T786 -5Q845 -20 855 -20Q873 -20 873 -5Q873 1 871 5Q870 9 870 11T870 15Q870 16 870 16T871 17Q872 17 873 16Q882 7 882 -8Q882 -46 831 -46Q821 -46
809 -44T783 -36L738 -18Q720 -10 701 -9T662 -7L661 -4Q720 38 770 95Q806 135 855 216Q858 221 867 236H716Q660 156 611 98T521 4Q393 -109 248 -109ZM1085 443Q1136 443 1136 480Q1136 502 1118 514Q1102 526 1079 526Q1017 526 967 494Q983 487 999 479T1031
462L1074 506Q1076 506 1076 504Q1076 498 1047 454Q1066 443 1085 443ZM724 247H874Q937 351 1024 457L954 486Q929 470 898 443T830 377Q768 309 724 247ZM1120 593Q1096 593 1096 615Q1096 628 1105 637T1128 647Q1152 647 1152 625Q1152 612 1142 603T1120
593ZM1012 593Q988 593 988 615Q988 628 997 637T1020 647Q1044 647 1044 625Q1044 612 1034 603T1012 593Z" />
<glyph unicode="&#xc5;" glyph-name="Aring" horiz-adv-x="930" d="M248 -109Q153 -109 90 -55Q24 4 24 97Q24 183 85 244Q148 305 233 305Q294 305 340 270Q390 233 390 173Q390 115 351 80Q313 48 255 48Q216 48 204 57L203 59Q206 63 209 63Q209 63 209 63T211
62Q216 59 226 58T251 57Q306 57 338 89Q370 120 370 175Q370 229 333 262Q296 294 243 294Q161 294 108 241Q56 189 56 106Q56 16 114 -36Q170 -86 262 -86Q460 -86 679 209Q848 435 944 490L734 561Q712 569 690 572T644 575Q566 575 501 534Q428 486 428 412Q428
378 444 346Q478 275 574 275Q582 275 589 275T603 276Q647 282 682 316Q721 354 721 394Q721 424 696 439Q695 440 695 442Q695 444 697 444Q698 444 698 444T700 443H703Q735 426 735 388Q735 347 700 310Q668 278 624 267Q597 260 566 260Q496 260 447 304Q397
351 397 421Q397 508 468 561Q532 610 621 610Q627 610 632 610T643 609Q762 599 904 528Q914 524 927 517T959 498Q1006 534 1073 534Q1087 534 1100 532T1124 523Q1152 508 1152 481Q1152 435 1102 435Q1087 435 1069 440T1043 449Q1033 434 1022 417T999 380Q983
353 942 252Q926 212 909 182T871 130Q790 42 685 1Q687 1 690 1T700 2H715Q736 2 753 0T786 -5Q845 -20 855 -20Q873 -20 873 -5Q873 1 871 5Q870 9 870 11T870 15Q870 16 870 16T871 17Q872 17 873 16Q882 7 882 -8Q882 -46 831 -46Q821 -46 809 -44T783 -36L738
-18Q720 -10 701 -9T662 -7L661 -4Q720 38 770 95Q806 135 855 216Q858 221 867 236H716Q660 156 611 98T521 4Q393 -109 248 -109ZM1085 443Q1136 443 1136 480Q1136 502 1118 514Q1102 526 1079 526Q1017 526 967 494Q983 487 999 479T1031 462L1074 506Q1076
506 1076 504Q1076 498 1047 454Q1066 443 1085 443ZM724 247H874Q937 351 1024 457L954 486Q929 470 898 443T830 377Q768 309 724 247ZM1048 593Q1026 593 1012 602T998 631Q998 660 1023 677T1076 694Q1099 694 1112 685T1126 656Q1126 626 1103 610T1048 593ZM1048
599Q1065 599 1081 617T1098 656Q1098 667 1092 676T1074 686Q1058 686 1042 668T1025 630Q1025 618 1031 609T1048 599Z" />
<glyph unicode="&#xc6;" glyph-name="AE" horiz-adv-x="1366" d="M248 -109Q153 -109 90 -55Q24 4 24 97Q24 183 85 244Q148 305 233 305Q294 305 340 270Q390 233 390 173Q390 115 351 80Q313 48 255 48Q216 48 204 57L203 59Q206 63 209 63Q209 63 209 63T211
62Q216 59 226 58T251 57Q306 57 338 89Q370 120 370 175Q370 229 333 262Q296 294 243 294Q161 294 108 241Q56 189 56 106Q56 16 114 -36Q170 -86 262 -86Q460 -86 679 209Q848 435 944 490Q902 508 850 525T734 561Q689 573 645 573Q565 573 502 534Q428 490
428 413Q428 379 444 346Q478 275 574 275Q582 275 589 275T603 276Q647 282 682 316Q721 354 721 394Q721 424 696 439Q695 440 695 442Q695 444 697 444Q698 444 698 444T700 443H703Q735 426 735 388Q735 347 700 310Q669 279 624 267Q597 260 566 260Q496 260
447 304Q397 351 397 421Q397 508 468 561Q532 610 621 610Q627 610 632 610T643 609Q762 599 904 528Q914 524 927 517T959 498Q1014 541 1104 541H1120Q1168 597 1270 597Q1386 597 1386 518Q1386 487 1361 462Q1337 438 1306 438Q1289 438 1276 445Q1259 454
1259 469Q1259 472 1261 478Q1261 484 1265 484Q1269 484 1269 480Q1269 479 1267 475Q1265 469 1265 468Q1265 449 1285 449Q1316 449 1339 468Q1365 488 1365 517Q1365 551 1337 570Q1311 586 1277 586Q1199 586 1155 534Q1196 514 1196 482Q1196 455 1169 438Q1147
425 1118 425Q1118 402 1133 381Q1139 382 1145 382T1158 382Q1269 382 1269 352Q1269 331 1232 331Q1176 331 1131 364Q966 336 910 208Q888 160 888 111Q888 34 938 -14Q985 -60 1064 -60Q1162 -60 1239 2Q1322 67 1322 162Q1322 245 1252 245Q1225 245 1204
230Q1182 214 1182 187Q1182 170 1179 170Q1171 170 1171 187Q1171 194 1175 205Q1193 257 1262 257Q1309 257 1334 229Q1360 200 1360 154Q1360 51 1252 -17Q1157 -75 1048 -75Q956 -75 896 -27Q830 26 830 114Q830 171 867 236H716Q660 156 611 98T521 4Q393
-109 248 -109ZM1126 445Q1175 445 1175 484Q1175 505 1146 519Q1124 530 1099 530Q1073 530 1031 518Q988 508 967 494Q1077 445 1126 445ZM724 247H874L875 248Q909 302 950 352T1043 448Q1034 451 1012 460T954 486Q929 470 898 443T830 377Q768 309 724 247ZM968
335Q1033 371 1114 380Q1089 405 1086 432Q1076 435 1067 437T1050 443Q1028 421 1008 394T968 335ZM1217 341Q1248 341 1248 354Q1248 371 1203 371Q1189 371 1175 370T1146 367Q1178 341 1217 341Z" />
<glyph unicode="&#xc7;" glyph-name="Ccedilla" horiz-adv-x="557" d="M261 -48Q159 -48 100 12Q41 73 41 175Q41 336 175 467Q124 511 124 563Q124 657 236 657Q265 657 292 649T346 623L347 622Q349 621 349 620T348 616Q348 613 346 613Q345 613 340 616Q295
643 249 643Q205 643 176 622Q143 600 143 556Q143 514 185 475Q315 596 512 596Q578 596 626 577Q695 552 695 497Q695 455 640 424Q621 412 598 404T549 390Q504 381 452 381Q315 381 217 438Q104 311 104 163Q104 82 141 27Q183 -37 261 -37Q410 -37 505 106Q537
155 537 195Q537 230 513 252Q490 275 455 275Q421 275 392 255Q362 236 349 203Q346 195 342 195Q338 195 338 200Q338 201 338 202T339 205Q352 242 387 263Q420 284 460 284Q503 284 532 258Q559 231 559 189Q559 141 530 97Q490 33 413 -8Q339 -48 261 -48ZM428
394Q465 394 501 400T573 416Q673 448 673 504Q673 584 520 584Q357 584 225 446Q315 394 428 394ZM206 -218Q187 -218 173 -210T154 -183Q154 -178 159 -178Q165 -178 167 -184Q173 -194 183 -197T204 -201Q230 -201 243 -185T257 -151Q257 -138 250 -130T228
-121Q215 -121 208 -124T195 -127Q185 -127 185 -119Q185 -114 188 -111Q190 -109 200 -98T223 -73T246 -49T257 -39Q259 -39 264 -39T269 -41Q268 -42 260 -51T242 -70T228 -89T225 -100Q229 -99 232 -99T239 -99Q258 -99 275 -110T293 -143Q293 -167 280 -183T246
-209T206 -218Z" />
<glyph unicode="&#xc8;" glyph-name="Egrave" horiz-adv-x="553" d="M288 -75Q196 -75 136 -27Q70 26 70 115Q70 142 76 166Q103 260 180 316Q253 369 354 380Q323 411 323 454Q323 520 385 561Q439 597 509 597Q625 597 625 518Q625 486 601 462Q577 438 545
438Q529 438 515 445Q499 454 499 469Q499 475 501 478Q501 484 505 484Q508 484 508 480Q508 477 507 475Q505 469 505 468Q505 449 524 449Q556 449 579 468Q605 488 605 517Q605 550 578 569Q553 586 520 586Q453 586 406 545Q357 503 357 436Q357 404 372 381Q379
382 385 382T397 382Q508 382 508 352Q508 331 472 331Q415 331 371 364Q178 329 135 165Q128 141 128 111Q128 33 177 -13Q225 -60 304 -60Q401 -60 479 2Q562 68 562 162Q562 245 491 245Q464 245 444 230Q422 214 422 187Q422 170 419 170Q411 170 411 187Q411
191 412 196T416 209Q436 257 502 257Q547 257 574 229Q599 201 599 154Q599 51 492 -17Q397 -75 288 -75ZM457 341Q488 341 488 354Q488 371 443 371Q429 371 415 370T386 367Q417 341 457 341ZM550 660Q550 657 540 662Q516 674 485 689T428 719T395 737Q391
740 396 748T408 757Q414 757 438 741T492 704Q500 699 514 689T539 671T550 660Z" />
<glyph unicode="&#xc9;" glyph-name="Eacute" horiz-adv-x="553" d="M288 -75Q196 -75 136 -27Q70 26 70 115Q70 142 76 166Q103 260 180 316Q253 369 354 380Q323 411 323 454Q323 520 385 561Q439 597 509 597Q625 597 625 518Q625 486 601 462Q577 438 545
438Q529 438 515 445Q499 454 499 469Q499 475 501 478Q501 484 505 484Q508 484 508 480Q508 477 507 475Q505 469 505 468Q505 449 524 449Q556 449 579 468Q605 488 605 517Q605 550 578 569Q553 586 520 586Q453 586 406 545Q357 503 357 436Q357 404 372 381Q379
382 385 382T397 382Q508 382 508 352Q508 331 472 331Q415 331 371 364Q178 329 135 165Q128 141 128 111Q128 33 177 -13Q225 -60 304 -60Q401 -60 479 2Q562 68 562 162Q562 245 491 245Q464 245 444 230Q422 214 422 187Q422 170 419 170Q411 170 411 187Q411
191 412 196T416 209Q436 257 502 257Q547 257 574 229Q599 201 599 154Q599 51 492 -17Q397 -75 288 -75ZM457 341Q488 341 488 354Q488 371 443 371Q429 371 415 370T386 367Q417 341 457 341ZM438 660Q438 662 449 670T474 689T496 704Q526 724 550 740T580
757Q586 757 592 749T593 737Q587 733 561 719T504 690T448 662Q438 657 438 660Z" />
<glyph unicode="&#xca;" glyph-name="Ecircumflex" horiz-adv-x="553" d="M288 -75Q196 -75 136 -27Q70 26 70 115Q70 142 76 166Q103 260 180 316Q253 369 354 380Q323 411 323 454Q323 520 385 561Q439 597 509 597Q625 597 625 518Q625 486 601 462Q577 438
545 438Q529 438 515 445Q499 454 499 469Q499 475 501 478Q501 484 505 484Q508 484 508 480Q508 477 507 475Q505 469 505 468Q505 449 524 449Q556 449 579 468Q605 488 605 517Q605 550 578 569Q553 586 520 586Q453 586 406 545Q357 503 357 436Q357 404 372
381Q379 382 385 382T397 382Q508 382 508 352Q508 331 472 331Q415 331 371 364Q178 329 135 165Q128 141 128 111Q128 33 177 -13Q225 -60 304 -60Q401 -60 479 2Q562 68 562 162Q562 245 491 245Q464 245 444 230Q422 214 422 187Q422 170 419 170Q411 170 411
187Q411 191 412 196T416 209Q436 257 502 257Q547 257 574 229Q599 201 599 154Q599 51 492 -17Q397 -75 288 -75ZM457 341Q488 341 488 354Q488 371 443 371Q429 371 415 370T386 367Q417 341 457 341ZM619 654Q612 654 583 672T521 712Q505 702 483 690T442
668T413 656Q406 654 407 657Q408 659 419 666T445 683T469 698Q492 713 507 725T530 738Q534 739 538 738Q543 737 555 727T590 698Q597 693 605 684T621 667T627 657Q626 654 619 654Z" />
<glyph unicode="&#xcb;" glyph-name="Edieresis" horiz-adv-x="553" d="M288 -75Q196 -75 136 -27Q70 26 70 115Q70 142 76 166Q103 260 180 316Q253 369 354 380Q323 411 323 454Q323 520 385 561Q439 597 509 597Q625 597 625 518Q625 486 601 462Q577 438 545
438Q529 438 515 445Q499 454 499 469Q499 475 501 478Q501 484 505 484Q508 484 508 480Q508 477 507 475Q505 469 505 468Q505 449 524 449Q556 449 579 468Q605 488 605 517Q605 550 578 569Q553 586 520 586Q453 586 406 545Q357 503 357 436Q357 404 372 381Q379
382 385 382T397 382Q508 382 508 352Q508 331 472 331Q415 331 371 364Q178 329 135 165Q128 141 128 111Q128 33 177 -13Q225 -60 304 -60Q401 -60 479 2Q562 68 562 162Q562 245 491 245Q464 245 444 230Q422 214 422 187Q422 170 419 170Q411 170 411 187Q411
191 412 196T416 209Q436 257 502 257Q547 257 574 229Q599 201 599 154Q599 51 492 -17Q397 -75 288 -75ZM457 341Q488 341 488 354Q488 371 443 371Q429 371 415 370T386 367Q417 341 457 341ZM554 657Q530 657 530 679Q530 692 539 701T562 711Q586 711 586
689Q586 676 576 667T554 657ZM446 657Q422 657 422 679Q422 692 431 701T454 711Q478 711 478 689Q478 676 468 667T446 657Z" />
<glyph unicode="&#xcc;" glyph-name="Igrave" horiz-adv-x="589" d="M215 -47Q140 -47 86 -2Q29 48 29 120Q29 216 104 280Q177 342 272 342Q322 342 356 316Q393 287 393 238Q393 180 343 144Q297 110 238 110Q209 110 189 127Q169 145 169 174Q169 192 178 213V212Q178
207 180 215T186 223Q189 222 189 220Q189 216 183 201Q178 186 178 176Q178 149 197 133Q217 118 243 118Q297 118 335 153Q374 189 374 242Q374 285 348 308Q323 332 280 332Q184 332 121 263Q59 197 59 99Q59 33 103 -2Q144 -34 211 -34Q223 -34 233 -33T252
-30Q366 0 438 83Q498 152 543 276Q537 275 532 275T521 275Q455 275 413 311Q366 349 366 413Q366 528 512 584Q616 624 756 624Q791 624 817 622T863 613L862 611H858Q842 611 828 605Q826 604 821 601T807 592Q773 570 744 542T692 479Q719 457 719 422Q719
378 683 339Q650 303 606 288Q526 4 249 -44Q231 -47 215 -47ZM539 285H546Q566 343 594 393T658 486Q645 489 632 489Q604 489 577 473Q548 454 548 427Q548 417 552 412Q556 407 556 403Q556 401 553 401Q538 409 538 426Q538 458 569 480Q597 500 629 500Q647
500 665 494Q743 586 822 611H820Q814 611 806 611T786 612Q775 614 767 614T752 614Q701 614 654 607T563 582Q455 542 420 463Q405 429 405 396Q405 344 447 312Q467 298 490 292T539 285ZM610 300Q650 318 677 348Q709 383 709 423Q709 453 687 471Q640 399
610 300ZM880 683Q880 680 870 685Q846 697 815 712T758 742T725 760Q721 763 726 771T738 780Q744 780 768 764T822 727Q830 722 844 712T869 694T880 683Z" />
<glyph unicode="&#xcd;" glyph-name="Iacute" horiz-adv-x="589" d="M215 -47Q140 -47 86 -2Q29 48 29 120Q29 216 104 280Q177 342 272 342Q322 342 356 316Q393 287 393 238Q393 180 343 144Q297 110 238 110Q209 110 189 127Q169 145 169 174Q169 192 178 213V212Q178
207 180 215T186 223Q189 222 189 220Q189 216 183 201Q178 186 178 176Q178 149 197 133Q217 118 243 118Q297 118 335 153Q374 189 374 242Q374 285 348 308Q323 332 280 332Q184 332 121 263Q59 197 59 99Q59 33 103 -2Q144 -34 211 -34Q223 -34 233 -33T252
-30Q366 0 438 83Q498 152 543 276Q537 275 532 275T521 275Q455 275 413 311Q366 349 366 413Q366 528 512 584Q616 624 756 624Q791 624 817 622T863 613L862 611H858Q842 611 828 605Q826 604 821 601T807 592Q773 570 744 542T692 479Q719 457 719 422Q719
378 683 339Q650 303 606 288Q526 4 249 -44Q231 -47 215 -47ZM539 285H546Q566 343 594 393T658 486Q645 489 632 489Q604 489 577 473Q548 454 548 427Q548 417 552 412Q556 407 556 403Q556 401 553 401Q538 409 538 426Q538 458 569 480Q597 500 629 500Q647
500 665 494Q743 586 822 611H820Q814 611 806 611T786 612Q775 614 767 614T752 614Q701 614 654 607T563 582Q455 542 420 463Q405 429 405 396Q405 344 447 312Q467 298 490 292T539 285ZM610 300Q650 318 677 348Q709 383 709 423Q709 453 687 471Q640 399
610 300ZM768 683Q768 685 779 693T804 712T826 727Q856 747 880 763T910 780Q916 780 922 772T923 760Q917 756 891 742T834 713T778 685Q768 680 768 683Z" />
<glyph unicode="&#xce;" glyph-name="Icircumflex" horiz-adv-x="589" d="M215 -47Q140 -47 86 -2Q29 48 29 120Q29 216 104 280Q177 342 272 342Q322 342 356 316Q393 287 393 238Q393 180 343 144Q297 110 238 110Q209 110 189 127Q169 145 169 174Q169 192
178 213V212Q178 207 180 215T186 223Q189 222 189 220Q189 216 183 201Q178 186 178 176Q178 149 197 133Q217 118 243 118Q297 118 335 153Q374 189 374 242Q374 285 348 308Q323 332 280 332Q184 332 121 263Q59 197 59 99Q59 33 103 -2Q144 -34 211 -34Q223
-34 233 -33T252 -30Q366 0 438 83Q498 152 543 276Q537 275 532 275T521 275Q455 275 413 311Q366 349 366 413Q366 528 512 584Q616 624 756 624Q791 624 817 622T863 613L862 611H858Q842 611 828 605Q826 604 821 601T807 592Q773 570 744 542T692 479Q719
457 719 422Q719 378 683 339Q650 303 606 288Q526 4 249 -44Q231 -47 215 -47ZM539 285H546Q566 343 594 393T658 486Q645 489 632 489Q604 489 577 473Q548 454 548 427Q548 417 552 412Q556 407 556 403Q556 401 553 401Q538 409 538 426Q538 458 569 480Q597
500 629 500Q647 500 665 494Q743 586 822 611H820Q814 611 806 611T786 612Q775 614 767 614T752 614Q701 614 654 607T563 582Q455 542 420 463Q405 429 405 396Q405 344 447 312Q467 298 490 292T539 285ZM610 300Q650 318 677 348Q709 383 709 423Q709 453
687 471Q640 399 610 300ZM949 677Q942 677 913 695T851 735Q835 725 813 713T772 691T743 679Q736 677 737 680Q738 682 749 689T775 706T799 721Q822 736 837 748T860 761Q864 762 868 761Q873 760 885 750T920 721Q927 716 935 707T951 690T957 680Q956 677
949 677Z" />
<glyph unicode="&#xcf;" glyph-name="Idieresis" horiz-adv-x="589" d="M215 -47Q140 -47 86 -2Q29 48 29 120Q29 216 104 280Q177 342 272 342Q322 342 356 316Q393 287 393 238Q393 180 343 144Q297 110 238 110Q209 110 189 127Q169 145 169 174Q169 192 178
213V212Q178 207 180 215T186 223Q189 222 189 220Q189 216 183 201Q178 186 178 176Q178 149 197 133Q217 118 243 118Q297 118 335 153Q374 189 374 242Q374 285 348 308Q323 332 280 332Q184 332 121 263Q59 197 59 99Q59 33 103 -2Q144 -34 211 -34Q223 -34
233 -33T252 -30Q366 0 438 83Q498 152 543 276Q537 275 532 275T521 275Q455 275 413 311Q366 349 366 413Q366 528 512 584Q616 624 756 624Q791 624 817 622T863 613L862 611H858Q842 611 828 605Q826 604 821 601T807 592Q773 570 744 542T692 479Q719 457
719 422Q719 378 683 339Q650 303 606 288Q526 4 249 -44Q231 -47 215 -47ZM539 285H546Q566 343 594 393T658 486Q645 489 632 489Q604 489 577 473Q548 454 548 427Q548 417 552 412Q556 407 556 403Q556 401 553 401Q538 409 538 426Q538 458 569 480Q597 500
629 500Q647 500 665 494Q743 586 822 611H820Q814 611 806 611T786 612Q775 614 767 614T752 614Q701 614 654 607T563 582Q455 542 420 463Q405 429 405 396Q405 344 447 312Q467 298 490 292T539 285ZM610 300Q650 318 677 348Q709 383 709 423Q709 453 687
471Q640 399 610 300ZM884 680Q860 680 860 702Q860 715 869 724T892 734Q916 734 916 712Q916 699 906 690T884 680ZM776 680Q752 680 752 702Q752 715 761 724T784 734Q808 734 808 712Q808 699 798 690T776 680Z" />
<glyph unicode="&#xd0;" glyph-name="Eth" horiz-adv-x="778" d="M102 -32Q14 -32 14 17Q14 40 39 52Q59 62 85 62Q121 62 224 20Q274 59 316 130Q328 150 344 182T382 260Q274 218 277 218Q266 218 266 229Q266 238 277 244Q296 253 325 264T395 287Q486 478
591 557Q504 595 414 595Q307 595 227 561Q130 520 84 438Q56 388 56 334Q56 229 156 211Q166 209 166 206Q166 200 152 200Q145 200 137 203Q82 216 49 254Q15 296 15 349Q15 366 18 384T28 420Q66 522 173 570Q262 609 384 609Q502 609 608 568Q676 614 741 614Q751
614 752 610Q752 610 745 608Q717 603 701 600T679 595Q663 591 648 583T618 564Q817 480 817 313Q817 297 815 282T809 250Q776 110 658 39Q554 -23 400 -23Q305 -23 240 2Q176 -32 102 -32ZM384 -15Q539 -15 646 68Q762 157 762 309H763Q763 473 603 551Q558
509 522 436Q512 417 499 385T468 305Q495 310 520 312T567 315Q579 315 579 308Q579 301 568 301Q532 298 461 286Q380 84 252 9Q317 -15 384 -15ZM105 -24Q162 -24 213 12Q128 45 87 45Q32 45 32 9Q32 -24 105 -24Z" />
<glyph unicode="&#xd1;" glyph-name="Ntilde" horiz-adv-x="1062" d="M296 -97Q205 -97 146 -44Q85 11 85 102Q85 181 132 236Q181 294 261 294Q266 294 271 294T281 293Q329 287 361 246Q394 206 394 158Q394 104 350 63Q307 24 252 24Q241 24 241 28Q241 31
259 34Q286 37 307 48T344 76Q374 111 374 165Q374 206 350 239Q322 275 284 279Q280 279 275 279T263 280Q190 280 143 231Q99 182 99 109Q99 24 150 -29Q203 -82 287 -82Q292 -82 296 -82T304 -81Q393 -72 464 2Q505 45 570 153Q585 179 607 216T662 303Q711
377 763 432T869 525Q755 584 728 594Q643 629 577 629Q552 629 528 624T482 610Q430 589 397 541Q363 493 363 438Q363 380 402 344Q441 308 499 308Q556 308 604 345Q652 384 652 443Q652 484 626 515Q599 547 557 547Q524 547 498 524Q471 500 471 467Q471 445
485 433Q499 420 499 416Q499 415 499 415T498 414Q495 414 489 418Q462 438 462 469Q462 507 492 532Q520 557 559 557Q603 557 637 525Q669 491 669 446Q669 382 614 337Q561 293 497 293Q429 293 387 337Q344 379 344 448Q344 510 377 562Q413 618 468 637Q519
656 574 656Q612 656 652 647T735 615Q772 596 808 575T881 534Q947 577 996 577Q1018 577 1039 565Q1064 550 1064 530Q1064 507 1039 494Q1018 482 994 482Q977 482 951 490Q938 469 928 439T912 369Q909 350 907 318T902 239Q893 56 846 0Q864 2 888 19Q980
84 1064 300Q1215 685 1398 685Q1441 685 1467 669Q1500 650 1500 610Q1500 606 1498 599T1493 584Q1487 564 1479 564Q1476 564 1476 570H1475Q1480 579 1482 587T1485 604Q1485 629 1462 646Q1441 661 1414 661Q1357 661 1301 617Q1264 589 1231 550T1168 460Q1148
428 1125 382T1075 274Q1050 219 1029 177T990 108Q929 17 854 -13Q838 -19 824 -22T799 -26Q790 -26 786 -24L784 -23Q784 -21 800 -15Q826 -6 843 18Q851 29 851 66Q851 78 850 96T847 140Q845 166 844 184T843 215Q843 289 863 364Q887 454 932 496Q921 501
907 507T877 521Q823 482 767 417Q740 385 718 354T681 291Q673 275 662 251T634 194Q498 -73 316 -96Q312 -97 307 -97T296 -97ZM996 489Q1042 489 1042 520Q1042 538 1020 552Q1000 563 980 563Q941 563 889 529Q903 522 916 516T941 504Q962 522 974 522Q980
522 980 518Q980 515 976 515Q966 508 957 498Q981 489 996 489ZM1065 680Q1063 680 1064 687Q1069 707 1079 723T1112 740Q1135 740 1158 732T1203 716T1241 708Q1258 708 1265 717T1275 734T1281 743Q1283 743 1283 739T1281 733Q1276 711 1261 696T1231 680Q1216
680 1195 688T1152 704T1106 712Q1089 712 1082 704T1071 688T1065 680Z" />
<glyph unicode="&#xd2;" glyph-name="Ograve" horiz-adv-x="641" d="M332 -48Q214 -48 148 24Q84 92 84 212Q84 356 170 465Q100 517 100 578Q100 657 199 657Q258 657 313 623Q317 622 317 615Q317 613 315 613Q314 613 309 616Q258 643 213 643Q119 643 119
569Q119 519 178 474Q282 596 485 596Q553 596 603 577Q671 552 682 497Q683 495 683 489Q683 451 635 421Q666 368 666 291Q666 203 625 132Q577 51 502 3Q421 -48 332 -48ZM431 394Q535 394 605 429Q580 480 534 480Q532 480 529 480T522 478Q518 477 515 477T510
477Q499 477 499 483Q499 492 524 492Q584 492 623 440Q659 464 659 493Q659 584 495 584Q331 584 227 443Q274 419 325 407T431 394ZM349 -33Q422 -33 497 31Q560 85 599 162Q629 222 629 309Q629 367 614 409Q583 396 544 389T457 381Q324 381 220 434Q147 331
147 200Q147 106 191 45Q238 -20 330 -32Q334 -32 339 -32T349 -33ZM539 659Q539 656 529 661Q505 673 474 688T417 718T384 736Q380 739 385 747T397 756Q403 756 427 740T481 703Q489 698 503 688T528 670T539 659Z" />
<glyph unicode="&#xd3;" glyph-name="Oacute" horiz-adv-x="641" d="M332 -48Q214 -48 148 24Q84 92 84 212Q84 356 170 465Q100 517 100 578Q100 657 199 657Q258 657 313 623Q317 622 317 615Q317 613 315 613Q314 613 309 616Q258 643 213 643Q119 643 119
569Q119 519 178 474Q282 596 485 596Q553 596 603 577Q671 552 682 497Q683 495 683 489Q683 451 635 421Q666 368 666 291Q666 203 625 132Q577 51 502 3Q421 -48 332 -48ZM431 394Q535 394 605 429Q580 480 534 480Q532 480 529 480T522 478Q518 477 515 477T510
477Q499 477 499 483Q499 492 524 492Q584 492 623 440Q659 464 659 493Q659 584 495 584Q331 584 227 443Q274 419 325 407T431 394ZM349 -33Q422 -33 497 31Q560 85 599 162Q629 222 629 309Q629 367 614 409Q583 396 544 389T457 381Q324 381 220 434Q147 331
147 200Q147 106 191 45Q238 -20 330 -32Q334 -32 339 -32T349 -33ZM427 659Q427 661 438 669T463 688T485 703Q515 723 539 739T569 756Q575 756 581 748T582 736Q576 732 550 718T493 689T437 661Q427 656 427 659Z" />
<glyph unicode="&#xd4;" glyph-name="Ocircumflex" horiz-adv-x="641" d="M332 -48Q214 -48 148 24Q84 92 84 212Q84 356 170 465Q100 517 100 578Q100 657 199 657Q258 657 313 623Q317 622 317 615Q317 613 315 613Q314 613 309 616Q258 643 213 643Q119 643
119 569Q119 519 178 474Q282 596 485 596Q553 596 603 577Q671 552 682 497Q683 495 683 489Q683 451 635 421Q666 368 666 291Q666 203 625 132Q577 51 502 3Q421 -48 332 -48ZM431 394Q535 394 605 429Q580 480 534 480Q532 480 529 480T522 478Q518 477 515
477T510 477Q499 477 499 483Q499 492 524 492Q584 492 623 440Q659 464 659 493Q659 584 495 584Q331 584 227 443Q274 419 325 407T431 394ZM349 -33Q422 -33 497 31Q560 85 599 162Q629 222 629 309Q629 367 614 409Q583 396 544 389T457 381Q324 381 220 434Q147
331 147 200Q147 106 191 45Q238 -20 330 -32Q334 -32 339 -32T349 -33ZM608 653Q601 653 572 671T510 711Q494 701 472 689T431 667T402 655Q395 653 396 656Q397 658 408 665T434 682T458 697Q481 712 496 724T519 737Q523 738 527 737Q532 736 544 726T579 697Q586
692 594 683T610 666T616 656Q615 653 608 653Z" />
<glyph unicode="&#xd5;" glyph-name="Otilde" horiz-adv-x="641" d="M332 -48Q214 -48 148 24Q84 92 84 212Q84 356 170 465Q100 517 100 578Q100 657 199 657Q258 657 313 623Q317 622 317 615Q317 613 315 613Q314 613 309 616Q258 643 213 643Q119 643 119
569Q119 519 178 474Q282 596 485 596Q553 596 603 577Q671 552 682 497Q683 495 683 489Q683 451 635 421Q666 368 666 291Q666 203 625 132Q577 51 502 3Q421 -48 332 -48ZM431 394Q535 394 605 429Q580 480 534 480Q532 480 529 480T522 478Q518 477 515 477T510
477Q499 477 499 483Q499 492 524 492Q584 492 623 440Q659 464 659 493Q659 584 495 584Q331 584 227 443Q274 419 325 407T431 394ZM349 -33Q422 -33 497 31Q560 85 599 162Q629 222 629 309Q629 367 614 409Q583 396 544 389T457 381Q324 381 220 434Q147 331
147 200Q147 106 191 45Q238 -20 330 -32Q334 -32 339 -32T349 -33ZM391 656Q389 656 390 663Q395 683 405 699T438 716Q461 716 484 708T529 692T567 684Q584 684 591 693T601 710T607 719Q609 719 609 715T607 709Q602 687 587 672T557 656Q542 656 521 664T478
680T432 688Q415 688 408 680T397 664T391 656Z" />
<glyph unicode="&#xd6;" glyph-name="Odieresis" horiz-adv-x="641" d="M332 -48Q214 -48 148 24Q84 92 84 212Q84 356 170 465Q100 517 100 578Q100 657 199 657Q258 657 313 623Q317 622 317 615Q317 613 315 613Q314 613 309 616Q258 643 213 643Q119 643 119
569Q119 519 178 474Q282 596 485 596Q553 596 603 577Q671 552 682 497Q683 495 683 489Q683 451 635 421Q666 368 666 291Q666 203 625 132Q577 51 502 3Q421 -48 332 -48ZM431 394Q535 394 605 429Q580 480 534 480Q532 480 529 480T522 478Q518 477 515 477T510
477Q499 477 499 483Q499 492 524 492Q584 492 623 440Q659 464 659 493Q659 584 495 584Q331 584 227 443Q274 419 325 407T431 394ZM349 -33Q422 -33 497 31Q560 85 599 162Q629 222 629 309Q629 367 614 409Q583 396 544 389T457 381Q324 381 220 434Q147 331
147 200Q147 106 191 45Q238 -20 330 -32Q334 -32 339 -32T349 -33ZM543 656Q519 656 519 678Q519 691 528 700T551 710Q575 710 575 688Q575 675 565 666T543 656ZM435 656Q411 656 411 678Q411 691 420 700T443 710Q467 710 467 688Q467 675 457 666T435 656Z"
/>
<glyph unicode="&#xd7;" glyph-name="multiply" horiz-adv-x="239" d="M164 13L121 98L48 18Q46 18 41 27Q37 35 37 39L111 119L68 203Q69 205 71 207T77 214Q81 219 83 220T87 223L129 138L203 218Q206 218 210 209Q214 201 214 197L140 118L183 33Q181 29 174
22Q170 18 168 16T164 13Z" />
<glyph unicode="&#xd8;" glyph-name="Oslash" horiz-adv-x="641" d="M50 -86L141 32Q84 103 84 212Q84 356 170 465Q100 517 100 578Q100 657 199 657Q258 657 313 623Q317 622 317 615Q317 613 315 613Q314 613 309 616Q260 643 213 643Q119 643 119 569Q119
519 178 474Q282 596 485 596Q529 596 568 587L635 675H667L594 580Q683 551 683 489Q683 451 635 421Q666 368 666 291Q666 202 625 132Q577 51 502 3Q421 -48 332 -48Q223 -48 159 13L82 -86H50ZM419 394L561 579Q545 581 529 582T495 584Q331 584 227 443Q316
397 419 394ZM623 440Q659 464 659 493Q659 552 588 573L526 492Q586 490 623 440ZM451 395Q498 397 536 405T605 429Q580 480 534 480Q530 480 525 480T515 478L451 395ZM173 74L410 383Q307 390 220 434Q147 331 147 200Q147 129 173 74ZM349 -33Q422 -33 497
31Q558 85 599 162Q629 222 629 309Q629 367 614 409Q546 379 441 382L187 50Q243 -33 349 -33Z" />
<glyph unicode="&#xd9;" glyph-name="Ugrave" horiz-adv-x="772" d="M705 -80Q640 -80 640 38Q640 217 795 415Q790 411 774 390T732 331Q712 303 681 260T607 160Q579 124 559 100T526 63Q469 2 430 -14Q388 -29 356 -29Q278 -29 278 53Q278 124 337 204Q369
245 396 287T447 373Q511 489 511 559Q511 623 458 655Q414 681 345 681Q246 681 164 625Q85 571 44 478Q28 443 28 401Q28 346 56 309Q87 266 139 266Q193 266 239 301Q284 337 299 389V390Q299 401 302 406T308 412Q312 412 312 401Q312 394 309 386Q291 328
245 294Q199 257 140 257Q79 257 41 305Q7 348 7 411Q7 531 115 615Q216 693 340 693Q431 693 490 655Q561 612 561 526Q561 470 530 420Q516 398 496 368T447 300Q375 202 375 202Q329 135 318 97Q314 84 312 73T310 50Q310 -15 375 -15Q402 -15 427 -3Q507 32
753 377Q767 397 788 426T839 493Q871 530 902 547T964 564Q1000 564 1000 550Q1000 538 980 538Q972 538 959 542Q946 545 938 545Q922 545 914 538Q825 470 757 303Q691 146 691 24Q691 -61 729 -61Q741 -61 757 -51Q765 -46 768 -44T772 -41Q780 -41 780 -45Q780
-50 758 -62Q728 -80 705 -80ZM800 683Q800 680 790 685Q766 697 738 710T688 736T659 752Q655 755 660 763T672 772Q678 772 700 757T742 727Q750 722 763 712T788 694T800 683Z" />
<glyph unicode="&#xda;" glyph-name="Uacute" horiz-adv-x="772" d="M705 -80Q640 -80 640 38Q640 217 795 415Q790 411 774 390T732 331Q712 303 681 260T607 160Q579 124 559 100T526 63Q469 2 430 -14Q388 -29 356 -29Q278 -29 278 53Q278 124 337 204Q369
245 396 287T447 373Q511 489 511 559Q511 623 458 655Q414 681 345 681Q246 681 164 625Q85 571 44 478Q28 443 28 401Q28 346 56 309Q87 266 139 266Q193 266 239 301Q284 337 299 389V390Q299 401 302 406T308 412Q312 412 312 401Q312 394 309 386Q291 328
245 294Q199 257 140 257Q79 257 41 305Q7 348 7 411Q7 531 115 615Q216 693 340 693Q431 693 490 655Q561 612 561 526Q561 470 530 420Q516 398 496 368T447 300Q375 202 375 202Q329 135 318 97Q314 84 312 73T310 50Q310 -15 375 -15Q402 -15 427 -3Q507 32
753 377Q767 397 788 426T839 493Q871 530 902 547T964 564Q1000 564 1000 550Q1000 538 980 538Q972 538 959 542Q946 545 938 545Q922 545 914 538Q825 470 757 303Q691 146 691 24Q691 -61 729 -61Q741 -61 757 -51Q765 -46 768 -44T772 -41Q780 -41 780 -45Q780
-50 758 -62Q728 -80 705 -80ZM679 683Q679 685 690 693T716 712T737 727Q757 741 779 756T807 772Q813 772 819 764T820 752Q814 748 792 736T741 711T689 685Q679 680 679 683Z" />
<glyph unicode="&#xdb;" glyph-name="Ucircumflex" horiz-adv-x="772" d="M705 -80Q640 -80 640 38Q640 217 795 415Q790 411 774 390T732 331Q712 303 681 260T607 160Q579 124 559 100T526 63Q469 2 430 -14Q388 -29 356 -29Q278 -29 278 53Q278 124 337 204Q369
245 396 287T447 373Q511 489 511 559Q511 623 458 655Q414 681 345 681Q246 681 164 625Q85 571 44 478Q28 443 28 401Q28 346 56 309Q87 266 139 266Q193 266 239 301Q284 337 299 389V390Q299 401 302 406T308 412Q312 412 312 401Q312 394 309 386Q291 328
245 294Q199 257 140 257Q79 257 41 305Q7 348 7 411Q7 531 115 615Q216 693 340 693Q431 693 490 655Q561 612 561 526Q561 470 530 420Q516 398 496 368T447 300Q375 202 375 202Q329 135 318 97Q314 84 312 73T310 50Q310 -15 375 -15Q402 -15 427 -3Q507 32
753 377Q767 397 788 426T839 493Q871 530 902 547T964 564Q1000 564 1000 550Q1000 538 980 538Q972 538 959 542Q946 545 938 545Q922 545 914 538Q825 470 757 303Q691 146 691 24Q691 -61 729 -61Q741 -61 757 -51Q765 -46 768 -44T772 -41Q780 -41 780 -45Q780
-50 758 -62Q728 -80 705 -80ZM856 677Q851 677 836 687T802 710T771 735Q746 719 719 701T677 679Q670 677 671 680Q672 682 682 689T707 705T729 721Q752 738 766 749T787 761Q791 762 795 761Q800 760 808 749T830 721Q835 715 843 706T858 690T864 680Q863
677 856 677Z" />
<glyph unicode="&#xdc;" glyph-name="Udieresis" horiz-adv-x="772" d="M705 -80Q640 -80 640 38Q640 217 795 415Q790 411 774 390T732 331Q712 303 681 260T607 160Q579 124 559 100T526 63Q469 2 430 -14Q388 -29 356 -29Q278 -29 278 53Q278 124 337 204Q369
245 396 287T447 373Q511 489 511 559Q511 623 458 655Q414 681 345 681Q246 681 164 625Q85 571 44 478Q28 443 28 401Q28 346 56 309Q87 266 139 266Q193 266 239 301Q284 337 299 389V390Q299 401 302 406T308 412Q312 412 312 401Q312 394 309 386Q291 328
245 294Q199 257 140 257Q79 257 41 305Q7 348 7 411Q7 531 115 615Q216 693 340 693Q431 693 490 655Q561 612 561 526Q561 470 530 420Q516 398 496 368T447 300Q375 202 375 202Q329 135 318 97Q314 84 312 73T310 50Q310 -15 375 -15Q402 -15 427 -3Q507 32
753 377Q767 397 788 426T839 493Q871 530 902 547T964 564Q1000 564 1000 550Q1000 538 980 538Q972 538 959 542Q946 545 938 545Q922 545 914 538Q825 470 757 303Q691 146 691 24Q691 -61 729 -61Q741 -61 757 -51Q765 -46 768 -44T772 -41Q780 -41 780 -45Q780
-50 758 -62Q728 -80 705 -80ZM812 680Q789 680 789 701Q789 713 798 722T819 732Q842 732 842 711Q842 699 833 690T812 680ZM712 680Q689 680 689 701Q689 713 698 722T719 732Q742 732 742 711Q742 699 733 690T712 680Z" />
<glyph unicode="&#xdd;" glyph-name="Yacute" horiz-adv-x="743" d="M322 -318Q234 -318 234 -257Q234 -225 255 -198Q279 -167 363 -121Q365 -120 395 -105T485 -61Q524 -42 556 -25T614 6Q656 103 681 160T716 237Q788 380 862 434Q864 436 867 438T875 445Q823
427 743 317Q715 278 687 238T630 158Q610 131 584 105T527 53Q450 -13 405 -22Q395 -23 385 -24T365 -26Q274 -26 274 58Q274 129 333 206Q361 242 389 277T444 349Q516 446 531 501Q540 533 540 559Q540 623 487 655Q443 681 373 681Q275 681 193 625Q114 571
73 478Q57 443 57 401Q57 346 85 309Q116 266 168 266Q222 266 268 301Q313 337 328 389V390Q328 401 331 406T337 412Q341 412 341 401Q341 394 338 386Q320 328 274 294Q226 257 169 257Q108 257 70 305Q36 348 36 411Q36 531 144 615Q245 693 369 693Q461 693
519 652Q584 607 584 518Q584 458 556 414Q540 389 517 358T463 290Q442 266 421 243T378 194Q317 122 309 93Q303 69 303 50Q303 -14 366 -14Q453 -14 586 134Q621 172 664 227T759 357Q766 366 777 378T806 407Q824 424 837 435T859 451Q900 476 935 476Q971
476 971 461Q971 449 951 449Q950 449 947 449T939 450Q935 450 932 450T926 451Q893 451 854 414Q846 406 833 390T801 347Q781 320 763 284T727 202Q722 187 710 148T677 45Q694 56 704 63T718 73Q741 93 741 114Q741 115 740 117Q739 118 739 120Q739 124 743
124Q750 124 750 111Q750 90 721 66Q717 63 706 55T673 33Q631 -103 594 -156Q550 -221 475 -268Q396 -318 322 -318ZM307 -306Q365 -306 441 -246Q508 -193 545 -135Q558 -115 573 -83T608 -8Q573 -29 510 -61T357 -137Q318 -157 287 -186Q246 -225 246 -258Q246
-280 266 -294Q284 -306 307 -306ZM710 642Q710 644 721 652T746 671T768 686Q798 706 822 722T852 739Q858 739 864 731T865 719Q859 715 833 701T776 672T720 644Q710 639 710 642Z" />
<glyph unicode="&#xde;" glyph-name="Thorn" horiz-adv-x="584" d="M211 -12Q162 -12 140 14T117 84Q117 89 117 94Q108 67 99 44T80 1Q21 -125 -4 -157Q-112 -308 -233 -308Q-261 -308 -286 -288Q-311 -268 -317 -241L-316 -239L-310 -236L-308 -237Q-293 -292
-253 -292Q-206 -292 -133 -213Q-105 -183 -81 -153T-40 -91Q20 25 76 142T194 375Q286 552 363 639T495 726Q519 726 519 704Q519 685 496 677L474 675Q441 672 413 649Q385 627 351 581T274 464Q254 432 237 397T205 327Q252 406 308 466T420 561T526 596Q573
596 603 569T634 470Q634 436 625 389Q614 333 587 276T520 168T430 76T325 12T211 -12ZM203 -2Q265 -2 321 29T424 112T506 229T560 363T579 497Q579 553 562 569T522 586Q469 586 399 537T260 386Q226 336 197 280T151 171T133 77Q133 41 149 20T203 -2Z" />
<glyph unicode="&#xdf;" glyph-name="germandbls" horiz-adv-x="444" d="M-192 -212Q-232 -212 -255 -192T-279 -141Q-279 -118 -272 -118Q-262 -118 -262 -142Q-262 -167 -242 -181T-191 -195Q-158 -195 -119 -177T-48 -121Q-27 -96 -2 -53T51 44T103 152T151
258T190 346Q213 397 236 445T285 534T347 597T428 621Q478 622 503 593T528 524Q528 487 506 448T437 382L413 368Q406 364 392 356T366 337T354 310Q354 289 381 239Q408 190 408 152Q408 142 407 133T403 114Q376 1 260 1Q283 -4 302 -4Q337 -4 370 8T431 43Q460
66 484 98T527 168Q530 174 533 174Q539 174 534 164Q518 134 501 108T463 60Q439 36 398 12T297 -12Q196 -12 196 84Q196 111 205 142V141Q210 159 224 176Q241 197 255 197Q255 197 258 197T268 195L279 212Q293 233 304 254T329 297Q340 316 350 331T374 357Q409
378 435 410T475 477T489 541Q489 570 475 588T428 606Q396 606 369 582T319 519T276 432T238 337Q223 298 200 247T153 145T109 54T76 -4Q28 -81 -20 -127T-113 -192T-192 -212ZM253 9Q304 9 337 86Q364 146 364 207Q364 215 362 228T354 261Q350 279 348 292T347
316Q328 278 309 247T273 191Q278 183 278 175Q278 161 267 144Q260 134 243 125Q226 116 219 108Q208 92 208 66Q208 9 253 9Z" />
<glyph unicode="&#xe0;" glyph-name="agrave" horiz-adv-x="378" d="M311 -3Q259 -3 259 69Q259 97 268 133Q198 -2 129 -2Q96 -2 79 31Q65 56 65 94Q65 125 74 159Q91 218 146 270Q207 326 262 326Q312 326 312 266Q312 240 301 205L362 325H365Q368 320 378
320Q398 320 429 344L431 342L346 176Q295 77 295 26Q295 6 313 6Q325 6 342 15T378 45Q402 73 419 98T460 168Q463 173 466 173Q472 173 466 163Q448 129 428 96T378 33Q342 -3 311 -3ZM133 5Q189 5 277 163Q305 213 305 264Q305 318 270 318Q232 318 184 255Q165
229 152 204T130 156Q109 96 109 48Q109 5 133 5ZM365 388Q365 385 355 390Q331 402 303 415T253 441T224 457Q220 460 225 468T237 477Q243 477 265 462T307 432Q315 427 328 417T353 399T365 388Z" />
<glyph unicode="&#xe1;" glyph-name="aacute" horiz-adv-x="378" d="M311 -3Q259 -3 259 69Q259 97 268 133Q198 -2 129 -2Q96 -2 79 31Q65 56 65 94Q65 125 74 159Q91 218 146 270Q207 326 262 326Q312 326 312 266Q312 240 301 205L362 325H365Q368 320 378
320Q398 320 429 344L431 342L346 176Q295 77 295 26Q295 6 313 6Q325 6 342 15T378 45Q402 73 419 98T460 168Q463 173 466 173Q472 173 466 163Q448 129 428 96T378 33Q342 -3 311 -3ZM133 5Q189 5 277 163Q305 213 305 264Q305 318 270 318Q232 318 184 255Q165
229 152 204T130 156Q109 96 109 48Q109 5 133 5ZM244 388Q244 390 255 398T281 417T302 432Q322 446 344 461T372 477Q378 477 384 469T385 457Q379 453 357 441T306 416T254 390Q244 385 244 388Z" />
<glyph unicode="&#xe2;" glyph-name="acircumflex" horiz-adv-x="378" d="M311 -3Q259 -3 259 69Q259 97 268 133Q198 -2 129 -2Q96 -2 79 31Q65 56 65 94Q65 125 74 159Q91 218 146 270Q207 326 262 326Q312 326 312 266Q312 240 301 205L362 325H365Q368 320
378 320Q398 320 429 344L431 342L346 176Q295 77 295 26Q295 6 313 6Q325 6 342 15T378 45Q402 73 419 98T460 168Q463 173 466 173Q472 173 466 163Q448 129 428 96T378 33Q342 -3 311 -3ZM133 5Q189 5 277 163Q305 213 305 264Q305 318 270 318Q232 318 184
255Q165 229 152 204T130 156Q109 96 109 48Q109 5 133 5ZM421 382Q416 382 401 392T367 415T336 440Q311 424 284 406T242 384Q235 382 236 385Q237 387 247 394T272 410T294 426Q317 443 331 454T352 466Q356 467 360 466Q365 465 373 454T395 426Q400 420 408
411T423 395T429 385Q428 382 421 382Z" />
<glyph unicode="&#xe3;" glyph-name="atilde" horiz-adv-x="378" d="M311 -3Q259 -3 259 69Q259 97 268 133Q198 -2 129 -2Q96 -2 79 31Q65 56 65 94Q65 125 74 159Q91 218 146 270Q207 326 262 326Q312 326 312 266Q312 240 301 205L362 325H365Q368 320 378
320Q398 320 429 344L431 342L346 176Q295 77 295 26Q295 6 313 6Q325 6 342 15T378 45Q402 73 419 98T460 168Q463 173 466 173Q472 173 466 163Q448 129 428 96T378 33Q342 -3 311 -3ZM133 5Q189 5 277 163Q305 213 305 264Q305 318 270 318Q232 318 184 255Q165
229 152 204T130 156Q109 96 109 48Q109 5 133 5ZM233 385Q231 385 232 392Q237 412 247 428T280 445Q293 445 308 437T340 421T373 413Q390 413 397 422T407 439T413 448Q415 448 415 444T413 438Q408 416 393 401T363 385Q348 385 332 393T302 409T274 417Q257
417 250 409T239 393T233 385Z" />
<glyph unicode="&#xe4;" glyph-name="adieresis" horiz-adv-x="378" d="M311 -3Q259 -3 259 69Q259 97 268 133Q198 -2 129 -2Q96 -2 79 31Q65 56 65 94Q65 125 74 159Q91 218 146 270Q207 326 262 326Q312 326 312 266Q312 240 301 205L362 325H365Q368 320 378
320Q398 320 429 344L431 342L346 176Q295 77 295 26Q295 6 313 6Q325 6 342 15T378 45Q402 73 419 98T460 168Q463 173 466 173Q472 173 466 163Q448 129 428 96T378 33Q342 -3 311 -3ZM133 5Q189 5 277 163Q305 213 305 264Q305 318 270 318Q232 318 184 255Q165
229 152 204T130 156Q109 96 109 48Q109 5 133 5ZM377 385Q354 385 354 406Q354 418 363 427T384 437Q407 437 407 416Q407 404 398 395T377 385ZM277 385Q254 385 254 406Q254 418 263 427T284 437Q307 437 307 416Q307 404 298 395T277 385Z" />
<glyph unicode="&#xe5;" glyph-name="aring" horiz-adv-x="378" d="M311 -3Q259 -3 259 69Q259 97 268 133Q198 -2 129 -2Q96 -2 79 31Q65 56 65 94Q65 125 74 159Q91 218 146 270Q207 326 262 326Q312 326 312 266Q312 240 301 205L362 325H365Q368 320 378 320Q398
320 429 344L431 342L346 176Q295 77 295 26Q295 6 313 6Q325 6 342 15T378 45Q402 73 419 98T460 168Q463 173 466 173Q472 173 466 163Q448 129 428 96T378 33Q342 -3 311 -3ZM133 5Q189 5 277 163Q305 213 305 264Q305 318 270 318Q232 318 184 255Q165 229
152 204T130 156Q109 96 109 48Q109 5 133 5ZM297 393Q275 393 261 402T247 431Q247 460 272 477T325 494Q348 494 361 485T375 456Q375 426 352 410T297 393ZM297 399Q314 399 330 417T347 456Q347 467 341 476T323 486Q307 486 291 468T274 430Q274 418 280 409T297
399Z" />
<glyph unicode="&#xe6;" glyph-name="ae" horiz-adv-x="470" d="M376 -5Q279 -5 279 95Q279 98 279 102T280 112V129Q280 133 280 136T282 142Q256 93 218 52Q169 -2 129 -2Q96 -2 79 31Q65 56 65 94Q65 126 74 159Q91 218 146 270Q207 326 262 326Q312 326 312
266Q312 240 301 205L362 325H365Q368 320 378 320Q398 320 429 344L431 342L414 310Q446 327 473 327Q523 327 523 292Q523 249 476 202Q409 134 335 134Q323 103 323 72Q323 4 385 4Q435 4 486 61Q507 84 523 109T549 163L551 164L555 163L556 161Q543 129 527
101T488 50Q436 -5 376 -5ZM133 5Q189 5 277 163Q305 213 305 264Q305 318 270 318Q232 318 184 255Q165 229 152 204T130 156Q109 96 109 48Q109 5 133 5ZM336 141Q391 141 459 200V201Q478 217 495 245Q515 276 515 298Q515 314 491 314Q453 314 399 246Q374
216 359 190T336 141Z" />
<glyph unicode="&#xe7;" glyph-name="ccedilla" horiz-adv-x="257" d="M147 -10Q108 -10 83 12T58 81Q58 119 73 161T118 243Q183 329 253 329Q318 329 318 270Q318 248 304 222Q287 193 267 193Q252 193 252 205Q252 218 279 237Q306 257 306 282Q306 316 271
316Q234 316 189 262Q157 222 135 176Q125 156 115 124T105 61Q105 36 116 18T155 0Q181 0 209 14T257 49Q274 66 295 95T339 168Q342 173 345 173Q351 173 345 163Q328 129 309 98T257 38Q238 19 209 5T147 -10ZM95 73Q76 73 62 81T43 108Q43 113 48 113Q54 113
56 107Q62 97 72 94T93 90Q119 90 132 106T146 140Q146 153 139 161T117 170Q104 170 97 167T84 164Q74 164 74 172Q74 177 77 180Q79 182 89 193T112 218T135 242T146 252Q148 252 153 252T158 250Q157 249 149 240T131 221T117 202T114 191Q118 192 121 192T128
192Q147 192 164 181T182 148Q182 124 169 108T135 82T95 73Z" />
<glyph unicode="&#xe8;" glyph-name="egrave" horiz-adv-x="259" d="M149 -10Q100 -10 81 17T62 95Q62 167 122 245Q186 327 255 327Q306 327 306 292Q306 249 259 202Q192 134 118 134Q106 103 106 72Q106 38 119 19T157 0Q183 0 211 14T259 49Q276 66 297 95T341
168Q344 173 347 173Q353 173 347 163Q330 129 311 98T259 38Q240 19 211 5T149 -10ZM119 141Q174 141 242 200V201Q261 217 278 245Q298 276 298 298Q298 314 274 314Q236 314 182 246Q157 216 142 190T119 141ZM308 388Q308 385 298 390Q274 402 246 415T196
441T167 457Q163 460 168 468T180 477Q186 477 208 462T250 432Q258 427 271 417T296 399T308 388Z" />
<glyph unicode="&#xe9;" glyph-name="eacute" horiz-adv-x="259" d="M149 -10Q100 -10 81 17T62 95Q62 167 122 245Q186 327 255 327Q306 327 306 292Q306 249 259 202Q192 134 118 134Q106 103 106 72Q106 38 119 19T157 0Q183 0 211 14T259 49Q276 66 297 95T341
168Q344 173 347 173Q353 173 347 163Q330 129 311 98T259 38Q240 19 211 5T149 -10ZM119 141Q174 141 242 200V201Q261 217 278 245Q298 276 298 298Q298 314 274 314Q236 314 182 246Q157 216 142 190T119 141ZM187 388Q187 390 198 398T224 417T245 432Q265
446 287 461T315 477Q321 477 327 469T328 457Q322 453 300 441T249 416T197 390Q187 385 187 388Z" />
<glyph unicode="&#xea;" glyph-name="ecircumflex" horiz-adv-x="259" d="M149 -10Q100 -10 81 17T62 95Q62 167 122 245Q186 327 255 327Q306 327 306 292Q306 249 259 202Q192 134 118 134Q106 103 106 72Q106 38 119 19T157 0Q183 0 211 14T259 49Q276 66 297
95T341 168Q344 173 347 173Q353 173 347 163Q330 129 311 98T259 38Q240 19 211 5T149 -10ZM119 141Q174 141 242 200V201Q261 217 278 245Q298 276 298 298Q298 314 274 314Q236 314 182 246Q157 216 142 190T119 141ZM364 382Q359 382 344 392T310 415T279 440Q254
424 227 406T185 384Q178 382 179 385Q180 387 190 394T215 410T237 426Q260 443 274 454T295 466Q299 467 303 466Q308 465 316 454T338 426Q343 420 351 411T366 395T372 385Q371 382 364 382Z" />
<glyph unicode="&#xeb;" glyph-name="edieresis" horiz-adv-x="259" d="M149 -10Q100 -10 81 17T62 95Q62 167 122 245Q186 327 255 327Q306 327 306 292Q306 249 259 202Q192 134 118 134Q106 103 106 72Q106 38 119 19T157 0Q183 0 211 14T259 49Q276 66 297
95T341 168Q344 173 347 173Q353 173 347 163Q330 129 311 98T259 38Q240 19 211 5T149 -10ZM119 141Q174 141 242 200V201Q261 217 278 245Q298 276 298 298Q298 314 274 314Q236 314 182 246Q157 216 142 190T119 141ZM320 385Q297 385 297 406Q297 418 306 427T327
437Q350 437 350 416Q350 404 341 395T320 385ZM220 385Q197 385 197 406Q197 418 206 427T227 437Q250 437 250 416Q250 404 241 395T220 385Z" />
<glyph unicode="&#xec;" glyph-name="igrave" horiz-adv-x="192" d="M123 -8Q53 -8 53 63Q53 116 84 175L159 322H162Q165 318 174 318Q193 318 224 341L226 339L141 174Q88 72 88 32Q88 -2 126 -2Q205 -2 274 166H276L280 164V163Q210 -8 123 -8ZM246 388Q246
385 236 390Q212 402 184 415T134 441T105 457Q101 460 106 468T118 477Q124 477 146 462T188 432Q196 427 209 417T234 399T246 388Z" />
<glyph unicode="&#xed;" glyph-name="iacute" horiz-adv-x="192" d="M123 -8Q53 -8 53 63Q53 116 84 175L159 322H162Q165 318 174 318Q193 318 224 341L226 339L141 174Q88 72 88 32Q88 -2 126 -2Q205 -2 274 166H276L280 164V163Q210 -8 123 -8ZM125 388Q125
390 136 398T162 417T183 432Q203 446 225 461T253 477Q259 477 265 469T266 457Q260 453 238 441T187 416T135 390Q125 385 125 388Z" />
<glyph unicode="&#xee;" glyph-name="icircumflex" horiz-adv-x="192" d="M123 -8Q53 -8 53 63Q53 116 84 175L159 322H162Q165 318 174 318Q193 318 224 341L226 339L141 174Q88 72 88 32Q88 -2 126 -2Q205 -2 274 166H276L280 164V163Q210 -8 123 -8ZM302 382Q297
382 282 392T248 415T217 440Q192 424 165 406T123 384Q116 382 117 385Q118 387 128 394T153 410T175 426Q198 443 212 454T233 466Q237 467 241 466Q246 465 254 454T276 426Q281 420 289 411T304 395T310 385Q309 382 302 382Z" />
<glyph unicode="&#xef;" glyph-name="idieresis" horiz-adv-x="192" d="M123 -8Q53 -8 53 63Q53 116 84 175L159 322H162Q165 318 174 318Q193 318 224 341L226 339L141 174Q88 72 88 32Q88 -2 126 -2Q205 -2 274 166H276L280 164V163Q210 -8 123 -8ZM258 385Q235
385 235 406Q235 418 244 427T265 437Q288 437 288 416Q288 404 279 395T258 385ZM158 385Q135 385 135 406Q135 418 144 427T165 437Q188 437 188 416Q188 404 179 395T158 385Z" />
<glyph unicode="&#xf0;" glyph-name="eth" horiz-adv-x="368" d="M127 -5Q94 -5 77 28Q63 53 63 90Q63 122 72 155Q89 214 144 266Q203 322 261 322Q310 322 310 264Q310 250 308 235T299 202Q326 268 326 344Q326 427 296 493Q293 492 275 485T222 464Q162 439
157 439Q146 439 146 450Q146 459 158 465L188 477Q217 488 242 497T288 512Q242 598 169 598Q166 598 162 598T151 596Q145 595 141 595T133 594Q122 594 122 601Q122 621 180 621Q285 621 333 523Q363 530 392 533T448 536Q460 536 460 529Q460 522 448 522Q444
521 437 521T420 520Q378 517 340 507Q351 479 356 447T362 376Q362 305 343 238Q319 146 270 80Q209 -5 127 -5ZM132 2Q186 2 275 160Q305 213 305 262Q305 315 268 315Q229 315 182 252Q144 201 127 153Q107 93 107 48Q107 2 132 2Z" />
<glyph unicode="&#xf1;" glyph-name="ntilde" horiz-adv-x="326" d="M-3 -34L-4 -32Q32 46 89 184Q98 207 110 241T139 320H141Q151 312 158 312Q183 312 205 355V354Q205 352 161 247Q137 190 125 160T111 126Q225 331 293 331Q308 331 320 321Q332 311 332 295Q332
253 275 157Q218 61 218 26Q218 13 228 6T252 -1Q266 -1 281 5T306 18Q333 39 352 67T385 123T410 170Q413 175 416 174T417 167Q397 125 373 81T312 11Q299 2 284 -4T251 -10Q223 -10 206 5T188 51Q188 105 238 187Q289 271 289 293Q289 310 270 310H264Q242 310
204 260T112 111Q99 89 86 61T57 -3L55 -4Q43 2 34 2Q21 2 12 -14Q4 -31 -3 -34ZM214 385Q212 385 213 392Q218 412 228 428T261 445Q274 445 289 437T321 421T354 413Q371 413 378 422T388 439T394 448Q396 448 396 444T394 438Q389 416 374 401T344 385Q329 385
313 393T283 409T255 417Q238 417 231 409T220 393T214 385Z" />
<glyph unicode="&#xf2;" glyph-name="ograve" horiz-adv-x="323" d="M161 -9Q117 -9 94 29Q73 61 73 107Q73 186 123 254Q178 328 255 328Q294 328 315 301Q335 275 335 235Q335 217 332 198T321 158Q306 114 284 89L286 86Q296 79 310 79Q339 79 359 98T404 166Q405
170 408 170Q410 170 411 168T410 161Q389 117 366 94T311 71Q291 71 280 82Q270 64 258 49T231 21Q197 -9 161 -9ZM168 -1Q221 -1 272 80Q272 83 275 86Q257 116 257 143Q257 144 257 147T258 157Q259 168 262 179T272 201Q287 225 308 225H317Q321 224 323 224T326
224Q326 314 269 314Q221 314 178 256Q143 210 128 153Q119 122 119 88Q119 -1 168 -1ZM301 388Q301 385 291 390Q267 402 239 415T189 441T160 457Q156 460 161 468T173 477Q179 477 201 462T243 432Q251 427 264 417T289 399T301 388Z" />
<glyph unicode="&#xf3;" glyph-name="oacute" horiz-adv-x="323" d="M161 -9Q117 -9 94 29Q73 61 73 107Q73 186 123 254Q178 328 255 328Q294 328 315 301Q335 275 335 235Q335 217 332 198T321 158Q306 114 284 89L286 86Q296 79 310 79Q339 79 359 98T404 166Q405
170 408 170Q410 170 411 168T410 161Q389 117 366 94T311 71Q291 71 280 82Q270 64 258 49T231 21Q197 -9 161 -9ZM168 -1Q221 -1 272 80Q272 83 275 86Q257 116 257 143Q257 144 257 147T258 157Q259 168 262 179T272 201Q287 225 308 225H317Q321 224 323 224T326
224Q326 314 269 314Q221 314 178 256Q143 210 128 153Q119 122 119 88Q119 -1 168 -1ZM180 388Q180 390 191 398T217 417T238 432Q258 446 280 461T308 477Q314 477 320 469T321 457Q315 453 293 441T242 416T190 390Q180 385 180 388Z" />
<glyph unicode="&#xf4;" glyph-name="ocircumflex" horiz-adv-x="323" d="M161 -9Q117 -9 94 29Q73 61 73 107Q73 186 123 254Q178 328 255 328Q294 328 315 301Q335 275 335 235Q335 217 332 198T321 158Q306 114 284 89L286 86Q296 79 310 79Q339 79 359 98T404
166Q405 170 408 170Q410 170 411 168T410 161Q389 117 366 94T311 71Q291 71 280 82Q270 64 258 49T231 21Q197 -9 161 -9ZM168 -1Q221 -1 272 80Q272 83 275 86Q257 116 257 143Q257 144 257 147T258 157Q259 168 262 179T272 201Q287 225 308 225H317Q321 224
323 224T326 224Q326 314 269 314Q221 314 178 256Q143 210 128 153Q119 122 119 88Q119 -1 168 -1ZM357 382Q352 382 337 392T303 415T272 440Q247 424 220 406T178 384Q171 382 172 385Q173 387 183 394T208 410T230 426Q253 443 267 454T288 466Q292 467 296
466Q301 465 309 454T331 426Q336 420 344 411T359 395T365 385Q364 382 357 382Z" />
<glyph unicode="&#xf5;" glyph-name="otilde" horiz-adv-x="323" d="M161 -9Q117 -9 94 29Q73 61 73 107Q73 186 123 254Q178 328 255 328Q294 328 315 301Q335 275 335 235Q335 217 332 198T321 158Q306 114 284 89L286 86Q296 79 310 79Q339 79 359 98T404 166Q405
170 408 170Q410 170 411 168T410 161Q389 117 366 94T311 71Q291 71 280 82Q270 64 258 49T231 21Q197 -9 161 -9ZM168 -1Q221 -1 272 80Q272 83 275 86Q257 116 257 143Q257 144 257 147T258 157Q259 168 262 179T272 201Q287 225 308 225H317Q321 224 323 224T326
224Q326 314 269 314Q221 314 178 256Q143 210 128 153Q119 122 119 88Q119 -1 168 -1ZM169 385Q167 385 168 392Q173 412 183 428T216 445Q229 445 244 437T276 421T309 413Q326 413 333 422T343 439T349 448Q351 448 351 444T349 438Q344 416 329 401T299 385Q284
385 268 393T238 409T210 417Q193 417 186 409T175 393T169 385Z" />
<glyph unicode="&#xf6;" glyph-name="odieresis" horiz-adv-x="323" d="M161 -9Q117 -9 94 29Q73 61 73 107Q73 186 123 254Q178 328 255 328Q294 328 315 301Q335 275 335 235Q335 217 332 198T321 158Q306 114 284 89L286 86Q296 79 310 79Q339 79 359 98T404
166Q405 170 408 170Q410 170 411 168T410 161Q389 117 366 94T311 71Q291 71 280 82Q270 64 258 49T231 21Q197 -9 161 -9ZM168 -1Q221 -1 272 80Q272 83 275 86Q257 116 257 143Q257 144 257 147T258 157Q259 168 262 179T272 201Q287 225 308 225H317Q321 224
323 224T326 224Q326 314 269 314Q221 314 178 256Q143 210 128 153Q119 122 119 88Q119 -1 168 -1ZM313 385Q290 385 290 406Q290 418 299 427T320 437Q343 437 343 416Q343 404 334 395T313 385ZM213 385Q190 385 190 406Q190 418 199 427T220 437Q243 437 243
416Q243 404 234 395T213 385Z" />
<glyph unicode="&#xf7;" glyph-name="divide" horiz-adv-x="335" d="M210 209Q178 209 178 242Q178 274 211 274Q243 274 243 241Q243 209 210 209ZM64 151V153Q64 168 73 175H300V174Q300 157 292 151H64ZM167 55Q135 55 135 88Q135 120 168 120Q200 120 200
87Q200 55 167 55Z" />
<glyph unicode="&#xf8;" glyph-name="oslash" horiz-adv-x="323" d="M74 -81L119 3Q73 33 73 107Q73 186 123 254Q178 328 255 328Q272 328 288 322L328 397L340 396L297 316Q313 303 324 282T335 235Q335 217 332 198T321 158Q306 114 284 89L286 86Q296 79 310
79Q369 79 403 163H409L410 161Q371 71 311 71Q291 71 280 82Q270 64 258 49T231 21Q197 -9 161 -9Q154 -9 145 -8T128 -3L87 -81H74ZM130 25L283 313Q279 314 276 314T268 315Q221 315 177 256Q143 209 128 153Q119 120 119 88Q119 69 121 53T130 25ZM168 -1Q221
-1 272 80Q272 83 275 86Q257 116 257 143Q257 144 257 147T258 157Q259 168 262 179T272 201Q287 225 308 225Q310 225 312 225T317 224H326Q326 255 317 276T293 308L137 16Q139 10 149 5T168 -1Z" />
<glyph unicode="&#xf9;" glyph-name="ugrave" horiz-adv-x="336" d="M99 -6Q74 -6 59 11Q45 28 45 52Q45 74 58 110T97 196Q108 218 125 249T168 322H170Q177 317 186 317Q207 317 234 338L236 336Q221 319 184 253Q172 232 162 214T141 180Q82 79 82 32Q82 5
107 5Q163 5 262 180Q276 205 295 242T339 328H341Q348 325 354 323T366 321Q388 321 397 341L400 340L322 189Q253 57 253 22Q253 4 270 4Q282 4 299 14T336 45Q360 73 377 98T418 168Q421 173 424 173Q430 173 424 163Q406 129 386 96T336 33Q298 -5 269 -5Q243
-5 230 8T216 50Q216 74 226 103Q159 -6 99 -6ZM353 388Q353 385 343 390Q319 402 291 415T241 441T212 457Q208 460 213 468T225 477Q231 477 253 462T295 432Q303 427 316 417T341 399T353 388Z" />
<glyph unicode="&#xfa;" glyph-name="uacute" horiz-adv-x="336" d="M99 -6Q74 -6 59 11Q45 28 45 52Q45 74 58 110T97 196Q108 218 125 249T168 322H170Q177 317 186 317Q207 317 234 338L236 336Q221 319 184 253Q172 232 162 214T141 180Q82 79 82 32Q82 5
107 5Q163 5 262 180Q276 205 295 242T339 328H341Q348 325 354 323T366 321Q388 321 397 341L400 340L322 189Q253 57 253 22Q253 4 270 4Q282 4 299 14T336 45Q360 73 377 98T418 168Q421 173 424 173Q430 173 424 163Q406 129 386 96T336 33Q298 -5 269 -5Q243
-5 230 8T216 50Q216 74 226 103Q159 -6 99 -6ZM232 388Q232 390 243 398T269 417T290 432Q310 446 332 461T360 477Q366 477 372 469T373 457Q367 453 345 441T294 416T242 390Q232 385 232 388Z" />
<glyph unicode="&#xfb;" glyph-name="ucircumflex" horiz-adv-x="336" d="M99 -6Q74 -6 59 11Q45 28 45 52Q45 74 58 110T97 196Q108 218 125 249T168 322H170Q177 317 186 317Q207 317 234 338L236 336Q221 319 184 253Q172 232 162 214T141 180Q82 79 82 32Q82
5 107 5Q163 5 262 180Q276 205 295 242T339 328H341Q348 325 354 323T366 321Q388 321 397 341L400 340L322 189Q253 57 253 22Q253 4 270 4Q282 4 299 14T336 45Q360 73 377 98T418 168Q421 173 424 173Q430 173 424 163Q406 129 386 96T336 33Q298 -5 269 -5Q243
-5 230 8T216 50Q216 74 226 103Q159 -6 99 -6ZM409 382Q404 382 389 392T355 415T324 440Q299 424 272 406T230 384Q223 382 224 385Q225 387 235 394T260 410T282 426Q305 443 319 454T340 466Q344 467 348 466Q353 465 361 454T383 426Q388 420 396 411T411
395T417 385Q416 382 409 382Z" />
<glyph unicode="&#xfc;" glyph-name="udieresis" horiz-adv-x="336" d="M99 -6Q74 -6 59 11Q45 28 45 52Q45 74 58 110T97 196Q108 218 125 249T168 322H170Q177 317 186 317Q207 317 234 338L236 336Q221 319 184 253Q172 232 162 214T141 180Q82 79 82 32Q82
5 107 5Q163 5 262 180Q276 205 295 242T339 328H341Q348 325 354 323T366 321Q388 321 397 341L400 340L322 189Q253 57 253 22Q253 4 270 4Q282 4 299 14T336 45Q360 73 377 98T418 168Q421 173 424 173Q430 173 424 163Q406 129 386 96T336 33Q298 -5 269 -5Q243
-5 230 8T216 50Q216 74 226 103Q159 -6 99 -6ZM365 385Q342 385 342 406Q342 418 351 427T372 437Q395 437 395 416Q395 404 386 395T365 385ZM265 385Q242 385 242 406Q242 418 251 427T272 437Q295 437 295 416Q295 404 286 395T265 385Z" />
<glyph unicode="&#xfd;" glyph-name="yacute" horiz-adv-x="365" d="M2 -239Q-55 -239 -55 -195Q-55 -146 27 -103Q37 -98 59 -91T116 -74Q140 -68 159 -63T193 -52Q198 -38 206 -19T222 26Q227 39 232 58T247 104Q256 130 270 161T305 226Q295 214 282 195T251
149Q203 75 186 55Q137 -5 97 -5Q71 -5 54 12Q38 31 38 56Q38 101 71 158Q76 166 91 188T133 250Q166 298 166 319Q166 330 153 330Q141 330 130 322Q118 314 116 303L114 301H111L109 302Q111 315 126 326Q140 336 154 339Q159 340 164 340T175 341Q212 341 212
312Q212 273 145 182Q82 94 82 37Q82 6 107 6Q147 6 247 160Q331 290 386 330Q412 350 426 350Q437 350 437 339Q437 328 413 320Q358 304 321 241Q307 216 296 187T280 124Q276 105 274 86T268 48Q264 29 260 11T249 -28Q380 32 445 164Q448 169 450 169Q455 169
452 161Q419 92 368 42T245 -39Q220 -101 188 -142T96 -215Q51 -239 2 -239ZM8 -230Q118 -230 187 -67Q172 -72 153 -78T111 -91Q98 -95 78 -101T32 -118Q20 -125 9 -133T-13 -153Q-38 -180 -38 -202Q-38 -230 8 -230ZM246 388Q246 390 257 398T283 417T304 432Q324
446 346 461T374 477Q380 477 386 469T387 457Q381 453 359 441T308 416T256 390Q246 385 246 388Z" />
<glyph unicode="&#xfe;" glyph-name="thorn" horiz-adv-x="290" d="M-209 -258Q-231 -258 -252 -242Q-272 -226 -278 -203L-277 -201L-272 -199H-270Q-258 -245 -225 -245Q-186 -245 -127 -180Q-104 -155 -84 -131T-51 -80Q-1 15 45 111T141 303Q218 448 280 519T389
591Q409 591 409 573Q409 556 390 551Q383 551 369 548Q342 545 321 527Q299 509 265 462T184 338Q140 264 113 211T75 125Q177 317 260 317Q321 317 321 241Q321 155 255 80Q187 3 102 -3Q120 -6 139 -6Q288 -6 372 164L374 165L378 164V162Q342 86 283 39Q217
-12 139 -12Q99 -12 81 0Q58 14 58 53Q52 34 44 10T23 -44Q10 -77 -1 -99T-20 -134Q-108 -258 -209 -258ZM95 3Q129 3 178 61Q217 105 239 148Q279 228 279 282Q279 311 255 311Q199 311 130 205Q66 108 66 45Q66 3 95 3Z" />
<glyph unicode="&#xff;" glyph-name="ydieresis" horiz-adv-x="365" d="M2 -239Q-55 -239 -55 -195Q-55 -146 27 -103Q37 -98 59 -91T116 -74Q140 -68 159 -63T193 -52Q198 -38 206 -19T222 26Q227 39 232 58T247 104Q256 130 270 161T305 226Q295 214 282 195T251
149Q203 75 186 55Q137 -5 97 -5Q71 -5 54 12Q38 31 38 56Q38 101 71 158Q76 166 91 188T133 250Q166 298 166 319Q166 330 153 330Q141 330 130 322Q118 314 116 303L114 301H111L109 302Q111 315 126 326Q140 336 154 339Q159 340 164 340T175 341Q212 341 212
312Q212 273 145 182Q82 94 82 37Q82 6 107 6Q147 6 247 160Q331 290 386 330Q412 350 426 350Q437 350 437 339Q437 328 413 320Q358 304 321 241Q307 216 296 187T280 124Q276 105 274 86T268 48Q264 29 260 11T249 -28Q380 32 445 164Q448 169 450 169Q455 169
452 161Q419 92 368 42T245 -39Q220 -101 188 -142T96 -215Q51 -239 2 -239ZM8 -230Q118 -230 187 -67Q172 -72 153 -78T111 -91Q98 -95 78 -101T32 -118Q20 -125 9 -133T-13 -153Q-38 -180 -38 -202Q-38 -230 8 -230ZM379 385Q356 385 356 406Q356 418 365 427T386
437Q409 437 409 416Q409 404 400 395T379 385ZM279 385Q256 385 256 406Q256 418 265 427T286 437Q309 437 309 416Q309 404 300 395T279 385Z" />
<glyph unicode="&#x2013;" glyph-name="endash" d="M505 201L101 203V229L103 230L507 229V203L505 201Z" />
<glyph unicode="&#x2014;" glyph-name="emdash" horiz-adv-x="642" d="M629 207L107 208V229L108 230L630 229V208L629 207Z" />
<glyph unicode="&#x2018;" glyph-name="quoteleft" horiz-adv-x="174" d="M55 330Q37 330 26 347Q16 361 16 382Q16 420 40 456Q51 475 66 488T97 508Q107 512 113 514T124 516Q136 516 136 510Q136 508 128 507Q87 500 58 465Q29 428 29 387Q44 405 64 405Q79
405 87 394Q96 384 96 370Q96 355 83 342Q71 330 55 330Z" />
<glyph unicode="&#x2019;" glyph-name="quoteright" horiz-adv-x="172" d="M132 334Q119 334 119 340Q119 342 128 343Q170 351 198 385Q226 420 226 463Q213 445 191 445Q177 445 169 456Q160 467 160 480Q160 496 173 508Q185 520 201 520Q219 520 230 503Q239
488 239 468Q239 429 216 394Q192 357 158 342Q139 334 132 334Z" />
<glyph unicode="&#x201a;" glyph-name="quotesinglbase" horiz-adv-x="154" d="M105 -99Q102 -99 102 -94Q102 -94 102 -93T103 -89Q104 -84 104 -73T105 -46Q105 -40 105 -31T104 -10V27Q104 39 104 46T105 57Q110 73 127 73Q140 73 139 63V61Q134 9 128 -29T112
-92Q109 -99 105 -99Z" />
<glyph unicode="&#x201c;" glyph-name="quotedblleft" horiz-adv-x="282" d="M182 358Q167 358 156 369Q145 379 145 395Q145 465 204 489Q221 496 232 496Q244 496 244 491Q244 488 236 488Q167 479 157 415Q172 433 191 433Q205 433 214 422Q223 412 223 397Q223
382 210 370Q198 358 182 358ZM53 358Q38 358 27 369Q16 379 16 395Q16 465 75 489Q92 496 103 496Q115 496 115 491Q115 488 107 488Q38 479 28 415Q43 433 62 433Q76 433 85 422Q94 412 94 397Q94 382 81 370Q69 358 53 358Z" />
<glyph unicode="&#x201d;" glyph-name="quotedblright" horiz-adv-x="280" d="M261 355Q248 355 248 361Q248 363 257 364Q325 372 335 436Q322 418 301 418Q287 418 278 430Q269 441 269 454Q269 469 282 481Q294 493 310 493Q326 493 336 482Q347 472 347 456Q347
385 288 363Q269 355 261 355ZM132 355Q119 355 119 361Q119 363 128 364Q196 372 206 436Q193 418 172 418Q158 418 149 430Q140 441 140 454Q140 469 153 481Q165 493 181 493Q197 493 207 482Q218 472 218 456Q218 385 159 363Q140 355 132 355Z" />
<glyph unicode="&#x201e;" glyph-name="quotedblbase" horiz-adv-x="245" d="M200 -99Q196 -99 196 -94Q196 -94 196 -93T197 -89Q199 -84 199 -73T199 -46Q199 -40 199 -31T198 -10V27Q198 39 198 46T199 57Q204 73 221 73Q235 73 233 63V61Q228 9 222 -29T206
-92Q203 -99 200 -99ZM105 -99Q102 -99 102 -94Q102 -94 102 -93T103 -89Q104 -84 104 -73T105 -46Q105 -40 105 -31T104 -10V27Q104 39 104 46T105 57Q110 73 127 73Q140 73 139 63V61Q134 9 128 -29T112 -92Q109 -99 105 -99Z" />
<glyph unicode="&#x2022;" glyph-name="bullet" horiz-adv-x="600" d="M294 158Q259 158 230 175T183 221T165 286Q165 322 182 351T228 397T294 414Q333 414 362 396T408 349T425 286Q425 250 408 221T361 175T294 158Z" />
<glyph unicode="&#x2039;" glyph-name="guilsinglleft" horiz-adv-x="252" d="M206 84Q199 84 131 126Q100 145 81 158T53 177Q46 183 46 200Q46 218 53 225Q58 230 77 248T131 298Q200 361 201 361Q205 361 205 350Q205 337 199 329Q195 324 186 313T160 283Q146
267 130 250T96 212L199 111Q213 97 213 91Q213 84 206 84Z" />
<glyph unicode="&#x203a;" glyph-name="guilsinglright" horiz-adv-x="252" d="M59 84Q52 84 52 91Q52 97 66 111L169 212L105 283Q98 291 89 302T66 329Q60 337 60 350Q60 361 64 361L66 360L162 271Q171 264 183 253T212 225Q219 218 219 200Q219 183 212 177Q200
167 134 126Q67 84 59 84Z" />
</font>
</defs>
</svg>
