<?xml version="1.0" standalone="no"?>
<!DOCTYPE svg PUBLIC "-//W3C//DTD SVG 1.1//EN" "http://www.w3.org/Graphics/SVG/1.1/DTD/svg11.dtd">
<svg xmlns="http://www.w3.org/2000/svg">
<defs >
<font id="DancingScript" horiz-adv-x="497" ><font-face
    font-family="Dancing Script"
    units-per-em="1000"
    panose-1="0 0 0 0 0 0 0 0 0 0"
    ascent="920"
    descent="-280"
    alphabetic="0" />
<glyph unicode=" " horiz-adv-x="260" />
<glyph unicode="!" horiz-adv-x="260" d="M93 291Q110 333 131 388T176 502T224 609T272 689T314 720Q322 720 328 714T334 697Q334 683 320 646T281 555T226 440T162 317T98 199T40 102Q39 103 39 103T37 105Q47 150 57 187T78 250T93 291ZM11 -10Q-2 -10 -11
-4T-21 17Q-21 34 -2 46T37 58Q49 58 56 53T63 34Q63 19 47 5T11 -10Z" />
<glyph unicode="&quot;" horiz-adv-x="245" d="M268 576Q259 581 255 591T251 613Q251 634 260 659T283 702T312 720Q322 720 329 712T337 692Q309 663 296 634T268 576ZM148 576Q139 581 135 591T131 613Q131 634 140 659T163 702T192 720Q202 720 209 712T217
692Q189 663 176 634T148 576Z" />
<glyph unicode="#" horiz-adv-x="668" d="M102 -162Q119 -141 137 -92T175 25T212 170Q178 169 144 167T65 160L9 155Q11 181 40 195T117 217T225 225Q227 236 231 257T239 289Q208 287 176 285T103 279L46 274Q48 299 75 313T149 335T251 343Q274 449 290 534T318
675Q321 689 328 701T363 720Q360 703 350 647T324 512T292 344Q327 344 358 343T420 340Q443 447 459 533T488 675Q491 689 498 701T533 720Q530 707 524 671T507 583T485 468T460 338Q517 335 568 331T662 327Q635 304 610 300T561 295Q530 295 503 295T452 294Q449
279 444 256T437 218Q490 215 537 212T624 208Q597 185 572 181T524 176Q497 176 474 176T428 175Q406 64 386 -11T339 -124T272 -162Q290 -140 308 -91T346 27T383 172H257Q234 62 215 -12T169 -124T102 -162ZM394 221L410 293Q371 293 340 293T281 291L268 225Q300
225 332 224T394 221Z" />
<glyph unicode="$" horiz-adv-x="531" d="M135 -162Q146 -148 158 -121T184 -56Q135 -53 94 -36T27 14T1 95Q1 140 21 169T72 212T129 226Q102 197 88 162T74 93Q74 42 105 12T194 -24Q212 36 230 110T266 263Q233 283 202 304T150 357T129 433Q129 488 159 534T238
612T346 652Q349 664 352 677T364 702T396 720Q395 713 392 696T384 655Q451 655 474 626T497 551Q497 512 485 470T449 390Q431 394 423 406T414 432Q414 449 423 476T442 532T451 582Q451 605 435 618T379 631Q364 553 350 475T320 319Q355 301 387 279T440 224T461
143Q461 83 429 41T346 -26T235 -56Q216 -108 192 -135T135 -162ZM245 -24Q313 -17 352 20T392 113Q392 160 367 189T304 241Q284 139 270 72T245 -24ZM283 339Q300 421 315 496T341 627Q296 618 263 591T211 529T192 458Q192 414 219 387T283 339Z" />
<glyph unicode="%" horiz-adv-x="698" d="M78 -87Q101 -64 136 -12T214 110T301 260T385 417T458 562T508 675Q512 685 526 695T558 712T592 720Q587 706 567 665T516 564T452 439T382 307T316 187T263 97Q211 15 166 -36T78 -87ZM180 347Q137 347 118 379T98
455Q98 488 108 525T138 595T184 648T243 669Q281 669 304 641T327 565Q327 533 316 496T286 424T239 369T180 347ZM186 385Q204 385 220 403T248 450T268 512T275 573Q275 599 268 616T243 633Q221 633 204 614T176 564T159 503T153 447Q153 419 161 402T186 385ZM503
0Q460 0 441 32T421 108Q421 141 431 178T461 248T507 301T566 322Q604 322 627 294T650 218Q650 187 639 149T609 78T562 22T503 0ZM509 38Q527 38 543 56T571 103T591 165T598 226Q598 252 591 269T566 286Q544 286 527 267T499 217T482 156T476 101Q476 73 484
56T509 38Z" />
<glyph unicode="&amp;" horiz-adv-x="616" d="M192 -87Q132 -87 88 -62T21 4T-3 95Q-3 141 17 185T72 265T155 325T256 354Q217 386 199 428T180 512Q180 565 207 612T280 689T387 719Q441 719 468 692T496 613Q496 576 484 541T455 483T420 460Q409 460 399 469T383
492Q418 523 441 556T465 629Q465 660 449 679T397 699Q350 699 318 671T270 596T253 495Q253 471 257 444T274 391T311 344Q244 333 195 293T118 199T90 92Q90 59 102 26T143 -30T218 -53Q271 -53 320 -26T410 46T477 147T510 264Q489 263 472 261T433 256T379
245Q381 287 411 301T483 315Q513 315 540 311T591 303T636 298Q625 275 615 271T594 266Q577 266 563 266T536 265Q529 196 499 133T421 21T315 -58T192 -87Z" />
<glyph unicode="&apos;" horiz-adv-x="125" d="M148 576Q139 581 135 591T131 613Q131 634 140 659T163 702T192 720Q202 720 209 712T217 692Q189 663 174 633T148 576Z" />
<glyph unicode="(" horiz-adv-x="258" d="M142 -87Q118 -72 99 -32T68 66T57 189Q57 285 80 366T139 513T218 625T298 695T364 720Q298 673 251 609T173 469T129 316T115 162Q115 87 127 29T162 -66Q158 -74 153 -79T142 -87Z" />
<glyph unicode=")" horiz-adv-x="268" d="M-39 -87Q-46 -85 -51 -78T-61 -63Q9 -14 67 64T160 245T196 475Q196 537 183 598T125 720Q152 713 180 678T228 581T247 435Q247 345 225 266T167 122T92 10T17 -62T-39 -87Z" />
<glyph unicode="*" horiz-adv-x="391" d="M355 404Q342 419 317 456T266 532Q241 483 215 446T163 408Q180 433 190 452T210 492T231 539Q186 539 154 544T116 572Q141 574 168 575T233 577Q212 612 199 642T185 692Q185 701 190 707T199 718Q217 680 231 650T267
588Q290 637 309 673T362 718Q353 693 334 656T295 577Q315 578 341 579T391 575T433 551L303 539Q315 521 327 504T347 463T355 404Z" />
<glyph unicode="+" horiz-adv-x="408" d="M151 -11Q156 21 158 46T161 96T162 155Q131 155 107 155T58 152T3 144Q13 171 57 181T162 193V243Q162 264 167 292T191 346Q193 326 196 284T200 193Q251 192 295 189T360 184Q335 166 307 161T257 155H200Q199 112
195 77T180 19T151 -11Z" />
<glyph unicode="," horiz-adv-x="196" d="M7 -88Q-2 -83 -6 -73T-10 -51Q-10 -31 -1 -6T22 38T51 56Q61 56 68 48T76 28Q48 -1 35 -30T7 -88Z" />
<glyph unicode="-" horiz-adv-x="484" d="M36 144Q42 159 58 168T100 183T157 191T225 193Q252 193 277 192T324 190T364 187T393 184Q354 159 320 157T250 155Q223 155 197 155T149 155Q132 155 114 154T77 150T36 144Z" />
<glyph unicode="." horiz-adv-x="214" d="M40 -10Q27 -10 18 -4T8 17Q8 28 17 37T39 52T66 58Q78 58 85 53T92 34Q92 24 85 14T65 -3T40 -10Z" />
<glyph unicode="/" horiz-adv-x="330" d="M-68 -162Q-48 -142 -22 -97T35 12T98 148T161 298T221 445T273 576T312 675Q316 685 330 695T362 712T396 720Q391 708 376 671T339 581T291 465T238 337T186 211T140 101T107 22Q70 -67 23 -114T-68 -162Z" />
<glyph unicode="0" horiz-adv-x="630" d="M244 -87Q178 -87 136 -51T74 45T53 174Q53 242 70 317T119 464T195 593T295 685T415 720Q476 720 520 690T588 604T613 474Q613 393 595 312T544 160T465 33T363 -55T244 -87ZM258 -53Q303 -53 344 -18T421 76T482 207T522
354T537 495Q537 552 525 596T487 667T416 693Q371 693 333 666T263 594T209 492T169 374T145 256T137 153Q137 60 169 4T258 -53Z" />
<glyph unicode="1" horiz-adv-x="365" d="M30 -87Q12 -87 -10 -77T-46 -46Q-38 -47 -30 -47T-14 -48Q12 -48 40 -45T94 -37Q112 5 128 66T160 199T188 341T214 476T238 584Q181 544 157 531T123 518Q111 518 105 523T98 547Q117 557 152 583T230 645T308 720Q313
716 315 707T317 689Q317 664 308 636T294 577Q284 508 269 426T235 261T192 102T142 -30Q153 -28 163 -28T182 -27Q220 -27 246 -37T279 -83Q259 -81 240 -80T200 -78Q169 -78 140 -80T84 -84T30 -87Z" />
<glyph unicode="2" horiz-adv-x="559" d="M398 -87Q369 -87 331 -76T251 -48T163 -11Q132 -31 104 -42T49 -54Q19 -54 0 -39T-19 0Q-19 23 -1 35T56 48Q78 48 104 44T161 34Q207 75 254 135T340 266T404 411T429 551Q429 626 399 659T323 693Q279 693 249 667T202
594T186 491Q186 471 188 457T198 423Q197 423 196 423T193 423Q159 432 141 451T123 512Q123 566 150 613T226 690T339 720Q389 720 424 696T479 630T499 538Q499 488 486 438T452 341Q426 283 387 225T303 114T209 23Q283 7 335 -3T424 -14Q443 -14 459 -9T500
11Q487 -40 463 -63T398 -87ZM48 -27Q64 -27 83 -19T123 4Q100 12 81 17T47 22Q27 22 20 14T12 -2Q12 -13 23 -20T48 -27Z" />
<glyph unicode="3" horiz-adv-x="510" d="M170 -87Q109 -87 73 -65T22 -9T6 55Q6 81 15 105T42 146T87 163Q92 163 96 163T105 162Q91 150 82 123T73 69Q73 38 86 10T123 -37T179 -55Q219 -55 256 -27T317 51T341 168Q341 207 331 245T296 311T230 351Q279 373
315 414T372 505T392 596Q392 649 365 671T302 693Q274 693 248 681T205 644T188 585Q188 570 192 553T204 518Q199 508 187 499T164 490Q152 490 144 502T131 533T127 569Q127 618 155 651T226 702T314 720Q354 720 389 706T446 664T468 591Q468 558 455 522T417
453T362 396T293 361Q351 347 383 314T429 242T443 168Q443 121 423 76T365 -6T279 -65T170 -87Z" />
<glyph unicode="4" horiz-adv-x="478" d="M297 -87Q263 -84 242 -73T220 -40Q220 -40 222 -25T230 27T248 130Q249 136 255 165T270 236Q248 236 226 236T187 237Q161 237 138 237T95 235T56 231T22 227T-8 221Q-8 235 -4 245T10 263Q50 310 107 364T226 477T342
597T432 720Q436 719 439 713T443 694Q443 671 424 639Q419 616 408 565T382 442T352 288Q362 288 372 288T394 288Q413 288 427 289T454 294Q435 268 409 252T364 235Q359 235 353 235T342 235Q339 220 336 205T331 175Q327 152 321 115T310 37T301 -38T297 -87ZM80
288Q102 291 127 292T181 293Q210 293 235 293T282 291Q296 355 312 424T345 545Q308 508 265 469T181 391T107 317Q99 309 93 302T80 288Z" />
<glyph unicode="5" horiz-adv-x="483" d="M166 -87Q101 -87 64 -65T12 -10T-3 54Q-3 80 6 105T33 146T78 163Q83 163 87 163T96 162Q82 150 73 123T64 65Q64 35 74 8T106 -37T166 -55Q206 -55 237 -35T289 19T322 93T334 174Q334 215 321 250T278 308T200 330Q183
330 159 327T108 319Q112 347 122 388T145 477T171 571T196 655T212 713Q242 706 268 703T318 700Q359 700 396 706T473 720Q475 712 476 705T477 693Q477 664 458 648T411 625T354 618Q317 618 291 624T245 631Q236 631 232 628T222 611Q214 592 204 561T185 495T167
428T153 374T146 348Q167 353 189 355T233 358Q301 358 344 334T409 266T431 169Q431 97 397 39T303 -53T166 -87Z" />
<glyph unicode="6" horiz-adv-x="561" d="M253 -87Q179 -87 134 -54T69 35T49 160Q49 228 66 305T117 455T198 589T305 684T434 720Q475 720 501 706T528 662Q528 648 519 635T482 614Q482 622 483 627T484 642Q484 664 474 680T429 697Q381 697 339 663T263 571T202
446T160 309Q193 340 238 357T329 374Q379 374 420 354T487 291T512 180Q512 104 479 44T388 -51T253 -87ZM258 -55Q296 -55 327 -34T380 23T413 100T425 186Q425 240 408 274T362 324T300 340Q240 340 205 312T154 238T138 140Q138 112 143 79T160 15T197 -35T258
-55Z" />
<glyph unicode="7" horiz-adv-x="403" d="M95 -87Q82 -87 72 -76T61 -42Q61 -13 79 39T128 158T195 299Q177 299 152 298T101 294T59 289Q60 319 81 332T135 350T200 354Q206 354 212 354T224 354Q264 429 309 502T389 635Q371 635 342 634T282 631T228 629Q170
629 148 642T126 676Q126 694 139 718Q167 714 191 709T246 701T322 698Q369 698 414 703T490 718Q483 706 467 683T436 643Q399 588 358 514T276 351Q304 350 327 348T375 346Q389 346 395 347T407 349Q391 325 372 312T328 298Q314 298 296 298T252 299Q235 258
214 208T178 106T163 11Q163 -2 165 -12T175 -27Q159 -61 134 -74T95 -87Z" />
<glyph unicode="8" horiz-adv-x="527" d="M204 -87Q153 -87 120 -72T66 -31T38 23T29 77Q29 120 48 155T98 220T168 279T245 336Q217 367 191 400T149 471T133 554Q133 614 161 650T232 702T318 719Q386 719 427 683T469 575Q469 526 450 487T398 414T326 349Q357
316 386 281T433 207T452 122Q452 58 416 11T323 -61T204 -87ZM214 -48Q251 -48 286 -28T346 30T370 118Q370 174 340 219T271 307Q225 274 184 240T116 167T90 80Q90 41 108 12T154 -32T214 -48ZM300 379Q347 419 379 466T411 576Q411 635 384 663T319 692Q297
692 272 680T229 641T211 567Q211 511 237 466T300 379Z" />
<glyph unicode="9" horiz-adv-x="566" d="M183 -87Q142 -87 115 -73T87 -27Q87 -13 96 -1T131 19Q131 12 131 7T130 -6Q130 -28 141 -46T187 -64Q235 -64 275 -30T349 62T405 187T442 324Q411 293 367 276T276 259Q225 259 182 280T112 347T86 462Q86 535 117
593T205 686T336 720Q414 720 461 685T528 590T549 458Q549 390 533 315T485 169T410 40T308 -52T183 -87ZM304 293Q384 293 420 342T457 469Q457 506 452 544T433 615T395 668T332 688Q295 688 266 668T216 614T184 539T173 456Q173 399 191 363T240 310T304 293Z"
/>
<glyph unicode=":" horiz-adv-x="216" d="M102 240Q89 240 80 246T70 267Q70 284 89 296T128 308Q140 308 147 303T154 284Q154 269 138 255T102 240ZM42 -10Q29 -10 20 -4T10 17Q10 34 29 46T68 58Q80 58 87 53T94 34Q94 19 78 5T42 -10Z" />
<glyph unicode=";" horiz-adv-x="213" d="M18 -88Q9 -83 5 -73T1 -51Q1 -31 10 -6T33 38T62 56Q72 56 79 48T87 28Q59 -1 46 -30T18 -88ZM102 240Q89 240 80 246T70 267Q70 284 89 296T128 308Q140 308 147 303T154 284Q154 269 138 255T102 240Z" />
<glyph unicode="&lt;" horiz-adv-x="310" d="M180 44Q162 44 137 56T86 86T43 123T21 158Q54 173 90 199T158 256T211 316Q213 314 214 307T216 294Q216 274 200 254T157 214T102 177T47 147Q70 131 89 118T136 91T209 60Q205 55 198 50T180 44Z" />
<glyph unicode="=" horiz-adv-x="503" d="M52 206Q60 226 86 236T153 251T241 255Q277 255 310 254T369 250T409 246Q384 228 356 223T306 217H205Q175 217 152 217T106 214T52 206ZM52 106Q60 126 86 136T153 151T241 155Q277 155 310 154T369 150T409 146Q384
128 356 123T306 117H205Q175 117 152 117T106 114T52 106Z" />
<glyph unicode="&gt;" horiz-adv-x="324" d="M97 44Q87 44 80 49T68 60Q114 78 141 91T188 117T230 147Q205 160 176 177T120 213T78 253T61 294Q61 299 63 306T66 316Q87 287 119 256T187 199T256 158Q252 143 234 124T191 86T141 56T97 44Z" />
<glyph unicode="?" horiz-adv-x="437" d="M233 124Q214 134 208 143T202 171Q202 219 221 258T269 332T326 404T373 483T393 579Q393 635 371 663T314 692Q279 692 244 664T186 587T163 480Q163 463 165 450T170 423Q132 429 120 449T108 500Q108 557 134 607T208
688T318 720Q380 720 416 686T453 587Q453 543 438 509T398 446T346 386T295 320T258 237Q248 203 246 176T233 124ZM192 -10Q179 -10 170 -4T160 16Q160 34 179 46T218 58Q230 58 237 53T244 36Q244 19 228 5T192 -10Z" />
<glyph unicode="@" horiz-adv-x="583" d="M216 -121Q141 -121 94 -91T25 -13T3 88Q3 145 26 200T91 299T192 369T322 395Q395 395 441 369T510 301T533 214Q533 177 520 141T482 75T427 27T359 9Q326 9 311 25T295 68Q295 74 295 78T297 88Q263 42 230 19T166
-5Q141 -5 124 11T107 61Q107 97 126 139T179 220T251 282T329 307Q360 307 381 291T402 247Q402 234 397 227T383 216T362 213Q364 219 365 226T366 240Q366 259 358 272T328 285Q300 285 271 261T217 201T177 127T162 60Q162 43 168 36T184 28Q203 28 226 46T272
93T316 151T352 202Q360 201 372 196T384 182Q384 173 373 154T350 113T338 69Q338 59 344 48T372 36Q404 36 433 61T482 126T501 208Q501 246 483 282T425 341T322 365Q258 365 206 341T117 275T59 185T39 84Q39 39 57 -2T115 -69T222 -96Q275 -96 330 -76T436
-11L442 -19Q404 -62 347 -91T216 -121Z" />
<glyph unicode="A" horiz-adv-x="592" d="M17 -87Q-5 -74 -11 -60T-17 -35Q-17 -7 3 41T58 150T135 278Q98 281 72 282T27 283H-8Q3 312 30 323T96 335Q113 335 131 333T168 328Q219 405 272 477T372 606T450 692Q479 720 498 720Q509 720 522 712T551 688Q541
680 526 646T493 559T458 445T427 319T404 196T395 94Q395 56 403 35T432 14Q458 14 491 50T563 162L573 152Q543 72 497 21T400 -30Q359 -30 341 6T322 104Q322 136 326 174T339 253Q295 260 259 264T191 273Q144 186 100 94T17 -87ZM346 288Q361 354 381 421T423
550T466 657Q435 638 395 590T309 472T217 319Q251 312 284 304T346 288Z" />
<glyph unicode="B" horiz-adv-x="608" d="M130 -87Q75 -87 47 -69T19 -7Q19 -4 24 -4Q31 -4 49 -9T118 -14Q204 -14 277 5T403 59T486 135T516 223Q516 264 493 289T433 327T351 344T264 349Q245 349 226 349T189 348Q166 267 144 185T99 26Q74 26 57 40T40 74Q40
86 45 102T54 131Q60 151 75 198T111 308T159 440T212 575T266 692Q224 685 196 672T151 649T128 638Q123 638 116 642T102 653T96 665Q146 686 200 703T333 720Q366 720 406 715T482 693T541 645T564 561Q564 512 543 478T488 421T414 385T335 366Q409 362 454
345T523 305T555 255T563 205Q563 147 533 100T454 18T347 -40T232 -75T130 -87ZM195 371Q250 373 304 383T404 417T476 477T504 569Q504 621 480 649T417 688T335 699Q330 699 326 699T316 698Q280 628 251 544T195 371Z" />
<glyph unicode="C" horiz-adv-x="534" d="M219 -87Q148 -87 105 -52T42 40T22 157Q22 236 46 316T111 468T206 597T317 686T433 719Q474 719 499 700T525 633Q525 604 515 568T488 498T451 442T409 420Q401 420 393 425T378 443Q393 460 411 485T447 539T474 595T485
644Q485 664 474 676T436 689Q393 689 347 654T257 561T178 430T123 283T102 140Q102 91 116 47T161 -25T243 -53Q296 -53 348 -23T445 56T515 162L529 152Q496 87 449 33T344 -54T219 -87Z" />
<glyph unicode="D" horiz-adv-x="653" d="M163 -87Q132 -87 104 -79T56 -42Q66 6 80 61T112 175T146 290T180 396T209 482T229 538Q232 546 239 561T256 593T279 620T307 632Q321 632 335 622Q304 550 273 463T212 284T159 103T119 -57Q133 -59 142 -60T162 -61Q226
-61 285 -32T396 49T487 167T547 308T569 457Q569 538 543 590T471 668T364 693Q299 693 247 667T165 597T135 498Q135 486 136 477T140 461Q107 461 94 477T80 517Q80 552 104 587T172 653T273 701T394 720Q484 720 538 684T618 585T643 446Q643 359 616 280T542
134T433 18T303 -59T163 -87Z" />
<glyph unicode="E" horiz-adv-x="498" d="M180 -87Q120 -87 76 -62T9 4T-15 95Q-15 141 5 185T60 265T143 325T244 354Q205 386 187 428T168 512Q168 565 194 612T268 689T374 719Q430 719 459 691T488 611Q488 574 475 539T444 482T408 460Q397 460 387 469T371
492Q406 523 430 557T455 631Q455 662 437 679T384 696Q338 696 306 669T258 596T241 495Q241 459 252 417T299 344Q232 333 183 293T106 199T78 92Q78 59 90 26T131 -30T206 -53Q259 -53 311 -23T408 56T478 162L492 152Q457 84 410 30T305 -55T180 -87Z" />
<glyph unicode="F" horiz-adv-x="482" d="M152 -87Q106 -83 95 -62T84 -8Q84 28 99 80T136 195T182 319Q170 318 157 317T123 313T71 305Q73 331 90 345T137 367T202 375Q230 452 259 525T318 660Q308 661 299 661T279 662Q215 662 180 649T132 609T119 540Q119
518 122 500T132 461Q98 467 82 487T66 539Q66 591 103 630T202 692T341 715Q394 715 443 708T540 700Q561 700 578 702T614 710Q577 668 552 654T501 640Q478 640 442 646T359 657Q346 624 330 578T297 479T263 374Q313 371 357 365T438 358Q430 346 420 340T390
330T338 326T248 323Q242 302 233 273T217 218T206 180Q184 103 169 36T152 -87Z" />
<glyph unicode="G" horiz-adv-x="554" d="M209 -87Q157 -87 115 -58T47 27T22 161Q22 238 46 317T111 468T206 596T317 686T433 719Q471 719 494 703T527 662T537 606Q537 571 525 538T493 482T449 460Q441 460 433 465T418 483Q432 493 450 519T482 577T496 636Q496
659 483 674T436 689Q393 689 347 654T257 561T178 430T123 283T102 141Q102 50 140 -1T236 -53Q275 -53 310 -25T372 49T415 148T436 250Q399 258 376 260T333 263Q320 263 306 263T272 262Q279 291 296 302T340 314Q368 314 398 305T458 284T509 267L502 235Q483
185 471 148T453 82T444 31T441 -9Q441 -29 442 -48T445 -87Q429 -80 417 -71T398 -47T391 -15Q391 -4 392 7T398 31Q362 -19 315 -53T209 -87Z" />
<glyph unicode="H" horiz-adv-x="617" d="M55 -87Q61 -52 69 -16T89 66T120 172T165 314Q149 313 133 311T99 307Q100 332 122 346T182 368Q189 389 196 411T212 458T229 508T247 562T267 619Q271 630 276 646T281 678Q281 686 279 689T267 692Q243 692 221 673T181
623T153 561T143 504Q143 495 144 486T148 470Q115 470 102 486T88 527Q88 561 108 595T159 657T225 703T288 720Q315 720 324 705T334 672Q334 661 332 650T326 629L248 375Q262 376 276 376T306 377Q353 377 395 375T476 368Q496 432 515 494T551 602T577 668Q581
676 588 688T606 710T632 720Q618 683 600 626T564 500T527 364Q547 363 565 362T602 360Q580 337 559 333T518 328Q509 291 501 257T487 191Q469 106 462 46T454 -51Q454 -63 454 -71T456 -87Q417 -83 402 -65T387 -9Q387 17 393 56T411 142Q419 172 433 221T464
327Q403 327 362 326T291 324T231 320Q213 262 195 205T162 101T137 20T124 -23Q114 -57 93 -72T55 -87Z" />
<glyph unicode="I" horiz-adv-x="459" d="M-38 -88Q-34 -51 -12 -35T47 -13T125 -8Q143 31 161 87T195 209T228 341T258 471T284 582T307 661Q255 660 219 658T151 652T82 641Q89 679 137 698T286 718Q336 718 387 714T482 706T548 697Q524 673 498 668T451 662Q420
662 393 662T342 661Q338 640 330 596T311 494T288 375T265 258T243 162Q227 98 207 54T159 -9Q211 -12 270 -19T376 -28Q347 -57 316 -64T263 -71Q223 -71 185 -71T109 -73T35 -77T-38 -88Z" />
<glyph unicode="J" horiz-adv-x="411" d="M77 -86Q54 -86 29 -77T-14 -40T-31 44Q-31 83 -22 121T4 186T45 212Q57 212 73 204Q55 158 46 118T37 44Q37 -1 53 -26T100 -51Q126 -51 146 -29T189 54Q205 98 222 160T257 294T291 436T320 567T340 667Q291 667 258
665T197 659T138 647Q143 681 181 699T301 718Q341 718 382 714T457 706T510 697Q499 678 474 673T433 668Q413 668 396 668T362 667Q373 659 378 645T383 620Q383 607 376 563T356 455T325 321T286 182T241 61Q215 1 189 -30T135 -74T77 -86Z" />
<glyph unicode="K" horiz-adv-x="590" d="M495 -87Q473 -87 444 -61T383 8T319 101T261 202T216 291L119 -23Q112 -46 97 -55T65 -67T30 -69Q43 -41 56 -5T88 82T132 206T191 380T273 619Q276 627 281 641T286 668Q286 679 281 685T262 692Q238 692 216 673T176
623T148 561T138 504Q138 485 143 470Q110 470 97 486T83 527Q83 561 103 595T154 657T220 703T283 720Q310 720 319 705T329 672Q329 661 327 650T321 629L237 357Q251 377 273 394T323 433Q368 469 419 517T518 618T596 720Q601 714 603 699T605 676Q605 645
580 608T513 532T423 454T327 381T241 322Q271 271 299 225T361 135T440 45T549 -54Q542 -67 527 -77T495 -87Z" />
<glyph unicode="L" horiz-adv-x="570" d="M397 -87Q361 -87 318 -72T228 -36T137 6Q112 -22 85 -37T26 -53Q-6 -53 -28 -38T-62 -3T-74 34Q-74 52 -58 65T-1 78Q25 78 56 72T122 57Q146 99 166 155T207 274T247 400Q201 415 175 444T148 507Q148 525 155 543T177
573T210 586Q203 576 200 557T197 524Q197 486 213 461T254 421Q274 481 295 534T343 630T400 696T469 720Q489 720 511 711T550 680T566 618Q566 584 552 545T509 470T435 412T329 388Q328 388 325 388T310 388Q290 327 268 264T220 145T166 44Q212 30 259 16T350
-8T431 -18Q452 -18 469 -14T502 -2Q486 -48 460 -67T397 -87ZM22 -24Q44 -24 63 -12T99 22Q68 35 39 43T-15 52Q-34 52 -41 47T-48 33Q-48 16 -29 -4T22 -24ZM316 407Q361 407 397 432T459 496T498 575T512 645Q512 674 501 684T476 695Q445 695 418 655T367 550T316
407Z" />
<glyph unicode="M" horiz-adv-x="763" d="M-17 -87Q-11 -73 16 -14T86 141T184 358T300 616Q303 623 306 634T310 657Q310 668 304 675T276 683Q234 683 207 655T166 584T152 501Q152 491 152 484T154 470Q135 470 124 483T107 516T101 552Q101 585 119 615T165
669T228 706T296 720Q329 720 351 702T385 635T397 496Q397 434 393 364T383 226T376 102Q392 163 421 232T486 369T557 498T620 602T661 666Q675 686 685 696T711 707Q725 707 743 700Q736 682 724 647T698 560Q682 499 666 422T637 264T615 114T607 -5Q607 -27
609 -39T614 -60T622 -87Q588 -87 570 -76T546 -41T540 25Q540 144 570 280T640 564Q611 527 580 471T517 349T457 218T406 96T372 3Q366 1 364 0T357 -1Q330 -1 322 31T313 121Q313 162 315 218T321 335T326 450T329 546Q329 566 329 579T327 602Q247 416 193
285T103 71T38 -49T-17 -87Z" />
<glyph unicode="N" horiz-adv-x="640" d="M46 -87Q58 -39 76 20T119 160T179 354T258 619Q260 624 262 636T265 660Q265 670 262 676T250 683Q226 683 205 665T168 618T143 560T134 505Q134 485 139 470Q106 470 93 486T79 527Q79 561 99 595T150 657T215 703T279
720Q309 720 328 695T360 625T380 524T395 408Q401 358 407 309T419 215T430 133T439 72Q446 119 459 178T489 302T524 428T557 541T584 627T600 671Q605 684 623 702T663 720Q646 674 625 608T581 464T538 306T501 150T475 14T464 -87Q433 -87 414 -69T386 -6Q381
20 374 65T358 167T340 283T323 402T307 508T295 589Q247 416 213 297T156 102T114 -15T80 -71T46 -87Z" />
<glyph unicode="O" horiz-adv-x="623" d="M213 -87Q156 -87 113 -57T46 30T21 161Q21 238 45 317T112 468T207 596T319 686T435 719Q454 719 469 716T495 707Q487 707 486 707T483 707Q431 707 378 673T277 580T191 449T131 298T109 147Q109 94 122 48T166 -25T243
-53Q299 -53 348 -19T436 75T504 206T548 356T564 505Q564 533 560 565T546 620T519 643Q501 643 480 621T440 564T405 494T384 429Q359 435 348 448T336 478Q336 505 354 537T401 600T461 650T517 670Q543 670 559 651T585 603T598 540T602 477Q602 368 578 279T512
121T419 7T315 -63T213 -87Z" />
<glyph unicode="P" horiz-adv-x="527" d="M87 -87Q62 -87 40 -73T18 -37Q18 -26 23 -11T32 18Q64 116 92 201T148 366T207 526T278 693Q240 686 211 673T163 649T139 638Q135 638 128 642T114 653T108 665Q134 676 169 689T246 711T329 720Q373 720 418 708T502
672T563 611T586 527Q586 475 563 438T502 375T420 334T333 310T255 299T205 296H195Q165 193 138 93T87 -87ZM199 312Q254 315 310 330T414 373T490 444T519 544Q519 598 494 632T427 682T338 699Q301 626 266 524T199 312Z" />
<glyph unicode="Q" horiz-adv-x="693" d="M516 -119Q470 -119 431 -94T356 -37Q332 -49 307 -56T256 -63Q222 -63 200 -53T167 -27T151 2T146 25Q146 42 162 59T219 77Q260 77 299 58T378 13Q423 53 457 115T515 248T551 387T564 509Q564 591 533 642T432 693Q374
693 324 659T234 566T164 437T120 289T104 144Q104 123 106 102T112 60Q81 60 65 80T42 131T35 199Q35 274 55 348T111 490T197 608T306 690T431 720Q527 720 580 655T634 477Q634 414 617 346T570 212T498 90T408 -4Q442 -23 478 -36T556 -50Q578 -50 588 -46T614
-38Q604 -73 587 -90T551 -113T516 -119ZM256 -38Q277 -38 296 -33T334 -17Q303 10 273 30T209 51Q186 51 179 42T172 24Q172 15 179 1T204 -26T256 -38Z" />
<glyph unicode="R" horiz-adv-x="577" d="M464 -121Q442 -121 413 -94T351 -22T288 76T230 182T185 277Q157 179 131 85T82 -87Q57 -87 37 -73T16 -37Q16 -26 21 -11T30 18Q55 97 79 167T126 302T173 431T225 560T283 695Q241 688 210 675T160 650T134 638Q130
638 123 642T109 653T103 665Q129 676 164 689T241 711T328 720Q371 720 415 710T497 677T558 619T581 533Q581 484 559 449T500 389T420 351T335 329T259 319T208 316Q239 263 267 213T328 114T406 14T515 -88Q509 -101 494 -111T464 -121ZM201 332Q255 335 310
349T412 390T486 457T514 554Q514 609 488 640T421 685T335 699Q301 630 267 534T201 332Z" />
<glyph unicode="S" horiz-adv-x="536" d="M203 -87Q149 -87 101 -68T24 -8T-6 92Q-6 144 14 173T65 214T122 226Q95 197 81 162T67 92Q67 55 83 23T134 -28T220 -48Q265 -48 308 -32T378 17T406 98Q406 141 384 172T328 227T254 273T181 319T124 376T102 453Q102
495 122 541T179 628T269 694T387 720Q446 720 469 692T492 620Q492 584 480 543T449 464T415 400Q397 404 390 415T382 443Q382 464 391 491T411 547T432 603T441 653Q441 673 429 684T385 696Q338 696 298 674T228 618T182 545T165 476Q165 439 186 413T242 365T314
322T387 274T442 213T464 126Q464 74 441 35T380 -32T295 -73T203 -87Z" />
<glyph unicode="T" horiz-adv-x="490" d="M187 -87Q142 -87 125 -67T108 -16Q108 13 120 53T145 130Q162 179 186 245T237 383T293 525T349 652Q280 651 234 649T150 644T69 632Q72 666 104 685T190 712T313 720Q382 720 436 715T539 704T635 698Q601 667 557
659T464 651Q453 651 441 651T417 652T393 652Q361 572 320 450T236 175Q222 122 211 80T193 3T186 -65Q186 -70 186 -76T187 -87Z" />
<glyph unicode="U" horiz-adv-x="706" d="M541 -99Q504 -99 482 -68T460 7Q460 21 462 44T469 98Q432 16 379 -35T253 -87Q189 -87 156 -48T123 49Q123 88 135 141T167 256T204 381T235 501T248 604Q248 692 192 692Q165 692 145 675T112 630T93 573T86 519Q86
505 88 492T94 470Q56 470 41 490T25 539Q25 570 40 602T81 660T142 703T216 720Q271 720 295 687T319 599Q319 562 310 518T287 425T257 327Q234 254 215 186T196 65Q196 19 215 -14T280 -47Q321 -47 355 -21T415 48T459 137T487 224Q501 284 518 351T553 484T590
603T627 688T661 720Q669 720 683 712T711 688Q703 682 686 646T648 552T606 427T567 288T538 153T527 42Q527 -27 545 -51T607 -75Q588 -88 572 -93T541 -99Z" />
<glyph unicode="V" horiz-adv-x="632" d="M210 -87Q196 -87 176 -81T140 -57T124 -7Q124 22 136 69T168 174T206 297T237 427T250 552Q250 589 248 621T233 672T190 692Q162 692 143 676T111 633T93 578T87 524Q87 508 89 495T96 470Q57 470 41 491T25 542Q25
573 39 604T79 661T138 704T208 720Q270 720 300 672T331 542Q331 484 318 421T286 294T248 173T215 66T202 -17Q202 -34 207 -45T230 -56Q258 -56 295 -28T371 50T448 162T516 291T564 424T582 544Q582 594 567 617T527 648Q541 672 556 683T585 694Q606 694 626
667T646 583Q646 528 626 458T570 313T490 166T396 38T299 -53T210 -87Z" />
<glyph unicode="W" horiz-adv-x="906" d="M210 -87Q199 -87 185 -84T156 -72T133 -48T124 -7Q124 28 141 85T180 213Q197 267 213 325T239 441T250 552Q250 589 248 621T233 672T190 692Q162 692 143 676T111 633T93 578T87 524Q87 491 96 470Q57 470 41 491T25
542Q25 573 39 604T79 661T138 704T208 720Q270 720 300 672T331 542Q331 469 311 388T265 229Q249 179 235 134T211 50T202 -17Q202 -36 208 -46T232 -56Q257 -56 287 -33T349 31T410 119T464 219T505 316T526 395Q559 395 572 378T586 346Q586 330 573 297T542
223Q527 187 512 146T486 64T475 -14Q475 -33 480 -44T503 -56Q531 -56 568 -28T644 50T721 162T789 291T837 424T855 544Q855 594 840 617T800 648Q814 672 829 683T858 694Q879 694 899 667T919 583Q919 528 899 458T843 313T763 166T669 38T572 -53T483 -87Q464
-87 444 -79T411 -55T397 -12Q397 3 402 26T417 78Q366 6 313 -40T210 -87Z" />
<glyph unicode="X" horiz-adv-x="662" d="M25 -112Q28 -90 33 -76T49 -50T74 -21Q106 14 136 48T194 115T249 181T301 246Q299 279 298 302T295 348T293 398T291 468Q290 545 287 594T272 668T232 692Q207 692 188 675T155 632T135 575T128 519Q128 489 136 470Q98
470 83 490T67 539Q67 570 82 602T123 660T184 703T255 720Q294 720 317 701T353 646T369 564T373 461T375 344Q455 455 511 551T597 722Q605 717 612 703T620 674Q620 654 601 615T547 524T469 411T376 289Q378 225 383 165T399 56T427 -21T470 -50Q500 -50 543
8T640 162L652 152Q614 75 582 22T516 -59T443 -87Q401 -87 375 -60T335 10T314 103T304 198Q245 125 190 62T91 -48T25 -112Z" />
<glyph unicode="Y" horiz-adv-x="666" d="M255 -187Q198 -187 158 -163T117 -93Q117 -67 131 -48T177 -18Q173 -33 171 -47T169 -72Q169 -113 191 -137T256 -162Q296 -162 327 -142T382 -90T421 -19T448 56T465 121Q473 155 483 209T507 326Q467 250 415 201T290
151Q231 151 206 184T181 270Q181 309 191 355T215 447T238 537T249 614Q249 646 237 669T192 692Q164 692 144 675T111 630T91 574T84 519Q84 505 86 492T92 470Q54 470 39 490T23 539Q23 570 38 602T79 660T140 703T214 720Q252 720 275 705T308 666T318 619Q318
591 308 550T284 462Q271 417 261 372T251 287Q251 244 267 218T321 191Q356 191 387 213T445 272T494 353T533 440Q546 494 560 544T590 634T621 697T653 720Q663 720 679 712T709 688Q688 655 673 626T645 561T617 479T586 362T544 194Q531 143 516 89T480 -14T428
-102T356 -164T255 -187Z" />
<glyph unicode="Z" horiz-adv-x="631" d="M447 -87Q412 -87 370 -73T284 -39T195 2Q161 -24 129 -39T67 -54Q38 -54 18 -42T-14 -11T-25 26Q-25 47 -8 62T52 78Q81 78 115 71T188 52Q236 102 286 173T383 321Q346 320 319 318T253 310L219 305Q221 333 241 348T294
369T368 375Q379 375 390 375T413 373Q452 442 483 504T530 610Q514 614 494 621T452 637Q404 656 351 674T252 692Q220 692 195 679T154 635T139 548Q139 540 139 534T141 523T143 513Q114 518 102 536T89 585Q89 652 141 686T282 720Q335 720 380 711T468 688T549
666T628 656Q638 656 645 656T660 658Q646 646 634 638T610 623Q588 571 555 505T480 367Q510 364 536 361T586 358Q575 342 562 335T524 326T454 323Q405 242 349 167T236 38Q301 18 365 0T481 -18Q502 -18 519 -14T552 -2Q536 -48 510 -67T447 -87ZM62 -27Q82
-27 105 -15T154 20Q121 34 91 43T38 52Q16 52 9 45T1 28Q1 12 17 -7T62 -27Z" />
<glyph unicode="[" horiz-adv-x="393" d="M196 -87Q165 -87 132 -84T71 -75T29 -67Q31 -63 33 -57T40 -34T51 18T69 114T98 269T141 498Q157 583 179 627T226 687T271 703Q284 703 303 702T343 700Q369 700 395 704T443 720Q441 684 426 667T388 645T338 640Q312
640 285 646T231 657Q217 615 203 556T175 429T149 292T125 160T104 47T86 -32Q140 -32 175 -31T236 -28T281 -22T326 -11Q322 -49 292 -68T196 -87Z" />
<glyph unicode="\" horiz-adv-x="560" d="M435 -162Q392 -154 363 -113T308 22Q299 57 286 117T259 251T230 401T203 545T180 659T164 720Q188 720 204 705T225 675Q240 636 256 574T288 435T321 279T352 124T382 -14T410 -115T435 -162Z" />
<glyph unicode="]" horiz-adv-x="410" d="M-14 -88Q-12 -61 3 -46T41 -25T91 -18Q117 -18 150 -21T215 -26Q232 22 249 94T283 250T315 414T343 564T367 674H304Q255 674 205 671T105 653Q105 696 139 708T234 720Q271 720 314 715T401 699Q399 685 393 648T379
558T361 446T341 327T322 218T306 132Q302 109 294 75T271 8T235 -48T178 -71Q126 -71 75 -73T-14 -88Z" />
<glyph unicode="^" horiz-adv-x="203" d="M187 406Q173 435 155 455T113 498Q82 487 58 474T10 441Q4 445 2 450T0 460Q0 475 13 490T46 518T85 540T114 548Q126 548 141 537T171 509T194 472T204 437Q204 427 200 419T187 406Z" />
<glyph unicode="_" horiz-adv-x="845" d="M-20 -66Q-16 -32 30 -15T154 9T332 16Q406 16 456 14T546 8T624 1T716 -2Q675 -30 630 -38T553 -47Q455 -47 386 -47T269 -48T184 -49Q156 -50 133 -51T86 -54T38 -59T-20 -66Z" />
<glyph unicode="`" horiz-adv-x="125" d="M112 404Q90 433 63 461T0 520Q2 538 8 544T22 551Q37 551 55 536T89 500T115 459T126 430Q126 426 123 417T112 404Z" />
<glyph unicode="a" horiz-adv-x="436" d="M48 -47Q17 -47 -4 -27T-26 36Q-26 72 -10 113T34 195T97 269T172 323T251 343Q290 343 316 323T342 268Q342 243 329 234T293 225Q295 233 296 242T298 260Q298 283 287 299T249 316Q221 316 192 297T136 245T88 174T55
99T43 33Q43 -6 70 -6Q93 -6 120 15T175 70T230 140T276 206Q280 212 281 212Q287 211 296 208T313 200T320 187Q320 178 311 163T291 127T271 87T262 48Q262 33 270 19T296 4Q323 4 367 43T456 162L466 152Q445 98 412 57T342 -7T268 -30Q231 -30 214 -8T196 40Q196
46 197 53T199 69Q156 11 121 -18T48 -47Z" />
<glyph unicode="b" horiz-adv-x="394" d="M93 -73Q41 -73 16 -39T-10 53Q-10 103 7 171T52 313T114 459T184 587T250 679T301 714Q318 714 325 693T333 651Q333 623 321 583T287 498T236 408T174 328T105 270Q99 259 88 225T67 146T57 59Q57 18 69 -8T112 -35Q141
-35 172 -12T222 49Q185 68 167 104T149 178Q149 226 174 255T233 284Q262 284 279 261T296 192Q296 159 287 124T261 56Q267 55 273 54T287 53Q323 53 347 70T387 113T415 162L427 149Q399 80 361 58T284 35Q276 35 268 36T252 38Q225 -8 186 -40T93 -73ZM232
69Q243 92 249 117T255 170Q255 205 246 225T222 245Q207 245 196 225T184 173Q184 146 195 116T232 69ZM116 309Q144 331 170 365T220 437T261 513T289 580T299 625Q299 630 298 631T295 633Q287 633 265 605T215 529T160 424T116 309Z" />
<glyph unicode="c" horiz-adv-x="323" d="M107 -56Q59 -56 27 -24T-5 72Q-5 122 14 169T66 255T137 315T214 338Q255 338 270 314T285 264Q285 235 272 213T235 191Q218 191 206 206Q221 214 232 238T243 285Q243 297 239 303T221 310Q194 310 166 286T113 224T73
144T57 65Q57 34 72 8T130 -18Q170 -18 210 4T286 67T342 163L355 153Q332 93 292 46T204 -29T107 -56Z" />
<glyph unicode="d" horiz-adv-x="473" d="M59 -30Q42 -30 25 -22T-4 6T-16 54Q-16 87 0 128T43 209T105 284T178 339T253 360Q274 360 285 353T297 329Q297 325 297 322T295 315Q290 323 281 326T257 330Q225 330 195 311T139 260T94 192T65 123T54 66Q54 44 64
31T90 18Q117 18 155 52T234 148T306 293Q328 351 351 411T399 526T445 625T488 694T525 720Q533 720 539 714T545 697Q545 681 529 643T486 551T430 434T375 306T332 181T315 70Q315 42 318 28T338 14Q359 14 387 32T443 83T492 162L504 153Q485 102 452 62T382
-2T310 -26Q273 -26 259 -2T244 49Q244 66 249 94T263 156Q231 103 195 61T125 -6T59 -30Z" />
<glyph unicode="e" horiz-adv-x="333" d="M108 -44Q47 -44 17 -11T-14 72Q-14 117 8 167T68 261T151 332T240 360Q263 360 282 348T302 299Q302 261 280 228T221 168T141 126T54 105Q52 95 51 86T50 69Q50 54 53 39T66 12T90 -8T129 -15Q172 -15 214 9T292 74T353
162L365 153Q338 93 297 49T207 -19T108 -44ZM59 124Q86 133 120 150T185 192T237 245T258 306Q258 317 254 323T237 329Q213 329 186 311T134 262T89 196T59 124Z" />
<glyph unicode="f" horiz-adv-x="312" d="M-13 -280Q-23 -280 -36 -274T-58 -248T-68 -192Q-68 -148 -53 -78T-12 78T48 252T121 425T202 575T284 681T360 720Q381 720 387 707T394 676Q394 633 371 582T308 480T222 382T127 302Q122 290 118 278T108 252Q119
250 125 241T133 220Q140 175 148 140T172 84T220 64Q255 64 279 89T331 162L346 152Q321 92 283 65T215 38Q197 38 178 47T141 71Q141 8 128 -54T92 -167T43 -249T-13 -280ZM13 -232Q24 -232 38 -212T65 -160T90 -88T108 -10T115 60Q115 91 107 116T81 177Q56
102 36 32T5 -94T-6 -184Q-6 -232 13 -232ZM143 343Q208 403 255 463T329 571T355 639Q355 653 341 653Q315 653 282 611T213 498T143 343Z" />
<glyph unicode="g" horiz-adv-x="389" d="M38 -280Q16 -280 -2 -267T-20 -222Q-20 -192 -2 -167T46 -120T109 -80T175 -46Q189 -11 201 29T226 119Q188 64 147 28T63 -9Q27 -9 8 18T-12 88Q-12 140 13 187T80 270T167 326T253 347Q282 347 294 338T307 315Q307
306 302 301T295 295Q290 303 280 306T255 310Q216 310 180 287T115 228T71 154T54 83Q54 59 63 47T89 34Q118 34 158 72T237 166Q240 180 242 191T249 219Q252 233 263 251T300 270Q305 270 310 270T321 267Q321 251 312 209T285 110T244 -7Q277 9 308 34T366
91T407 162L420 152Q405 107 372 70T302 6T233 -36Q205 -103 174 -158T110 -247T38 -280ZM35 -248Q55 -248 89 -209T164 -73Q124 -93 90 -114T33 -160T11 -213Q11 -229 18 -238T35 -248Z" />
<glyph unicode="h" horiz-adv-x="476" d="M47 -38Q28 -38 17 -6T6 66Q6 114 22 180T64 319T122 462T189 589T253 680T305 714Q323 714 330 693T338 651Q338 623 326 583T291 498T240 408T177 328T108 270Q96 241 88 205T75 135T71 73Q71 62 71 54T73 39Q87 80
103 118T139 189T179 246T225 284T276 298Q304 298 320 285T344 251T352 208Q352 177 342 148T320 92T309 40Q309 20 317 11T339 2Q362 2 390 24T447 82T495 162L508 150Q487 101 457 62T391 -1T316 -24Q282 -24 265 -6T247 39Q247 60 255 86T270 139T278 190Q278
216 267 227T240 238Q215 238 195 218T159 167T128 100T100 34T74 -18T47 -38ZM121 309Q149 331 175 365T225 437T266 513T294 580T304 625Q304 630 303 631T300 633Q293 633 272 606T222 532T167 428T121 309Z" />
<glyph unicode="i" horiz-adv-x="241" d="M72 -26Q33 -26 14 -2T-5 58Q-5 81 3 116T26 189T58 262T98 317T139 339Q148 339 154 334T161 317Q161 305 146 278T109 216T73 143T57 69Q57 33 69 21T106 9Q140 9 178 43T260 162L269 152Q240 66 186 20T72 -26ZM192
432Q176 432 164 440T151 465Q151 486 175 501T224 517Q239 517 248 510T257 486Q257 467 237 450T192 432Z" />
<glyph unicode="j" horiz-adv-x="218" d="M-140 -280Q-165 -280 -178 -266T-192 -229Q-192 -192 -157 -148T-66 -73Q-52 -65 -37 -58T-2 -41Q18 7 35 68T65 205Q50 178 38 158T18 126L9 141Q26 172 39 207T65 275T91 327T119 347Q130 347 136 339T143 317Q143
306 138 275T122 198T96 99T63 -8Q92 9 121 27T179 75T237 157L250 150Q225 91 191 57T120 2T53 -36Q31 -98 2 -154T-63 -245T-140 -280ZM-149 -246Q-129 -246 -92 -203T-15 -73Q-91 -110 -128 -150T-166 -222Q-166 -235 -161 -240T-149 -246ZM135 437Q119 437
107 445T95 469Q95 484 106 496T135 515T168 522Q182 522 191 515T201 494Q201 472 181 455T135 437Z" />
<glyph unicode="k" horiz-adv-x="446" d="M297 -38Q269 -38 249 -19T218 29T201 88T195 142Q206 142 227 147T270 164T307 194T323 238Q323 259 308 271T273 283Q242 283 215 262T167 206T128 132T99 58T79 0Q73 -18 62 -24T39 -31Q22 -31 15 -17T6 18T4 63Q4
115 21 183T66 324T129 467T197 592T260 681T307 714Q321 714 329 695T338 649Q338 615 323 573T281 487T216 406T134 341Q101 260 85 184T68 55Q84 95 106 143T158 235T221 307T292 335Q329 335 355 309T381 246Q381 214 365 192T325 156T278 136T239 129Q240
121 245 100T259 56T283 17T317 0Q346 0 372 22T421 80T465 163L475 153Q461 104 432 61T368 -10T297 -38ZM151 381Q197 418 231 465T285 555T304 624Q304 629 304 631T301 633Q291 633 267 598T211 506T151 381Z" />
<glyph unicode="l" horiz-adv-x="236" d="M83 -30Q40 -30 22 -1T3 73Q3 121 21 187T68 326T133 468T203 595T267 686T314 720Q325 720 332 708T343 678T347 646Q347 619 334 576T296 479T238 371T165 266T81 180Q75 153 72 128T68 79Q68 40 79 21T112 2Q139 2
165 26T215 86T256 162L271 154Q231 69 184 20T83 -30ZM90 214Q125 249 158 294T219 389T270 484T304 566T316 623Q316 633 314 636T309 639Q301 639 282 614T236 545T183 447T132 332T90 214Z" />
<glyph unicode="m" horiz-adv-x="646" d="M504 -31Q469 -31 453 -10T437 42Q437 67 444 92T459 141T467 184Q467 204 458 212T438 220Q413 220 384 181T307 71Q291 47 280 23T259 -22Q251 -22 239 -20T218 -14T208 -2Q208 5 217 31T239 93T261 165T271 228Q271
245 266 255T246 266Q224 266 193 240T129 170T67 76T19 -27Q10 -27 -3 -24T-25 -16T-35 -6Q-35 0 -25 29T-1 100T23 185T34 261Q40 268 53 275T80 282Q94 282 100 275T107 256Q107 243 100 212T81 142Q101 174 126 207T180 269T236 314T292 332Q323 332 334 310T346
256Q346 231 341 204T328 153T315 115Q336 153 361 188T417 246T481 269Q513 269 525 250T538 205Q538 179 529 148T511 88T501 38Q501 25 507 15T531 4Q559 4 583 29T629 91T665 162L677 148Q661 106 636 65T578 -4T504 -31Z" />
<glyph unicode="n" horiz-adv-x="466" d="M323 -20Q288 -20 271 -2T253 44Q253 65 260 88T275 135T282 183Q282 211 271 221T242 232Q211 232 179 207T117 142T61 60T15 -15Q-1 -15 -15 -10T-38 7Q-38 12 -28 38T-3 102T22 180T33 253Q39 260 52 267T79 274Q106
274 106 248Q106 232 97 195T74 116Q101 157 134 197T206 265T282 292Q321 292 338 264T356 202Q356 171 346 145T326 94T315 44Q315 23 323 15T345 6Q370 6 395 29T443 89T485 162L496 149Q475 100 449 62T392 2T323 -20Z" />
<glyph unicode="o" horiz-adv-x="365" d="M69 -32Q26 -32 8 -6T-10 59Q-10 90 0 123T26 185T63 232T105 250Q110 250 115 249T126 245Q117 237 105 216T81 167T63 112T55 66Q55 36 65 23T91 9Q112 9 141 31T198 89Q170 112 155 149T139 226Q139 259 150 288T184
334T237 352Q278 352 292 330T306 275Q306 236 287 189T239 97Q257 87 277 87Q293 87 313 93T352 116T384 159L396 149Q376 102 340 83T270 63Q257 63 245 65T222 73Q188 28 148 -2T69 -32ZM216 115Q241 152 257 192T274 269Q274 298 266 311T244 325Q224 325 203
296T182 223Q182 194 190 165T216 115Z" />
<glyph unicode="p" horiz-adv-x="391" d="M-63 -280Q-71 -280 -78 -272T-90 -254T-94 -242Q-80 -193 -67 -155T-40 -76T-13 19T14 155T42 356Q43 365 46 369T61 373Q87 373 98 359T109 327Q109 313 103 277T86 192Q103 225 128 259T187 316T259 339Q303 339 331
308T360 225Q360 186 343 143T294 61T219 -2T124 -26Q98 -26 82 -20T66 -8Q66 -4 73 -4T91 -3Q131 -3 167 16T233 68T278 139T295 216Q295 248 282 270T238 293Q212 293 187 277T139 235T99 182T72 132Q54 57 36 -12T2 -138T-28 -231T-51 -275Q-56 -280 -63 -280Z"
/>
<glyph unicode="q" horiz-adv-x="401" d="M194 -280Q180 -280 170 -265T159 -207Q159 -172 166 -120T187 -11T218 98Q178 41 138 6T60 -30Q43 -30 26 -22T-3 6T-15 56Q-15 91 1 131T45 212T109 284T185 337T265 357Q299 357 321 343T344 308Q344 299 340 290T326
275Q321 271 311 271Q311 293 298 309T254 326Q221 326 191 307T137 257T94 191T65 122T55 66Q55 44 64 31T90 18Q110 18 133 37T180 87T229 155T277 230Q284 241 290 247T304 257Q315 262 323 261T336 256Q341 251 341 243Q341 227 325 200T288 132T253 29Q296
33 339 60T420 161L432 150Q399 74 349 42T251 5Q259 -21 263 -49T268 -108Q268 -155 259 -194T232 -256T194 -280ZM221 -225Q229 -225 234 -206T243 -158T246 -99Q246 -79 245 -61T239 -24Q226 -77 220 -123T213 -197Q213 -210 215 -217T221 -225Z" />
<glyph unicode="r" horiz-adv-x="348" d="M173 -26Q139 -26 120 -8T100 39Q100 69 114 102T141 167T155 226Q155 258 137 273T99 302Q76 243 51 190T10 110L1 127Q15 153 37 203T82 317Q72 327 72 341Q72 371 89 390T114 409Q125 409 126 400T128 385Q128 380
123 366T117 348Q117 334 132 323T168 297T203 262T219 209Q219 179 207 148T182 89T169 40Q169 22 178 16T199 10Q223 10 248 25T298 63T341 111T369 159L382 149Q363 107 330 67T257 0T173 -26Z" />
<glyph unicode="s" horiz-adv-x="345" d="M105 -51Q58 -51 31 -31T-8 20T-20 80Q-20 110 -12 126T7 150T29 162T44 170Q74 203 99 239T143 315V327Q143 364 155 379T182 395Q190 395 194 391T198 382Q198 377 195 366T192 338Q192 305 205 267T231 186T244 97Q244
84 243 72T238 48Q273 54 304 79T364 161L373 151Q354 96 316 68T233 32Q217 -11 183 -31T105 -51ZM107 -16Q119 -16 139 -8T170 33Q128 41 96 66T47 116Q25 115 25 81Q25 45 46 15T107 -16ZM175 49Q177 59 178 70T179 96Q179 143 168 189T148 277Q125 239 100
205T51 147Q66 115 97 87T175 49Z" />
<glyph unicode="t" horiz-adv-x="285" d="M85 -46Q42 -46 19 -21T-4 53Q-4 97 12 161T54 294Q44 296 35 297T18 302V320Q26 319 37 318T62 316Q83 370 107 420T154 510T199 573T236 597Q244 597 250 592T257 575Q257 558 236 520T184 428T124 313Q133 313 142
313T161 313Q194 313 230 314T304 319V301Q249 295 206 292T128 289Q124 289 121 289T113 289Q90 236 74 180T58 71Q58 28 71 10T114 -9Q166 -9 216 37T304 162L317 152Q293 96 257 51T176 -20T85 -46Z" />
<glyph unicode="u" horiz-adv-x="438" d="M75 -30Q41 -30 21 0T0 71Q0 100 9 138T33 213T62 274T88 298Q93 298 105 293T125 278Q114 261 98 226T70 151T58 77Q58 69 60 53T70 23T94 10Q113 10 133 29T173 80T213 147T248 216T276 271Q282 270 293 267T314 259T324
245Q324 241 314 219T291 164T267 98T257 40Q257 22 264 11T290 0Q311 0 341 19T402 74T457 162L470 153Q449 99 415 58T343 -7T269 -30Q243 -30 228 -20T206 7T199 44Q199 56 201 68T206 94Q188 61 167 33T123 -13T75 -30Z" />
<glyph unicode="v" horiz-adv-x="407" d="M65 -39Q34 -39 22 -9T10 71Q10 73 11 102T16 202Q18 229 22 239T48 249Q65 249 69 243T74 217Q74 184 70 140T65 56Q65 27 70 14T88 0Q106 0 128 20T173 74T216 146T253 219Q255 287 267 309T299 332Q318 332 326 319T335
294Q335 281 327 267T309 229T300 160Q300 144 303 126T316 96T347 84Q368 84 387 100T426 158L439 148Q417 98 391 81T340 64Q307 64 285 88T256 161Q232 112 200 67T132 -9T65 -39Z" />
<glyph unicode="w" horiz-adv-x="617" d="M282 -39Q251 -39 240 -11T228 58Q228 78 230 101T235 148Q213 104 188 63T134 -4T75 -30Q42 -30 21 0T0 71Q0 100 9 138T33 213T62 274T88 298Q93 298 109 293T125 278Q114 261 98 226T70 151T58 77Q58 69 60 53T69 23T93
10Q116 10 142 39T194 112T243 201Q251 242 256 261T268 285T283 291Q296 291 304 286T312 269Q312 267 312 264T310 258Q303 234 297 198T286 122T282 49Q282 26 287 13T304 0Q319 0 339 18T380 67T422 134T459 205Q459 257 466 284T485 322T509 332Q528 332 536
319T545 294Q545 287 542 280T534 263Q526 248 518 225T510 160Q510 144 513 126T526 96T557 84Q578 84 597 100T636 158L649 148Q627 98 601 81T550 64Q519 64 498 85T466 148Q441 102 410 59T346 -11T282 -39Z" />
<glyph unicode="x" horiz-adv-x="418" d="M44 -59Q40 -59 37 -55T34 -44Q34 -32 55 -2T109 71T182 156Q177 203 169 237T138 272Q114 272 95 252T58 199T19 129L10 145Q24 172 36 201T64 255T100 295T154 311Q193 311 211 284T237 216Q284 265 322 298T373 332Q378
332 388 329T398 321Q387 321 363 302T308 249T243 177Q246 147 248 117T254 63T269 25T297 10Q315 10 335 25T375 63T411 113T438 161L448 151Q434 108 406 68T342 1T272 -26Q243 -26 226 -7T201 44T187 111Q145 61 110 16T56 -52Q50 -59 44 -59Z" />
<glyph unicode="y" horiz-adv-x="389" d="M43 -280Q18 -280 -1 -267T-20 -227Q-20 -195 -4 -170T39 -124T101 -84T174 -46Q188 -9 202 36T230 137Q198 85 162 48T84 10Q65 10 47 18T16 45T4 91Q4 119 13 156T37 228T66 286T92 309Q96 309 106 306T126 298T136
286Q127 273 116 249T95 196T77 138T70 90Q70 72 78 61T106 50Q125 50 148 68T195 116T239 178Q242 189 244 200T249 224Q252 238 263 256T300 275Q305 275 310 275T321 272Q321 256 312 213T285 111T243 -8Q290 10 335 51T408 162L421 152Q406 104 376 69T307
8T232 -35Q206 -99 176 -155T112 -245T43 -280ZM38 -248Q53 -248 88 -209T164 -70Q123 -92 88 -113T32 -160T11 -218Q11 -226 17 -237T38 -248Z" />
<glyph unicode="z" horiz-adv-x="317" d="M-5 -280Q-36 -280 -53 -269T-71 -229Q-71 -197 -50 -170T8 -117T87 -67T174 -12Q174 24 159 54T105 115Q140 125 164 150T201 205T214 262Q214 285 205 300T175 315Q142 315 116 290T68 224T23 134L11 144Q33 204 56
251T112 325T189 353Q223 353 247 331T272 271Q272 235 255 204T211 150T154 111Q180 91 197 69T224 21Q262 50 291 84T335 162L346 150Q332 105 301 69T230 2Q232 -5 233 -14T234 -31Q234 -76 214 -120T160 -201T84 -258T-5 -280ZM-12 -251Q6 -251 35 -237T94
-195T146 -127T173 -35Q133 -60 95 -82T25 -126T-24 -170T-43 -218Q-43 -235 -34 -243T-12 -251Z" />
<glyph unicode="{" horiz-adv-x="260" d="M102 -87Q65 -87 51 -67T37 -21Q37 5 48 36T74 102T100 169T111 233Q111 263 105 288T75 331Q110 335 127 362T151 431T161 518Q164 556 168 591T181 656T207 703T255 720Q268 720 279 716T299 700T310 667Q302 672 294
676T277 681Q255 681 243 654T225 584T212 495Q207 453 200 415T179 353T141 325Q155 311 161 295T167 256Q167 210 156 171T129 97T103 31T91 -30Q91 -43 98 -52T124 -62Q139 -62 149 -54Q148 -73 134 -80T102 -87Z" />
<glyph unicode="|" horiz-adv-x="259" d="M55 -132Q67 -99 77 -44T95 82T111 228T124 378T136 517T147 629T159 697Q171 692 177 682T185 660T187 640Q187 605 185 547T180 418T172 278T163 149T154 52Q145 -34 123 -83T55 -132Z" />
<glyph unicode="}" horiz-adv-x="256" d="M36 -87Q23 -87 11 -83T-10 -66T-21 -34Q-3 -46 13 -46Q34 -46 46 -20T65 46T78 129Q83 173 91 218T114 298T156 347Q142 363 137 381T131 419Q131 451 141 486T166 557T191 621T202 672Q202 678 200 682T190 687Q186
687 177 684T154 670Q156 691 176 705T222 720Q242 720 252 710T262 686Q262 669 251 641T225 577T199 505T188 434Q188 408 194 382T223 339Q187 330 169 299T143 224T131 131Q128 91 124 52T111 -18T84 -68T36 -87Z" />
<glyph unicode="~" horiz-adv-x="435" d="M269 129Q241 129 211 139T149 158T86 168Q74 168 63 167T40 160Q60 186 80 196T123 206Q144 206 166 200T213 184T263 169T317 162Q325 162 332 163T347 165Q329 145 310 137T269 129Z" />
<glyph unicode="&#xa0;" horiz-adv-x="260" />
<glyph unicode="&#xa1;" horiz-adv-x="264" d="M-59 -251Q-67 -251 -73 -245T-79 -228Q-79 -214 -65 -177T-26 -86T29 29T93 152T157 270T215 367Q216 366 216 366T218 364Q209 319 198 282T178 219T162 178Q146 136 125 81T79 -33T31 -140T-17 -220T-59 -251ZM218
412Q206 412 199 417T192 435Q192 450 208 464T244 479Q257 479 266 473T276 452Q276 436 257 424T218 412Z" />
<glyph unicode="&#xa2;" horiz-adv-x="403" d="M68 -162Q80 -148 95 -109T128 -12T163 114Q115 114 84 146T52 242Q52 286 69 328T116 406T181 467T252 502Q263 555 271 599T284 675Q286 690 295 702T329 720L289 508Q332 508 347 484T362 434Q362 405 349 383T312
361Q295 361 283 376Q298 384 309 408T320 455Q320 471 310 476T283 479Q268 399 252 313T220 155Q251 160 282 174T341 214L358 198Q328 170 290 150T213 120Q194 33 175 -30T132 -128T68 -162ZM173 152Q193 229 211 310T245 465Q209 445 180 406T132 321T114
235Q114 207 126 182T173 152Z" />
<glyph unicode="&#xa3;" horiz-adv-x="650" d="M450 -87Q414 -87 371 -72T281 -36T190 6Q165 -22 138 -37T79 -53Q47 -53 25 -38T-9 -3T-21 34Q-21 52 -5 65T52 78Q78 78 109 72T175 57Q203 104 231 188T300 400Q254 415 228 444T201 507Q201 525 208 543T230
573T263 586Q256 576 253 557T250 524Q250 486 266 461T307 421Q333 501 363 569T433 678T522 720Q542 720 564 711T603 680T619 618Q619 584 605 544T561 467T481 409T363 388Q339 317 317 254T271 139T219 44Q265 30 312 16T403 -8T484 -18Q505 -18 522 -14T555
-2Q539 -48 513 -67T450 -87ZM75 -24Q97 -24 116 -12T152 22Q121 35 92 43T38 52Q19 52 12 47T5 33Q5 22 14 9T39 -14T75 -24ZM124 221Q130 244 155 258T218 278T300 285Q356 285 406 278T491 268Q479 251 458 244T394 236T277 234Q239 234 199 231T124 221ZM369
407Q414 407 450 432T512 496T551 575T565 645Q565 674 554 684T529 695Q498 695 471 655T420 550T369 407Z" />
<glyph unicode="&#xa4;" horiz-adv-x="697" d="M599 24Q585 50 546 84T459 169Q434 137 403 117T335 96Q307 96 287 106T252 136Q206 85 163 64T83 43Q99 59 122 74T173 114T229 180Q224 196 222 212T220 247Q220 288 232 335T266 424Q232 462 202 492T148 544Q141
551 136 568T130 604Q130 613 131 622T136 638Q150 625 193 579T293 469Q319 503 352 524T423 546Q459 546 485 528T526 478Q553 510 571 538T612 583T676 601Q681 601 685 601T694 599Q683 583 640 533T540 417Q540 413 540 409T541 401Q541 358 527 308T487 212Q536
166 568 122T601 42Q601 38 601 34T599 24ZM343 149Q369 149 394 174T441 240T475 326T488 412Q488 449 468 472T423 496Q392 496 366 469T319 399T288 314T277 237Q277 197 299 173T343 149Z" />
<glyph unicode="&#xa5;" horiz-adv-x="810" d="M342 -187Q304 -187 273 -176T223 -144T204 -93Q204 -67 218 -48T264 -18Q260 -33 258 -47T256 -72Q256 -113 278 -137T343 -162Q383 -162 413 -143T467 -91T506 -23Q470 -23 433 -25T355 -34Q366 -6 411 4T521 15Q527
31 532 46T541 77Q494 76 449 75T355 66Q363 86 389 96T457 111T550 115Q562 152 571 208T594 326Q568 275 536 236T464 174T377 151Q318 151 293 184T268 270Q268 309 278 355T302 447T325 537T336 614Q336 646 324 669T279 692Q251 692 231 675T198 630T178 574T171
519Q171 489 179 470Q141 470 126 490T110 539Q110 570 125 602T166 660T227 703T301 720Q339 720 362 705T395 666T405 619Q405 591 395 551T372 465T348 373T338 287Q338 244 354 218T408 191Q443 191 474 213T532 272T581 353T620 440Q638 513 657 576T698 680T740
720Q750 720 766 712T796 688Q775 655 760 626T732 561T704 479T673 362T631 194Q626 174 621 154T610 113Q644 112 670 110T712 106Q687 88 658 83T600 77Q595 61 590 46T578 14Q622 13 658 11T712 6Q687 -12 659 -17T609 -23H562Q541 -69 511 -106T440 -165T342
-187Z" />
<glyph unicode="&#xa6;" horiz-adv-x="260" d="M55 -132Q67 -101 76 -51T93 63T108 197Q115 204 127 210T154 217Q162 217 164 209T166 194Q159 92 149 19T118 -93T55 -132ZM117 296Q125 386 132 468T145 611T159 697Q171 692 177 682T185 660T187 640Q187 601
182 531T177 382Q177 373 171 352T145 316L117 296Z" />
<glyph unicode="&#xa7;" horiz-adv-x="416" d="M140 -87Q106 -87 76 -75T26 -37T7 28Q7 61 20 79T52 105T88 113Q71 95 62 73T53 28Q53 -7 77 -34T151 -62Q180 -62 207 -52T252 -21T270 31Q270 64 250 87T201 130T142 171T92 221T72 290Q72 335 94 369T158 419T256
429Q231 444 207 460T168 497T152 549Q152 575 165 604T201 660T258 702T330 719Q371 719 386 702T401 656Q401 632 393 606T374 555T352 515Q339 517 335 525T331 542Q331 561 340 585T359 633T368 677Q368 690 361 697T333 704Q293 704 261 680T211 623T192 562Q192
533 210 515T254 481T308 446T353 397T371 320Q371 277 351 248T300 205T234 191Q218 191 208 193T188 198Q196 191 216 181T259 154T298 112T314 50Q314 8 287 -23T220 -70T140 -87ZM219 231Q266 231 290 253T314 316Q314 354 293 377T227 401Q189 401 159 381T128
310Q128 298 133 279T158 246T219 231Z" />
<glyph unicode="&#xa8;" horiz-adv-x="239" d="M181 409Q166 409 155 416T144 439Q144 458 166 472T210 486Q224 486 232 480T240 458Q240 441 222 425T181 409ZM37 430Q22 430 11 437T0 460Q0 479 22 493T66 507Q80 507 88 501T96 479Q96 462 78 446T37 430Z" />
<glyph unicode="&#xa9;" horiz-adv-x="592" d="M323 100Q281 100 238 116T159 164T101 244T79 358Q79 425 101 474T161 556T241 604T327 620Q369 620 412 604T491 556T549 476T571 362Q571 295 549 246T489 164T409 116T323 100ZM323 128Q387 128 436 157T514
240T543 362Q543 429 516 480T441 562T327 592Q264 592 214 563T136 481T107 358Q107 292 134 240T210 158T323 128ZM326 209Q292 209 269 229T245 299V431Q245 481 268 501T326 522Q357 522 375 509T400 480T408 451Q408 440 403 437T393 434Q383 434 381 438T378
446Q377 456 373 467T358 486T327 495Q303 495 289 480T275 431V299Q275 266 289 251T329 235Q348 235 358 245T373 266T378 284Q378 291 383 293T391 296Q408 296 408 282Q407 252 386 231T326 209Z" />
<glyph unicode="&#xaa;" horiz-adv-x="383" d="M157 447Q135 447 120 461T105 506Q105 537 122 574T167 644T230 698T299 720Q326 720 344 706T362 668Q362 651 353 645T328 638Q330 644 331 650T332 662Q332 678 324 690T297 702Q272 702 247 681T201 628T166
563T153 503Q153 476 172 476Q188 476 208 492T249 533T288 584T319 629Q325 628 336 624T347 611Q347 603 337 587T317 551T306 514Q306 504 311 494T330 483Q349 483 380 511T442 594L449 587Q427 530 388 495T311 459Q285 459 273 474T260 508Q260 513 260 518T262
529Q232 489 208 468T157 447Z" />
<glyph unicode="&#xab;" horiz-adv-x="436" d="M315 44Q297 44 272 56T221 86T178 123T156 158Q189 173 225 199T293 256T346 316Q348 314 349 307T351 294Q351 274 335 254T292 214T237 177T182 147Q205 131 224 118T271 91T344 60Q340 55 333 50T315 44ZM165
44Q147 44 122 56T71 86T28 123T6 158Q39 173 75 199T143 256T196 316Q198 314 199 307T201 294Q201 274 185 254T142 214T87 177T32 147Q55 131 74 118T121 91T194 60Q190 55 183 50T165 44Z" />
<glyph unicode="&#xac;" horiz-adv-x="667" d="M489 33Q496 61 498 82T500 129T500 197Q487 196 474 196T450 195Q383 194 335 194T250 194T182 194T119 191T44 184Q56 204 98 214T205 229T346 233Q387 233 427 233T501 230Q503 243 509 256T529 282Q530 274 532
260T535 228Q561 227 581 226T615 224Q597 216 577 211T537 201Q537 171 536 143T531 92T517 53T489 33Z" />
<glyph unicode="&#xad;" horiz-adv-x="485" d="M35 144Q41 159 57 168T99 183T156 191T224 193Q251 193 276 192T323 190T363 187T392 184Q376 173 354 167T288 157Q259 156 215 156T134 154Q118 154 103 153T72 150T35 144Z" />
<glyph unicode="&#xae;" horiz-adv-x="592" d="M323 100Q281 100 238 116T159 164T101 244T79 358Q79 425 101 474T161 556T241 604T327 620Q369 620 412 604T491 556T549 476T571 362Q571 295 549 246T489 164T409 116T323 100ZM323 128Q387 128 436 157T514
240T543 362Q543 429 516 480T441 562T327 592Q264 592 214 563T136 481T107 358Q107 292 134 240T210 158T323 128ZM267 210Q261 210 256 213T251 224V508Q251 513 255 517T266 521H329Q352 521 371 514T403 488T415 437Q415 399 398 380T355 355Q365 335 374
314T394 273T413 231Q414 230 414 228T415 224Q415 218 412 214T401 210Q392 210 385 222T376 239L323 353H282V224Q282 217 277 214T267 210ZM282 379H329Q354 379 369 392T384 437Q384 468 369 481T329 494H282V379Z" />
<glyph unicode="&#xaf;" horiz-adv-x="407" d="M309 418Q287 418 254 423T185 436T116 450T60 459Q70 485 106 485Q143 485 185 478T269 460T347 438Q333 418 309 418Z" />
<glyph unicode="&#xb0;" horiz-adv-x="265" d="M164 396Q125 396 109 412T92 450Q92 474 108 500T152 544T214 562Q255 562 272 547T290 508Q290 484 273 458T227 414T164 396ZM169 413Q191 413 211 429T246 467T260 509Q260 525 250 535T214 545Q192 545 171
530T137 492T124 450Q124 434 134 424T169 413Z" />
<glyph unicode="&#xb1;" horiz-adv-x="449" d="M187 115Q194 152 195 180T197 247Q168 247 147 247T104 245T54 239Q62 260 102 268T197 278V318Q197 335 202 358T223 400Q225 384 227 351T231 278Q262 278 290 277T340 274T375 271Q353 256 328 252T282 247H231Q230
196 221 160T187 115ZM54 34Q61 50 85 58T145 70T224 73Q272 73 314 71T375 66Q361 58 343 53T297 45T222 43Q201 43 181 43T139 42T97 39T54 34Z" />
<glyph unicode="&#xb2;" horiz-adv-x="355" d="M282 304Q269 304 252 308T213 321T166 341Q135 320 110 320Q94 320 83 328T72 349Q72 375 113 375Q124 375 136 373T164 368Q194 395 224 438T274 530T294 623Q294 659 280 675T245 691Q215 691 198 663T181 593Q181
583 182 576T188 557H180Q161 562 152 572T142 603Q142 630 156 654T195 693T253 708Q291 708 314 681T337 616Q337 572 317 525T265 435T196 362Q227 354 252 349T295 344Q303 344 313 348T339 362Q332 332 319 318T282 304ZM109 338Q116 338 123 341T140 351Q130
355 122 356T109 358Q101 358 98 355T95 348Q95 344 99 341T109 338Z" />
<glyph unicode="&#xb3;" horiz-adv-x="295" d="M166 314Q119 314 100 338T81 387Q81 406 92 424T126 442Q129 442 132 442T140 440Q132 433 128 420T123 393Q123 371 136 353T171 334Q199 334 223 364T248 442Q248 471 235 498T189 533Q215 545 233 565T262 610T273
654Q273 680 261 690T232 701Q213 701 196 688T179 649Q179 642 181 634T187 616Q184 610 177 605T163 600Q153 600 148 614T142 641Q142 678 172 698T238 718Q269 718 293 702T318 652Q318 631 308 608T279 565T236 538Q275 525 290 496T306 442Q306 411 288 382T238
333T166 314Z" />
<glyph unicode="&#xb4;" horiz-adv-x="125" d="M102 404Q95 408 92 417T88 430Q88 439 98 458T125 499T159 536T192 551Q200 551 206 545T214 520Q178 489 151 461T102 404Z" />
<glyph unicode="&#xb5;" horiz-adv-x="585" d="M-9 -280Q-18 -280 -25 -272T-36 -254T-40 -242Q-26 -193 -12 -155T17 -76T46 19T76 155T105 356Q106 365 109 369T124 373Q150 373 161 359T172 327Q150 230 137 164T124 60Q124 10 153 10Q172 10 192 29T232 80T272
147T307 216T335 271Q341 270 352 267T373 259T383 245Q383 241 373 219T350 164T326 98T316 40Q316 22 323 11T349 0Q370 0 400 19T461 74T516 162L529 153Q507 99 474 58T402 -7T328 -30Q288 -30 273 -9T258 44Q258 56 260 68T265 94Q237 45 205 8T134 -30Q122
-30 111 -26T92 -13Q55 -143 30 -211T-9 -280Z" />
<glyph unicode="&#xb6;" horiz-adv-x="644" d="M329 -87Q333 -34 339 28T350 156Q326 157 290 162T214 178T140 210T83 261T61 336Q61 392 90 435T165 508T266 557T372 579Q370 653 363 708Q372 713 379 714T392 716Q409 716 416 702T426 665T429 619T430 578Q441
577 451 576T472 572Q471 614 470 649T466 708Q473 713 479 714T492 716Q504 716 511 694T522 636T528 558Q554 550 575 542T611 525Q609 520 601 514T583 503T570 498Q566 498 556 504T529 519Q530 506 530 493T530 468Q530 234 524 107T514 -37Q506 -60 487 -73T446
-87Q447 -84 449 -60T455 8T461 109T466 236T470 384T472 545Q462 548 452 550T431 555Q432 530 432 489T433 406T434 334Q434 250 432 184T428 70T422 -4T417 -37Q412 -51 398 -62T365 -80T329 -87Z" />
<glyph unicode="&#xb7;" horiz-adv-x="209" d="M70 124Q57 124 48 130T38 151Q38 162 47 171T69 186T96 192Q108 192 115 187T122 168Q122 158 115 148T95 131T70 124Z" />
<glyph unicode="&#xb8;" horiz-adv-x="217" d="M81 -211Q52 -211 36 -200T20 -175Q20 -167 25 -159T42 -142Q47 -166 59 -176T84 -187Q103 -187 122 -173T154 -138T167 -100Q167 -92 164 -84T150 -75Q137 -75 119 -85T86 -105T65 -116Q58 -116 55 -110T51 -98Q51
-96 59 -84T80 -56T104 -24T126 0H139L86 -81Q97 -73 113 -65T153 -57Q176 -57 187 -67T198 -99Q198 -127 182 -153T139 -195T81 -211Z" />
<glyph unicode="&#xb9;" horiz-adv-x="260" d="M109 314Q99 314 87 320T66 338Q89 338 105 338T137 342Q149 368 158 408T176 493T191 577T205 640Q181 624 170 619T154 614Q147 614 143 618T139 632Q148 636 166 649T205 680T244 717H250Q253 714 254 710T255
701Q255 693 253 685T249 668Q245 653 239 623T226 557T212 488L199 426Q193 398 187 379T171 347Q196 348 214 344T236 316Q226 317 215 317T193 318Q168 318 149 316T109 314Z" />
<glyph unicode="&#xba;" horiz-adv-x="279" d="M163 452Q137 452 122 469T107 512Q107 540 121 575T160 644T215 698T277 720Q290 720 297 716T307 706Q323 706 329 697T336 679Q336 671 329 657T315 627T308 591Q308 581 314 578T328 575Q335 575 342 576T355
578Q351 570 339 564T314 558Q295 558 288 571Q266 519 233 486T163 452ZM179 482Q195 482 213 496T249 535T279 589Q277 598 276 607T275 629Q275 653 278 668T288 693Q258 693 234 674T191 625T162 567T152 517Q152 501 159 492T179 482Z" />
<glyph unicode="&#xbb;" horiz-adv-x="455" d="M237 44Q227 44 220 49T208 60Q254 78 281 91T328 117T370 147Q345 160 316 177T260 213T218 253T201 294Q201 299 203 306T206 316Q227 287 259 256T327 199T396 158Q392 143 374 124T331 86T281 56T237 44ZM87
44Q77 44 70 49T58 60Q104 78 131 91T178 117T220 147Q195 160 166 177T110 213T68 253T51 294Q51 299 53 306T56 316Q77 287 109 256T177 199T246 158Q242 143 224 124T181 86T131 56T87 44Z" />
<glyph unicode="&#xbc;" horiz-adv-x="642" d="M45 -87Q68 -64 103 -12T181 110T268 260T352 417T425 562T475 675Q479 685 493 695T525 712T559 720Q554 706 534 665T483 564T419 439T349 307T283 187T230 97Q178 15 133 -36T45 -87ZM510 -26Q488 -24 475 -18T462
0Q462 3 466 30T487 134Q482 134 475 134T451 135Q419 135 395 133T350 126Q350 135 353 141T360 151Q391 178 431 215T509 295T569 377Q582 375 582 363Q582 356 569 312T536 164H553Q561 164 569 165T589 169Q578 153 564 143T531 134Q530 127 527 107T519 62T513
13T510 -26ZM405 165Q419 167 443 167T495 166Q501 195 505 215T514 250T522 279L478 236Q467 225 454 213T429 189T405 165ZM109 314Q99 314 87 320T66 338Q89 338 105 338T137 342Q149 368 158 408T176 493T191 577T205 640Q181 624 170 619T154 614Q147 614
143 618T139 632Q148 636 166 649T205 680T244 717H250Q253 714 254 710T255 701Q255 693 253 685T249 668Q243 645 231 583T199 426Q193 398 187 379T171 347Q195 348 213 344T236 316Q226 317 215 317T193 318Q168 318 149 316T109 314Z" />
<glyph unicode="&#xbd;" horiz-adv-x="698" d="M51 -87Q74 -64 109 -12T187 110T274 260T358 417T431 562T481 675Q485 685 499 695T531 712T565 720Q560 706 540 665T489 564T425 439T355 307T289 187T236 97Q184 15 139 -36T51 -87ZM382 8Q389 8 396 11T413
21Q403 25 395 26T382 28Q374 28 371 25T368 18Q368 14 372 11T382 8ZM555 -26Q542 -26 525 -22T486 -9T439 11Q408 -10 383 -10Q367 -10 356 -2T345 19Q345 45 386 45Q397 45 409 43T437 38Q467 65 497 108T547 200T567 293Q567 329 553 345T518 361Q488 361 471
333T454 263Q454 253 455 246T461 227H453Q434 232 425 242T415 273Q415 300 429 324T468 363T526 378Q564 378 587 351T610 286Q610 242 590 195T538 105T469 32Q500 24 525 19T568 14Q576 14 586 18T612 32Q605 2 592 -12T555 -26ZM115 314Q105 314 93 320T72
338Q95 338 111 338T143 342Q155 368 164 408T182 493T197 577T211 640Q187 624 176 619T160 614Q153 614 149 618T145 632Q154 636 172 649T211 680T250 717H256Q259 714 260 710T261 701Q261 693 259 685T255 668Q249 645 237 583T205 426Q199 398 193 379T177
347Q201 348 219 344T242 316Q232 317 221 317T199 318Q174 318 155 316T115 314Z" />
<glyph unicode="&#xbe;" horiz-adv-x="685" d="M88 -87Q111 -64 146 -12T224 110T311 260T395 417T468 562T518 675Q522 685 536 695T568 712T602 720Q597 706 577 665T526 564T462 439T392 307T326 187T273 97Q221 15 176 -36T88 -87ZM168 314Q137 314 118 325T91
354T83 387Q83 406 94 424T128 442Q131 442 134 442T142 440Q134 433 130 420T125 393Q125 371 138 353T173 334Q201 334 225 364T250 442Q250 471 237 498T191 533Q217 545 235 565T264 610T275 654Q275 680 263 690T234 701Q215 701 198 688T181 649Q181 642
183 634T189 616Q186 610 179 605T165 600Q155 600 150 614T144 641Q144 666 158 683T194 709T240 718Q271 718 295 702T320 652Q320 631 310 608T281 565T238 538Q277 525 292 496T308 442Q308 411 290 382T240 333T168 314ZM553 -26Q531 -24 518 -18T505 0Q505
3 509 30T530 134Q525 134 518 134T494 135Q462 135 438 133T393 126Q393 135 396 141T403 151Q434 178 474 215T552 295T612 377Q625 375 625 363Q625 356 612 312T579 164H596Q604 164 612 165T632 169Q621 153 607 143T574 134Q573 127 570 107T562 62T556 13T553
-26ZM448 165Q462 167 486 167T538 166Q544 195 548 215T557 250T565 279L521 236Q510 225 497 213T472 189T448 165Z" />
<glyph unicode="&#xbf;" horiz-adv-x="415" d="M85 -280Q23 -280 -13 -250T-50 -161Q-50 -121 -35 -91T5 -33T57 21T108 80T145 154Q155 185 157 209T170 256Q190 247 195 239T201 214Q201 171 182 136T134 69T78 4T30 -67T10 -153Q10 -204 32 -229T89 -255Q124
-255 159 -230T217 -161T240 -64Q240 -49 238 -38T233 -13Q271 -18 283 -36T295 -82Q295 -133 269 -178T195 -251T85 -280ZM182 322Q170 322 163 327T156 344Q156 361 172 375T208 390Q221 390 230 384T240 364Q240 346 221 334T182 322Z" />
<glyph unicode="&#xc0;" horiz-adv-x="592" d="M17 -87Q-5 -74 -11 -60T-17 -35Q-17 -7 3 41T58 150T135 278Q98 281 72 282T27 283H-8Q3 312 30 323T96 335Q113 335 131 333T168 328Q219 405 272 477T372 606T450 692Q479 720 498 720Q509 720 522 712T551 688Q541
680 526 646T493 559T458 445T427 319T404 196T395 94Q395 56 403 35T432 14Q458 14 491 50T563 162L573 152Q543 72 497 21T400 -30Q359 -30 341 6T322 104Q322 136 326 174T339 253Q295 260 259 264T191 273Q144 186 100 94T17 -87ZM346 288Q361 354 381 421T423
550T466 657Q435 638 395 590T309 472T217 319Q251 312 284 304T346 288ZM533 748Q511 777 484 805T421 864Q423 882 429 888T443 895Q458 895 476 880T510 844T536 803T547 774Q547 770 544 761T533 748Z" />
<glyph unicode="&#xc1;" horiz-adv-x="592" d="M17 -87Q-5 -74 -11 -60T-17 -35Q-17 -7 3 41T58 150T135 278Q98 281 72 282T27 283H-8Q3 312 30 323T96 335Q113 335 131 333T168 328Q219 405 272 477T372 606T450 692Q479 720 498 720Q509 720 522 712T551 688Q541
680 526 646T493 559T458 445T427 319T404 196T395 94Q395 56 403 35T432 14Q458 14 491 50T563 162L573 152Q543 72 497 21T400 -30Q359 -30 341 6T322 104Q322 136 326 174T339 253Q295 260 259 264T191 273Q144 186 100 94T17 -87ZM346 288Q361 354 381 421T423
550T466 657Q435 638 395 590T309 472T217 319Q251 312 284 304T346 288ZM535 748Q528 752 525 761T521 774Q521 783 531 802T558 843T592 880T625 895Q633 895 639 889T647 864Q611 833 584 805T535 748Z" />
<glyph unicode="&#xc2;" horiz-adv-x="592" d="M17 -87Q-5 -74 -11 -60T-17 -35Q-17 -7 3 41T58 150T135 278Q98 281 72 282T27 283H-8Q3 312 30 323T96 335Q113 335 131 333T168 328Q219 405 272 477T372 606T450 692Q479 720 498 720Q509 720 522 712T551 688Q541
680 526 646T493 559T458 445T427 319T404 196T395 94Q395 56 403 35T432 14Q458 14 491 50T563 162L573 152Q543 72 497 21T400 -30Q359 -30 341 6T322 104Q322 136 326 174T339 253Q295 260 259 264T191 273Q144 186 100 94T17 -87ZM346 288Q361 354 381 421T423
550T466 657Q435 638 395 590T309 472T217 319Q251 312 284 304T346 288ZM627 744Q613 773 595 793T553 836Q522 825 498 812T450 779Q444 783 442 788T440 798Q440 813 453 828T486 856T525 878T554 886Q566 886 581 875T611 847T634 810T644 775Q644 765 640
757T627 744Z" />
<glyph unicode="&#xc3;" horiz-adv-x="592" d="M17 -87Q-5 -74 -11 -60T-17 -35Q-17 -7 3 41T58 150T135 278Q98 281 72 282T27 283H-8Q3 312 30 323T96 335Q113 335 131 333T168 328Q219 405 272 477T372 606T450 692Q479 720 498 720Q509 720 522 712T551 688Q541
680 526 646T493 559T458 445T427 319T404 196T395 94Q395 56 403 35T432 14Q458 14 491 50T563 162L573 152Q543 72 497 21T400 -30Q359 -30 341 6T322 104Q322 136 326 174T339 253Q295 260 259 264T191 273Q144 186 100 94T17 -87ZM346 288Q361 354 381 421T423
550T466 657Q435 638 395 590T309 472T217 319Q251 312 284 304T346 288ZM621 761Q594 761 565 772T507 795T446 807Q433 807 419 804T392 792Q412 820 434 831T479 842Q507 842 537 830T600 806T669 794Q685 794 703 802Q684 779 664 770T621 761Z" />
<glyph unicode="&#xc4;" horiz-adv-x="592" d="M17 -87Q-5 -74 -11 -60T-17 -35Q-17 -7 3 41T58 150T135 278Q98 281 72 282T27 283H-8Q3 312 30 323T96 335Q113 335 131 333T168 328Q219 405 272 477T372 606T450 692Q479 720 498 720Q509 720 522 712T551 688Q541
680 526 646T493 559T458 445T427 319T404 196T395 94Q395 56 403 35T432 14Q458 14 491 50T563 162L573 152Q543 72 497 21T400 -30Q359 -30 341 6T322 104Q322 136 326 174T339 253Q295 260 259 264T191 273Q144 186 100 94T17 -87ZM346 288Q361 354 381 421T423
550T466 657Q435 638 395 590T309 472T217 319Q251 312 284 304T346 288ZM609 753Q594 753 583 760T572 783Q572 802 594 816T638 830Q652 830 660 824T668 802Q668 785 650 769T609 753ZM465 774Q450 774 439 781T428 804Q428 823 450 837T494 851Q508 851 516
845T524 823Q524 806 506 790T465 774Z" />
<glyph unicode="&#xc5;" horiz-adv-x="592" d="M17 -87Q-5 -74 -11 -60T-17 -35Q-17 -7 3 41T58 150T135 278Q98 281 72 282T27 283H-8Q3 312 30 323T96 335Q113 335 131 333T168 328Q219 405 272 477T372 606T450 692Q479 720 498 720Q509 720 522 712T551 688Q541
680 526 646T493 559T458 445T427 319T404 196T395 94Q395 56 403 35T432 14Q458 14 491 50T563 162L573 152Q543 72 497 21T400 -30Q359 -30 341 6T322 104Q322 136 326 174T339 253Q295 260 259 264T191 273Q144 186 100 94T17 -87ZM346 288Q361 354 381 421T423
550T466 657Q435 638 395 590T309 472T217 319Q251 312 284 304T346 288ZM534 754Q495 754 479 770T462 808Q462 832 478 858T522 902T584 920Q625 920 642 905T660 866Q660 842 643 816T597 772T534 754ZM543 774Q563 774 581 788T611 822T623 860Q623 874 613
885T579 897Q559 897 541 884T512 852T501 815Q501 802 511 788T543 774Z" />
<glyph unicode="&#xc6;" horiz-adv-x="747" d="M17 -87Q-5 -74 -11 -60T-17 -35Q-17 -7 3 41T58 150T135 278Q98 281 72 282T27 283H-8Q3 312 30 323T96 335Q113 335 131 333T168 328Q219 405 270 475T367 601T447 688T498 720Q538 720 583 718T671 712T750 704T807
697Q802 682 777 675T715 664T637 661Q610 661 584 661T534 663Q517 629 494 562T450 415Q519 414 571 406T658 392Q653 377 628 370T566 359T488 356Q471 356 459 356T435 357Q418 284 407 214T395 94Q395 82 396 72T398 53Q430 48 469 45T548 38T620 31T670 23Q665
8 640 1T578 -10T500 -13Q459 -13 420 -13T351 -9Q336 6 329 36T322 104Q322 136 326 174T339 253Q295 260 259 264T191 273Q144 186 100 94T17 -87ZM346 288Q361 354 381 421T423 550T466 657Q435 638 395 590T309 472T217 319Q251 312 284 304T346 288Z" />
<glyph unicode="&#xc7;" horiz-adv-x="534" d="M219 -87Q148 -87 105 -52T42 40T22 157Q22 236 46 316T111 468T206 597T317 686T433 719Q474 719 499 700T525 633Q525 604 515 568T488 498T451 442T409 420Q401 420 393 425T378 443Q393 460 411 485T447 539T474
595T485 644Q485 664 474 676T436 689Q393 689 347 654T257 561T178 430T123 283T102 140Q102 91 116 47T161 -25T243 -53Q296 -53 348 -23T445 56T515 162L529 152Q496 87 449 33T344 -54T219 -87ZM360 -211Q331 -211 315 -200T299 -175Q299 -167 304 -159T321
-142Q326 -166 338 -176T363 -187Q382 -187 401 -173T433 -138T446 -100Q446 -92 443 -84T429 -75Q416 -75 398 -85T365 -105T344 -116Q337 -116 334 -110T330 -98Q330 -96 338 -84T359 -56T383 -24T405 0H418L365 -81Q376 -73 392 -65T432 -57Q455 -57 466 -67T477
-99Q477 -127 461 -153T418 -195T360 -211Z" />
<glyph unicode="&#xc8;" horiz-adv-x="498" d="M180 -87Q120 -87 76 -62T9 4T-15 95Q-15 141 5 185T60 265T143 325T244 354Q205 386 187 428T168 512Q168 565 194 612T268 689T374 719Q430 719 459 691T488 611Q488 574 475 539T444 482T408 460Q397 460 387
469T371 492Q406 523 430 557T455 631Q455 662 437 679T384 696Q338 696 306 669T258 596T241 495Q241 459 252 417T299 344Q232 333 183 293T106 199T78 92Q78 59 90 26T131 -30T206 -53Q259 -53 311 -23T408 56T478 162L492 152Q457 84 410 30T305 -55T180 -87ZM420
748Q398 777 371 805T308 864Q310 882 316 888T330 895Q345 895 363 880T397 844T423 803T434 774Q434 770 431 761T420 748Z" />
<glyph unicode="&#xc9;" horiz-adv-x="498" d="M180 -87Q120 -87 76 -62T9 4T-15 95Q-15 141 5 185T60 265T143 325T244 354Q205 386 187 428T168 512Q168 565 194 612T268 689T374 719Q430 719 459 691T488 611Q488 574 475 539T444 482T408 460Q397 460 387
469T371 492Q406 523 430 557T455 631Q455 662 437 679T384 696Q338 696 306 669T258 596T241 495Q241 459 252 417T299 344Q232 333 183 293T106 199T78 92Q78 59 90 26T131 -30T206 -53Q259 -53 311 -23T408 56T478 162L492 152Q457 84 410 30T305 -55T180 -87ZM422
748Q415 752 412 761T408 774Q408 783 418 802T445 843T479 880T512 895Q520 895 526 889T534 864Q498 833 471 805T422 748Z" />
<glyph unicode="&#xca;" horiz-adv-x="498" d="M180 -87Q120 -87 76 -62T9 4T-15 95Q-15 141 5 185T60 265T143 325T244 354Q205 386 187 428T168 512Q168 565 194 612T268 689T374 719Q430 719 459 691T488 611Q488 574 475 539T444 482T408 460Q397 460 387
469T371 492Q406 523 430 557T455 631Q455 662 437 679T384 696Q338 696 306 669T258 596T241 495Q241 459 252 417T299 344Q232 333 183 293T106 199T78 92Q78 59 90 26T131 -30T206 -53Q259 -53 311 -23T408 56T478 162L492 152Q457 84 410 30T305 -55T180 -87ZM514
744Q500 773 482 793T440 836Q409 825 385 812T337 779Q331 783 329 788T327 798Q327 813 340 828T373 856T412 878T441 886Q453 886 468 875T498 847T521 810T531 775Q531 765 527 757T514 744Z" />
<glyph unicode="&#xcb;" horiz-adv-x="498" d="M180 -87Q120 -87 76 -62T9 4T-15 95Q-15 141 5 185T60 265T143 325T244 354Q205 386 187 428T168 512Q168 565 194 612T268 689T374 719Q430 719 459 691T488 611Q488 574 475 539T444 482T408 460Q397 460 387
469T371 492Q406 523 430 557T455 631Q455 662 437 679T384 696Q338 696 306 669T258 596T241 495Q241 459 252 417T299 344Q232 333 183 293T106 199T78 92Q78 59 90 26T131 -30T206 -53Q259 -53 311 -23T408 56T478 162L492 152Q457 84 410 30T305 -55T180 -87ZM496
753Q481 753 470 760T459 783Q459 802 481 816T525 830Q539 830 547 824T555 802Q555 785 537 769T496 753ZM352 774Q337 774 326 781T315 804Q315 823 337 837T381 851Q395 851 403 845T411 823Q411 806 393 790T352 774Z" />
<glyph unicode="&#xcc;" horiz-adv-x="459" d="M-38 -88Q-34 -51 -12 -35T47 -13T125 -8Q143 31 161 87T195 209T228 341T258 471T284 582T307 661Q255 660 219 658T151 652T82 641Q89 679 137 698T286 718Q336 718 387 714T482 706T548 697Q524 673 498 668T451
662Q420 662 393 662T342 661Q338 640 330 596T311 494T288 375T265 258T243 162Q227 98 207 54T159 -9Q211 -12 270 -19T376 -28Q347 -57 316 -64T263 -71Q223 -71 185 -71T109 -73T35 -77T-38 -88ZM346 748Q324 777 297 805T234 864Q236 882 242 888T256 895Q271
895 289 880T323 844T349 803T360 774Q360 770 357 761T346 748Z" />
<glyph unicode="&#xcd;" horiz-adv-x="459" d="M-38 -88Q-34 -51 -12 -35T47 -13T125 -8Q143 31 161 87T195 209T228 341T258 471T284 582T307 661Q255 660 219 658T151 652T82 641Q89 679 137 698T286 718Q336 718 387 714T482 706T548 697Q524 673 498 668T451
662Q420 662 393 662T342 661Q338 640 330 596T311 494T288 375T265 258T243 162Q227 98 207 54T159 -9Q211 -12 270 -19T376 -28Q347 -57 316 -64T263 -71Q223 -71 185 -71T109 -73T35 -77T-38 -88ZM348 748Q341 752 338 761T334 774Q334 783 344 802T371 843T405
880T438 895Q446 895 452 889T460 864Q424 833 397 805T348 748Z" />
<glyph unicode="&#xce;" horiz-adv-x="459" d="M-38 -88Q-34 -51 -12 -35T47 -13T125 -8Q143 31 161 87T195 209T228 341T258 471T284 582T307 661Q255 660 219 658T151 652T82 641Q89 679 137 698T286 718Q336 718 387 714T482 706T548 697Q524 673 498 668T451
662Q420 662 393 662T342 661Q338 640 330 596T311 494T288 375T265 258T243 162Q227 98 207 54T159 -9Q211 -12 270 -19T376 -28Q347 -57 316 -64T263 -71Q223 -71 185 -71T109 -73T35 -77T-38 -88ZM440 744Q426 773 408 793T366 836Q335 825 311 812T263 779Q257
783 255 788T253 798Q253 813 266 828T299 856T338 878T367 886Q379 886 394 875T424 847T447 810T457 775Q457 765 453 757T440 744Z" />
<glyph unicode="&#xcf;" horiz-adv-x="459" d="M-38 -88Q-34 -51 -12 -35T47 -13T125 -8Q143 31 161 87T195 209T228 341T258 471T284 582T307 661Q255 660 219 658T151 652T82 641Q89 679 137 698T286 718Q336 718 387 714T482 706T548 697Q524 673 498 668T451
662Q420 662 393 662T342 661Q338 640 330 596T311 494T288 375T265 258T243 162Q227 98 207 54T159 -9Q211 -12 270 -19T376 -28Q347 -57 316 -64T263 -71Q223 -71 185 -71T109 -73T35 -77T-38 -88ZM422 753Q407 753 396 760T385 783Q385 802 407 816T451 830Q465
830 473 824T481 802Q481 785 463 769T422 753ZM278 774Q263 774 252 781T241 804Q241 823 263 837T307 851Q321 851 329 845T337 823Q337 806 319 790T278 774Z" />
<glyph unicode="&#xd0;" horiz-adv-x="654" d="M164 -87Q133 -87 105 -79T57 -42Q71 28 95 115T145 284Q117 284 92 282T32 274Q40 297 74 307T157 321Q180 395 200 453T230 538Q233 546 240 561T257 593T280 620T308 632Q322 632 336 622Q308 558 280 481T225
323Q277 323 322 320T389 314Q364 296 336 291T286 285H213Q184 193 160 105T120 -57Q134 -59 143 -60T163 -61Q227 -61 286 -32T397 49T488 167T548 308T570 457Q570 579 513 636T365 693Q300 693 248 667T166 597T136 498Q136 486 137 477T141 461Q108 461 95
477T81 517Q81 552 105 587T173 653T274 701T395 720Q485 720 539 684T619 585T644 446Q644 359 617 280T543 134T434 18T304 -59T164 -87Z" />
<glyph unicode="&#xd1;" horiz-adv-x="640" d="M46 -87Q58 -39 76 20T119 160T179 354T258 619Q260 624 262 636T265 660Q265 670 262 676T250 683Q226 683 205 665T168 618T143 560T134 505Q134 485 139 470Q106 470 93 486T79 527Q79 561 99 595T150 657T215
703T279 720Q309 720 328 695T360 625T380 524T395 408Q401 358 407 309T419 215T430 133T439 72Q446 119 459 178T489 302T524 428T557 541T584 627T600 671Q605 684 623 702T663 720Q646 674 625 608T581 464T538 306T501 150T475 14T464 -87Q433 -87 414 -69T386
-6Q381 20 374 65T358 167T340 283T323 402T307 508T295 589Q247 416 213 297T156 102T114 -15T80 -71T46 -87ZM563 761Q536 761 507 772T449 795T388 807Q375 807 361 804T334 792Q354 820 376 831T421 842Q449 842 479 830T542 806T611 794Q627 794 645 802Q626
779 606 770T563 761Z" />
<glyph unicode="&#xd2;" horiz-adv-x="623" d="M213 -87Q156 -87 113 -57T46 30T21 161Q21 238 45 317T112 468T207 596T319 686T435 719Q454 719 469 716T495 707Q487 707 486 707T483 707Q431 707 378 673T277 580T191 449T131 298T109 147Q109 94 122 48T166
-25T243 -53Q299 -53 348 -19T436 75T504 206T548 356T564 505Q564 533 560 565T546 620T519 643Q501 643 480 621T440 564T405 494T384 429Q359 435 348 448T336 478Q336 505 354 537T401 600T461 650T517 670Q543 670 559 651T585 603T598 540T602 477Q602 368
578 279T512 121T419 7T315 -63T213 -87ZM512 748Q490 777 463 805T400 864Q402 882 408 888T422 895Q437 895 455 880T489 844T515 803T526 774Q526 770 523 761T512 748Z" />
<glyph unicode="&#xd3;" horiz-adv-x="623" d="M213 -87Q156 -87 113 -57T46 30T21 161Q21 238 45 317T112 468T207 596T319 686T435 719Q454 719 469 716T495 707Q487 707 486 707T483 707Q431 707 378 673T277 580T191 449T131 298T109 147Q109 94 122 48T166
-25T243 -53Q299 -53 348 -19T436 75T504 206T548 356T564 505Q564 533 560 565T546 620T519 643Q501 643 480 621T440 564T405 494T384 429Q359 435 348 448T336 478Q336 505 354 537T401 600T461 650T517 670Q543 670 559 651T585 603T598 540T602 477Q602 368
578 279T512 121T419 7T315 -63T213 -87ZM514 748Q507 752 504 761T500 774Q500 783 510 802T537 843T571 880T604 895Q612 895 618 889T626 864Q590 833 563 805T514 748Z" />
<glyph unicode="&#xd4;" horiz-adv-x="623" d="M213 -87Q156 -87 113 -57T46 30T21 161Q21 238 45 317T112 468T207 596T319 686T435 719Q454 719 469 716T495 707Q487 707 486 707T483 707Q431 707 378 673T277 580T191 449T131 298T109 147Q109 94 122 48T166
-25T243 -53Q299 -53 348 -19T436 75T504 206T548 356T564 505Q564 533 560 565T546 620T519 643Q501 643 480 621T440 564T405 494T384 429Q359 435 348 448T336 478Q336 505 354 537T401 600T461 650T517 670Q543 670 559 651T585 603T598 540T602 477Q602 368
578 279T512 121T419 7T315 -63T213 -87ZM606 744Q592 773 574 793T532 836Q501 825 477 812T429 779Q423 783 421 788T419 798Q419 813 432 828T465 856T504 878T533 886Q545 886 560 875T590 847T613 810T623 775Q623 765 619 757T606 744Z" />
<glyph unicode="&#xd5;" horiz-adv-x="623" d="M213 -87Q156 -87 113 -57T46 30T21 161Q21 238 45 317T112 468T207 596T319 686T435 719Q454 719 469 716T495 707Q487 707 486 707T483 707Q431 707 378 673T277 580T191 449T131 298T109 147Q109 94 122 48T166
-25T243 -53Q299 -53 348 -19T436 75T504 206T548 356T564 505Q564 533 560 565T546 620T519 643Q501 643 480 621T440 564T405 494T384 429Q359 435 348 448T336 478Q336 505 354 537T401 600T461 650T517 670Q543 670 559 651T585 603T598 540T602 477Q602 368
578 279T512 121T419 7T315 -63T213 -87ZM600 761Q573 761 544 772T486 795T425 807Q412 807 398 804T371 792Q391 820 413 831T458 842Q486 842 516 830T579 806T648 794Q664 794 682 802Q663 779 643 770T600 761Z" />
<glyph unicode="&#xd6;" horiz-adv-x="623" d="M213 -87Q156 -87 113 -57T46 30T21 161Q21 238 45 317T112 468T207 596T319 686T435 719Q454 719 469 716T495 707Q487 707 486 707T483 707Q431 707 378 673T277 580T191 449T131 298T109 147Q109 94 122 48T166
-25T243 -53Q299 -53 348 -19T436 75T504 206T548 356T564 505Q564 533 560 565T546 620T519 643Q501 643 480 621T440 564T405 494T384 429Q359 435 348 448T336 478Q336 505 354 537T401 600T461 650T517 670Q543 670 559 651T585 603T598 540T602 477Q602 368
578 279T512 121T419 7T315 -63T213 -87ZM588 753Q573 753 562 760T551 783Q551 802 573 816T617 830Q631 830 639 824T647 802Q647 785 629 769T588 753ZM444 774Q429 774 418 781T407 804Q407 823 429 837T473 851Q487 851 495 845T503 823Q503 806 485 790T444
774Z" />
<glyph unicode="&#xd7;" horiz-adv-x="377" d="M284 20Q267 34 232 66T151 139Q130 118 115 102T85 68T52 25Q48 33 48 43Q48 68 69 99T125 167Q94 200 75 229T56 282Q56 287 57 291T60 300Q85 266 104 244T151 193Q189 231 224 261T276 305Q272 275 256 251T224
212L179 166L232 113Q246 98 262 74T284 20Z" />
<glyph unicode="&#xd8;" horiz-adv-x="623" d="M46 -101Q42 -101 38 -101T30 -99Q42 -91 57 -76T92 -39Q58 -7 40 44T21 161Q21 238 45 317T112 468T207 596T319 686T435 719Q454 719 469 716T495 707H484Q432 707 379 673T278 580T191 449T131 298T109 147Q109
109 115 74T137 12Q177 61 221 122T312 251T402 383T484 507T550 608Q545 623 538 633T519 643Q501 643 480 621T440 564T405 494T384 429Q359 435 348 448T336 478Q336 505 354 537T401 600T461 650T517 670Q534 670 547 661T569 638Q580 651 603 661T648 671Q653
671 656 671T664 670Q657 660 639 633T594 566Q599 544 600 521T602 477Q602 368 578 279T512 121T419 7T315 -63T213 -87Q191 -87 171 -82T132 -68Q109 -84 87 -92T46 -101ZM243 -53Q299 -53 348 -18T436 76T504 209T548 364T564 521Q532 474 495 420T420 310T348
204T285 112T239 46Q223 23 207 4T174 -32Q188 -42 205 -47T243 -53Z" />
<glyph unicode="&#xd9;" horiz-adv-x="706" d="M541 -99Q504 -99 482 -68T460 7Q460 21 462 44T469 98Q432 16 379 -35T253 -87Q189 -87 156 -48T123 49Q123 88 135 141T167 256T204 381T235 501T248 604Q248 692 192 692Q165 692 145 675T112 630T93 573T86 519Q86
505 88 492T94 470Q56 470 41 490T25 539Q25 570 40 602T81 660T142 703T216 720Q271 720 295 687T319 599Q319 562 310 518T287 425T257 327Q234 254 215 186T196 65Q196 19 215 -14T280 -47Q321 -47 355 -21T415 48T459 137T487 224Q501 284 518 351T553 484T590
603T627 688T661 720Q669 720 683 712T711 688Q703 682 686 646T648 552T606 427T567 288T538 153T527 42Q527 -27 545 -51T607 -75Q588 -88 572 -93T541 -99ZM477 748Q455 777 428 805T365 864Q367 882 373 888T387 895Q402 895 420 880T454 844T480 803T491 774Q491
770 488 761T477 748Z" />
<glyph unicode="&#xda;" horiz-adv-x="706" d="M541 -99Q504 -99 482 -68T460 7Q460 21 462 44T469 98Q432 16 379 -35T253 -87Q189 -87 156 -48T123 49Q123 88 135 141T167 256T204 381T235 501T248 604Q248 692 192 692Q165 692 145 675T112 630T93 573T86 519Q86
505 88 492T94 470Q56 470 41 490T25 539Q25 570 40 602T81 660T142 703T216 720Q271 720 295 687T319 599Q319 562 310 518T287 425T257 327Q234 254 215 186T196 65Q196 19 215 -14T280 -47Q321 -47 355 -21T415 48T459 137T487 224Q501 284 518 351T553 484T590
603T627 688T661 720Q669 720 683 712T711 688Q703 682 686 646T648 552T606 427T567 288T538 153T527 42Q527 -27 545 -51T607 -75Q588 -88 572 -93T541 -99ZM479 748Q472 752 469 761T465 774Q465 783 475 802T502 843T536 880T569 895Q577 895 583 889T591 864Q555
833 528 805T479 748Z" />
<glyph unicode="&#xdb;" horiz-adv-x="706" d="M541 -99Q504 -99 482 -68T460 7Q460 21 462 44T469 98Q432 16 379 -35T253 -87Q189 -87 156 -48T123 49Q123 88 135 141T167 256T204 381T235 501T248 604Q248 692 192 692Q165 692 145 675T112 630T93 573T86 519Q86
505 88 492T94 470Q56 470 41 490T25 539Q25 570 40 602T81 660T142 703T216 720Q271 720 295 687T319 599Q319 562 310 518T287 425T257 327Q234 254 215 186T196 65Q196 19 215 -14T280 -47Q321 -47 355 -21T415 48T459 137T487 224Q501 284 518 351T553 484T590
603T627 688T661 720Q669 720 683 712T711 688Q703 682 686 646T648 552T606 427T567 288T538 153T527 42Q527 -27 545 -51T607 -75Q588 -88 572 -93T541 -99ZM571 744Q557 773 539 793T497 836Q466 825 442 812T394 779Q388 783 386 788T384 798Q384 813 397 828T430
856T469 878T498 886Q510 886 525 875T555 847T578 810T588 775Q588 765 584 757T571 744Z" />
<glyph unicode="&#xdc;" horiz-adv-x="706" d="M541 -99Q504 -99 482 -68T460 7Q460 21 462 44T469 98Q432 16 379 -35T253 -87Q189 -87 156 -48T123 49Q123 88 135 141T167 256T204 381T235 501T248 604Q248 692 192 692Q165 692 145 675T112 630T93 573T86 519Q86
505 88 492T94 470Q56 470 41 490T25 539Q25 570 40 602T81 660T142 703T216 720Q271 720 295 687T319 599Q319 562 310 518T287 425T257 327Q234 254 215 186T196 65Q196 19 215 -14T280 -47Q321 -47 355 -21T415 48T459 137T487 224Q501 284 518 351T553 484T590
603T627 688T661 720Q669 720 683 712T711 688Q703 682 686 646T648 552T606 427T567 288T538 153T527 42Q527 -27 545 -51T607 -75Q588 -88 572 -93T541 -99ZM553 753Q538 753 527 760T516 783Q516 802 538 816T582 830Q596 830 604 824T612 802Q612 785 594 769T553
753ZM409 774Q394 774 383 781T372 804Q372 823 394 837T438 851Q452 851 460 845T468 823Q468 806 450 790T409 774Z" />
<glyph unicode="&#xdd;" horiz-adv-x="666" d="M255 -187Q198 -187 158 -163T117 -93Q117 -67 131 -48T177 -18Q173 -33 171 -47T169 -72Q169 -113 191 -137T256 -162Q296 -162 327 -142T382 -90T421 -19T448 56T465 121Q473 155 483 209T507 326Q467 250 415
201T290 151Q231 151 206 184T181 270Q181 309 191 355T215 447T238 537T249 614Q249 646 237 669T192 692Q164 692 144 675T111 630T91 574T84 519Q84 505 86 492T92 470Q54 470 39 490T23 539Q23 570 38 602T79 660T140 703T214 720Q252 720 275 705T308 666T318
619Q318 591 308 550T284 462Q271 417 261 372T251 287Q251 244 267 218T321 191Q356 191 387 213T445 272T494 353T533 440Q546 494 560 544T590 634T621 697T653 720Q663 720 679 712T709 688Q688 655 673 626T645 561T617 479T586 362T544 194Q531 143 516 89T480
-14T428 -102T356 -164T255 -187ZM466 748Q459 752 456 761T452 774Q452 783 462 802T489 843T523 880T556 895Q564 895 570 889T578 864Q542 833 515 805T466 748Z" />
<glyph unicode="&#xde;" horiz-adv-x="508" d="M100 -87Q75 -87 53 -73T31 -37Q31 -26 36 -11T45 18Q88 152 133 286T232 555Q191 549 159 535T108 510T82 498Q78 498 71 502T57 513T51 525Q85 539 135 556T241 578Q249 596 257 619T276 664T300 701T330 716Q336
716 342 715T356 708Q342 680 328 648T300 579Q342 575 382 562T456 524T509 466T529 387Q529 329 501 289T429 224T335 184T241 163T168 156Q149 90 133 28T100 -87ZM173 175Q225 181 276 197T370 242T437 310T462 404Q462 456 439 489T376 539T292 558Q261 472
231 373T173 175Z" />
<glyph unicode="&#xdf;" horiz-adv-x="427" d="M-43 -115Q-32 -101 -23 -58T-5 47T15 182T42 331T78 476T127 601T193 688T280 720Q325 720 355 691T385 610Q385 554 358 511T291 433T214 371Q257 354 290 317T342 233T361 147Q361 107 345 66T302 -9T241 -65T173
-87Q150 -87 134 -68T111 -19T103 44Q103 74 110 101T130 146T164 163Q168 163 172 163T180 162Q170 157 162 134T149 80T144 19Q144 -16 151 -41T174 -67Q194 -67 214 -47T251 7T279 81T290 161Q290 216 269 267T212 346Q203 353 198 359T192 372Q192 380 198
388T216 406Q244 432 270 462T313 528T331 611Q331 631 326 650T309 681T272 693Q235 693 208 661T160 574T124 450T96 307T70 161T42 31T6 -67T-43 -115Z" />
<glyph unicode="&#xe0;" horiz-adv-x="436" d="M48 -47Q17 -47 -4 -27T-26 36Q-26 72 -10 113T34 195T97 269T172 323T251 343Q290 343 316 323T342 268Q342 243 329 234T293 225Q295 233 296 242T298 260Q298 283 287 299T249 316Q221 316 192 297T136 245T88
174T55 99T43 33Q43 -6 70 -6Q93 -6 120 15T175 70T230 140T276 206Q280 212 281 212Q287 211 296 208T313 200T320 187Q320 178 311 163T291 127T271 87T262 48Q262 33 270 19T296 4Q323 4 367 43T456 162L466 152Q445 98 412 57T342 -7T268 -30Q231 -30 214 -8T196
40Q196 46 197 53T199 69Q156 11 121 -18T48 -47ZM325 410Q303 439 276 467T213 526Q215 544 221 550T235 557Q250 557 268 542T302 506T328 465T339 436Q339 432 336 423T325 410Z" />
<glyph unicode="&#xe1;" horiz-adv-x="436" d="M48 -47Q17 -47 -4 -27T-26 36Q-26 72 -10 113T34 195T97 269T172 323T251 343Q290 343 316 323T342 268Q342 243 329 234T293 225Q295 233 296 242T298 260Q298 283 287 299T249 316Q221 316 192 297T136 245T88
174T55 99T43 33Q43 -6 70 -6Q93 -6 120 15T175 70T230 140T276 206Q280 212 281 212Q287 211 296 208T313 200T320 187Q320 178 311 163T291 127T271 87T262 48Q262 33 270 19T296 4Q323 4 367 43T456 162L466 152Q445 98 412 57T342 -7T268 -30Q231 -30 214 -8T196
40Q196 46 197 53T199 69Q156 11 121 -18T48 -47ZM294 410Q287 414 284 423T280 436Q280 445 290 464T317 505T351 542T384 557Q392 557 398 551T406 526Q370 495 343 467T294 410Z" />
<glyph unicode="&#xe2;" horiz-adv-x="436" d="M48 -47Q17 -47 -4 -27T-26 36Q-26 72 -10 113T34 195T97 269T172 323T251 343Q290 343 316 323T342 268Q342 243 329 234T293 225Q295 233 296 242T298 260Q298 283 287 299T249 316Q221 316 192 297T136 245T88
174T55 99T43 33Q43 -6 70 -6Q93 -6 120 15T175 70T230 140T276 206Q280 212 281 212Q287 211 296 208T313 200T320 187Q320 178 311 163T291 127T271 87T262 48Q262 33 270 19T296 4Q323 4 367 43T456 162L466 152Q445 98 412 57T342 -7T268 -30Q231 -30 214 -8T196
40Q196 46 197 53T199 69Q156 11 121 -18T48 -47ZM391 402Q377 431 359 451T317 494Q286 483 262 470T214 437Q208 441 206 446T204 456Q204 471 217 486T250 514T289 536T318 544Q330 544 345 533T375 505T398 468T408 433Q408 423 404 415T391 402Z" />
<glyph unicode="&#xe3;" horiz-adv-x="436" d="M48 -47Q17 -47 -4 -27T-26 36Q-26 72 -10 113T34 195T97 269T172 323T251 343Q290 343 316 323T342 268Q342 243 329 234T293 225Q295 233 296 242T298 260Q298 283 287 299T249 316Q221 316 192 297T136 245T88
174T55 99T43 33Q43 -6 70 -6Q93 -6 120 15T175 70T230 140T276 206Q280 212 281 212Q287 211 296 208T313 200T320 187Q320 178 311 163T291 127T271 87T262 48Q262 33 270 19T296 4Q323 4 367 43T456 162L466 152Q445 98 412 57T342 -7T268 -30Q231 -30 214 -8T196
40Q196 46 197 53T199 69Q156 11 121 -18T48 -47ZM389 402Q362 402 333 413T275 436T214 448Q201 448 187 445T160 433Q180 461 202 472T247 483Q275 483 305 471T368 447T437 435Q453 435 471 443Q452 420 432 411T389 402Z" />
<glyph unicode="&#xe4;" horiz-adv-x="436" d="M48 -47Q17 -47 -4 -27T-26 36Q-26 72 -10 113T34 195T97 269T172 323T251 343Q290 343 316 323T342 268Q342 243 329 234T293 225Q295 233 296 242T298 260Q298 283 287 299T249 316Q221 316 192 297T136 245T88
174T55 99T43 33Q43 -6 70 -6Q93 -6 120 15T175 70T230 140T276 206Q280 212 281 212Q287 211 296 208T313 200T320 187Q320 178 311 163T291 127T271 87T262 48Q262 33 270 19T296 4Q323 4 367 43T456 162L466 152Q445 98 412 57T342 -7T268 -30Q231 -30 214 -8T196
40Q196 46 197 53T199 69Q156 11 121 -18T48 -47ZM365 415Q350 415 339 422T328 445Q328 464 350 478T394 492Q408 492 416 486T424 464Q424 447 406 431T365 415ZM221 436Q206 436 195 443T184 466Q184 485 206 499T250 513Q264 513 272 507T280 485Q280 468 262
452T221 436Z" />
<glyph unicode="&#xe5;" horiz-adv-x="436" d="M48 -47Q17 -47 -4 -27T-26 36Q-26 72 -10 113T34 195T97 269T172 323T251 343Q290 343 316 323T342 268Q342 243 329 234T293 225Q295 233 296 242T298 260Q298 283 287 299T249 316Q221 316 192 297T136 245T88
174T55 99T43 33Q43 -6 70 -6Q93 -6 120 15T175 70T230 140T276 206Q280 212 281 212Q287 211 296 208T313 200T320 187Q320 178 311 163T291 127T271 87T262 48Q262 33 270 19T296 4Q323 4 367 43T456 162L466 152Q445 98 412 57T342 -7T268 -30Q231 -30 214 -8T196
40Q196 46 197 53T199 69Q156 11 121 -18T48 -47ZM298 397Q259 397 243 413T226 451Q226 475 242 501T286 545T348 563Q389 563 406 548T424 509Q424 485 407 459T361 415T298 397ZM307 417Q327 417 345 431T375 465T387 503Q387 517 377 528T343 540Q323 540 305
527T276 495T265 458Q265 445 275 431T307 417Z" />
<glyph unicode="&#xe6;" horiz-adv-x="543" d="M48 -47Q17 -47 -4 -27T-26 36Q-26 72 -10 113T34 195T97 269T172 323T251 343Q279 343 296 332T320 301Q351 328 384 344T451 360Q474 360 493 348T513 299Q513 261 491 228T432 168T352 126T265 105Q263 95 262
86T261 69Q261 38 277 12T340 -15Q383 -15 425 9T503 74T564 162L576 153Q549 93 508 49T418 -19T319 -44Q260 -44 230 -12T197 66Q154 10 119 -18T48 -47ZM70 -6Q97 -6 131 25T199 99Q206 144 232 192T296 278Q292 295 281 305T249 316Q221 316 192 297T136 245T88
174T55 99T43 33Q43 -6 70 -6ZM270 124Q297 133 331 150T396 192T448 245T469 306Q469 317 465 323T448 329Q424 329 397 311T345 262T300 196T270 124Z" />
<glyph unicode="&#xe7;" horiz-adv-x="323" d="M107 -56Q59 -56 27 -24T-5 72Q-5 122 14 169T66 255T137 315T214 338Q255 338 270 314T285 264Q285 235 272 213T235 191Q218 191 206 206Q221 214 232 238T243 285Q243 297 239 303T221 310Q194 310 166 286T113
224T73 144T57 65Q57 34 72 8T130 -18Q170 -18 210 4T286 67T342 163L355 153Q332 93 292 46T204 -29T107 -56ZM188 -211Q159 -211 143 -200T127 -175Q127 -167 132 -159T149 -142Q154 -166 166 -176T191 -187Q210 -187 229 -173T261 -138T274 -100Q274 -92 271
-84T257 -75Q244 -75 226 -85T193 -105T172 -116Q165 -116 162 -110T158 -98Q158 -96 166 -84T187 -56T211 -24T233 0H246L193 -81Q204 -73 220 -65T260 -57Q283 -57 294 -67T305 -99Q305 -127 289 -153T246 -195T188 -211Z" />
<glyph unicode="&#xe8;" horiz-adv-x="333" d="M108 -44Q47 -44 17 -11T-14 72Q-14 117 8 167T68 261T151 332T240 360Q263 360 282 348T302 299Q302 261 280 228T221 168T141 126T54 105Q52 95 51 86T50 69Q50 54 53 39T66 12T90 -8T129 -15Q172 -15 214 9T292
74T353 162L365 153Q338 93 297 49T207 -19T108 -44ZM59 124Q86 133 120 150T185 192T237 245T258 306Q258 317 254 323T237 329Q213 329 186 311T134 262T89 196T59 124ZM294 418Q272 447 245 475T182 534Q184 552 190 558T204 565Q219 565 237 550T271 514T297
473T308 444Q308 440 305 431T294 418Z" />
<glyph unicode="&#xe9;" horiz-adv-x="333" d="M108 -44Q47 -44 17 -11T-14 72Q-14 117 8 167T68 261T151 332T240 360Q263 360 282 348T302 299Q302 261 280 228T221 168T141 126T54 105Q52 95 51 86T50 69Q50 54 53 39T66 12T90 -8T129 -15Q172 -15 214 9T292
74T353 162L365 153Q338 93 297 49T207 -19T108 -44ZM59 124Q86 133 120 150T185 192T237 245T258 306Q258 317 254 323T237 329Q213 329 186 311T134 262T89 196T59 124ZM263 418Q256 422 253 431T249 444Q249 453 259 472T286 513T320 550T353 565Q361 565 367
559T375 534Q339 503 312 475T263 418Z" />
<glyph unicode="&#xea;" horiz-adv-x="333" d="M108 -44Q47 -44 17 -11T-14 72Q-14 117 8 167T68 261T151 332T240 360Q263 360 282 348T302 299Q302 261 280 228T221 168T141 126T54 105Q52 95 51 86T50 69Q50 54 53 39T66 12T90 -8T129 -15Q172 -15 214 9T292
74T353 162L365 153Q338 93 297 49T207 -19T108 -44ZM59 124Q86 133 120 150T185 192T237 245T258 306Q258 317 254 323T237 329Q213 329 186 311T134 262T89 196T59 124ZM360 410Q346 439 328 459T286 502Q255 491 231 478T183 445Q177 449 175 454T173 464Q173
479 186 494T219 522T258 544T287 552Q299 552 314 541T344 513T367 476T377 441Q377 431 373 423T360 410Z" />
<glyph unicode="&#xeb;" horiz-adv-x="333" d="M108 -44Q47 -44 17 -11T-14 72Q-14 117 8 167T68 261T151 332T240 360Q263 360 282 348T302 299Q302 261 280 228T221 168T141 126T54 105Q52 95 51 86T50 69Q50 54 53 39T66 12T90 -8T129 -15Q172 -15 214 9T292
74T353 162L365 153Q338 93 297 49T207 -19T108 -44ZM59 124Q86 133 120 150T185 192T237 245T258 306Q258 317 254 323T237 329Q213 329 186 311T134 262T89 196T59 124ZM334 423Q319 423 308 430T297 453Q297 472 319 486T363 500Q377 500 385 494T393 472Q393
455 375 439T334 423ZM190 444Q175 444 164 451T153 474Q153 493 175 507T219 521Q233 521 241 515T249 493Q249 476 231 460T190 444Z" />
<glyph unicode="&#xec;" horiz-adv-x="241" d="M72 -26Q33 -26 14 -2T-5 58Q-5 81 3 116T26 189T58 262T98 317T139 339Q148 339 154 334T161 317Q161 305 146 278T109 216T73 143T57 69Q57 33 69 21T106 9Q140 9 178 43T260 162L269 152Q240 66 186 20T72 -26ZM202
411Q180 440 153 468T90 527Q92 545 98 551T112 558Q127 558 145 543T179 507T205 466T216 437Q216 433 213 424T202 411Z" />
<glyph unicode="&#xed;" horiz-adv-x="241" d="M72 -26Q33 -26 14 -2T-5 58Q-5 81 3 116T26 189T58 262T98 317T139 339Q148 339 154 334T161 317Q161 305 146 278T109 216T73 143T57 69Q57 33 69 21T106 9Q140 9 178 43T260 162L269 152Q240 66 186 20T72 -26ZM178
411Q171 415 168 424T164 437Q164 446 174 465T201 506T235 543T268 558Q276 558 282 552T290 527Q254 496 227 468T178 411Z" />
<glyph unicode="&#xee;" horiz-adv-x="240" d="M72 -26Q33 -26 14 -2T-5 58Q-5 81 3 116T26 189T58 262T98 317T139 339Q148 339 154 334T161 317Q161 305 146 278T109 216T73 143T57 69Q57 33 69 21T106 9Q140 9 178 43T260 162L269 152Q240 66 186 20T72 -26ZM286
403Q272 432 254 452T212 495Q181 484 157 471T109 438Q103 442 101 447T99 457Q99 472 112 487T145 515T184 537T213 545Q225 545 240 534T270 506T293 469T303 434Q303 424 299 416T286 403Z" />
<glyph unicode="&#xef;" horiz-adv-x="242" d="M72 -26Q33 -26 14 -2T-5 58Q-5 81 3 116T26 189T58 262T98 317T139 339Q148 339 154 334T161 317Q161 305 146 278T109 216T73 143T57 69Q57 33 69 21T106 9Q140 9 178 43T260 162L269 152Q240 66 186 20T72 -26ZM241
416Q226 416 215 423T204 446Q204 465 226 479T270 493Q284 493 292 487T300 465Q300 448 282 432T241 416ZM97 437Q82 437 71 444T60 467Q60 486 82 500T126 514Q140 514 148 508T156 486Q156 469 138 453T97 437Z" />
<glyph unicode="&#xf0;" horiz-adv-x="473" d="M59 -30Q34 -30 9 -10T-16 54Q-16 87 0 128T43 209T105 284T178 339T253 360Q274 360 285 353T297 329Q297 325 297 322T295 315Q285 330 257 330Q225 330 195 311T139 260T94 192T65 123T54 66Q54 44 64 31T90 18Q112
18 140 39T199 99T257 187T307 293Q322 332 337 384T352 489Q352 500 351 510T348 532Q334 530 312 526T269 518T233 509Q233 529 248 540T288 556T341 566Q331 602 310 636T254 700Q269 719 293 719Q324 719 347 698T386 644T412 574Q435 576 463 579T503 586Q493
569 482 561T456 549T418 542Q420 529 421 518T422 495Q422 444 405 385T366 266T327 152T310 57Q310 37 316 26T338 14Q359 14 387 32T443 83T492 162L504 153Q485 102 452 62T382 -2T310 -26Q273 -26 259 -2T244 49Q244 66 249 94T263 156Q231 103 195 61T125
-6T59 -30Z" />
<glyph unicode="&#xf1;" horiz-adv-x="466" d="M323 -20Q288 -20 271 -2T253 44Q253 65 260 88T275 135T282 183Q282 211 271 221T242 232Q211 232 179 207T117 142T61 60T15 -15Q-1 -15 -15 -10T-38 7Q-38 12 -28 38T-3 102T22 180T33 253Q39 260 52 267T79 274Q106
274 106 248Q106 232 97 195T74 116Q101 157 134 197T206 265T282 292Q321 292 338 264T356 202Q356 171 346 145T326 94T315 44Q315 23 323 15T345 6Q370 6 395 29T443 89T485 162L496 149Q475 100 449 62T392 2T323 -20ZM354 356Q327 356 298 367T240 390T179
402Q166 402 152 399T125 387Q145 415 167 426T212 437Q240 437 270 425T333 401T402 389Q418 389 436 397Q417 374 397 365T354 356Z" />
<glyph unicode="&#xf2;" horiz-adv-x="365" d="M69 -32Q26 -32 8 -6T-10 59Q-10 90 0 123T26 185T63 232T105 250Q110 250 115 249T126 245Q117 237 105 216T81 167T63 112T55 66Q55 36 65 23T91 9Q112 9 141 31T198 89Q170 112 155 149T139 226Q139 259 150 288T184
334T237 352Q278 352 292 330T306 275Q306 236 287 189T239 97Q257 87 277 87Q293 87 313 93T352 116T384 159L396 149Q376 102 340 83T270 63Q257 63 245 65T222 73Q188 28 148 -2T69 -32ZM216 115Q241 152 257 192T274 269Q274 298 266 311T244 325Q224 325 203
296T182 223Q182 194 190 165T216 115ZM302 424Q280 453 253 481T190 540Q192 558 198 564T212 571Q227 571 245 556T279 520T305 479T316 450Q316 446 313 437T302 424Z" />
<glyph unicode="&#xf3;" horiz-adv-x="365" d="M69 -32Q26 -32 8 -6T-10 59Q-10 90 0 123T26 185T63 232T105 250Q110 250 115 249T126 245Q117 237 105 216T81 167T63 112T55 66Q55 36 65 23T91 9Q112 9 141 31T198 89Q170 112 155 149T139 226Q139 259 150 288T184
334T237 352Q278 352 292 330T306 275Q306 236 287 189T239 97Q257 87 277 87Q293 87 313 93T352 116T384 159L396 149Q376 102 340 83T270 63Q257 63 245 65T222 73Q188 28 148 -2T69 -32ZM216 115Q241 152 257 192T274 269Q274 298 266 311T244 325Q224 325 203
296T182 223Q182 194 190 165T216 115ZM271 424Q264 428 261 437T257 450Q257 459 267 478T294 519T328 556T361 571Q369 571 375 565T383 540Q347 509 320 481T271 424Z" />
<glyph unicode="&#xf4;" horiz-adv-x="365" d="M69 -32Q26 -32 8 -6T-10 59Q-10 90 0 123T26 185T63 232T105 250Q110 250 115 249T126 245Q117 237 105 216T81 167T63 112T55 66Q55 36 65 23T91 9Q112 9 141 31T198 89Q170 112 155 149T139 226Q139 259 150 288T184
334T237 352Q278 352 292 330T306 275Q306 236 287 189T239 97Q257 87 277 87Q293 87 313 93T352 116T384 159L396 149Q376 102 340 83T270 63Q257 63 245 65T222 73Q188 28 148 -2T69 -32ZM216 115Q241 152 257 192T274 269Q274 298 266 311T244 325Q224 325 203
296T182 223Q182 194 190 165T216 115ZM368 416Q354 445 336 465T294 508Q263 497 239 484T191 451Q185 455 183 460T181 470Q181 485 194 500T227 528T266 550T295 558Q307 558 322 547T352 519T375 482T385 447Q385 437 381 429T368 416Z" />
<glyph unicode="&#xf5;" horiz-adv-x="365" d="M69 -32Q26 -32 8 -6T-10 59Q-10 90 0 123T26 185T63 232T105 250Q110 250 115 249T126 245Q117 237 105 216T81 167T63 112T55 66Q55 36 65 23T91 9Q112 9 141 31T198 89Q170 112 155 149T139 226Q139 259 150 288T184
334T237 352Q278 352 292 330T306 275Q306 236 287 189T239 97Q257 87 277 87Q293 87 313 93T352 116T384 159L396 149Q376 102 340 83T270 63Q257 63 245 65T222 73Q188 28 148 -2T69 -32ZM216 115Q241 152 257 192T274 269Q274 298 266 311T244 325Q224 325 203
296T182 223Q182 194 190 165T216 115ZM366 416Q339 416 310 427T252 450T191 462Q178 462 164 459T137 447Q157 475 179 486T224 497Q252 497 282 485T345 461T414 449Q430 449 448 457Q429 434 409 425T366 416Z" />
<glyph unicode="&#xf6;" horiz-adv-x="369" d="M69 -32Q26 -32 8 -6T-10 59Q-10 90 0 123T26 185T63 232T105 250Q110 250 115 249T126 245Q117 237 105 216T81 167T63 112T55 66Q55 36 65 23T91 9Q112 9 141 31T198 89Q170 112 155 149T139 226Q139 259 150 288T184
334T237 352Q278 352 292 330T306 275Q306 236 287 189T239 97Q257 87 277 87Q293 87 313 93T352 116T384 159L396 149Q376 102 340 83T270 63Q257 63 245 65T222 73Q188 28 148 -2T69 -32ZM216 115Q241 152 257 192T274 269Q274 298 266 311T244 325Q224 325 203
296T182 223Q182 194 190 165T216 115ZM341 414Q326 414 315 421T304 444Q304 463 326 477T370 491Q384 491 392 485T400 463Q400 446 382 430T341 414ZM197 435Q182 435 171 442T160 465Q160 484 182 498T226 512Q240 512 248 506T256 484Q256 467 238 451T197
435Z" />
<glyph unicode="&#xf7;" horiz-adv-x="460" d="M25 124Q33 144 59 154T126 169T214 173Q250 173 283 172T342 168T382 164Q367 154 347 148T294 138T206 135Q163 135 119 134T25 124ZM171 -10Q158 -10 149 -4T139 17Q139 34 158 46T197 58Q209 58 216 53T223 34Q223
19 207 5T171 -10ZM231 240Q218 240 209 246T199 267Q199 284 218 296T257 308Q269 308 276 303T283 284Q283 269 267 255T231 240Z" />
<glyph unicode="&#xf8;" horiz-adv-x="363" d="M69 -32Q48 -32 32 -24Q10 -43 -11 -53T-52 -64Q-55 -64 -58 -64T-65 -63Q-51 -55 -33 -40T6 -2Q-2 10 -6 25T-10 59Q-10 90 0 123T26 185T63 232T105 250Q110 250 115 249T126 245Q116 236 104 215T80 165T61 107T55
55Q84 90 110 124T146 174Q142 187 141 200T139 226Q139 259 150 288T184 334T237 352Q252 352 262 349Q265 354 268 360T276 372Q280 378 294 382T321 387Q324 387 327 387T334 386Q334 386 323 369T295 325Q306 307 306 275Q306 236 287 189T239 97Q257 87 277
87Q300 87 333 102T384 159L396 149Q376 102 340 83T270 63Q257 63 245 65T222 73Q188 28 148 -2T69 -32ZM198 89Q188 97 180 107T165 128Q145 99 122 70T73 14Q81 9 91 9Q112 9 141 31T198 89ZM216 115Q245 158 262 206T272 290Q250 256 227 221T190 164Q195 151
201 138T216 115ZM246 325Q245 325 245 325T244 325Q231 325 217 312T192 276T182 226Q197 249 213 273T246 325Z" />
<glyph unicode="&#xf9;" horiz-adv-x="438" d="M75 -30Q41 -30 21 0T0 71Q0 100 9 138T33 213T62 274T88 298Q93 298 105 293T125 278Q114 261 98 226T70 151T58 77Q58 69 60 53T70 23T94 10Q113 10 133 29T173 80T213 147T248 216T276 271Q282 270 293 267T314
259T324 245Q324 241 314 219T291 164T267 98T257 40Q257 22 264 11T290 0Q311 0 341 19T402 74T457 162L470 153Q449 99 415 58T343 -7T269 -30Q243 -30 228 -20T206 7T199 44Q199 56 201 68T206 94Q188 61 167 33T123 -13T75 -30ZM255 370Q233 399 206 427T143
486Q145 504 151 510T165 517Q180 517 198 502T232 466T258 425T269 396Q269 392 266 383T255 370Z" />
<glyph unicode="&#xfa;" horiz-adv-x="438" d="M75 -30Q41 -30 21 0T0 71Q0 100 9 138T33 213T62 274T88 298Q93 298 105 293T125 278Q114 261 98 226T70 151T58 77Q58 69 60 53T70 23T94 10Q113 10 133 29T173 80T213 147T248 216T276 271Q282 270 293 267T314
259T324 245Q324 241 314 219T291 164T267 98T257 40Q257 22 264 11T290 0Q311 0 341 19T402 74T457 162L470 153Q449 99 415 58T343 -7T269 -30Q243 -30 228 -20T206 7T199 44Q199 56 201 68T206 94Q188 61 167 33T123 -13T75 -30ZM224 370Q217 374 214 383T210
396Q210 405 220 424T247 465T281 502T314 517Q322 517 328 511T336 486Q300 455 273 427T224 370Z" />
<glyph unicode="&#xfb;" horiz-adv-x="438" d="M75 -30Q41 -30 21 0T0 71Q0 100 9 138T33 213T62 274T88 298Q93 298 105 293T125 278Q114 261 98 226T70 151T58 77Q58 69 60 53T70 23T94 10Q113 10 133 29T173 80T213 147T248 216T276 271Q282 270 293 267T314
259T324 245Q324 241 314 219T291 164T267 98T257 40Q257 22 264 11T290 0Q311 0 341 19T402 74T457 162L470 153Q449 99 415 58T343 -7T269 -30Q243 -30 228 -20T206 7T199 44Q199 56 201 68T206 94Q188 61 167 33T123 -13T75 -30ZM321 362Q307 391 289 411T247
454Q216 443 192 430T144 397Q138 401 136 406T134 416Q134 431 147 446T180 474T219 496T248 504Q260 504 275 493T305 465T328 428T338 393Q338 383 334 375T321 362Z" />
<glyph unicode="&#xfc;" horiz-adv-x="438" d="M75 -30Q41 -30 21 0T0 71Q0 100 9 138T33 213T62 274T88 298Q93 298 105 293T125 278Q114 261 98 226T70 151T58 77Q58 69 60 53T70 23T94 10Q113 10 133 29T173 80T213 147T248 216T276 271Q282 270 293 267T314
259T324 245Q324 241 314 219T291 164T267 98T257 40Q257 22 264 11T290 0Q311 0 341 19T402 74T457 162L470 153Q449 99 415 58T343 -7T269 -30Q243 -30 228 -20T206 7T199 44Q199 56 201 68T206 94Q188 61 167 33T123 -13T75 -30ZM295 375Q280 375 269 382T258
405Q258 424 280 438T324 452Q338 452 346 446T354 424Q354 407 336 391T295 375ZM151 396Q136 396 125 403T114 426Q114 445 136 459T180 473Q194 473 202 467T210 445Q210 428 192 412T151 396Z" />
<glyph unicode="&#xfd;" horiz-adv-x="389" d="M43 -280Q18 -280 -1 -267T-20 -227Q-20 -195 -4 -170T39 -124T101 -84T174 -46Q188 -9 202 36T230 137Q198 85 162 48T84 10Q65 10 47 18T16 45T4 91Q4 119 13 156T37 228T66 286T92 309Q96 309 106 306T126 298T136
286Q127 273 116 249T95 196T77 138T70 90Q70 72 78 61T106 50Q125 50 148 68T195 116T239 178Q242 189 244 200T249 224Q252 238 263 256T300 275Q305 275 310 275T321 272Q321 256 312 213T285 111T243 -8Q290 10 335 51T408 162L421 152Q406 104 376 69T307
8T232 -35Q206 -99 176 -155T112 -245T43 -280ZM38 -248Q53 -248 88 -209T164 -70Q123 -92 88 -113T32 -160T11 -218Q11 -226 17 -237T38 -248ZM225 381Q218 385 215 394T211 407Q211 416 221 435T248 476T282 513T315 528Q323 528 329 522T337 497Q301 466 274
438T225 381Z" />
<glyph unicode="&#xfe;" horiz-adv-x="391" d="M-63 -280Q-71 -280 -78 -272T-90 -254T-94 -242Q-76 -180 -56 -112T-15 43T26 243T64 506Q65 515 68 519T83 523Q109 523 120 509T131 477Q131 471 128 447T119 387T108 315T96 245T86 192Q103 225 128 259T187
316T259 339Q303 339 331 308T360 225Q360 186 343 143T294 61T219 -2T124 -26Q98 -26 82 -20T66 -8Q66 -4 73 -4T91 -3Q131 -3 167 16T233 68T278 139T295 216Q295 248 282 270T238 293Q212 293 187 277T139 235T99 182T72 132Q54 57 36 -12T2 -138T-28 -231T-51
-275Q-56 -280 -63 -280Z" />
<glyph unicode="&#xff;" horiz-adv-x="389" d="M43 -280Q18 -280 -1 -267T-20 -227Q-20 -195 -4 -170T39 -124T101 -84T174 -46Q188 -9 202 36T230 137Q198 85 162 48T84 10Q65 10 47 18T16 45T4 91Q4 119 13 156T37 228T66 286T92 309Q96 309 106 306T126 298T136
286Q127 273 116 249T95 196T77 138T70 90Q70 72 78 61T106 50Q125 50 148 68T195 116T239 178Q242 189 244 200T249 224Q252 238 263 256T300 275Q305 275 310 275T321 272Q321 256 312 213T285 111T243 -8Q290 10 335 51T408 162L421 152Q406 104 376 69T307
8T232 -35Q206 -99 176 -155T112 -245T43 -280ZM38 -248Q53 -248 88 -209T164 -70Q123 -92 88 -113T32 -160T11 -218Q11 -226 17 -237T38 -248ZM296 386Q281 386 270 393T259 416Q259 435 281 449T325 463Q339 463 347 457T355 435Q355 418 337 402T296 386ZM152
407Q137 407 126 414T115 437Q115 456 137 470T181 484Q195 484 203 478T211 456Q211 439 193 423T152 407Z" />
<glyph unicode="&#x2013;" horiz-adv-x="677" d="M25 114Q28 148 65 165T165 189T307 196Q366 196 406 194T478 188T540 181T614 178Q581 150 545 142T483 133Q425 133 380 133T301 132T239 132T191 131Q160 130 136 128T86 123T25 114Z" />
<glyph unicode="&#x2014;" horiz-adv-x="838" d="M35 114Q39 148 85 165T209 189T387 196Q461 196 511 194T601 188T679 181T771 178Q730 150 685 142T608 133Q520 133 455 133T344 132T261 131Q227 131 201 130T150 127T98 122T35 114Z" />
<glyph unicode="&#x2018;" horiz-adv-x="144" d="M195 576Q183 595 167 617T138 659T126 692Q126 703 133 711T151 720Q156 702 171 679T200 636T214 604Q214 595 209 588T195 576Z" />
<glyph unicode="&#x2019;" horiz-adv-x="125" d="M143 576Q136 581 130 588T124 604Q124 617 138 637T167 680T187 720Q197 720 204 712T212 692Q212 679 200 659T172 617T143 576Z" />
<glyph unicode="&#x201a;" horiz-adv-x="196" d="M7 -88Q-2 -83 -6 -73T-10 -51Q-10 -31 -1 -6T22 38T51 56Q61 56 68 48T76 28Q48 -1 35 -30T7 -88Z" />
<glyph unicode="&#x201c;" horiz-adv-x="254" d="M305 576Q293 595 277 617T249 659T236 692Q236 703 243 711T261 720Q266 702 281 680T310 637T324 604Q324 595 319 588T305 576ZM195 576Q183 595 167 617T138 659T126 692Q126 703 133 711T151 720Q156 702
171 680T200 637T214 604Q214 595 209 588T195 576Z" />
<glyph unicode="&#x201d;" horiz-adv-x="235" d="M253 576Q246 581 240 588T234 604Q234 617 248 637T277 679T297 720Q307 720 314 712T322 692Q322 679 310 659T282 617T253 576ZM143 576Q136 581 130 588T124 604Q124 617 138 637T167 679T187 720Q197 720
204 712T212 692Q212 679 200 659T172 617T143 576Z" />
<glyph unicode="&#x201e;" horiz-adv-x="306" d="M117 -88Q108 -83 104 -73T100 -51Q100 -31 109 -6T132 38T161 56Q171 56 178 48T186 28Q158 -1 145 -30T117 -88ZM7 -88Q-2 -83 -6 -73T-10 -51Q-10 -31 -1 -6T22 38T51 56Q61 56 68 48T76 28Q48 -1 35 -30T7 -88Z" />
<glyph unicode="&#x2022;" horiz-adv-x="242" d="M85 118Q67 118 54 127T40 156Q40 172 50 187T76 213T110 224Q127 224 142 212T158 180Q158 166 148 152T120 128T85 118Z" />
<glyph unicode="&#x2039;" horiz-adv-x="285" d="M165 44Q147 44 122 56T71 86T28 123T6 158Q39 173 75 199T143 256T196 316Q198 314 199 307T201 294Q201 274 185 254T142 214T87 177T32 147Q54 131 73 118T121 92T194 60Q190 55 183 50T165 44Z" />
<glyph unicode="&#x203a;" horiz-adv-x="304" d="M87 44Q77 44 70 49T58 60Q104 78 131 91T178 117T220 147Q195 160 166 177T110 213T68 253T51 294Q51 299 53 306T56 316Q77 287 109 256T177 199T246 158Q242 143 224 124T181 86T131 56T87 44Z" />
</font>
</defs>
</svg>
